<?xml version="1.0" encoding="UTF-8"?>
<svg id="Layer_6" data-name="Layer 6" xmlns="http://www.w3.org/2000/svg" viewBox="0 0 1587 727">
  <defs>
    <style>
      .cls-1 {
        stroke: #009245;
      }

      .cls-1, .cls-2 {
        fill: none;
        stroke-miterlimit: 10;
      }

      .cls-3 {
        fill: #009245;
      }

      .cls-3, .cls-4, .cls-5, .cls-6, .cls-7 {
        stroke-width: 0px;
      }

      .cls-4 {
        fill: #47a052;
      }

      .cls-5 {
        fill: #3e8945;
      }

      .cls-6 {
        fill: #5da03f;
      }

      .cls-2 {
        stroke: #66a534;
      }

      .cls-7 {
        fill: #f47a16;
      }
    </style>
  </defs>
  <g>
    <g>
      <g>
        <path class="cls-4" d="m1268.55,323.09l-255.04,2.73c-48.63-34.55,8.93-64.55,8.93-64.55-21.83-52.73,44.66-40.91,44.66-40.91,6.95-49.1,28.78-11.82,28.78-11.82,3.97-73.65,54.58-4.55,54.58-4.55,33.74-107.29,68.47,2.73,68.47,2.73,69.47-45.46,78.51-1.75,78.51-1.75,66.37-8.25,0,50.5,0,50.5,67.36-5.11,61.41,25.81,61.41,25.81,50.61,23.64,19.93,39.52,19.93,39.52l-110.23,2.3Z"/>
        <path class="cls-5" d="m1059.12,325.33s-54.53,3.22-36.67-39.52c17.86-42.73,39.69-13.64,39.69-13.64-31.76-70.92,22.82-41.82,22.82-41.82,32.75-40.91,58.09-5.91,58.09-5.91,36.19-32.28,37.56-13.94,37.56-13.94,46.26-9.24,48.24,4.4,48.24,4.4,60.53-13.64,37.71,23.64,37.71,23.64,86.34-19.09,30.88,41.48,30.88,41.48,58.43,3.07,49.5,26.71,49.5,26.71,3.97,19.09-30.95,15.37-30.95,15.37l-256.88,3.23Z"/>
        <path class="cls-6" d="m1088.45,324.97s-30.28,5.4-30.28-14.6-.49-55.65,15.14-41.47c15.62,14.19,17.61,16.01,17.61,16.01,30.76-51.83,28.78-7.27,28.78-7.27,51.6-71.83,40.69-2.73,40.69-2.73,50.61-46.37,30.61,17.16,30.61,17.16,41.83.12,14.26,31.43,14.26,31.43l-116.81,1.47Z"/>
      </g>
      <path class="cls-3" d="m1211.25,355.5c1.93,0,1.93-3,0-3s-1.93,3,0,3h0Z"/>
      <path class="cls-1" d="m1142.42,300.93h1.69s8.82-6.37,5.31-14.62-24.52,8.25-24.52,8.25c0,0,.88-11.24-16.23-9.25-17.1,2,2.02,15.62,2.02,15.62,0,0-.9-.56-2.39-1.26-4.33-2.02-13.59-5.16-19.88,1.26-8.45,8.62,13.71,13.12,13.71,13.12"/>
      <path class="cls-2" d="m1255.08,267.4l1.59,1.18s13.63.93,17.25-8.32c3.62-9.25-29.95-10.39-29.95-10.39,0,0,10.25-8.65-7.49-18.99-17.74-10.34-11.2,14.29-11.2,14.29,0,0-.38-1.1-1.19-2.71-2.37-4.7-8.44-13.77-19.73-12.9-15.17,1.18,1.88,20.42,1.88,20.42"/>
    </g>
    <ellipse class="cls-7" cx="1258.06" cy="284.66" rx="5.12" ry="4.04"/>
    <ellipse class="cls-7" cx="1235.71" cy="300.8" rx="5.12" ry="4.04"/>
    <ellipse class="cls-7" cx="1099.72" cy="241.36" rx="5.12" ry="4.04"/>
    <ellipse class="cls-7" cx="1297.18" cy="306.67" rx="5.12" ry="4.04"/>
    <ellipse class="cls-7" cx="1247.82" cy="221.55" rx="5.12" ry="4.04"/>
  </g>
  <g>
    <g>
      <g>
        <path class="cls-4" d="m1048.4,682.88l-373.8,4.37c-71.27-55.31,13.09-103.34,13.09-103.34-32-84.42,65.45-65.49,65.45-65.49,10.18-78.59,42.18-18.92,42.18-18.92,5.82-117.89,80-7.28,80-7.28,49.45-171.74,100.36,4.37,100.36,4.37,101.81-72.77,115.08-2.8,115.08-2.8,97.28-13.21,0,80.84,0,80.84,98.73-8.18,90,41.31,90,41.31,74.18,37.84,29.2,63.26,29.2,63.26l-161.56,3.69Z"/>
        <path class="cls-5" d="m741.44,686.46s-79.93,5.15-53.75-63.26c26.18-68.41,58.18-21.83,58.18-21.83-46.54-113.52,33.45-66.95,33.45-66.95,48-65.49,85.14-9.46,85.14-9.46,53.04-51.67,55.06-22.32,55.06-22.32,67.8-14.79,70.7,7.04,70.7,7.04,88.72-21.83,55.27,37.84,55.27,37.84,126.54-30.56,45.26,66.4,45.26,66.4,85.64,4.91,72.55,42.75,72.55,42.75,5.82,30.56-45.36,24.61-45.36,24.61l-376.5,5.17Z"/>
        <path class="cls-6" d="m784.43,685.87s-44.38,8.65-44.38-23.37-.71-89.09,22.19-66.38c22.9,22.71,25.81,25.62,25.81,25.62,45.09-82.96,42.18-11.64,42.18-11.64,75.63-114.98,59.63-4.37,59.63-4.37,74.18-74.23,44.87,27.47,44.87,27.47,61.31.19,20.91,50.31,20.91,50.31l-171.21,2.35Z"/>
      </g>
      <path class="cls-1" d="m863.53,647.4h2.47s12.92-10.2,7.79-23.4c-5.13-13.2-35.93,13.2-35.93,13.2,0,0,1.28-18-23.78-14.81-25.07,3.19,2.97,25,2.97,25,0,0-1.32-.9-3.5-2.01-6.34-3.24-19.92-8.26-29.14,2.01-12.39,13.8,20.09,21,20.09,21"/>
      <path class="cls-2" d="m1028.66,593.72l2.32,1.89s19.97,1.49,25.28-13.32c5.31-14.8-43.9-16.63-43.9-16.63,0,0,15.03-13.85-10.98-30.4-26-16.56-16.41,22.87-16.41,22.87,0,0-.55-1.76-1.74-4.34-3.47-7.52-12.37-22.05-28.92-20.65-22.24,1.88,2.75,32.68,2.75,32.68"/>
    </g>
    <ellipse class="cls-7" cx="1033.03" cy="621.35" rx="7.51" ry="6.46"/>
    <ellipse class="cls-7" cx="1000.26" cy="647.19" rx="7.51" ry="6.46"/>
    <ellipse class="cls-7" cx="800.95" cy="552.04" rx="7.51" ry="6.46"/>
    <ellipse class="cls-7" cx="1090.36" cy="656.59" rx="7.51" ry="6.46"/>
    <ellipse class="cls-7" cx="1018.01" cy="520.33" rx="7.51" ry="6.46"/>
  </g>
  <g>
    <g>
      <g>
        <path class="cls-4" d="m366.74,660.85l-327.23,4.3c-62.39-54.47,11.46-101.77,11.46-101.77-28.01-83.14,57.3-64.5,57.3-64.5,8.91-77.4,36.92-18.63,36.92-18.63,5.09-116.1,70.03-7.17,70.03-7.17,43.29-169.14,87.86,4.3,87.86,4.3,89.13-71.67,100.74-2.76,100.74-2.76,85.16-13.01,0,79.61,0,79.61,86.43-8.05,78.79,40.68,78.79,40.68,64.94,37.27,25.57,62.3,25.57,62.3l-141.43,3.63Z"/>
        <path class="cls-5" d="m98.02,664.38s-69.97,5.07-47.05-62.3c22.92-67.37,50.93-21.5,50.93-21.5-40.74-111.8,29.29-65.94,29.29-65.94,42.02-64.5,74.53-9.32,74.53-9.32,46.43-50.88,48.2-21.98,48.2-21.98,59.35-14.57,61.9,6.93,61.9,6.93,77.67-21.5,48.38,37.27,48.38,37.27,110.77-30.1,39.62,65.4,39.62,65.4,74.97,4.84,63.51,42.11,63.51,42.11,5.09,30.1-39.71,24.24-39.71,24.24l-329.6,5.1Z"/>
        <path class="cls-6" d="m135.66,663.8s-38.85,8.52-38.85-23.02-.62-87.74,19.42-65.37c20.05,22.37,22.59,25.23,22.59,25.23,39.47-81.7,36.92-11.47,36.92-11.47,66.21-113.24,52.2-4.3,52.2-4.3,64.94-73.1,39.28,27.05,39.28,27.05,53.67.18,18.3,49.55,18.3,49.55l-149.88,2.32Z"/>
      </g>
      <path class="cls-3" d="m293.21,711.07c1.93,0,1.93-3,0-3s-1.93,3,0,3h0Z"/>
      <path class="cls-1" d="m204.9,625.9h2.16s11.31-10.05,6.82-23.04c-4.49-13-31.46,13-31.46,13,0,0,1.12-17.73-20.82-14.58-21.94,3.15,2.6,24.63,2.6,24.63,0,0-1.16-.89-3.07-1.98-5.55-3.19-17.44-8.13-25.51,1.98-10.85,13.59,17.59,20.68,17.59,20.68"/>
      <path class="cls-2" d="m349.46,573.04l2.03,1.86s17.48,1.47,22.13-13.11c4.65-14.58-38.43-16.38-38.43-16.38,0,0,13.15-13.64-9.61-29.94s-14.37,22.52-14.37,22.52c0,0-.48-1.73-1.53-4.27-3.04-7.41-10.83-21.72-25.32-20.34-19.47,1.85,2.41,32.18,2.41,32.18"/>
    </g>
    <ellipse class="cls-7" cx="353.28" cy="600.25" rx="6.57" ry="6.36"/>
    <ellipse class="cls-7" cx="324.6" cy="625.7" rx="6.57" ry="6.36"/>
    <ellipse class="cls-7" cx="150.11" cy="532" rx="6.57" ry="6.36"/>
    <ellipse class="cls-7" cx="403.48" cy="634.95" rx="6.57" ry="6.36"/>
    <ellipse class="cls-7" cx="340.14" cy="500.76" rx="6.57" ry="6.36"/>
  </g>
  <g>
    <g>
      <g>
        <path class="cls-4" d="m628.75,307.54l-241.8,3.22c-46.1-40.76,8.47-76.16,8.47-76.16-20.7-62.22,42.34-48.27,42.34-48.27,6.59-57.93,27.28-13.95,27.28-13.95,3.76-86.89,51.75-5.36,51.75-5.36,31.99-126.58,64.92,3.22,64.92,3.22,65.86-53.64,74.44-2.06,74.44-2.06,62.93-9.74,0,59.58,0,59.58,63.87-6.03,58.22,30.45,58.22,30.45,47.98,27.89,18.89,46.63,18.89,46.63l-104.51,2.72Z"/>
        <path class="cls-5" d="m430.19,310.18s-51.7,3.79-34.77-46.63c16.94-50.42,37.63-16.09,37.63-16.09-30.11-83.67,21.64-49.35,21.64-49.35,31.05-48.27,55.07-6.97,55.07-6.97,34.31-38.08,35.61-16.45,35.61-16.45,43.86-10.9,45.74,5.19,45.74,5.19,57.39-16.09,35.75,27.89,35.75,27.89,81.85-22.53,29.28,48.94,29.28,48.94,55.4,3.62,46.93,31.51,46.93,31.51,3.76,22.53-29.34,18.14-29.34,18.14l-243.55,3.81Z"/>
        <path class="cls-6" d="m458,309.74s-28.71,6.37-28.71-17.23-.46-65.66,14.35-48.92c14.81,16.74,16.7,18.89,16.7,18.89,29.17-61.15,27.28-8.58,27.28-8.58,48.92-84.75,38.58-3.22,38.58-3.22,47.98-54.71,29.03,20.25,29.03,20.25,39.66.14,13.52,37.08,13.52,37.08l-110.75,1.73Z"/>
      </g>
      <path class="cls-3" d="m574.42,345.5c1.93,0,1.93-3,0-3s-1.93,3,0,3h0Z"/>
      <path class="cls-1" d="m509.17,281.38h1.6s8.36-7.52,5.04-17.25c-3.32-9.73-23.24,9.73-23.24,9.73,0,0,.83-13.27-15.38-10.91-16.21,2.35,1.92,18.43,1.92,18.43,0,0-.86-.66-2.27-1.48-4.1-2.39-12.88-6.09-18.85,1.48-8.01,10.17,13,15.48,13,15.48"/>
      <path class="cls-2" d="m615.98,241.82l1.5,1.4s12.92,1.1,16.35-9.81c3.44-10.91-28.39-12.26-28.39-12.26,0,0,9.72-10.21-7.1-22.41-16.82-12.2-10.62,16.86-10.62,16.86,0,0-.36-1.29-1.13-3.2-2.25-5.54-8-16.25-18.71-15.22-14.38,1.39,1.78,24.09,1.78,24.09"/>
    </g>
    <ellipse class="cls-7" cx="618.81" cy="262.19" rx="4.86" ry="4.76"/>
    <ellipse class="cls-7" cx="597.61" cy="281.23" rx="4.86" ry="4.76"/>
    <ellipse class="cls-7" cx="468.68" cy="211.11" rx="4.86" ry="4.76"/>
    <ellipse class="cls-7" cx="655.9" cy="288.16" rx="4.86" ry="4.76"/>
    <ellipse class="cls-7" cx="609.09" cy="187.73" rx="4.86" ry="4.76"/>
  </g>
</svg>