<?xml version="1.0" encoding="UTF-8"?>
<svg id="Layer_2" data-name="Layer 2" xmlns="http://www.w3.org/2000/svg" viewBox="0 0 1416.94 571.96">
  <defs>
    <style>
      .cls-1 {
        stroke: #009245;
      }

      .cls-1, .cls-2 {
        fill: none;
        stroke-miterlimit: 10;
      }

      .cls-3 {
        fill: #009245;
      }

      .cls-3, .cls-4, .cls-5, .cls-6, .cls-7 {
        stroke-width: 0px;
      }

      .cls-4 {
        fill: #47a052;
      }

      .cls-5 {
        fill: #3e8945;
      }

      .cls-6 {
        fill: #5da03f;
      }

      .cls-2 {
        stroke: #66a534;
      }

      .cls-7 {
        fill: #f47a16;
      }
    </style>
  </defs>
  <g id="Layer_1-2" data-name="Layer 1">
    <g>
      <g>
        <g>
          <path class="cls-4" d="m1054.7,235.34l-273.81,3.72c-52.2-47.08,9.59-87.97,9.59-87.97-23.44-71.87,47.94-55.76,47.94-55.76,7.46-66.91,30.9-16.11,30.9-16.11,4.26-100.36,58.6-6.2,58.6-6.2,36.22-146.21,73.51,3.72,73.51,3.72,74.58-61.95,84.29-2.38,84.29-2.38,71.26-11.25,0,68.82,0,68.82,72.32-6.96,65.93,35.17,65.93,35.17,54.34,32.22,21.39,53.86,21.39,53.86l-118.34,3.14Z"/>
          <path class="cls-5" d="m829.85,238.39s-58.55,4.38-39.37-53.85c19.18-58.24,42.62-18.59,42.62-18.59-34.09-96.65,24.5-57,24.5-57,35.16-55.76,62.36-8.05,62.36-8.05,38.85-43.99,40.33-19,40.33-19,49.66-12.59,51.79,5.99,51.79,5.99,64.99-18.59,40.49,32.22,40.49,32.22,92.69-26.02,33.15,56.53,33.15,56.53,62.73,4.18,53.14,36.4,53.14,36.4,4.26,26.02-33.23,20.95-33.23,20.95l-275.79,4.4Z"/>
          <path class="cls-6" d="m861.34,237.89s-32.51,7.36-32.51-19.9-.52-75.84,16.25-56.51c16.77,19.34,18.91,21.81,18.91,21.81,33.03-70.63,30.9-9.91,30.9-9.91,55.4-97.89,43.68-3.72,43.68-3.72,54.34-63.19,32.87,23.38,32.87,23.38,44.91.16,15.31,42.83,15.31,42.83l-125.41,2Z"/>
        </g>
        <path class="cls-3" d="m993.18,278.96c1.93,0,1.93-3,0-3s-1.93,3,0,3h0Z"/>
        <path class="cls-1" d="m919.29,205.13h1.81s9.46-8.68,5.7-19.92c-3.76-11.24-26.32,11.24-26.32,11.24,0,0,.94-15.32-17.42-12.6s2.17,21.29,2.17,21.29c0,0-.97-.77-2.57-1.72-4.64-2.76-14.59-7.03-21.35,1.72-9.08,11.75,14.72,17.88,14.72,17.88"/>
        <path class="cls-2" d="m1040.24,159.43l1.7,1.61s14.63,1.27,18.52-11.34-32.15-14.16-32.15-14.16c0,0,11.01-11.79-8.04-25.88-19.05-14.1-12.02,19.47-12.02,19.47,0,0-.4-1.5-1.28-3.7-2.54-6.4-9.06-18.77-21.19-17.58-16.29,1.6,2.02,27.82,2.02,27.82"/>
      </g>
      <circle class="cls-7" cx="1043.44" cy="182.96" r="5.5"/>
      <circle class="cls-7" cx="1019.44" cy="204.96" r="5.5"/>
      <circle class="cls-7" cx="873.44" cy="123.96" r="5.5"/>
      <circle class="cls-7" cx="1085.44" cy="212.96" r="5.5"/>
      <circle class="cls-7" cx="1032.44" cy="96.96" r="5.5"/>
    </g>
    <g>
      <g>
        <g>
          <path class="cls-4" d="m1232.33,519.63l-394.17,4.49c-75.15-56.82,13.8-106.17,13.8-106.17-33.74-86.73,69.02-67.29,69.02-67.29,10.74-80.75,44.48-19.44,44.48-19.44,6.13-121.12,84.35-7.48,84.35-7.48,52.15-176.45,105.83,4.49,105.83,4.49,107.36-74.77,121.35-2.88,121.35-2.88,102.58-13.57,0,83.05,0,83.05,104.11-8.4,94.91,42.44,94.91,42.44,78.22,38.88,30.8,65,30.8,65l-170.37,3.79Z"/>
          <path class="cls-5" d="m908.64,523.31s-84.28,5.29-56.68-64.99,61.35-22.43,61.35-22.43c-49.08-116.64,35.28-68.79,35.28-68.79,50.61-67.29,89.78-9.72,89.78-9.72,55.93-53.09,58.06-22.93,58.06-22.93,71.49-15.2,74.56,7.23,74.56,7.23,93.56-22.43,58.28,38.88,58.28,38.88,133.43-31.4,47.73,68.22,47.73,68.22,90.31,5.05,76.5,43.93,76.5,43.93,6.13,31.4-47.83,25.28-47.83,25.28l-397.02,5.32Z"/>
          <path class="cls-6" d="m953.98,522.7s-46.79,8.89-46.79-24.01-.75-91.53,23.4-68.2c24.15,23.34,27.22,26.33,27.22,26.33,47.55-85.24,44.48-11.96,44.48-11.96,79.75-118.13,62.88-4.49,62.88-4.49,78.22-76.26,47.32,28.22,47.32,28.22,64.65.19,22.04,51.69,22.04,51.69l-180.54,2.42Z"/>
        </g>
        <path class="cls-3" d="m1143.76,571.96c1.93,0,1.93-3,0-3s-1.93,3,0,3h0Z"/>
        <path class="cls-1" d="m1037.39,483.17h2.61s13.62-10.48,8.21-24.04-37.89,13.56-37.89,13.56c0,0,1.35-18.49-25.08-15.21-26.43,3.28,3.13,25.69,3.13,25.69,0,0-1.4-.93-3.69-2.07-6.69-3.33-21-8.48-30.73,2.07-13.07,14.18,21.19,21.58,21.19,21.58"/>
        <path class="cls-2" d="m1211.51,428.02l2.45,1.95s21.06,1.53,26.66-13.68c5.6-15.21-46.29-17.09-46.29-17.09,0,0,15.84-14.23-11.58-31.24-27.42-17.01-17.3,23.5-17.3,23.5,0,0-.58-1.81-1.84-4.46-3.66-7.73-13.05-22.65-30.5-21.21-23.45,1.94,2.9,33.58,2.9,33.58"/>
      </g>
      <ellipse class="cls-7" cx="1216.12" cy="456.41" rx="7.92" ry="6.64"/>
      <ellipse class="cls-7" cx="1181.57" cy="482.96" rx="7.92" ry="6.64"/>
      <ellipse class="cls-7" cx="971.39" cy="385.21" rx="7.92" ry="6.64"/>
      <ellipse class="cls-7" cx="1276.58" cy="492.61" rx="7.92" ry="6.64"/>
      <ellipse class="cls-7" cx="1200.28" cy="352.62" rx="7.92" ry="6.64"/>
    </g>
    <g>
      <g>
        <g>
          <path class="cls-4" d="m320.5,454.5l-297.72,3.7c-56.76-46.91,10.43-87.64,10.43-87.64-25.49-71.6,52.13-55.55,52.13-55.55,8.11-66.66,33.59-16.05,33.59-16.05,4.63-99.99,63.71-6.17,63.71-6.17,39.39-145.66,79.93,3.7,79.93,3.7,81.09-61.72,91.66-2.37,91.66-2.37,77.48-11.2,0,68.56,0,68.56,78.64-6.93,71.69,35.03,71.69,35.03,59.08,32.09,23.26,53.65,23.26,53.65l-128.68,3.13Z"/>
          <path class="cls-5" d="m76.02,457.54s-63.66,4.37-42.81-53.65c20.85-58.02,46.34-18.52,46.34-18.52-37.07-96.28,26.64-56.78,26.64-56.78,38.23-55.55,67.81-8.02,67.81-8.02,42.24-43.82,43.85-18.93,43.85-18.93,54-12.55,56.31,5.97,56.31,5.97,70.66-18.52,44.02,32.09,44.02,32.09,100.78-25.92,36.05,56.32,36.05,56.32,68.21,4.17,57.78,36.26,57.78,36.26,4.63,25.92-36.13,20.87-36.13,20.87l-299.87,4.39Z"/>
          <path class="cls-6" d="m110.26,457.04s-35.34,7.34-35.34-19.82-.57-75.56,17.67-56.29c18.24,19.26,20.56,21.73,20.56,21.73,35.91-70.36,33.59-9.88,33.59-9.88,60.24-97.52,47.5-3.7,47.5-3.7,59.08-62.95,35.74,23.3,35.74,23.3,48.83.16,16.65,42.67,16.65,42.67l-136.36,2Z"/>
        </g>
        <path class="cls-3" d="m253.6,497.96c1.93,0,1.93-3,0-3s-1.93,3,0,3h0Z"/>
        <path class="cls-1" d="m173.26,424.4h1.97s10.29-8.65,6.2-19.85c-4.09-11.2-28.62,11.2-28.62,11.2,0,0,1.02-15.27-18.94-12.56-19.96,2.71,2.36,21.21,2.36,21.21,0,0-1.05-.77-2.79-1.71-5.05-2.75-15.86-7-23.21,1.71-9.87,11.7,16,17.81,16,17.81"/>
        <path class="cls-2" d="m304.78,378.88l1.85,1.61s15.91,1.26,20.14-11.29c4.23-12.56-34.96-14.11-34.96-14.11,0,0,11.97-11.74-8.74-25.79-20.71-14.04-13.07,19.4-13.07,19.4,0,0-.44-1.49-1.39-3.68-2.76-6.38-9.86-18.7-23.04-17.51-17.71,1.6,2.19,27.72,2.19,27.72"/>
      </g>
      <ellipse class="cls-7" cx="308.26" cy="402.31" rx="5.98" ry="5.48"/>
      <ellipse class="cls-7" cx="282.16" cy="424.23" rx="5.98" ry="5.48"/>
      <ellipse class="cls-7" cx="123.41" cy="343.53" rx="5.98" ry="5.48"/>
      <ellipse class="cls-7" cx="353.93" cy="432.2" rx="5.98" ry="5.48"/>
      <ellipse class="cls-7" cx="296.3" cy="316.64" rx="5.98" ry="5.48"/>
    </g>
    <g>
      <g>
        <g>
          <path class="cls-4" d="m563.39,187.56l-238.17,3.08c-45.41-39.01,8.34-72.9,8.34-72.9-20.39-59.55,41.7-46.2,41.7-46.2,6.49-55.44,26.87-13.35,26.87-13.35,3.71-83.16,50.97-5.13,50.97-5.13,31.51-121.15,63.94,3.08,63.94,3.08,64.87-51.34,73.32-1.97,73.32-1.97,61.98-9.32,0,57.02,0,57.02,62.91-5.77,57.35,29.14,57.35,29.14,47.26,26.69,18.61,44.63,18.61,44.63l-102.94,2.6Z"/>
          <path class="cls-5" d="m367.81,190.09s-50.93,3.63-34.25-44.62c16.68-48.26,37.07-15.4,37.07-15.4-29.66-80.08,21.31-47.23,21.31-47.23,30.58-46.2,54.25-6.67,54.25-6.67,33.79-36.45,35.08-15.75,35.08-15.75,43.2-10.43,45.05,4.97,45.05,4.97,56.53-15.4,35.22,26.69,35.22,26.69,80.62-21.56,28.84,46.84,28.84,46.84,54.57,3.47,46.23,30.16,46.23,30.16,3.71,21.56-28.9,17.36-28.9,17.36l-239.89,3.65Z"/>
          <path class="cls-6" d="m395.2,189.67s-28.27,6.1-28.27-16.49-.45-62.84,14.14-46.82c14.59,16.02,16.44,18.08,16.44,18.08,28.73-58.52,26.87-8.21,26.87-8.21,48.19-81.11,38-3.08,38-3.08,47.26-52.36,28.59,19.38,28.59,19.38,39.06.13,13.32,35.49,13.32,35.49l-109.09,1.66Z"/>
        </g>
        <path class="cls-3" d="m509.88,223.96c1.93,0,1.93-3,0-3s-1.93,3,0,3h0Z"/>
        <path class="cls-1" d="m445.6,162.53h1.58s8.23-7.2,4.96-16.51-22.9,9.31-22.9,9.31c0,0,.82-12.7-15.15-10.44-15.97,2.25,1.89,17.64,1.89,17.64,0,0-.84-.64-2.23-1.42-4.04-2.28-12.69-5.82-18.57,1.42-7.89,9.73,12.8,14.81,12.8,14.81"/>
        <path class="cls-2" d="m550.81,124.66l1.48,1.34s12.72,1.05,16.11-9.39-27.97-11.73-27.97-11.73c0,0,9.57-9.77-6.99-21.45-16.57-11.68-10.46,16.13-10.46,16.13,0,0-.35-1.24-1.11-3.06-2.21-5.31-7.88-15.55-18.43-14.57-14.17,1.33,1.75,23.05,1.75,23.05"/>
      </g>
      <ellipse class="cls-7" cx="553.6" cy="144.15" rx="4.78" ry="4.56"/>
      <ellipse class="cls-7" cx="532.72" cy="162.38" rx="4.78" ry="4.56"/>
      <ellipse class="cls-7" cx="405.73" cy="95.26" rx="4.78" ry="4.56"/>
      <ellipse class="cls-7" cx="590.13" cy="169.01" rx="4.78" ry="4.56"/>
      <ellipse class="cls-7" cx="544.03" cy="72.89" rx="4.78" ry="4.56"/>
    </g>
  </g>
</svg>