<?xml version="1.0" encoding="UTF-8"?>
<svg xmlns="http://www.w3.org/2000/svg" viewBox="0 0 1920 1080">
  <defs>
    <style>
      .cls-1 {
        fill: #9b6a3d;
      }

      .cls-1, .cls-2, .cls-3, .cls-4, .cls-5, .cls-6, .cls-7, .cls-8, .cls-9, .cls-10, .cls-11, .cls-12 {
        stroke-width: 0px;
      }

      .cls-13 {
        fill: #efea48;
        stroke: #fff;
        stroke-miterlimit: 10;
      }

      .cls-2 {
        fill: #86a5a5;
      }

      .cls-4 {
        fill: #d86b19;
      }

      .cls-5 {
        fill: red;
      }

      .cls-6 {
        fill: #fff;
      }

      .cls-7 {
        fill: #dd3737;
      }

      .cls-8 {
        fill: #66c67a;
      }

      .cls-9 {
        fill: #3e8945;
      }

      .cls-10 {
        fill: #11f24b;
      }

      .cls-11 {
        fill: #f47a16;
      }

      .cls-12 {
        fill: #f2f1f0;
      }
    </style>
  </defs>
  <g id="Layer_1" data-name="Layer 1">
    <g>
      <rect class="cls-2" x=".5" y=".5" width="1919" height="1079"/>
      <path class="cls-3" d="m1919,1v1078H1V1h1918m1-1H0v1080h1920V0h0Z"/>
    </g>
    <g>
      <ellipse class="cls-5" cx="676.09" cy="860.2" rx="35.96" ry="19.78" transform="translate(-214.46 224.62) rotate(-16.32)"/>
      <ellipse class="cls-5" cx="661.81" cy="844.8" rx="35.91" ry="19.81" transform="translate(-356.9 1182.31) rotate(-70.26)"/>
    </g>
    <g>
      <ellipse class="cls-5" cx="536.51" cy="834.95" rx="37.91" ry="20.6" transform="translate(-306.8 1358.2) rotate(-89.09)"/>
      <ellipse class="cls-5" cx="516.74" cy="844.11" rx="20.65" ry="37.83" transform="translate(-465.39 721.77) rotate(-51.43)"/>
    </g>
    <g>
      <ellipse class="cls-5" cx="610.75" cy="754.45" rx="35.96" ry="19.78" transform="translate(-333.06 981.24) rotate(-64.52)"/>
      <ellipse class="cls-5" cx="589.75" cy="754.83" rx="19.81" ry="35.91" transform="translate(-288.42 372.23) rotate(-28.46)"/>
    </g>
    <g>
      <ellipse class="cls-5" cx="1425.51" cy="837.1" rx="35.96" ry="19.78" transform="translate(-177.78 434.26) rotate(-16.32)"/>
      <ellipse class="cls-5" cx="1411.23" cy="821.7" rx="35.91" ry="19.81" transform="translate(161.1 1872.38) rotate(-70.26)"/>
    </g>
    <g>
      <ellipse class="cls-5" cx="1285.94" cy="811.85" rx="37.91" ry="20.6" transform="translate(453.88 2084.8) rotate(-89.09)"/>
      <ellipse class="cls-5" cx="1266.16" cy="821.01" rx="20.65" ry="37.83" transform="translate(-165.2 1298.97) rotate(-51.43)"/>
    </g>
    <g>
      <ellipse class="cls-5" cx="1331.86" cy="687.16" rx="19.78" ry="35.96" transform="translate(-33.9 70.12) rotate(-2.98)"/>
      <ellipse class="cls-5" cx="1313.58" cy="697.5" rx="19.81" ry="35.91" transform="translate(12.11 1417.35) rotate(-56.92)"/>
    </g>
    <g>
      <ellipse class="cls-5" cx="462.01" cy="710.08" rx="19.78" ry="35.96" transform="translate(-264.11 273.71) rotate(-25.95)"/>
      <ellipse class="cls-5" cx="449.22" cy="726.74" rx="19.81" ry="35.91" transform="translate(-345.13 1041.31) rotate(-79.88)"/>
    </g>
    <g>
      <ellipse class="cls-5" cx="719.83" cy="634.04" rx="35.96" ry="19.78" transform="translate(-224.29 803.74) rotate(-51.56)"/>
      <ellipse class="cls-5" cx="699.29" cy="629.71" rx="19.81" ry="35.91" transform="translate(-142.85 209.79) rotate(-15.5)"/>
    </g>
    <g>
      <ellipse class="cls-5" cx="566.74" cy="588.55" rx="19.78" ry="35.96" transform="translate(-60.26 64.67) rotate(-6.2)"/>
      <ellipse class="cls-5" cx="549.08" cy="599.9" rx="19.81" ry="35.91" transform="translate(-244.56 777.39) rotate(-60.14)"/>
    </g>
    <g>
      <ellipse class="cls-5" cx="1567.17" cy="740.67" rx="35.96" ry="19.78" transform="translate(-117.09 1150.4) rotate(-38.97)"/>
      <ellipse class="cls-5" cx="1548.07" cy="731.96" rx="19.81" ry="35.91" transform="translate(-35.12 79.42) rotate(-2.91)"/>
    </g>
    <g>
      <ellipse class="cls-5" cx="1433.29" cy="703.17" rx="35.96" ry="19.78" transform="translate(-8.5 1388.74) rotate(-51.56)"/>
      <ellipse class="cls-5" cx="1412.74" cy="698.84" rx="19.81" ry="35.91" transform="translate(-135.38 402.97) rotate(-15.5)"/>
    </g>
    <g>
      <ellipse class="cls-5" cx="1510.29" cy="634.17" rx="35.96" ry="19.78" transform="translate(74.68 1422.95) rotate(-51.56)"/>
      <ellipse class="cls-5" cx="1489.74" cy="629.84" rx="19.81" ry="35.91" transform="translate(-114.14 421.04) rotate(-15.5)"/>
    </g>
  </g>
  <g id="Layer_4" data-name="Layer 4">
    <path class="cls-12" d="m1301.32,979.26s87.69-97.64,196.57-75.26c108.89,22.38,149.69,114.78,135.29,136.72s-20.33,38.14-92.87,41c-72.54,2.86-172.58-17.07-172.58-17.07l-66.42-85.39Z"/>
    <path class="cls-4" d="m579.46,970.63s-87.69-100.14-196.57-77.19c-108.89,22.95-149.69,117.73-135.29,140.23,14.4,22.5,20.33,39.12,92.87,42.05,72.54,2.93,172.58-17.5,172.58-17.5l66.42-87.58Z"/>
    <ellipse class="cls-7" cx="814.75" cy="226.07" rx="4.29" ry="4.15"/>
    <g>
      <path class="cls-10" d="m551.42,92.47c0,12.64,1.24,23.14,3.72,31.5,2.48,8.36,6.8,12.54,12.96,12.54,3.04,0,5.36-.6,6.96-1.8,1.6-1.2,2.6-2.54,3-4.02.4-1.48.64-3.22.72-5.22.08-2,.12-4.48.12-7.44v-4.68c0-3.44-.12-5.76-.36-6.96-.24-2.64-.78-4.44-1.62-5.4-.84-.96-2.14-1.56-3.9-1.8-1.76-.24-3.36-.38-4.8-.42-1.44-.04-2.76-.1-3.96-.18v-1.92h56.16v1.92l-5.52.36c-2.48.24-4.14.82-4.98,1.74-.84.92-1.38,2.74-1.62,5.46l-.24,5.64v15.72l.24,10.8h-1.8c-1.04-2.32-2.86-4.44-5.46-6.36-2.6-1.92-5.46-2.88-8.58-2.88-2.8,0-6.8,1.72-12,5.16-5.2,3.44-12.08,5.16-20.64,5.16-11.84,0-21.8-4.28-29.88-12.84-8.08-8.56-12.12-19.32-12.12-32.28,0-13.6,4.44-24.52,13.32-32.76,8.88-8.24,20.2-12.36,33.96-12.36,7.52,0,14.64,1.68,21.36,5.04,6.72,3.36,10.48,5.12,11.28,5.28,2.32,0,3.88-.86,4.68-2.58.8-1.72,1.56-4.18,2.28-7.38h2.4v38.76h-2.04c-2.4-9.92-6.38-18.32-11.94-25.2-5.56-6.88-12.66-10.32-21.3-10.32-6.88,0-12,3.98-15.36,11.94-3.36,7.96-5.04,17.22-5.04,27.78Z"/>
      <path class="cls-10" d="m684.93,132.07c1.89,0,3.22-1.19,3.97-3.56.75-2.37,1.12-5.21,1.12-8.5h1.68c0,7.06-1.26,11.72-3.78,13.96-2.52,2.25-4.78,3.67-6.78,4.27-2,.6-4.56.9-7.68.9-3.44,0-6.5-.88-9.18-2.64-2.68-1.76-4.3-4.12-4.86-7.09-1.28,3.24-3.42,5.68-6.42,7.3-3,1.62-6.9,2.43-11.7,2.43-5.12,0-9.28-1.4-12.48-4.21-3.2-2.81-4.8-6.69-4.8-11.67,0-4.01,1-7.23,3-9.68,2-2.44,4.04-3.95,6.12-4.51,2.08-.56,5.28-1.04,9.6-1.44,4.32-.4,7.5-.86,9.54-1.38,2.04-.52,3.5-1.08,4.38-1.68.88-.6,1.32-1.62,1.32-3.07l-.12-10.94c0-3.13-.4-5.37-1.19-6.73-.79-1.36-2.46-2.05-4.99-2.05-1.58,0-2.91.36-3.98,1.09-1.07.72-1.6,1.65-1.6,2.77,0,.89.85,1.99,2.56,3.31,1.7,1.33,2.56,3.32,2.56,5.97,0,2.49-1.1,4.7-3.31,6.63-2.21,1.93-5.8,2.89-10.77,2.89-2.73,0-5.12-.74-7.16-2.23-2.05-1.49-3.07-3.48-3.07-5.97,0-4.98,2.79-8.96,8.36-11.93,5.57-2.97,12.21-4.46,19.9-4.46,6.49,0,12.47,1.35,17.92,4.04,5.45,2.69,8.18,6.85,8.18,12.48v27.61c0,2.57.24,4.54.71,5.91.39,1.45,1.38,2.17,2.96,2.17Zm-26.95-3.6v-22.93l-.36-.12c-.71.96-2.04,1.86-3.98,2.7s-3.28,1.66-4.04,2.46c-.75.8-1.34,2.34-1.78,4.62-.43,2.28-.65,4.62-.65,7.02,0,3.6.28,6.48.83,8.64.55,2.16,1.82,3.24,3.8,3.24,1.5,0,2.83-.6,3.97-1.8,1.15-1.2,1.88-2.48,2.2-3.84Z"/>
      <path class="cls-10" d="m803.42,137.95h-36.19v-1.92c2.78,0,4.42-.44,4.94-1.32.52-.88.77-2.96.77-6.24l.12-5.52v-24.24l-.12-4.92c0-3.44-.42-5.92-1.25-7.44-.83-1.52-2.32-2.28-4.46-2.28-1.43,0-2.96.66-4.58,1.98-1.62,1.32-2.71,3.9-3.27,7.74v29.16l.12,5.52c0,2.56.14,4.4.42,5.52.28,1.12,1.81,1.8,4.58,2.04v1.92h-34.1v-1.92c2.7,0,4.32-.44,4.88-1.32.55-.88.83-2.96.83-6.24l.12-5.52v-24.24l-.12-4.92c0-3.44-.42-5.92-1.25-7.44-.83-1.52-2.32-2.28-4.46-2.28-2.7,0-4.54.88-5.53,2.64-.99,1.76-1.76,3.56-2.32,5.4v30.84l.12,5.52c0,2.56.14,4.4.42,5.52.28,1.12,1.81,1.8,4.58,2.04v1.92h-35.95v-1.92l2.64-.12c2.32-.24,3.72-.8,4.2-1.68.48-.88.72-2.8.72-5.76l.12-5.52v-28.68l-.12-4.92c-.16-1.92-.4-3.36-.72-4.32-.32-.96-1.76-1.56-4.32-1.8l-2.76-.24v-1.92h30.6v9c.72-2.24,2.14-4.5,4.26-6.78,2.12-2.28,6.42-3.42,12.9-3.42,4.48,0,8.38.94,11.7,2.82,3.32,1.88,5.78,4.7,7.38,8.46.4-1.44,1.46-3.68,3.18-6.72,1.72-3.04,6.58-4.56,14.58-4.56,5.44,0,10.16,1.52,14.16,4.56,4,3.04,6,6.96,6,11.76v26.76l.12,5.52c0,3.04.22,4.96.66,5.76.44.8,1.86,1.36,4.26,1.68l2.16.12v1.92Z"/>
      <path class="cls-10" d="m866.42,119.95c-2.25,6-5.85,10.7-10.82,14.1-4.97,3.4-10.82,5.1-17.55,5.1-9.46,0-17.24-2.62-23.33-7.86-6.09-5.24-9.14-12.5-9.14-21.78,0-8.64,3.15-15.74,9.44-21.3,6.29-5.56,13.85-8.34,22.67-8.34s16.27,2.6,21.16,7.8c4.89,5.2,7.33,11.56,7.33,19.08h-36.84c0,2.88.22,5.82.66,8.82.44,3,1.27,5.9,2.5,8.7,1.23,2.8,2.98,5.06,5.24,6.78,2.26,1.72,5.1,2.58,8.52,2.58,4.91,0,8.79-1.38,11.65-4.14,2.86-2.76,5.05-6.22,6.58-10.38l1.93.84Zm-21.24-15.6c-.08-.88-.14-1.92-.18-3.12-.04-1.2-.06-2.72-.06-4.56,0-4.88-.6-8.58-1.79-11.1-1.19-2.52-3.26-3.78-6.19-3.78-2.54,0-4.31,1.22-5.3,3.66-.99,2.44-1.69,6.18-2.08,11.22l-.24,7.68h15.84Z"/>
      <path class="cls-10" d="m950.54,139.39c-13.76,0-25.06-4.26-33.9-12.78-8.84-8.52-13.26-19.3-13.26-32.34s4.38-24.22,13.14-32.58c8.76-8.36,20.06-12.54,33.9-12.54,5.92,0,11.04,1,15.36,3l12.72,7.2c2.4,0,4-.82,4.8-2.46.8-1.64,1.36-3.98,1.68-7.02h2.4v37.92h-2.04c-3.52-9.76-6.02-16.36-7.5-19.8-1.48-3.44-3.94-6.76-7.38-9.96-3.44-3.2-7.84-4.8-13.2-4.8-6.96,0-12.12,3.92-15.48,11.76-3.36,7.84-5.04,17-5.04,27.48,0,11.28,2.02,21.06,6.06,29.34,4.04,8.28,9.98,12.42,17.82,12.42,7.28,0,13.12-2.64,17.52-7.92,4.4-5.28,7.32-12.16,8.76-20.64l2.04.36c-1.12,9.6-4.76,17.56-10.92,23.88-6.16,6.32-15.32,9.48-27.48,9.48Z"/>
      <path class="cls-10" d="m1059.14,109.51c0,8.48-3.22,15.54-9.66,21.18-6.44,5.64-14.02,8.46-22.74,8.46-9.2,0-16.9-2.82-23.1-8.46-6.2-5.64-9.3-12.7-9.3-21.18s3.14-15.54,9.42-21.18c6.28-5.64,13.94-8.46,22.98-8.46s16.5,2.8,22.86,8.4c6.36,5.6,9.54,12.68,9.54,21.24Zm-23.88-.12c0-1.12-.08-3.36-.24-6.72-.16-3.36-.24-5.36-.24-6,0-4.32-.66-7.88-1.98-10.68-1.32-2.8-3.38-4.2-6.18-4.2-2.56,0-4.52,1.46-5.88,4.38-1.36,2.92-2.04,6.42-2.04,10.5,0,1.52-.06,3.38-.18,5.58-.12,2.2-.22,4.58-.3,7.14,0,1.12.08,3.42.24,6.9.16,3.48.24,5.5.24,6.06,0,4.32.66,7.88,1.98,10.68,1.32,2.8,3.34,4.2,6.06,4.2s4.64-1.44,6-4.32c1.36-2.88,2.04-6.4,2.04-10.56,0-1.6.04-3.5.12-5.7.08-2.2.2-4.62.36-7.26Z"/>
      <path class="cls-10" d="m1174.1,137.95h-36.19v-1.92c2.78,0,4.42-.44,4.94-1.32.52-.88.77-2.96.77-6.24l.12-5.52v-24.24l-.12-4.92c0-3.44-.42-5.92-1.25-7.44-.83-1.52-2.32-2.28-4.46-2.28-1.43,0-2.96.66-4.58,1.98-1.62,1.32-2.71,3.9-3.27,7.74v29.16l.12,5.52c0,2.56.14,4.4.42,5.52.28,1.12,1.81,1.8,4.58,2.04v1.92h-34.1v-1.92c2.7,0,4.32-.44,4.88-1.32.55-.88.83-2.96.83-6.24l.12-5.52v-24.24l-.12-4.92c0-3.44-.42-5.92-1.25-7.44-.83-1.52-2.32-2.28-4.46-2.28-2.7,0-4.54.88-5.53,2.64-.99,1.76-1.76,3.56-2.32,5.4v30.84l.12,5.52c0,2.56.14,4.4.42,5.52.28,1.12,1.81,1.8,4.58,2.04v1.92h-35.95v-1.92l2.64-.12c2.32-.24,3.72-.8,4.2-1.68.48-.88.72-2.8.72-5.76l.12-5.52v-28.68l-.12-4.92c-.16-1.92-.4-3.36-.72-4.32-.32-.96-1.76-1.56-4.32-1.8l-2.76-.24v-1.92h30.6v9c.72-2.24,2.14-4.5,4.26-6.78,2.12-2.28,6.42-3.42,12.9-3.42,4.48,0,8.38.94,11.7,2.82,3.32,1.88,5.78,4.7,7.38,8.46.4-1.44,1.46-3.68,3.18-6.72,1.72-3.04,6.58-4.56,14.58-4.56,5.44,0,10.16,1.52,14.16,4.56,4,3.04,6,6.96,6,11.76v26.76l.12,5.52c0,3.04.22,4.96.66,5.76.44.8,1.86,1.36,4.26,1.68l2.16.12v1.92Z"/>
      <path class="cls-10" d="m1173.14,165.67v-1.92l4.2-.24c2.32-.24,3.8-.74,4.44-1.5.64-.76.96-2.3.96-4.62l.12-4.92v-58.2l-.12-4.92c0-2.24-.34-3.76-1.02-4.56-.68-.8-2.18-1.32-4.5-1.56l-3.84-.24v-1.92h32.4v7.08c.88-1.84,2.29-3.68,4.25-5.52,1.95-1.84,5.64-2.76,11.07-2.76,7.66,0,13.88,2.68,18.67,8.04,4.79,5.36,7.18,12.64,7.18,21.84s-2.4,16-7.2,21.36c-4.8,5.36-11.04,8.04-18.72,8.04-5.56,0-9.25-.76-11.07-2.28-1.83-1.52-3.17-3.12-4.05-4.8l.12,7.08v11.4l.24,5.52c.24,2.72.77,4.54,1.61,5.46.83.92,2.48,1.54,4.93,1.86l5.71.36v1.92h-45.36Zm33.24-36c.32,2,1.21,3.52,2.68,4.56,1.47,1.04,3.12,1.56,4.95,1.56,2.46,0,4.31-1.2,5.54-3.6,1.23-2.4,2-5.04,2.32-7.92.32-2.88.54-5.44.65-7.68.12-2.24.18-4.68.18-7.32v-7.8c-.24-2.32-.5-4.74-.77-7.26-.28-2.52-1.05-4.96-2.32-7.32-1.27-2.36-3.22-3.54-5.84-3.54-1.59,0-3.12.7-4.59,2.1-1.47,1.4-2.36,3.1-2.68,5.1-.16,1.92-.28,4.42-.36,7.5-.08,3.08-.12,6.14-.12,9.18v13.2c0,3.68.12,6.76.36,9.24Z"/>
      <path class="cls-10" d="m1288.69,137.95h-39.04v-1.92l2.89-.12c2.33-.24,3.74-.8,4.22-1.68.48-.88.72-2.8.72-5.76l.12-5.52v-59.28l-.12-4.92c-.16-1.92-.4-3.36-.72-4.32-.32-.96-1.76-1.56-4.32-1.8l-4.08-.24v-1.92h32.4v72.48l.12,5.52c0,2.88.24,4.78.72,5.7.48.92,1.88,1.5,4.2,1.74l2.88.12v1.92Z"/>
      <path class="cls-10" d="m1351.81,119.95c-2.25,6-5.85,10.7-10.82,14.1-4.97,3.4-10.82,5.1-17.55,5.1-9.46,0-17.24-2.62-23.33-7.86-6.09-5.24-9.14-12.5-9.14-21.78,0-8.64,3.15-15.74,9.44-21.3,6.29-5.56,13.85-8.34,22.67-8.34s16.27,2.6,21.16,7.8c4.89,5.2,7.33,11.56,7.33,19.08h-36.84c0,2.88.22,5.82.66,8.82.44,3,1.27,5.9,2.5,8.7,1.23,2.8,2.98,5.06,5.24,6.78,2.26,1.72,5.1,2.58,8.52,2.58,4.91,0,8.79-1.38,11.65-4.14,2.86-2.76,5.05-6.22,6.58-10.38l1.93.84Zm-21.24-15.6c-.08-.88-.14-1.92-.18-3.12-.04-1.2-.06-2.72-.06-4.56,0-4.88-.6-8.58-1.79-11.1-1.19-2.52-3.26-3.78-6.19-3.78-2.54,0-4.31,1.22-5.3,3.66-.99,2.44-1.69,6.18-2.08,11.22l-.24,7.68h15.84Z"/>
      <path class="cls-10" d="m1360.69,85.63h-8.16v-3.24c2.72-.72,5.56-2.06,8.53-4.02,2.97-1.96,5.8-4.24,8.49-6.84,2.69-2.6,4.95-5.14,6.76-7.62,1.81-2.48,3.2-4.72,4.16-6.72h3.38v23.88h15.61l-1.67,4.56h-13.94v32.64l.24,6.12c0,3.44.75,6.04,2.26,7.8,1.51,1.76,3.42,2.64,5.72,2.64,3.1,0,5.36-1.3,6.79-3.9,1.43-2.6,2.15-5.5,2.15-8.7h1.68c0,4.48-1.31,8.42-3.94,11.82-2.62,3.4-8.27,5.1-16.94,5.1-5.55,0-10.46-1.44-14.72-4.32s-6.4-6.92-6.4-12.12v-37.08Z"/>
      <path class="cls-10" d="m1463.77,119.95c-2.25,6-5.85,10.7-10.82,14.1-4.97,3.4-10.82,5.1-17.55,5.1-9.46,0-17.24-2.62-23.33-7.86-6.09-5.24-9.14-12.5-9.14-21.78,0-8.64,3.15-15.74,9.44-21.3,6.29-5.56,13.85-8.34,22.67-8.34s16.27,2.6,21.16,7.8c4.89,5.2,7.33,11.56,7.33,19.08h-36.84c0,2.88.22,5.82.66,8.82.44,3,1.27,5.9,2.5,8.7,1.23,2.8,2.98,5.06,5.24,6.78,2.26,1.72,5.1,2.58,8.52,2.58,4.91,0,8.79-1.38,11.65-4.14,2.86-2.76,5.05-6.22,6.58-10.38l1.93.84Zm-21.24-15.6c-.08-.88-.14-1.92-.18-3.12-.04-1.2-.06-2.72-.06-4.56,0-4.88-.6-8.58-1.79-11.1-1.19-2.52-3.26-3.78-6.19-3.78-2.54,0-4.31,1.22-5.3,3.66-.99,2.44-1.69,6.18-2.08,11.22l-.24,7.68h15.84Z"/>
      <path class="cls-10" d="m1507.57,80.71v-15.36l-.24-5.52c0-2.64-.4-4.4-1.19-5.28-.79-.88-2.49-1.48-5.11-1.8l-5.59-.36v-1.92h35.28v74.28l.12,4.92c0,2.16.38,3.66,1.14,4.5.76.84,2.22,1.38,4.38,1.62l3.84.24v1.92h-32.4v-6c-.88,1.6-2.3,3.2-4.26,4.8-1.96,1.6-5.66,2.4-11.1,2.4-7.68,0-13.92-2.68-18.72-8.04-4.8-5.36-7.2-12.64-7.2-21.84s2.4-16,7.2-21.36c4.8-5.36,11.04-8.04,18.72-8.04,5.6,0,9.32.76,11.16,2.28,1.84,1.52,3.2,3.12,4.08,4.8l-.12-6.24Zm-.36,8.64c-.32-2-1.2-3.52-2.64-4.56-1.44-1.04-3.12-1.56-5.04-1.56-2.48,0-4.34,1.18-5.58,3.54-1.24,2.36-2.04,5.04-2.4,8.04-.36,3-.58,5.72-.66,8.16-.08,2.44-.12,4.7-.12,6.78v5.4c0,1.52.18,4.16.54,7.92.36,3.76,1.16,6.84,2.4,9.24,1.24,2.4,3.14,3.6,5.7,3.6,4.4,0,6.96-2.12,7.68-6.36.16-1.84.28-5.1.36-9.78.08-4.68.12-8.18.12-10.5v-11.04c0-3.36-.12-6.32-.36-8.88Z"/>
    </g>
    <path class="cls-8" d="m1011.14,352.14c1.27,14.7,10.48,38.15,51.18,57.05,2.69,1.25,4.99,3.23,6.59,5.73,11.27,17.5,55.7,89.25,50.45,125.08-5.25,35.85,156.48,421.92,197.18,518.3,4.35,10.3-3.22,21.7-14.4,21.7h-662.23c-12.08,0-19.6-13.13-13.48-23.54l275.42-468.85c3.12-5.31,2.83-11.95-.74-16.97l-21.58-30.34c-2.88-4.04-3.66-9.21-2.12-13.92,8.53-25.98,37.09-110.91,48.93-119.37,14-10,32.63,7.89,42.82-21.06,5.41-15.37,9.07-27.94,11.32-36.34.88-3.28,2.76-6.08,5.25-8.11,2.71-2.2,6.16-3.49,9.85-3.49h0c8.06,0,14.86,6.11,15.55,14.14Z"/>
    <path class="cls-9" d="m993.37,315.18s-21.27-13.74-44.27,11.26c-23,25-24,66-24,66,0,0,4,20-7,28-11,8-32,30-39,33s-4,61-11,68c-7,7-36,15-39,28-3,13-1,34-6,53-5,19-21.78,64-61.39,75-39.61,11,3.39,88-8.61,92l11-17-10,49,21-29-14,33s2,24,8,26-1-19-1-19c0,0,17-15,17-21,0-6,14-24,14-24,0,0-13,109,32,121l-16-30,3-31s56.71,30,53.35,61,10.65,20,10.65,20l-8-16,3.04-16.22,2.96-15.78s1-28,9-43c8-15,4-23,4-23,0,0-8,64,0,83,8,19,17,19,17,19l-5-54s19,20,17,31c-2,11-5,29-10,31s24,2,39-17l-21,27s34-24,36-32c2-8,32.27,26.62,32.27,26.62,0,0-17.27-58.62-.27-15.62,17,43,10-18,10-18,0,0,1,16,11,26s-5-20-5-20l8.44-16.4s19.56,35.4,27.56,36.4-8-20-8-20l13-24s17,46,33,38c0,0-11-1-16-28s16,9.52,16,9.52l9-8.52,12,25,14,17s17,11,27,13c0,0-18-3-24-29s13-15,13-15c0,0,45,25,64,3,0,0-20,8-30-8s16-11,16-11c0,0,22,4,28-3s-22,0-22,0l22.84-63.27,4.16,32.27,12-43s-2,15-2,23,27-38.11,2-64.55,15,33.55,15,33.55c0,0,7-75.17,0-88.59s-31-48.41-31-48.41c0,0,0,19,30,17,0,0-30.52-19.03-44.76-41.01-14.24-21.99-50.24-16.99-52.24-29.99s20-29,1-45-36-44-30-62-6-38-23-49-32-52-39-87-61.73-33.03-61.73-33.03l-5,3.77Z"/>
    <g>
      <g>
        <g>
          <polygon class="cls-11" points="680.31 1071.2 467.86 1076.12 592.68 907.25 680.31 1071.2"/>
          <polygon class="cls-3" points="501.78 1075.32 488.22 1048.06 467.86 1076.12 501.78 1075.32"/>
          <ellipse class="cls-3" cx="603.61" cy="1036.57" rx="15.64" ry="6.46" transform="translate(-426.68 422.31) rotate(-28.98)"/>
          <ellipse class="cls-3" cx="580.99" cy="991.78" rx="15.64" ry="6.46" transform="translate(-407.81 405.74) rotate(-28.98)"/>
        </g>
        <polygon class="cls-11" points="616.56 960.05 656.42 893.52 592.83 910.55 616.56 960.05"/>
        <polygon class="cls-11" points="653.88 1026.65 712.28 1015.79 678.79 1068.85 653.88 1026.65"/>
        <polyline class="cls-6" points="642.87 905.44 619.27 937.27 607.3 916.89"/>
      </g>
      <polygon class="cls-6" points="677.46 1052.89 665.48 1032.51 701.05 1021.07 677.46 1052.89"/>
    </g>
    <path class="cls-11" d="m273.65,1062.41s134.68-30.65,182.01-84.87l47.34-54.23s-220.78-21.96-249.23,69.55c-28.45,91.51,0,0,0,0,0,0-24.34,47.59,19.88,69.55"/>
    <path class="cls-6" d="m437.34,921l-28.34,12h24.9l-15.9,19,28-6-12,26,27-16-12.71,29.16,54.71-61.85s-39.31-3.31-65.66-2.31Z"/>
    <g>
      <ellipse class="cls-6" cx="1347.11" cy="1011.3" rx="75.59" ry="65.46" transform="translate(-324.24 801.44) rotate(-29.74)"/>
      <path class="cls-6" d="m1288.9,976.97s-60.61-85.81-91.63-47.96c-31.02,37.85,77.38,80.86,77.38,80.86l14.25-32.9Z"/>
      <path class="cls-6" d="m1323.82,954.11s-81.51-68.6-37.6-92.45c43.91-23.85,74.02,83.63,74.02,83.63l-36.42,8.82Z"/>
      <ellipse class="cls-1" cx="1238.81" cy="962.55" rx="16.78" ry="42.01" transform="translate(-285.08 1335.28) rotate(-51.59)"/>
      <ellipse class="cls-1" cx="1313.6" cy="905.1" rx="17.07" ry="41.31" transform="translate(-270.52 717.19) rotate(-27.8)"/>
      <ellipse class="cls-3" cx="1358.01" cy="984.37" rx="6.39" ry="12.74" transform="translate(-303.91 1210.62) rotate(-43.69)"/>
      <ellipse class="cls-3" cx="1321.19" cy="1014.69" rx="6.39" ry="12.74" transform="translate(-335.05 1193.59) rotate(-43.69)"/>
    </g>
    <ellipse class="cls-1" cx="1629.52" cy="996.71" rx="31.16" ry="29.78" transform="translate(-56.82 1893.93) rotate(-59.47)"/>
    <g>
      <ellipse class="cls-3" cx="1360.38" cy="1018.94" rx="14.55" ry="5.71" transform="translate(-327.67 1217.29) rotate(-43.54)"/>
      <ellipse class="cls-3" cx="1364.33" cy="1023.06" rx="5.46" ry="7.09" transform="translate(-327.29 1238.63) rotate(-44.13)"/>
    </g>
    <g>
      <ellipse class="cls-6" cx="985.28" cy="444.75" rx="4.5" ry="4.6"/>
      <ellipse class="cls-6" cx="991.28" cy="445.77" rx="4.5" ry="4.6"/>
      <ellipse class="cls-6" cx="994.28" cy="449.85" rx="4.5" ry="4.6"/>
      <g>
        <ellipse class="cls-6" cx="991.28" cy="455.98" rx="4.5" ry="4.6"/>
        <ellipse class="cls-6" cx="983.49" cy="452.7" rx="4.68" ry="4.74" transform="translate(-87.25 292.36) rotate(-16.2)"/>
        <ellipse class="cls-13" cx="988.03" cy="450.11" rx="4.25" ry="4.85"/>
      </g>
    </g>
    <g>
      <ellipse class="cls-6" cx="1069.28" cy="523.75" rx="4.5" ry="4.6"/>
      <ellipse class="cls-6" cx="1075.28" cy="524.77" rx="4.5" ry="4.6"/>
      <ellipse class="cls-6" cx="1078.28" cy="528.85" rx="4.5" ry="4.6"/>
      <g>
        <ellipse class="cls-6" cx="1075.28" cy="534.98" rx="4.5" ry="4.6"/>
        <ellipse class="cls-6" cx="1067.49" cy="531.7" rx="4.68" ry="4.74" transform="translate(-105.95 318.93) rotate(-16.2)"/>
        <ellipse class="cls-13" cx="1072.03" cy="529.11" rx="4.25" ry="4.85"/>
      </g>
    </g>
    <g>
      <ellipse class="cls-6" cx="902.41" cy="593.75" rx="4.46" ry="4.6"/>
      <ellipse class="cls-6" cx="908.35" cy="594.77" rx="4.46" ry="4.6"/>
      <ellipse class="cls-6" cx="911.33" cy="598.85" rx="4.46" ry="4.6"/>
      <g>
        <ellipse class="cls-6" cx="908.35" cy="604.98" rx="4.46" ry="4.6"/>
        <ellipse class="cls-6" cx="900.64" cy="601.7" rx="4.64" ry="4.73" transform="translate(-83.53 149.37) rotate(-9.06)"/>
        <ellipse class="cls-13" cx="905.14" cy="599.11" rx="4.21" ry="4.85"/>
      </g>
    </g>
    <g>
      <ellipse class="cls-6" cx="1074.28" cy="634.75" rx="4.5" ry="4.6"/>
      <ellipse class="cls-6" cx="1080.28" cy="635.77" rx="4.5" ry="4.6"/>
      <ellipse class="cls-6" cx="1083.28" cy="639.85" rx="4.5" ry="4.6"/>
      <g>
        <ellipse class="cls-6" cx="1080.28" cy="645.98" rx="4.5" ry="4.6"/>
        <ellipse class="cls-6" cx="1072.49" cy="642.7" rx="4.68" ry="4.74" transform="translate(-136.72 324.73) rotate(-16.2)"/>
        <ellipse class="cls-13" cx="1077.03" cy="640.11" rx="4.25" ry="4.85"/>
      </g>
    </g>
    <g>
      <ellipse class="cls-6" cx="883.28" cy="703.75" rx="4.5" ry="4.6"/>
      <ellipse class="cls-6" cx="889.28" cy="704.77" rx="4.5" ry="4.6"/>
      <ellipse class="cls-6" cx="892.28" cy="708.85" rx="4.5" ry="4.6"/>
      <g>
        <ellipse class="cls-6" cx="889.28" cy="714.98" rx="4.5" ry="4.6"/>
        <ellipse class="cls-6" cx="881.49" cy="711.7" rx="4.68" ry="4.74" transform="translate(-163.56 274.18) rotate(-16.2)"/>
        <ellipse class="cls-13" cx="886.03" cy="709.11" rx="4.25" ry="4.85"/>
      </g>
    </g>
    <g>
      <ellipse class="cls-6" cx="1032.28" cy="769.75" rx="4.5" ry="4.6"/>
      <ellipse class="cls-6" cx="1038.28" cy="770.77" rx="4.5" ry="4.6"/>
      <ellipse class="cls-6" cx="1041.28" cy="774.85" rx="4.5" ry="4.6"/>
      <g>
        <ellipse class="cls-6" cx="1038.28" cy="780.98" rx="4.5" ry="4.6"/>
        <ellipse class="cls-6" cx="1030.49" cy="777.7" rx="4.68" ry="4.74" transform="translate(-176.05 318.37) rotate(-16.2)"/>
        <ellipse class="cls-13" cx="1035.03" cy="775.11" rx="4.25" ry="4.85"/>
      </g>
    </g>
    <g>
      <ellipse class="cls-6" cx="1186.28" cy="705.75" rx="4.5" ry="4.6"/>
      <ellipse class="cls-6" cx="1192.28" cy="706.77" rx="4.5" ry="4.6"/>
      <ellipse class="cls-6" cx="1195.28" cy="710.85" rx="4.5" ry="4.6"/>
      <g>
        <ellipse class="cls-6" cx="1192.28" cy="716.98" rx="4.5" ry="4.6"/>
        <ellipse class="cls-6" cx="1184.49" cy="713.7" rx="4.68" ry="4.74" transform="translate(-152.08 358.79) rotate(-16.2)"/>
        <ellipse class="cls-13" cx="1189.03" cy="711.11" rx="4.25" ry="4.85"/>
      </g>
    </g>
    <g>
      <ellipse class="cls-6" cx="1027.28" cy="362.75" rx="4.5" ry="4.6"/>
      <ellipse class="cls-6" cx="1033.28" cy="363.77" rx="4.5" ry="4.6"/>
      <ellipse class="cls-6" cx="1036.28" cy="367.85" rx="4.5" ry="4.6"/>
      <g>
        <ellipse class="cls-6" cx="1033.28" cy="373.98" rx="4.5" ry="4.6"/>
        <ellipse class="cls-6" cx="1025.49" cy="370.7" rx="4.68" ry="4.74" transform="translate(-62.7 300.82) rotate(-16.2)"/>
        <ellipse class="cls-13" cx="1030.03" cy="368.11" rx="4.25" ry="4.85"/>
      </g>
    </g>
    <g>
      <ellipse class="cls-6" cx="983.07" cy="663.98" rx="4.46" ry="4.6"/>
      <ellipse class="cls-6" cx="989.02" cy="665" rx="4.46" ry="4.6"/>
      <ellipse class="cls-6" cx="991.99" cy="669.09" rx="4.46" ry="4.6"/>
      <g>
        <ellipse class="cls-6" cx="989.02" cy="675.22" rx="4.46" ry="4.6"/>
        <ellipse class="cls-6" cx="981.3" cy="671.94" rx="4.64" ry="4.73" transform="translate(-93.59 162.96) rotate(-9.06)"/>
        <ellipse class="cls-13" cx="985.8" cy="669.34" rx="4.21" ry="4.85"/>
      </g>
    </g>
    <g>
      <ellipse class="cls-6" cx="967.04" cy="533.98" rx="4.5" ry="4.6"/>
      <ellipse class="cls-6" cx="973.04" cy="535" rx="4.5" ry="4.6"/>
      <ellipse class="cls-6" cx="976.04" cy="539.09" rx="4.5" ry="4.6"/>
      <g>
        <ellipse class="cls-6" cx="973.04" cy="545.22" rx="4.5" ry="4.6"/>
        <ellipse class="cls-6" cx="965.25" cy="541.94" rx="4.68" ry="4.74" transform="translate(-112.87 290.81) rotate(-16.2)"/>
        <ellipse class="cls-13" cx="969.79" cy="539.34" rx="4.25" ry="4.85"/>
      </g>
    </g>
  </g>
</svg>