<?xml version="1.0" encoding="UTF-8"?>
<svg xmlns="http://www.w3.org/2000/svg" viewBox="0 0 1920 1080">
  <defs>
    <style>
      .cls-1 {
        fill: #9b6a3d;
      }

      .cls-1, .cls-2, .cls-3, .cls-4, .cls-5, .cls-6, .cls-7, .cls-8, .cls-9, .cls-10, .cls-11 {
        stroke-width: 0px;
      }

      .cls-12 {
        fill: #efea48;
        stroke: #fff;
      }

      .cls-12, .cls-13, .cls-14 {
        stroke-miterlimit: 10;
      }

      .cls-2 {
        fill: #e8731a;
      }

      .cls-3 {
        fill: #86a5a5;
      }

      .cls-5, .cls-13 {
        fill: none;
      }

      .cls-6 {
        fill: #fff;
      }

      .cls-13 {
        stroke-width: 2px;
      }

      .cls-13, .cls-14 {
        stroke: #000;
      }

      .cls-7 {
        fill: #dd3737;
      }

      .cls-8 {
        fill: #66c67a;
      }

      .cls-9 {
        fill: #3e8945;
      }

      .cls-10 {
        fill: #f47a16;
      }

      .cls-11 {
        fill: #5b5855;
      }

      .cls-14 {
        stroke-width: 4px;
      }
    </style>
  </defs>
  <g id="Layer_1" data-name="Layer 1">
    <g>
      <rect class="cls-3" x=".5" y=".5" width="1919" height="1079"/>
      <path class="cls-4" d="m1919,1v1078H1V1h1918m1-1H0v1080h1920V0h0Z"/>
    </g>
    <ellipse class="cls-7" cx="551.24" cy="958" rx="229.1" ry="83"/>
  </g>
  <g id="Layer_4" data-name="Layer 4">
    <path class="cls-7" d="m141.59,350.35s104.32,125.92,72.16-4.84l1.43-11.07s28.58,65.73,50.73,49.81c22.15-15.91,8.57-48.43,17.15-31.83,8.57,16.6,9.29,53.96,39.3,25.6,30.01-28.37,62.16-65.73,58.59-49.81s-47.16,57.42-50.01,69.18c-2.86,11.76,6.36,24.21,16.04,27.67,9.68,3.46-6.75,16.6-6.75,16.6,0,0-22.15,27.67,36.44,31.83s49.3,4.84,49.3,4.84c0,0-34.08,20.76-77.06,18.33s34.9,75.76,34.9,75.76c0,0-52.16-16.6-54.3-24.21-2.14-7.61-20.01,6.92-6.43,42.2s-42.87-30.44-42.87-30.44c0,0-30.43-14.77-28.43,63.53,0,0-13.72,51.32-20.87,23.64-7.14-27.67-5-62.96-5-62.96,0,0-7.14-42.89-33.58-6.23s-25.01,61.57-25.01,61.57c0,0-6.43-27.67,3.57-58.81,10-31.13,18.58-62.96-9.29-26.98-27.87,35.98-38.58,41.51-32.87,24.91,5.72-16.6,27.87-41.51,27.87-41.51,0,0,12.15-26.98-16.43-15.91-28.58,11.07-23.58-2.08-21.43-11.07s39.77-20.29,39.77-20.29c0,0,8.81-28.83-27.63-35.75-36.44-6.92-25.72-19.37-25.72-19.37,0,0,30.72-7.61,46.44-1.38s21.7-8.3,21.7-8.3l-13.84-27.67s-32.15-47.74-17.86-47.05Z"/>
    <ellipse class="cls-7" cx="124.43" cy="558.7" rx="16.43" ry="15.91"/>
    <ellipse class="cls-7" cx="139.79" cy="576" rx="15.36" ry="11.07"/>
    <ellipse class="cls-7" cx="123.72" cy="397.15" rx="8.57" ry="10.03"/>
    <ellipse class="cls-7" cx="134.08" cy="411.68" rx="9.65" ry="9.34"/>
    <ellipse class="cls-7" cx="423.81" cy="421.71" rx="10.72" ry="10.38"/>
    <ellipse class="cls-7" cx="420.95" cy="445.24" rx="14.29" ry="13.84"/>
    <ellipse class="cls-7" cx="429.87" cy="470.15" rx="3.37" ry="3.44"/>
    <ellipse class="cls-7" cx="466.69" cy="507.55" rx="2.39" ry="3.03"/>
    <ellipse class="cls-7" cx="269.48" cy="342.15" rx="4.29" ry="4.15"/>
    <ellipse class="cls-7" cx="123.36" cy="556.97" rx="13.22" ry="12.8"/>
    <ellipse class="cls-7" cx="119.79" cy="625.46" rx="4.64" ry="4.5"/>
    <ellipse class="cls-7" cx="172.66" cy="691.53" rx="8.93" ry="2.08"/>
    <ellipse class="cls-7" cx="169.09" cy="667.67" rx="5.36" ry="5.19"/>
    <ellipse class="cls-7" cx="325.92" cy="642.76" rx="17.86" ry="9.34"/>
    <ellipse class="cls-7" cx="460.25" cy="729.43" rx="10.73" ry="7.57"/>
    <ellipse class="cls-7" cx="440.39" cy="603.86" rx="3.37" ry="4.24"/>
    <ellipse class="cls-7" cx="443.54" cy="549.05" rx="3.16" ry="2.38"/>
    <ellipse class="cls-7" cx="463.34" cy="517.45" rx="6.66" ry="9.49"/>
    <ellipse class="cls-7" cx="472.65" cy="614.4" rx="8.35" ry="13.02"/>
    <g>
      <path class="cls-7" d="m1656.83,293.58s76.56,85.13,52.96-3.27l1.05-7.48s20.97,44.44,37.23,33.68,6.29-32.74,12.58-21.52c6.29,11.23,6.82,36.48,28.84,17.31,22.02-19.18,45.62-44.44,43-33.68-2.62,10.76-34.61,38.82-36.7,46.78-2.1,7.95,4.66,16.37,11.77,18.71,7.11,2.34-4.95,11.23-4.95,11.23,0,0-16.25,18.71,26.74,21.52,43,2.81,36.18,3.27,36.18,3.27,0,0-25.01,14.03-56.55,12.4-31.54-1.64,25.62,51.22,25.62,51.22,0,0-38.28-11.23-39.85-16.37s-14.68,4.68-4.72,28.53c9.96,23.86-31.46-20.58-31.46-20.58,0,0-22.33-9.98-20.87,42.95,0,0-10.07,34.69-15.31,15.98s-3.67-42.57-3.67-42.57c0,0-5.24-29-24.64-4.21-19.4,24.79-18.35,41.63-18.35,41.63,0,0-4.72-18.71,2.62-39.76,7.34-21.05,13.63-42.57-6.82-18.24-20.45,24.32-28.32,28.07-24.12,16.84,4.19-11.23,20.45-28.07,20.45-28.07,0,0,8.91-18.24-12.06-10.76-20.97,7.48-17.3-1.4-15.73-7.48s29.19-13.72,29.19-13.72c0,0,6.47-19.49-20.28-24.17-26.74-4.68-18.88-13.1-18.88-13.1,0,0,22.55-5.15,34.08-.94,11.54,4.21,15.93-5.61,15.93-5.61l-10.16-18.71s-23.6-32.27-13.11-31.81Z"/>
      <ellipse class="cls-7" cx="1616.88" cy="435.45" rx="12.06" ry="10.76"/>
      <ellipse class="cls-7" cx="1628.16" cy="447.15" rx="11.27" ry="7.48"/>
      <ellipse class="cls-7" cx="1616.36" cy="326.23" rx="6.29" ry="6.78"/>
      <ellipse class="cls-7" cx="1623.96" cy="336.06" rx="7.08" ry="6.31"/>
      <ellipse class="cls-7" cx="1836.59" cy="342.84" rx="7.87" ry="7.02"/>
      <ellipse class="cls-7" cx="1834.49" cy="358.74" rx="10.49" ry="9.36"/>
      <ellipse class="cls-7" cx="1872.61" cy="388.39" rx="2.8" ry="2.66"/>
      <ellipse class="cls-7" cx="1868.06" cy="400.87" rx="1.75" ry="2.05"/>
      <ellipse class="cls-7" cx="1723.33" cy="289.05" rx="3.15" ry="2.81"/>
      <ellipse class="cls-7" cx="1616.1" cy="434.28" rx="9.7" ry="8.65"/>
      <ellipse class="cls-7" cx="1613.48" cy="480.59" rx="3.41" ry="3.04"/>
      <ellipse class="cls-7" cx="1652.28" cy="525.26" rx="6.55" ry="1.4"/>
      <ellipse class="cls-7" cx="1649.66" cy="509.12" rx="3.93" ry="3.51"/>
      <ellipse class="cls-7" cx="1764.75" cy="492.28" rx="13.11" ry="6.31"/>
      <ellipse class="cls-7" cx="1863.33" cy="550.88" rx="7.88" ry="5.12"/>
      <ellipse class="cls-7" cx="1881.36" cy="491.74" rx="2.8" ry="3.27"/>
      <ellipse class="cls-7" cx="1883.99" cy="449.37" rx="2.63" ry="1.84"/>
      <ellipse class="cls-7" cx="1900.46" cy="424.95" rx="5.54" ry="7.33"/>
      <ellipse class="cls-7" cx="1872.44" cy="473.11" rx="6.13" ry="8.8"/>
    </g>
    <g>
      <path class="cls-7" d="m702.58,85.31c-.11,11.03,1.37,24.46,3.92,33.73,2.55,9.27,6.43,12.59,13.87,13.98,3.67.69,5.42-.68,7.62-1.84s2.61-2.45,3.36-4.37c.75-1.92.63-3.45.83-5.73.19-2.28.08-5.42.15-8,.03-1.02-.04-4.13,0-4.89.11-2.22-.17-6.13-.34-7.4-.36-2.76-.53-4.39-1.79-6.01-1.26-1.62-2.57-1.65-4.24-2.02-1.67-.38-3.57-.37-5.16-.48s-2.81-.08-4.33-.21c.01-.69,0-1.39,0-2.08,20.28,0,40.56,0,60.84,0-.02.69.03,1.39-.03,2.08-1.57.18-4.51.17-5.81.4-2.35.42-3.98.17-5.49,1.97-1.51,1.8-1.52,3.13-1.79,6.11-.14,1.54-.21,2.99-.25,6.33-.04,3.34-.02,12.18,0,16.41.02,4.23.2,7.8.24,11.83-.63-.02-1.33,0-1.92-.01-1.84-2.75-2.92-5.04-6.06-6.86s-4.69-3.32-9.53-3.03c-4.34.26-7.67,2.58-13.16,5.68-5.49,3.1-13.73,5.86-22.16,5.31-11.66-.77-23.37-4.31-32-14.01-8.63-9.71-13.15-21.51-13-34.78.16-13.93,4.26-25.59,14.39-35.35s23.11-12.66,36.53-13.5c7.34-.46,17.83,2.97,22.58,5.17,4.75,2.2,10.52,5.44,12.13,5.68,4.56.66,4.01-.52,5.73-2.59,1.72-2.07,1.56-5.45,2.6-7.87.8-.05,1.72,0,2.57-.02,0,14,0,27.99,0,41.99-.73-.02-1.49.04-2.2-.04-2.89-9.55-6.45-19.6-13-27.08-6.55-7.48-13.01-11.25-23.16-11.11-8.08.11-12.99,4.83-16.54,12.99-3.55,8.16-5.31,20.45-5.4,29.66Z"/>
      <path class="cls-7" d="m847.24,130.19c2.26,0,3.47-1.42,4.26-3.88.79-2.46,1.19-6.25,1.2-9.06.59-.02,1.25-.07,1.79.03.33,4.62-.93,11.9-3.87,14.79-2.94,2.89-4.48,3.72-7.5,4.82s-5.29.97-8.4,1.02c-3.43.05-6.93-.95-9.86-2.84-2.93-1.89-4.42-4.37-5.29-7.64-1.82,3.43-3.33,5.98-7.07,7.89-3.74,1.91-8.12,2.68-12.63,2.6-4.81-.09-9.65-1.25-13.41-4.56s-5.06-7.77-5.21-12.54c-.12-3.84,1.06-7.69,3.17-10.39s3.67-3.97,6.73-4.99,7.15-1.23,10.3-1.59c3.15-.36,7.69-.82,10.13-1.47,2.44-.65,3.42-.86,4.89-1.87,1.47-1.01,1.43-1.74,1.49-3.41.11-3.16-.06-8.72-.1-11.53-.04-3.21-.08-5.18-1.3-7.43-1.22-2.25-3.23-2.1-5.4-2.28-1.36-.11-3.14.33-4.24,1.16-1.1.83-1.83,1.46-1.72,3.04.11,1.59,1.38,2.26,2.81,3.66,1.43,1.4,2.96,3.66,2.61,6.42-.35,2.76-.88,4.99-3.72,7.18-2.84,2.19-7.38,3.19-11.58,3.02-2.3-.09-5.64-.68-7.63-2.42s-3.6-3.46-3.27-6.49c.65-6.06,3.1-9.76,9.2-12.88,6.1-3.12,13.89-4.88,21.4-4.74,6.34.12,13.51,1.24,19.25,4.4,5.75,3.16,8.6,6.51,8.87,13.63.33,8.74-.08,20.78.08,29.41.06,3.21.1,4.45.77,6.54.67,2.09,1.37,2.41,3.25,2.4Zm-29.24-3.8c0-8.29,0-16.56,0-24.84-.13-.04-.26-.08-.39-.13-1.14,1.41-2.72,2.15-4.3,2.93-1.58.78-3.15,1.31-4.37,2.7-1.22,1.39-1.53,3.04-1.95,5.05s-.7,5.38-.69,7.45c0,3.12.2,6.68.89,9.3.69,2.62,1.81,3.37,4.11,3.58,1.74.16,3.09-.78,4.29-1.91,1.2-1.14,1.9-2.59,2.4-4.14Z"/>
      <path class="cls-7" d="m975.56,136.66c-13.07,0-26.14,0-39.21,0,0-.68,0-1.42,0-2.05,1.67-.42,4.23.53,5.3-1.58,1.08-2.11.77-3.74.87-7,.04-1.37.1-2.47.12-6.4s.02-20.81,0-24.67c-.02-3.86-.08-4.54-.12-5.82-.12-3.57-.09-5.89-1.37-8.23-1.29-2.34-2.43-2.46-4.92-2.53-1.66-.05-3.2.63-4.97,2.22-1.77,1.6-3.19,5.29-3.4,8.39-.02,7.66-.05,24.81-.01,30.28.03,5.47.07,4.79.12,6.69.1,3.54-.1,3.94.49,6.32.6,2.38,3.26,1.78,4.91,2.32.02.64,0,1.38,0,2.06-12.32,0-24.63,0-36.95,0,0-.68,0-1.42,0-2.05,1.69-.42,4.12.5,5.24-1.58,1.12-2.08.84-3.74.93-7,.04-1.37.1-2.47.12-6.4.03-3.93.02-20.8,0-24.67-.01-3.87-.1-4.53-.12-5.81-.05-3.58-.2-5.88-1.35-8.23-1.15-2.35-2.81-2.41-4.81-2.56-2.52-.18-4.67.78-5.96,2.78s-1.78,3.57-2.58,6.07c.04,8.01-.02,26.26.02,31.98.04,5.73.07,4.8.12,6.75.1,3.61-.1,3.93.49,6.33.6,2.4,3.26,1.77,4.91,2.32.02.64,0,1.38,0,2.05-12.98,0-25.97,0-38.95,0,.01-.69-.02-1.39.02-2.07.67-.11,2.25,0,2.76-.13,1.81-.5,3.61.11,4.59-1.94.98-2.06.71-3.22.81-6.51.05-1.53.1-1.99.12-6.55.03-4.56.02-24.56,0-29.15-.02-4.59,0-4.17-.13-5.97-.19-2.83-.12-3-.83-4.95-.71-1.94-2.94-1.62-4.71-2-.48-.1-2.22-.15-2.88-.26-.05-.69,0-1.39-.02-2.08,11.05,0,22.1,0,33.15,0-.03,3.26.06,6.47-.05,9.77,1.72-3.14,1.76-4.7,4.92-7.5,3.16-2.81,8.71-3.75,13.91-3.55,3.6.14,8.88.86,12.47,3.07,3.59,2.21,6.26,5.21,7.93,9.17,1.73-3.27,1-4.01,3.85-7.62,2.85-3.61,9.63-5.05,15.79-4.63,4.19.28,11.02,1.6,15,4.94,3.98,3.34,6.37,7.5,6.47,12.79.14,7.37-.02,22.79.04,27.87s.08,5.02.13,6.59c.11,3.47-.21,4.46.75,6.56.97,2.1,2.9,1.38,4.65,1.96.39.13,1.73.03,2.26.13.04.68,0,1.38.02,2.07Z"/>
      <path class="cls-7" d="m1043.82,117.18c-2.76,6.1-6.08,11.43-11.78,15.18-5.7,3.76-12.18,5.64-18.93,5.49-9.48-.21-18.01-2.24-25.17-8.54-7.16-6.29-9.82-13.98-9.87-23.54-.05-8.9,3.4-16.82,10.16-22.9,6.76-6.08,15.6-8.92,24.32-9.01,9.12-.09,16.74,2.29,22.87,8.35,6.13,6.07,7.28,12.62,8.17,20.64-13.38.02-26.61,0-39.95,0,.09,3.22.21,6.36.73,9.56.52,3.2,1.35,6.44,2.72,9.4,1.37,2.95,3.05,5.37,5.7,7.34,2.65,1.97,5.86,2.81,9.18,2.77,4.77-.06,9.07-1.24,12.56-4.46,3.49-3.21,5.33-7,7.2-11.22.68.3,1.38.59,2.09.92Zm-23.02-16.91c-.1-1.25-.14-2.09-.2-3.45-.05-1.36-.04-3.44-.07-4.88-.07-3.81-.33-8.71-1.93-11.87-1.6-3.16-3.48-4.19-6.73-4.13-2.81.05-4.43.85-5.75,4.06-1.32,3.21-1.99,7.81-2.23,12.13-.09,1.64-.21,6.03-.25,8.07,5.72.12,11.44,0,17.16.06Z"/>
      <path class="cls-7" d="m1188.63,89.39c0,13.73-5.32,25.35-15.65,34.64-10.33,9.29-23.18,13.96-36.93,13.97-14.33.01-26.86-4.3-37.22-13.77-10.36-9.47-14.93-21.18-14.99-34.85-.06-14.09,4.78-25.86,15.26-35.19,10.48-9.33,22.9-13.48,36.89-13.49,13.99,0,26.61,4.32,37.12,13.67,10.51,9.35,15.52,20.87,15.52,35.02Zm-39.27-35.32c-2.6-7.09-6.35-10.51-13.32-11.01-3.53-.25-5.69.77-8.39,3.14-2.7,2.37-4.08,4.94-5.42,9.13-1.34,4.18-2.22,9.84-2.7,15.12-.48,5.28-.87,13.39-.83,18.74.05,7.35.16,15.23,1.05,21.75.88,6.52,1.79,11.03,3.98,16.7,2.18,5.68,6.27,7.88,12.3,7.99,3.06.06,5.76-.72,8.31-3.16s4.1-4.92,5.4-9.14c1.3-4.22,2.22-9.8,2.7-15.13.47-5.33.84-13.27.83-18.77-.02-6.54-.22-14.19-.78-19.94s-1.49-10.98-3.13-15.42Z"/>
      <path class="cls-7" d="m1235.7,77.12c-.71.05-.8-.03-1.64.08s-1.65.12-2.82.42-2.04,1.5-1.92,3.04c.06.81-.02,1.51.27,2.49.29.98.41,1.31.93,2.66,3.28,8.39,6.62,17.55,9.85,26.1,2.9-7.36,6.55-16.68,9.1-23.57,1.28-3.45,1.45-4.77,1.63-7.27.13-1.75-.11-1.73-.91-2.59s-1.72-.82-2.87-1.08-2.85-.15-4.1-.28c-.02-.68,0-1.38,0-2.07,7.28,0,14.56,0,21.84,0,0,.68,0,1.41,0,2.06-1.7.39-3.11.02-4.85.6-1.74.58-2.35.46-3.86,2.55-1.51,2.1-2.01,2.86-3.62,6.95-1.61,4.09-4.79,12.3-6.95,17.88-2.15,5.59-5.83,15.11-7.82,20.31-1.99,5.21-2.75,7.24-4.45,11.84-3.03-.1-6.17-.06-9.21-.02-2.03-5.17-3.43-8.76-5.57-14.37-2.14-5.61-5.87-15.18-8.02-20.72-2.15-5.54-5.11-13.02-6.64-16.78-1.53-3.76-1.7-4.13-2.79-5.98-1.09-1.85-1.47-1.21-2.61-1.72-1.14-.51-2.17-.28-3.11-.44-.94-.16-1.31,0-2.15-.09.02-.68,0-1.38.01-2.07,14.08,0,28.17,0,42.25,0,0,.69-.02,1.39.01,2.08Z"/>
      <path class="cls-7" d="m1328.64,117.18c-2.76,6.1-6.08,11.43-11.78,15.18-5.7,3.76-12.18,5.64-18.93,5.49-9.48-.21-18.01-2.24-25.17-8.54-7.16-6.29-9.82-13.98-9.87-23.54-.05-8.9,3.4-16.82,10.16-22.9,6.76-6.08,15.6-8.92,24.32-9.01,9.12-.09,16.74,2.29,22.87,8.35,6.13,6.07,7.28,12.62,8.17,20.64-13.38.02-26.61,0-39.95,0,.09,3.22.21,6.36.73,9.56.52,3.2,1.35,6.44,2.72,9.4,1.37,2.95,3.05,5.37,5.7,7.34,2.65,1.97,5.86,2.81,9.18,2.77,4.77-.06,9.07-1.24,12.56-4.46,3.49-3.21,5.33-7,7.2-11.22.68.3,1.38.59,2.09.92Zm-23.02-16.91c-.1-1.25-.14-2.09-.2-3.45-.05-1.36-.04-3.44-.07-4.88-.07-3.81-.33-8.71-1.93-11.87-1.6-3.16-3.48-4.19-6.73-4.13-2.81.05-4.43.85-5.75,4.06-1.32,3.21-1.98,7.81-2.23,12.13-.09,1.64-.21,6.03-.25,8.07,5.72.12,11.44,0,17.16.06Z"/>
      <path class="cls-7" d="m1330.45,136.66c.02-.69-.03-1.39.02-2.07.84-.11,2.74.03,3.39-.14,1.87-.48,3.61.11,4.61-1.94,1-2.05.7-3.23.81-6.51.05-1.53.1-1.99.12-6.55.03-4.56.02-24.56,0-29.15-.02-4.59,0-4.17-.13-5.97-.2-2.83-.12-3-.83-4.95-.72-1.94-2.9-1.63-4.72-2-.55-.11-2.49-.15-3.25-.26-.06-.69,0-1.39-.03-2.08,11.27,0,22.53,0,33.8,0-.03,3.66.06,7.24-.05,10.96,1.72-3.02,1.53-4.05,4.14-7.29,2.61-3.24,8.21-4.78,13.55-4.42,3.12.21,7.78,1.43,10.37,4.35,2.59,2.92,4.38,6.3,4.3,10.28-.08,3.98-1.27,7.17-4.09,9.92-2.82,2.75-6.13,3.89-10.04,3.96-3.23.06-6.14-1.25-8.46-3.41-2.32-2.16-3.46-4.81-3.58-7.81-.09-2.2.39-4.11,1.15-5.98.77-1.87,1.79-3.3,2.57-5.12-.29-.38-.76-.91-1.28-.88-2.72.14-4.43,1.89-5.82,4.01-1.4,2.12-2.45,5.15-2.47,7.57-.06,7.76-.04,23.47-.02,28.94.03,5.47.05,5,.12,7.15.1,3.21-.11,3.38.94,5.24,1.05,1.86,2.7,1.31,4.54,1.79.74.19,2.78.11,3.72.27.05.68,0,1.38.02,2.07-14.48,0-28.95,0-43.42,0Z"/>
    </g>
    <path class="cls-7" d="m584.87,231.9s52.04,56.19,36-2.16l.71-4.94s14.26,29.33,25.31,22.23c11.05-7.1,4.28-21.61,8.55-14.2s4.63,24.08,19.6,11.42c14.97-12.66,31.01-29.33,29.23-22.23s-23.52,25.62-24.95,30.87,3.17,10.81,8,12.35c4.83,1.54-3.37,7.41-3.37,7.41,0,0-11.05,12.35,18.18,14.2s24.59,2.16,24.59,2.16c0,0-17,9.26-38.44,8.18s17.41,33.81,17.41,33.81c0,0-26.02-7.41-27.09-10.81s-9.98,3.09-3.21,18.83c6.77,15.74-21.39-13.58-21.39-13.58,0,0-15.18-6.59-14.18,28.35,0,0-6.85,22.9-10.41,10.55s-2.5-28.09-2.5-28.09c0,0-3.56-19.14-16.75-2.78-13.19,16.36-12.48,27.48-12.48,27.48,0,0-3.21-12.35,1.78-26.24,4.99-13.89,9.27-28.09-4.63-12.04-13.9,16.05-19.25,18.52-16.4,11.11,2.85-7.41,13.9-18.52,13.9-18.52,0,0,6.06-12.04-8.2-7.1s-11.76-.93-10.69-4.94,19.84-9.05,19.84-9.05c0,0,4.4-12.86-13.78-15.95-18.18-3.09-12.83-8.64-12.83-8.64,0,0,15.33-3.4,23.17-.62,7.84,2.78,10.83-3.7,10.83-3.7l-6.91-12.35s-16.04-21.3-8.91-20.99Z"/>
    <ellipse class="cls-7" cx="1018.71" cy="706.62" rx="16.43" ry="15.91"/>
    <ellipse class="cls-7" cx="1034.07" cy="723.91" rx="15.36" ry="11.07"/>
    <ellipse class="cls-7" cx="1017.99" cy="545.07" rx="8.57" ry="10.03"/>
    <ellipse class="cls-7" cx="1028.35" cy="559.6" rx="9.65" ry="9.34"/>
    <ellipse class="cls-7" cx="1476.08" cy="548.63" rx="10.72" ry="10.38"/>
    <ellipse class="cls-7" cx="1465.22" cy="609.15" rx="14.29" ry="13.84"/>
    <ellipse class="cls-7" cx="1017.64" cy="704.89" rx="13.22" ry="12.8"/>
    <ellipse class="cls-7" cx="1014.06" cy="773.38" rx="4.64" ry="4.5"/>
    <ellipse class="cls-7" cx="1066.94" cy="839.45" rx="8.93" ry="2.08"/>
    <ellipse class="cls-7" cx="1063.36" cy="815.58" rx="5.36" ry="5.19"/>
    <ellipse class="cls-7" cx="1220.2" cy="790.67" rx="17.86" ry="9.34"/>
    <ellipse class="cls-7" cx="1354.53" cy="877.35" rx="10.73" ry="7.57"/>
    <ellipse class="cls-7" cx="1334.66" cy="751.78" rx="3.37" ry="4.24"/>
    <ellipse class="cls-7" cx="1337.82" cy="696.97" rx="3.16" ry="2.38"/>
    <ellipse class="cls-7" cx="1357.62" cy="665.37" rx="6.66" ry="9.49"/>
    <ellipse class="cls-7" cx="1366.93" cy="762.32" rx="8.35" ry="13.02"/>
    <ellipse class="cls-7" cx="669.71" cy="442.62" rx="16.43" ry="15.91"/>
    <ellipse class="cls-7" cx="975.14" cy="354.07" rx="3.37" ry="3.44"/>
    <ellipse class="cls-7" cx="1011.97" cy="391.46" rx="2.39" ry="3.03"/>
    <ellipse class="cls-7" cx="814.75" cy="226.07" rx="4.29" ry="4.15"/>
    <ellipse class="cls-7" cx="665.06" cy="509.38" rx="4.64" ry="4.5"/>
    <ellipse class="cls-7" cx="717.94" cy="575.45" rx="8.93" ry="2.08"/>
    <ellipse class="cls-7" cx="714.36" cy="551.58" rx="5.36" ry="5.19"/>
    <ellipse class="cls-7" cx="871.2" cy="526.67" rx="17.86" ry="9.34"/>
    <ellipse class="cls-7" cx="1005.53" cy="613.35" rx="10.73" ry="7.57"/>
    <ellipse class="cls-7" cx="985.66" cy="487.78" rx="3.37" ry="4.24"/>
    <ellipse class="cls-7" cx="988.82" cy="432.97" rx="3.16" ry="2.38"/>
    <ellipse class="cls-7" cx="1008.62" cy="401.37" rx="6.66" ry="9.49"/>
    <ellipse class="cls-7" cx="1017.93" cy="498.32" rx="8.35" ry="13.02"/>
  </g>
  <g id="Layer_5" data-name="Layer 5">
    <ellipse class="cls-7" cx="1523.5" cy="976" rx="224.5" ry="83"/>
    <g>
      <line class="cls-5" x1="1084.62" y1="794.85" x2="1076.78" y2="1055.6"/>
      <line class="cls-5" x1="1351.4" y1="959.26" x2="1076.78" y2="1055.6"/>
      <ellipse class="cls-6" cx="1369.07" cy="933.12" rx="81.07" ry="83.84" transform="translate(429.03 2297.45) rotate(-89.71)"/>
      <path class="cls-6" d="m1451.24,917.01s132.33,22.76,123.66-30.18c-8.67-52.93-142.14-6.39-142.14-6.39l18.48,36.57Z"/>
      <path class="cls-6" d="m1442.54,961s134.23-6.36,118.74,45.09c-15.5,51.45-141.83-11.07-141.83-11.07l23.1-34.01Z"/>
      <path class="cls-6" d="m1324.47,866.21s-213.57-102.14-222.16-82.93c-8.59,19.22-29.6,251.21-16.83,257.18,12.77,5.97,244.61-12.33,250.45-42.47,5.84-30.14-11.45-131.79-11.45-131.79Z"/>
      <ellipse class="cls-6" cx="1094.88" cy="1037.29" rx="39.73" ry="21.03" transform="translate(-13.24 2060.42) rotate(-86.17)"/>
      <ellipse class="cls-6" cx="1110.68" cy="795.79" rx="39.73" ry="21.03" transform="translate(242.47 1850.83) rotate(-86.17)"/>
      <ellipse class="cls-1" cx="1507.82" cy="891.19" rx="52.89" ry="18.31" transform="translate(-48.99 88.65) rotate(-3.31)"/>
      <ellipse class="cls-1" cx="1497.12" cy="992.11" rx="18.35" ry="52.77" transform="translate(135.21 2162.95) rotate(-74.22)"/>
      <path class="cls-14" d="m1384.95,895.07l.05,20.91"/>
      <g>
        <ellipse class="cls-4" cx="1351.49" cy="934.45" rx="14.55" ry="5.71" transform="translate(329.88 2221.32) rotate(-86.22)"/>
        <ellipse class="cls-4" cx="1345.79" cy="934.1" rx="5.46" ry="7.09" transform="translate(338.19 2225.79) rotate(-86.81)"/>
      </g>
      <line class="cls-13" x1="1416.01" y1="960.78" x2="1395.43" y2="980.59"/>
      <line class="cls-13" x1="1419.13" y1="913.1" x2="1401.3" y2="890.93"/>
      <path class="cls-1" d="m1267.55,877.06s-88.24-7.78-90.57,10.9c-2.33,18.68,84.36,26.37,84.36,26.37"/>
      <path class="cls-1" d="m1261.23,973.67s-88.55-3.09-88.42-21.91c.13-18.82,87.12-15.82,87.12-15.82"/>
      <path class="cls-14" d="m1384.57,945.94l-.13,20.91"/>
    </g>
    <g>
      <path class="cls-5" d="m287.97,928.62c-12.86,21.72-17.15,33,8.77,38.96,25.92,5.96,36.62-3.82,41.57-9.36s5.17-23.85,5.17-23.85c0,0-10.11-7.8-13.18-8.18s-42.34,2.43-42.34,2.43Z"/>
      <path class="cls-5" d="m282.69,929.07s-12.76,21.45-5.02,28.06c7.74,6.61,31.42,18.44,44.81,11.02,13.39-7.42,25.38-27.39,18.74-33.69s-.44-9.3-18.96-8.79c-18.52.52-39.57,3.4-39.57,3.4Z"/>
      <path class="cls-11" d="m147.34,1030.3l12.48-22.3,40.63-.67-2.02,5.92s-27.54-6.51-32.48-.98c-4.95,5.54-15.71,3.43-6.24,11.24,9.47,7.81,6.38,7.58,6.38,7.58l-18.74-.79Z"/>
      <path class="cls-5" d="m71.37,1026.69s-7.54,23.82-3.78,31.94c3.76,8.12,6.44-31.56,3.78-31.94Z"/>
      <path class="cls-11" d="m247.8,1056.95s4.07,12.35-5.02,7.52c-9.09-4.83-17.09,7.78-17.09,7.78,0,0-2.05,1.2-6.76-3.64-4.7-4.84-130.62-10.39-130.62-10.39l-5.65,1.27s-2.3,6.28-9.21-.88c-6.9-7.16-5.57.01-5.57.01l3.49-33.21,66.11,1.32s28.13,6.22,45.29,4.53c7.8-.77,13.34-3.17,12.94-8.53-1.28-17.16,12.37-18.28,12.37-18.28l20.49-45.41,43.87,10.27-26.92,53.49s7.51,18.46,17.95,14.39c10.44-4.07,1.44.66,1.44.66l1.67,2.82s-21.25,9.95-18.79,16.27Z"/>
      <path class="cls-11" d="m184.16,1017.51c3.7-6.49-1.37,13.76-1.37,13.76l5.76-1.01-4.39-12.75Z"/>
    </g>
    <g>
      <polygon class="cls-2" points="834.97 670.36 914.63 928.7 940.92 1013.98 568.83 928.82 834.97 670.36"/>
      <polygon class="cls-6" points="922.19 961.72 650.19 914.27 847.84 718.37 922.19 961.72"/>
      <g>
        <polygon class="cls-10" points="708.68 1033.03 650.29 806.21 512.18 970.57 708.68 1033.03"/>
        <polygon class="cls-4" points="659.59 842.43 627.23 833.13 650.29 806.21 659.59 842.43"/>
        <path class="cls-14" d="m644.33,963.41l21.11,4.43"/>
        <path class="cls-14" d="m579.44,943.93l20.88,5.39"/>
        <line class="cls-13" x1="669.28" y1="978.15" x2="640.61" y2="982.47"/>
        <line class="cls-13" x1="586.57" y1="969.15" x2="567.33" y2="947.46"/>
      </g>
      <ellipse class="cls-2" cx="915.68" cy="1009.23" rx="21.35" ry="41.06" transform="translate(-380.95 589.98) rotate(-29.86)"/>
      <polygon class="cls-10" points="574.16 986.07 516.96 1040.91 515.65 970.11 574.16 986.07"/>
      <polygon class="cls-10" points="654.5 1013.27 660.68 1077.39 705.79 1031.85 654.5 1013.27"/>
      <polygon class="cls-6" points="692.67 1031.61 667.92 1022.7 666.66 1062.66 692.67 1031.61"/>
      <polyline class="cls-6" points="525.3 1024.27 551.31 993.22 526.56 984.3"/>
    </g>
    <ellipse class="cls-7" cx="1024.92" cy="976.39" rx="224.5" ry="83"/>
  </g>
  <g id="Layer_2" data-name="Layer 2">
    <path class="cls-8" d="m1053.23,353.14c1.27,14.7,10.48,38.15,51.18,57.05,2.69,1.25,4.99,3.23,6.59,5.73,11.27,17.5,55.7,89.25,50.45,125.08-5.25,35.85,156.48,421.92,197.18,518.3,4.35,10.3-3.22,21.7-14.4,21.7h-662.23c-12.08,0-19.6-13.13-13.48-23.54l275.42-468.85c3.12-5.31,2.83-11.95-.74-16.97l-21.58-30.34c-2.88-4.04-3.66-9.21-2.12-13.92,8.53-25.98,37.09-110.91,48.93-119.37,14-10,32.63,7.89,42.82-21.06,5.41-15.37,9.07-27.94,11.32-36.34.88-3.28,2.76-6.08,5.25-8.11,2.71-2.2,6.16-3.49,9.85-3.49h0c8.06,0,14.86,6.11,15.55,14.14Z"/>
    <path class="cls-9" d="m1026.09,322.59s-21.27-13.74-44.27,11.26c-23,25-24,66-24,66,0,0,4,20-7,28-11,8-32,30-39,33s-4,61-11,68-36,15-39,28-1,34-6,53-21.78,64-61.39,75,3.39,88-8.61,92l11-17-10,49,21-29-14,33s2,24,8,26-1-19-1-19c0,0,17-15,17-21s14-24,14-24c0,0-13,109,32,121l-16-30,3-31s56.71,30,53.35,61,10.65,20,10.65,20l-8-16,3.04-16.22,2.96-15.78s1-28,9-43c8-15,4-23,4-23,0,0-8,64,0,83,8,19,17,19,17,19l-5-54s19,20,17,31c-2,11-5,29-10,31s24,2,39-17l-21,27s34-24,36-32c2-8,32.27,26.62,32.27,26.62,0,0-17.27-58.62-.27-15.62s10-18,10-18c0,0,1,16,11,26s-5-20-5-20l8.44-16.4s19.56,35.4,27.56,36.4-8-20-8-20l13-24s17,46,33,38c0,0-11-1-16-28s16,9.52,16,9.52l9-8.52,12,25,14,17s17,11,27,13c0,0-18-3-24-29s13-15,13-15c0,0,45,25,64,3,0,0-20,8-30-8s16-11,16-11c0,0,22,4,28-3s-22,0-22,0l22.84-63.27,4.16,32.27,12-43s-2,15-2,23,27-38.11,2-64.55,15,33.55,15,33.55c0,0,7-75.17,0-88.59s-31-48.41-31-48.41c0,0,0,19,30,17,0,0-30.52-19.03-44.76-41.01-14.24-21.99-50.24-16.99-52.24-29.99s20-29,1-45-36-44-30-62-6-38-23-49-32-52-39-87-61.73-33.03-61.73-33.03l-5,3.77Z"/>
    <g>
      <ellipse class="cls-6" cx="1023.42" cy="729.63" rx="4.5" ry="4.6"/>
      <ellipse class="cls-6" cx="1029.42" cy="730.65" rx="4.5" ry="4.6"/>
      <ellipse class="cls-6" cx="1032.42" cy="734.73" rx="4.5" ry="4.6"/>
      <g>
        <ellipse class="cls-6" cx="1029.42" cy="740.86" rx="4.5" ry="4.6"/>
        <ellipse class="cls-6" cx="1021.63" cy="737.58" rx="4.68" ry="4.74" transform="translate(-165.21 314.31) rotate(-16.2)"/>
        <ellipse class="cls-12" cx="1026.17" cy="734.99" rx="4.25" ry="4.85"/>
      </g>
    </g>
    <g>
      <ellipse class="cls-6" cx="1173.57" cy="756.77" rx="4.5" ry="4.6"/>
      <ellipse class="cls-6" cx="1179.57" cy="757.79" rx="4.5" ry="4.6"/>
      <ellipse class="cls-6" cx="1182.57" cy="761.88" rx="4.5" ry="4.6"/>
      <g>
        <ellipse class="cls-6" cx="1179.57" cy="768.01" rx="4.5" ry="4.6"/>
        <ellipse class="cls-6" cx="1171.78" cy="764.73" rx="4.68" ry="4.74" transform="translate(-166.82 357.27) rotate(-16.2)"/>
        <ellipse class="cls-12" cx="1176.32" cy="762.13" rx="4.25" ry="4.85"/>
      </g>
    </g>
    <g>
      <ellipse class="cls-6" cx="821.57" cy="716.77" rx="4.5" ry="4.6"/>
      <ellipse class="cls-6" cx="827.57" cy="717.79" rx="4.5" ry="4.6"/>
      <ellipse class="cls-6" cx="830.57" cy="721.88" rx="4.5" ry="4.6"/>
      <g>
        <ellipse class="cls-6" cx="827.57" cy="728.01" rx="4.5" ry="4.6"/>
        <ellipse class="cls-6" cx="819.78" cy="724.73" rx="4.68" ry="4.74" transform="translate(-169.64 257.48) rotate(-16.2)"/>
        <ellipse class="cls-12" cx="824.32" cy="722.13" rx="4.25" ry="4.85"/>
      </g>
    </g>
    <g>
      <ellipse class="cls-6" cx="1117.57" cy="639.77" rx="4.5" ry="4.6"/>
      <ellipse class="cls-6" cx="1123.57" cy="640.79" rx="4.5" ry="4.6"/>
      <ellipse class="cls-6" cx="1126.57" cy="644.88" rx="4.5" ry="4.6"/>
      <g>
        <ellipse class="cls-6" cx="1123.57" cy="651.01" rx="4.5" ry="4.6"/>
        <ellipse class="cls-6" cx="1115.78" cy="647.73" rx="4.68" ry="4.74" transform="translate(-136.41 337) rotate(-16.2)"/>
        <ellipse class="cls-12" cx="1120.32" cy="645.13" rx="4.25" ry="4.85"/>
      </g>
    </g>
    <g>
      <ellipse class="cls-6" cx="947.57" cy="600.77" rx="4.5" ry="4.6"/>
      <ellipse class="cls-6" cx="953.57" cy="601.79" rx="4.5" ry="4.6"/>
      <ellipse class="cls-6" cx="956.57" cy="605.88" rx="4.5" ry="4.6"/>
      <g>
        <ellipse class="cls-6" cx="953.57" cy="612.01" rx="4.5" ry="4.6"/>
        <ellipse class="cls-6" cx="945.78" cy="608.73" rx="4.68" ry="4.74" transform="translate(-132.27 288.03) rotate(-16.2)"/>
        <ellipse class="cls-12" cx="950.32" cy="606.13" rx="4.25" ry="4.85"/>
      </g>
    </g>
    <g>
      <ellipse class="cls-6" cx="1088.57" cy="534.77" rx="4.5" ry="4.6"/>
      <ellipse class="cls-6" cx="1094.57" cy="535.79" rx="4.5" ry="4.6"/>
      <ellipse class="cls-6" cx="1097.57" cy="539.88" rx="4.5" ry="4.6"/>
      <g>
        <ellipse class="cls-6" cx="1094.57" cy="546.01" rx="4.5" ry="4.6"/>
        <ellipse class="cls-6" cx="1086.78" cy="542.73" rx="4.68" ry="4.74" transform="translate(-108.26 324.74) rotate(-16.2)"/>
        <ellipse class="cls-12" cx="1091.32" cy="540.13" rx="4.25" ry="4.85"/>
      </g>
    </g>
    <g>
      <ellipse class="cls-6" cx="978.57" cy="458.77" rx="4.5" ry="4.6"/>
      <ellipse class="cls-6" cx="984.57" cy="459.79" rx="4.5" ry="4.6"/>
      <ellipse class="cls-6" cx="987.57" cy="463.88" rx="4.5" ry="4.6"/>
      <g>
        <ellipse class="cls-6" cx="984.57" cy="470.01" rx="4.5" ry="4.6"/>
        <ellipse class="cls-6" cx="976.78" cy="466.73" rx="4.68" ry="4.74" transform="translate(-91.43 291.04) rotate(-16.2)"/>
        <ellipse class="cls-12" cx="981.32" cy="464.13" rx="4.25" ry="4.85"/>
      </g>
    </g>
    <g>
      <ellipse class="cls-6" cx="1045.57" cy="397.77" rx="4.5" ry="4.6"/>
      <ellipse class="cls-6" cx="1051.57" cy="398.79" rx="4.5" ry="4.6"/>
      <ellipse class="cls-6" cx="1054.57" cy="402.88" rx="4.5" ry="4.6"/>
      <g>
        <ellipse class="cls-6" cx="1051.57" cy="409.01" rx="4.5" ry="4.6"/>
        <ellipse class="cls-6" cx="1043.78" cy="405.73" rx="4.68" ry="4.74" transform="translate(-71.75 307.31) rotate(-16.2)"/>
        <ellipse class="cls-12" cx="1048.32" cy="403.13" rx="4.25" ry="4.85"/>
      </g>
    </g>
  </g>
</svg>