<?xml version="1.0" encoding="UTF-8"?>
<svg id="Layer_4" data-name="Layer 4" xmlns="http://www.w3.org/2000/svg" viewBox="0 0 889 713">
  <defs>
    <style>
      .cls-1 {
        fill: #9b6a3d;
      }

      .cls-1, .cls-2, .cls-3, .cls-4, .cls-5, .cls-6, .cls-7 {
        stroke-width: 0px;
      }

      .cls-8 {
        stroke-width: 4px;
      }

      .cls-8, .cls-9 {
        fill: none;
      }

      .cls-8, .cls-9, .cls-10 {
        stroke: #000;
        stroke-miterlimit: 10;
      }

      .cls-3 {
        fill: #fff;
      }

      .cls-4 {
        fill: #b514b5;
      }

      .cls-5 {
        fill: #ea1515;
      }

      .cls-6 {
        fill: #e5cfb5;
      }

      .cls-7 {
        fill: #f47a16;
      }
    </style>
  </defs>
  <path class="cls-4" d="m376.49,288.08s-86.8,94.87-92.1,125.16c0,0-53.13,120.42-53.75,152.56-.62,32.14-4.14,116.94-4.14,116.94,0,0,154.25-184.5,160.88-186.12,6.63-1.62,33.06,15.88,44.02,46.51,10.96,30.63,35.29,150.87,35.29,150.87,0,0,58.59-105.67,65.57-133.01,6.98-27.33,15.02-183.27,15.02-183.27l-29.96-96.38-117.32,5.61-23.52,1.12Z"/>
  <path class="cls-7" d="m357.13,129.99s-120.14-77.86-253.35-27.4c0,0,134.93,103.41,252.92,77.74"/>
  <ellipse class="cls-6" cx="447.18" cy="226.16" rx="111.53" ry="75.42" transform="translate(-18.92 42.12) rotate(-5.28)"/>
  <polygon class="cls-3" points="97.41 102.46 151.04 136.44 140.02 116.2 170.16 113.9 144.79 103.43 180.51 97.15 163.62 86.85 97.41 102.46"/>
  <path class="cls-7" d="m539.94,179.77s38.98-76.18,10.07-86.71c-28.91-10.53-136.58-20.93-151.52-11.3-14.94,9.63-75.33,72.39-38.37,101.66,36.96,29.27,179.81-3.65,179.81-3.65Z"/>
  <path class="cls-6" d="m358.27,308.62s-198.17,110.25-205.77,188.43c-7.6,78.19-.52,2.91-.52,2.91l132.4-86.73,73.88-104.62Z"/>
  <path class="cls-6" d="m530.47,323.65l16.81,54.08-.92,16.92,186.64-156.34s-182.29,63.01-202.53,85.34Z"/>
  <path class="cls-4" d="m400.83,301.34l-3.67,24.23c-.4,2.65-3.98,4.35-6.75,3.21l-32.09-13.24c-2.11-.87-4.85-.1-6.13,1.71l-67.52,95.62c-.18.25-.32.52-.43.79l-49.58,126.42c-.12.31-.2.63-.22.95l-4.57,66.04c-.11,1.61,1.08,2.99,2.94,3.39l43.09,9.24c1.83.39,3.88-.26,5.07-1.62l103.09-117.66c1.75-2,5.17-2.33,6.99-.67,11.13,10.16,44.65,46.06,60.22,121.51.32,1.57,1.89,2.68,3.85,2.72l44.84.92c2.04.04,4-1.07,4.73-2.7l27.37-60.77c.13-.29.22-.59.26-.89,1.29-9.22,21.93-157.54,14.04-165.9-6.98-7.4-13.68-54.35-15.44-67.55-.26-1.92-2.35-3.18-4.75-2.86l-33.06,4.54c-2.61.36-4.81-1.16-4.78-3.29l.43-28.04c.03-1.85-1.66-3.29-3.92-3.34l-17.07-.35c-2.7-.06-5.07,1.87-5.02,4.08l.47,22.81c.04,2.11-2.12,3.98-4.71,4.08l-29.02,1.1c-2.12.08-3.87-1.07-4.18-2.76l-3.7-20.09c-.23-1.25-1.26-2.24-2.72-2.61-3.33-.84-9.39-2.28-12.71-2.58h0c-2.56-.22-5.02,1.41-5.34,3.54Z"/>
  <ellipse class="cls-5" cx="489.99" cy="224.54" rx="20.82" ry="10.84" transform="translate(172.83 660.33) rotate(-78.57)"/>
  <ellipse class="cls-5" cx="418.87" cy="223.08" rx="20.82" ry="10.84" transform="translate(117.23 589.45) rotate(-78.57)"/>
  <line class="cls-8" x1="506.48" y1="188.36" x2="466.98" y2="209.08"/>
  <line class="cls-8" x1="417.24" y1="186.53" x2="450.23" y2="208.74"/>
  <polygon class="cls-1" points="356.3 274.32 377.22 260.66 399.97 275.21 434.02 272.06 470.1 283.18 494.26 268.91 542.4 260.55 543.04 326.19 514 311.83 497.78 360.34 465.98 335.57 441.67 375.99 425.84 325.97 398.81 355.38 393.97 314.77 345.13 348.01 351.91 303.26 315.17 313.15 356.3 274.32"/>
  <path class="cls-1" d="m356.3,274.32s-5.97-1.92-11.76-13.8c-5.79-11.89,59.23,14.78,59.23,14.78"/>
  <path class="cls-1" d="m648.93,308.73s-3.45,71.69,3.66,71.6,73.68-21.97,74.06-24.47c.38-2.5-46.55-71.16-46.55-71.16l-31.17,24.04Z"/>
  <polygon class="cls-2" points="643.12 271.15 622.27 217.71 603.11 219.27 597.86 199.32 612.1 195.09 563.17 66.54 558.83 55.14 578.87 59.45 648.48 202.05 652.38 210.05 678.79 257.75 643.12 271.15"/>
  <path class="cls-9" d="m648.48,202.05s34.93,2.3,40.9,13.63c5.97,11.33-19.49,25.97-19.12,26.64"/>
  <path class="cls-9" d="m660.02,223.84s11.32,1.22,14.48-7.49"/>
  <path class="cls-9" d="m558.83,55.14s14.84-6.35,20.04,4.31"/>
  <polygon class="cls-10" points="451.8 623.91 503.44 624.97 466.69 694 451.8 623.91"/>
  <polygon class="cls-10" points="229.67 609.78 278.97 620.35 226.5 682.74 229.67 609.78"/>
  <path class="cls-2" d="m466.54,390.87l46.35.95s-.45,39.45-21.96,37.06c0,0-29.54,7.67-24.38-38.02Z"/>
</svg>