<?xml version="1.0" encoding="UTF-8"?>
<svg id="Layer_4" data-name="Layer 4" xmlns="http://www.w3.org/2000/svg" viewBox="0 0 889 713">
  <defs>
    <style>
      .cls-1 {
        fill: #9b6a3d;
      }

      .cls-1, .cls-2, .cls-3, .cls-4, .cls-5, .cls-6, .cls-7, .cls-8 {
        stroke-width: 0px;
      }

      .cls-9 {
        stroke-width: 4px;
      }

      .cls-9, .cls-10, .cls-4, .cls-11 {
        fill: none;
      }

      .cls-9, .cls-10, .cls-11 {
        stroke: #000;
        stroke-miterlimit: 10;
      }

      .cls-3 {
        fill: #f73c03;
      }

      .cls-5 {
        fill: #f4d7a4;
      }

      .cls-6 {
        fill: #fff;
      }

      .cls-11 {
        stroke-width: 2px;
      }

      .cls-7 {
        fill: #e5cfb5;
      }

      .cls-8 {
        fill: #d6c8d5;
      }
    </style>
  </defs>
  <ellipse class="cls-8" cx="523.82" cy="286.37" rx="116.67" ry="90.04" transform="translate(-3.44 6.39) rotate(-.7)"/>
  <ellipse class="cls-5" cx="520.72" cy="388.68" rx="111.33" ry="90.31" transform="translate(-4.02 5.44) rotate(-.6)"/>
  <ellipse class="cls-1" cx="303.58" cy="590.78" rx="62.23" ry="49.22" transform="translate(-6.71 3.5) rotate(-.65)"/>
  <line class="cls-4" x1="760.74" y1="689.11" x2="285.41" y2="684.8"/>
  <ellipse class="cls-6" cx="532.19" cy="284.86" rx="147.74" ry="116.86" transform="translate(-3.21 6.08) rotate(-.65)"/>
  <line class="cls-4" x1="483.17" y1="307.95" x2="285.41" y2="684.8"/>
  <path class="cls-6" d="m568.22,171.35S537.57-14.28,633.23.88c95.66,15.17.06,198.34.06,198.34l-65.07-27.87Z"/>
  <path class="cls-6" d="m487.43,180.9S509.94-5.69,415.03,12.89c-94.92,18.58,8.6,198.19,8.6,198.19l63.8-30.18Z"/>
  <path class="cls-6" d="m650.37,350.88s168.54,303.43,132.86,314.27c-35.68,10.85-459.74,26.56-469.57,8.42-9.83-18.14,42.38-339.97,97.72-346.34,55.35-6.38,238.99,23.65,238.99,23.65Z"/>
  <ellipse class="cls-6" cx="320.22" cy="660.66" rx="72.39" ry="29.31" transform="translate(-11.28 5.59) rotate(-.98)"/>
  <ellipse class="cls-1" cx="619.83" cy="94.06" rx="74.05" ry="33.22" transform="translate(435.3 693.22) rotate(-81.51)"/>
  <ellipse class="cls-1" cx="435.24" cy="103.06" rx="32.8" ry="74.99" transform="translate(-10.07 144.97) rotate(-18.7)"/>
  <ellipse class="cls-2" cx="492.5" cy="256.92" rx="12.57" ry="22.58" transform="translate(-5.92 11.68) rotate(-1.35)"/>
  <ellipse class="cls-7" cx="524.74" cy="270.35" rx="115.91" ry="75.51" transform="translate(-4.01 7.92) rotate(-.86)"/>
  <ellipse class="cls-3" cx="480.14" cy="266.68" rx="12.57" ry="22.58" transform="translate(-6.15 11.39) rotate(-1.35)"/>
  <ellipse class="cls-3" cx="572.92" cy="265.02" rx="12.57" ry="22.58" transform="translate(-6.09 13.58) rotate(-1.35)"/>
  <line class="cls-9" x1="462.77" y1="223.05" x2="504.83" y2="245.93"/>
  <line class="cls-9" x1="580.16" y1="220.95" x2="539.13" y2="245.31"/>
  <path class="cls-11" d="m527.6,290.46s13.99,6.52,10.95,11.92c-3.04,5.4-25.16,3.3-25.16,3.3,0,0-9.07-2.69-.27-12.47"/>
  <polygon class="cls-2" points="489.27 485 417.46 456.33 421.21 439.33 394.2 430.91 387.18 442.98 214.33 375.11 199 369.09 203.24 387.97 393.69 477.09 404.37 482.09 467.81 514.72 489.27 485"/>
  <path class="cls-7" d="m545.65,445.39l64.94-16.39s-8.68,124.32-10.82,130.21l-54.05-110.9-.06-2.93Z"/>
  <path class="cls-1" d="m498.22,487.65s99.66,4.92,99.46,11.34c-.2,6.42-31.18,64.17-34.66,64.23-3.47.06-98.48-50.08-98.48-50.08l33.68-25.49Z"/>
  <path class="cls-7" d="m519.01,443.83l-67.89-13.99s14.49,123.71,16.97,129.51l50.98-112.6-.06-2.92Z"/>
  <path class="cls-10" d="m412.85,503.23c-6.01,3.31,4.26-14.35,4.26-14.35"/>
  <path class="cls-10" d="m445.11,503.04s-58.91,24.03-46.03-23.43"/>
  <ellipse class="cls-6" cx="767.51" cy="642.03" rx="66.51" ry="27.53" transform="translate(-15.33 18.79) rotate(-1.39)"/>
</svg>