<?xml version="1.0" encoding="UTF-8"?>
<svg id="Layer_2" data-name="Layer 2" xmlns="http://www.w3.org/2000/svg" viewBox="0 0 431.62 506.45">
  <defs>
    <style>
      .cls-1 {
        fill: #9b6a3d;
      }

      .cls-1, .cls-2, .cls-3, .cls-4, .cls-5, .cls-6 {
        stroke-width: 0px;
      }

      .cls-7 {
        stroke-width: 4px;
      }

      .cls-7, .cls-8 {
        fill: none;
      }

      .cls-7, .cls-8, .cls-9 {
        stroke: #000;
        stroke-miterlimit: 10;
      }

      .cls-3 {
        fill: #fff;
      }

      .cls-4 {
        fill: #b514b5;
      }

      .cls-5 {
        fill: #e5cfb5;
      }

      .cls-6 {
        fill: #f47a16;
      }
    </style>
  </defs>
  <g id="Layer_2-2" data-name="Layer 2">
    <g>
      <path class="cls-4" d="m198.61,187.78s-46.82,75.82-47.27,99.66c0,0-22.55,95.31-19.79,120.54s8.79,91.8,8.79,91.8c0,0,81.63-147.21,85.76-148.59s22.93,11.92,33.02,35.77,37.61,117.77,37.61,117.77c0,0,27.52-83.84,29.35-105.39s-8.25-144-8.25-144l-28.81-75.12-75.29,6.29-15.09,1.26Z"/>
      <path class="cls-6" d="m170.6,64.09S85.3,4.95,4.13,46.68c0,0,97.36,78.94,171.13,56.9"/>
      <ellipse class="cls-5" cx="238.24" cy="138.08" rx="71.77" ry="59.62"/>
      <polygon class="cls-3" points="0 46.68 38 72.47 28.89 56.77 48.15 54.48 30.73 46.68 53.2 41.18 41.27 33.37 0 46.68"/>
      <path class="cls-6" d="m293.66,100.19s17.73-60.38-1.99-68.18-90.34-14.22-99.06-6.42-41.6,58-14.84,80.36,115.89-5.76,115.89-5.76Z"/>
      <path class="cls-5" d="m188.84,204.19s-117.3,89.68-114.55,151.13-.05,2.29-.05,2.29l77.09-70.17,37.51-83.26Z"/>
      <path class="cls-5" d="m301.64,213.2l16.17,42.15,1.06,13.29,105.33-125.64s-111.67,52.37-122.56,70.21Z"/>
      <path class="cls-4" d="m215.64,197.79v19.06c0,2.08-2.15,3.48-4.05,2.63l-22.04-9.87c-1.45-.65-3.15,0-3.8,1.44l-34.28,76.09c-.09.2-.16.41-.2.63l-19.66,99.97c-.05.25-.06.5-.05.75l3.52,51.88c.09,1.27.99,2.33,2.23,2.61l28.76,6.55c1.22.28,2.49-.27,3.12-1.35l55.11-93.96c.94-1.6,3.11-1.91,4.46-.64,8.19,7.79,33.38,35.41,50.84,94.34.36,1.22,1.48,2.07,2.76,2.07h29.08c1.33,0,2.48-.91,2.79-2.19l11.74-48.11c.06-.23.08-.46.08-.7-.07-7.25-1.27-123.93-7.19-130.36-5.24-5.69-14.17-42.41-16.6-52.74-.35-1.51-1.83-2.46-3.35-2.16l-20.93,4.1c-1.65.32-3.22-.83-3.41-2.5l-2.47-22c-.16-1.46-1.39-2.56-2.86-2.56h-11.07c-1.75,0-3.09,1.55-2.85,3.28l2.54,17.88c.23,1.65-.98,3.15-2.64,3.27l-18.65,1.33c-1.37.1-2.61-.78-2.98-2.1l-4.36-15.7c-.27-.98-1.04-1.74-2.02-2.01-2.24-.6-6.3-1.64-8.47-1.82h0c-1.67-.14-3.11,1.19-3.11,2.87Z"/>
      <ellipse class="cls-2" cx="265.76" cy="136.11" rx="7.11" ry="16.15"/>
      <ellipse class="cls-2" cx="219.64" cy="136.11" rx="7.11" ry="16.15"/>
      <line class="cls-7" x1="272.87" y1="107.47" x2="249.36" y2="124.36"/>
      <line class="cls-7" x1="215" y1="107.47" x2="238.5" y2="124.36"/>
      <polygon class="cls-1" points="184.21 177.31 196.39 166.26 212.53 177.31 234.23 174.29 258.65 182.43 272.87 170.85 303.17 163.51 310.01 214.99 289.83 204.19 284.1 242.5 261.12 223.59 249.36 255.69 234.23 216.71 219.64 240.21 212.53 208.44 184.21 235.3 184.21 200.08 161.43 208.44 184.21 177.31"/>
      <path class="cls-1" d="m184.21,177.31s-4.05-1.41-8.95-10.64,39.74,10.64,39.74,10.64"/>
      <path class="cls-1" d="m376.76,199.59s4.8,56.29,9.38,56.1,45.48-18.43,45.48-20.39-37.07-55.07-37.07-55.07l-17.79,19.36Z"/>
      <polygon class="cls-2" points="369.32 170.2 350.6 128.62 338.37 130.15 333.02 114.59 341.81 111.04 297.58 10.99 293.66 2.12 307.03 5.18 366.01 115.91 369.32 122.12 391.07 159.11 369.32 170.2"/>
      <path class="cls-8" d="m366.01,115.91s22.81,1.24,27.78,10.03-10.06,20.68-9.75,21.2"/>
      <path class="cls-8" d="m375.6,132.82s7.44.77,8.62-6.11"/>
      <path class="cls-8" d="m293.66,2.12s8.97-5.22,13.38,3.06"/>
      <polygon class="cls-9" points="280.21 450 313.7 450 296.71 504.74 280.21 450"/>
      <polygon class="cls-9" points="135.23 442.5 168.14 450 140.33 499.78 135.23 442.5"/>
      <path class="cls-2" d="m266.9,266.96h30.06s3.58,30.96-10.56,29.43c0,0-18.34,6.5-19.49-29.43Z"/>
    </g>
  </g>
</svg>