<?xml version="1.0" encoding="UTF-8"?>
<svg id="Layer_2" data-name="Layer 2" xmlns="http://www.w3.org/2000/svg" viewBox="0 0 329.66 494.47">
  <defs>
    <style>
      .cls-1 {
        fill: #9b6a3d;
      }

      .cls-1, .cls-2, .cls-3, .cls-4, .cls-5, .cls-6, .cls-7 {
        stroke-width: 0px;
      }

      .cls-8 {
        stroke-width: 4px;
      }

      .cls-8, .cls-9, .cls-3, .cls-10 {
        fill: none;
      }

      .cls-8, .cls-9, .cls-10 {
        stroke: #000;
        stroke-miterlimit: 10;
      }

      .cls-4 {
        fill: #f4d7a4;
      }

      .cls-5 {
        fill: #fff;
      }

      .cls-10 {
        stroke-width: 2px;
      }

      .cls-6 {
        fill: #e5cfb5;
      }

      .cls-7 {
        fill: #d6c8d5;
      }
    </style>
  </defs>
  <g id="Layer_2-2" data-name="Layer 2">
    <g>
      <ellipse class="cls-7" cx="144.96" cy="203.48" rx="65.99" ry="64.39"/>
      <ellipse class="cls-4" cx="147.97" cy="276.6" rx="62.97" ry="64.58"/>
      <circle class="cls-1" cx="273.26" cy="418.3" r="35.2"/>
      <line class="cls-3" x1="15.96" y1="494.47" x2="284.69" y2="485.3"/>
      <circle class="cls-5" cx="140.21" cy="202.51" r="83.56"/>
      <line class="cls-3" x1="168.21" y1="218.39" x2="284.69" y2="485.3"/>
      <path class="cls-5" d="m118.43,121.82S133.47-11.29,79.56.77s2.42,141.81,2.42,141.81l36.45-20.76Z"/>
      <path class="cls-5" d="m164.24,127.61S149.2-5.51,203.11,6.56c53.91,12.07-2.42,141.81-2.42,141.81l-36.45-20.76Z"/>
      <path class="cls-5" d="m74.19,251.23S-17.37,470.33,2.94,477.62s260.31,13.1,265.65,0-28.16-242.52-59.54-246.37c-31.38-3.85-134.86,19.97-134.86,19.97Z"/>
      <path class="cls-5" d="m264.72,489.44c-22.61,0-40.94-9.38-40.94-20.96s18.33-20.96,40.94-20.96c22.61,0,40.94,9.38,40.94,20.96,0,11.58-18.33,20.96-40.94,20.96Z"/>
      <ellipse class="cls-1" cx="88.29" cy="67.22" rx="18.87" ry="52.73" transform="translate(-7.63 11.43) rotate(-7.1)"/>
      <ellipse class="cls-1" cx="192.79" cy="71.29" rx="52.73" ry="18.87" transform="translate(80.55 243.49) rotate(-77.2)"/>
      <path class="cls-2" d="m169.42,182.03c0,8.92-3.18,16.15-7.11,16.15-3.93,0-7.11-7.23-7.11-16.15,0-8.92,3.18-16.15,7.11-16.15s7.11,7.23,7.11,16.15Z"/>
      <ellipse class="cls-6" cx="144.24" cy="192.05" rx="65.56" ry="54"/>
      <ellipse class="cls-2" cx="169.42" cy="188.85" rx="7.11" ry="16.15"/>
      <ellipse class="cls-2" cx="116.93" cy="188.85" rx="7.11" ry="16.15"/>
      <line class="cls-8" x1="178.7" y1="157.44" x2="155.2" y2="174.33"/>
      <line class="cls-8" x1="112.29" y1="157.44" x2="135.79" y2="174.33"/>
      <path class="cls-10" d="m142.87,206.46s-7.83,4.84-6.05,8.66,14.27,2.04,14.27,2.04c0,0,5.1-2.04,0-8.92"/>
      <polygon class="cls-2" points="166.95 345.06 207.2 323.64 204.87 311.53 220.04 305.17 224.16 313.7 321.07 262.96 329.66 258.47 327.5 272.01 220.9 338.17 214.92 341.88 179.45 366.03 166.95 345.06"/>
      <path class="cls-6" d="m134.57,317.46l-36.92-10.89s6.44,88.77,7.73,92.96l29.2-79.98v-2.09Z"/>
      <path class="cls-1" d="m161.92,347.06s-56.29,4.8-56.1,9.38,18.43,45.48,20.39,45.48,55.07-37.07,55.07-37.07l-19.36-17.79Z"/>
      <path class="cls-6" d="m149.62,316l38.22-10.87s-6.67,88.63-8,92.81l-30.22-79.85v-2.09Z"/>
      <path class="cls-9" d="m210.39,357.11c3.44,2.29-2.59-10.2-2.59-10.2"/>
      <path class="cls-9" d="m192.14,357.39s33.61,16.42,25.74-17.34"/>
    </g>
  </g>
</svg>