<?xml version="1.0" encoding="UTF-8"?>
<svg id="Layer_3" data-name="Layer 3" xmlns="http://www.w3.org/2000/svg" viewBox="0 0 209.9 213.6">
  <defs>
    <style>
      .cls-1 {
        fill: #9b6a3d;
        stroke: #000;
        stroke-miterlimit: 10;
        stroke-width: 2px;
      }
    </style>
  </defs>
  <path class="cls-1" d="m87.07,198.26s26.2-51.55-12.04-62.51c0,0-24.78-8-36.82-1.48v-5.63s26.35-3.55,31.77,0c5.41,3.55-13.99-14.51-13.99-14.51l2.76-2.96s36.11,30.21,38.59,28.44,8.07-19.27-20.89-35.84l-40.01-3.05v-4.74h23.37l-20.14-17.56,2.56-2.76,36.47,25.07-14.9-40.49v-3.55l35.66,57.76,2.68-47.1-26.76-28.14,3.32-2.96s21.53,21.62,23.44,23.4,1.98-28.14,0-28.14-16.14-12.15-16.14-12.15l1.42-4.44,16.18,13.33.54-23.7h6.99l-1.42,46.8,19.47-24.88,3.19,2.96-21.6,36.42s-4.96,33.54.35,35.73,37.88-46.38,37.88-46.38l3.19,4.44-18.06,24.4,26.91-3.48v5.87s-13.45-1.79-26.6,4.72c-12.44,6.16-24.61,20.63-24.74,20.92-10.84,24.76,3.19,31.7,3.19,31.7l30.45-46.21,5.66.59-19.47,33.31s32.22-19.1,43.9-16.73v5.92s-56.65,15.4-63.02,42.66c0,0,2.45,30.96,9.37,34.88l-32.74.08Z"/>
</svg>