<?xml version="1.0" encoding="UTF-8"?>
<svg xmlns="http://www.w3.org/2000/svg" viewBox="0 0 2428.71 1082.14">
  <defs>
    <style>
      .cls-1, .cls-2, .cls-3, .cls-4, .cls-5, .cls-6, .cls-7, .cls-8, .cls-9, .cls-10, .cls-11, .cls-12, .cls-13, .cls-14, .cls-15, .cls-16 {
        stroke-miterlimit: 10;
      }

      .cls-1, .cls-6 {
        stroke: #f47a16;
      }

      .cls-1, .cls-6, .cls-17 {
        fill: #f47a16;
      }

      .cls-1, .cls-8 {
        stroke-width: 8px;
      }

      .cls-18 {
        fill: #9b6a3d;
      }

      .cls-18, .cls-19, .cls-20, .cls-21, .cls-22, .cls-23, .cls-24, .cls-25, .cls-26, .cls-27, .cls-28, .cls-29, .cls-30, .cls-31, .cls-32, .cls-17, .cls-33 {
        stroke-width: 0px;
      }

      .cls-2 {
        fill: #efea48;
      }

      .cls-2, .cls-14 {
        stroke: #fff;
      }

      .cls-3 {
        stroke-width: 4px;
      }

      .cls-3, .cls-4, .cls-5, .cls-11 {
        stroke: #000;
      }

      .cls-3, .cls-4, .cls-8, .cls-23, .cls-11, .cls-12, .cls-13, .cls-15, .cls-16 {
        fill: none;
      }

      .cls-34 {
        font-family: Elephant-Regular, Elephant;
        font-size: 100px;
      }

      .cls-34, .cls-14 {
        fill: #f4bf16;
      }

      .cls-19 {
        fill: #2b872b;
      }

      .cls-20 {
        fill: #e8731a;
      }

      .cls-6, .cls-9, .cls-10, .cls-12 {
        stroke-width: 3px;
      }

      .cls-21 {
        fill: #86a5a5;
      }

      .cls-7 {
        stroke: #e5cfb5;
      }

      .cls-7, .cls-30 {
        fill: #e5cfb5;
      }

      .cls-8, .cls-12, .cls-13 {
        stroke: #9b6a3d;
      }

      .cls-9 {
        fill: #4c4c4c;
        stroke: #353535;
      }

      .cls-24 {
        fill: #f4d7a4;
      }

      .cls-10 {
        stroke: #3e8945;
      }

      .cls-10, .cls-25 {
        fill: #fff;
      }

      .cls-11, .cls-15, .cls-16 {
        stroke-width: 2px;
      }

      .cls-26 {
        fill: #397a3c;
      }

      .cls-14 {
        stroke-width: 10px;
      }

      .cls-15 {
        stroke: #4c4c4c;
      }

      .cls-27 {
        fill: #66c67a;
      }

      .cls-28 {
        fill: #3e8945;
      }

      .cls-29 {
        fill: #b514b5;
      }

      .cls-31 {
        fill: #d6c8d5;
      }

      .cls-32 {
        fill: #d8661a;
      }

      .cls-33 {
        fill: #5b5855;
      }

      .cls-16 {
        stroke: #316634;
      }
    </style>
  </defs>
  <g id="Layer_4" data-name="Layer 4">
    <rect class="cls-21" x="282.71" width="1921" height="1080"/>
    <g>
      <g>
        <path class="cls-32" d="m1533.94,989.61c2.2,34.5,52.6,59.36,112.58,55.54,40.25-2.57,74.59-17.4,92.15-37.31,8.61-9.75,13.18-20.73,12.46-32.07-1.01-15.84-12.19-29.65-29.79-39.59-20.72-11.7-50.36-18.02-82.79-15.95-59.98,3.82-106.81,34.89-104.61,69.38Z"/>
        <polygon class="cls-32" points="1797.27 976.35 1712.22 934.01 1725.22 1018.06 1797.27 976.35"/>
      </g>
      <polygon class="cls-20" points="1560.88 1072.42 1337.59 923.18 1263.88 873.92 1607.96 712.08 1560.88 1072.42"/>
      <polygon class="cls-25" points="1311.1 902.51 1553.4 772.87 1520.9 1043.5 1311.1 902.51"/>
      <g>
        <polygon class="cls-17" points="1433.64 717.61 1620.66 855.68 1626.25 645.54 1433.64 717.61"/>
        <polygon class="cls-22" points="1590.81 833.62 1621.92 821 1620.66 855.68 1590.81 833.62"/>
        <ellipse class="cls-22" cx="1526.49" cy="739.16" rx="7.11" ry="16.15" transform="translate(-169.11 777.45) rotate(-27.13)"/>
        <ellipse class="cls-22" cx="1577.93" cy="718.64" rx="7.11" ry="16.15" transform="translate(-154.09 798.65) rotate(-27.13)"/>
      </g>
      <ellipse class="cls-20" cx="1286.58" cy="862.15" rx="20.96" ry="40.94" transform="translate(22.41 1756.84) rotate(-69.11)"/>
      <ellipse class="cls-20" cx="1563.9" cy="1048.51" rx="20.96" ry="40.94" transform="translate(-192.96 1725.7) rotate(-54.92)"/>
      <polygon class="cls-17" points="1568.11 671.49 1578.67 594.59 1623.82 648.01 1568.11 671.49"/>
      <polygon class="cls-17" points="1488.33 699.69 1443.54 654.35 1436.64 716.75 1488.33 699.69"/>
      <polygon class="cls-25" points="1447.05 708.93 1471.96 700.65 1448.04 669.28 1447.05 708.93"/>
      <polyline class="cls-25" points="1582.52 612.42 1581.53 652.07 1606.44 643.79"/>
      <polygon class="cls-25" points="1725.21 938.5 1703.82 953.01 1726.26 958.96 1708.11 972.84 1733.67 985.18 1718.92 999.34 1741.84 1008.44 1797.27 976.35 1725.21 938.5"/>
    </g>
    <g>
      <ellipse class="cls-18" cx="1099.62" cy="876.7" rx="35.22" ry="35.31" transform="translate(-295.81 701.9) rotate(-31.42)"/>
      <line class="cls-23" x1="919.77" y1="1076.14" x2="1144.42" y2="928.09"/>
      <line class="cls-23" x1="905.36" y1="760.36" x2="1144.42" y2="928.09"/>
      <ellipse class="cls-25" cx="873.14" cy="761.37" rx="83.61" ry="83.84" transform="translate(-268.9 566.9) rotate(-31.42)"/>
      <path class="cls-25" d="m812.34,703.65s-56.79-121.81-96.5-83.35c-39.71,38.45,76.24,120.14,76.24,120.14l20.26-36.79Z"/>
      <path class="cls-25" d="m854.48,684.71s-82.47-106.12-30.13-123.91c52.34-17.79,72.11,122.66,72.11,122.66l-41.98,1.24Z"/>
      <path class="cls-25" d="m842.26,837.52s36.43,235.34,57.59,230.99c21.16-4.35,229.1-124.58,226.81-138.58-2.29-14-150.9-192.93-179.7-179.86-28.8,13.07-104.69,87.45-104.69,87.45Z"/>
      <ellipse class="cls-25" cx="1118.57" cy="924.12" rx="40.97" ry="21.03" transform="translate(-317.75 718.73) rotate(-31.42)"/>
      <ellipse class="cls-25" cx="905.59" cy="1054.25" rx="40.97" ry="21.03" transform="translate(-416.83 626.78) rotate(-31.42)"/>
      <ellipse class="cls-18" cx="758.05" cy="672.63" rx="18.88" ry="52.9" transform="translate(-253.93 618.15) rotate(-38.5)"/>
      <ellipse class="cls-18" cx="849.4" cy="621.6" rx="18.88" ry="52.89" transform="translate(-154.27 304.55) rotate(-18.67)"/>
      <ellipse class="cls-22" cx="888.87" cy="731.05" rx="7.11" ry="16.2" transform="translate(-250.78 570.66) rotate(-31.42)"/>
      <ellipse class="cls-22" cx="843.64" cy="758.69" rx="7.11" ry="16.2" transform="translate(-271.82 551.13) rotate(-31.42)"/>
      <g>
        <ellipse class="cls-22" cx="884.36" cy="774.97" rx="15.01" ry="5.71" transform="translate(-274.34 574.75) rotate(-31.42)"/>
        <ellipse class="cls-22" cx="887.34" cy="779.85" rx="5.63" ry="7.09" transform="translate(-276.44 577.01) rotate(-31.42)"/>
      </g>
      <line class="cls-11" x1="869.53" y1="706.56" x2="898.07" y2="711.67"/>
      <line class="cls-11" x1="827.49" y1="732.25" x2="819.01" y2="759.98"/>
      <line class="cls-11" x1="1511.44" y1="705.22" x2="1502.96" y2="732.95"/>
      <path class="cls-18" d="m884.11,877.69s44.11,76.84,61.22,67.68c17.11-9.16-26.19-84.68-26.19-84.68"/>
      <path class="cls-18" d="m969.31,825.63s48.25,74.32,32.29,85.36c-15.96,11.04-63.4-61.95-63.4-61.95"/>
    </g>
    <ellipse class="cls-10" cx="1123.21" cy="443" rx="10" ry="7.5"/>
    <circle class="cls-25" cx="1034.71" cy="413" r="4.5"/>
    <circle class="cls-25" cx="1123.78" cy="443.53" r="4.5"/>
    <circle class="cls-25" cx="1123.78" cy="443.53" r="4.5"/>
    <circle class="cls-25" cx="1123.78" cy="443.53" r="4.5"/>
    <circle class="cls-25" cx="1123.78" cy="443.53" r="4.5"/>
    <circle class="cls-25" cx="1041.21" cy="412.5" r="4.5"/>
    <circle class="cls-25" cx="1045.21" cy="417.5" r="4.5"/>
    <circle class="cls-25" cx="1123.78" cy="443.53" r="4.5"/>
    <text class="cls-34" transform="translate(611.46 132.52)"><tspan x="0" y="0" xml:space="preserve">The Guardian Of  The Wild</tspan></text>
    <polygon class="cls-25" points="1269.71 766 1269.71 819 1331.7 792.5 1269.71 766"/>
    <line class="cls-11" x1="1562.43" y1="692.53" x2="1590.97" y2="697.64"/>
    <g>
      <path class="cls-23" d="m1531.27,430.1c-18.36-17.32-28.43-23.98-39.94,0-11.51,23.98-4.32,36.57,0,42.61,4.32,6.04,22.13,10.29,22.13,10.29,0,0,9.83-8.15,10.87-11.06s6.93-41.84,6.93-41.84Z"/>
      <path class="cls-23" d="m1531.99,424.86s-18.12-17.16-26.27-11.06c-8.15,6.1-24.9,26.6-20.6,41.29s21.15,30.78,28.75,25.68,9.17,1.62,12.74-16.57,5.38-39.35,5.38-39.35Z"/>
      <path class="cls-33" d="m1462.97,270.57l19.01,17.07-8.27,39.78-5.33-3.27s12.41-25.43,8.09-31.47c-4.32-6.04.11-16.08-9.59-8.56s-8.8,4.56-8.8,4.56l4.89-18.11Z"/>
      <path class="cls-23" d="m1483.19,197.25s-21.58-12.59-30.33-10.7,29.37,13.22,30.33,10.7Z"/>
      <path class="cls-33" d="m1414.9,362.72s-12.95,1.26-6.23-6.55c6.71-7.81-3.84-18.38-3.84-18.38,0,0-.72-2.27,5.03-5.79s38.84-125.14,38.84-125.14v-5.79s-5.62-3.63,2.88-8.79,1.21-5.44,1.21-5.44l31.63,10.7-15.82,64.21s-12.25,26.08-14.37,43.19c-.97,7.78.16,13.71,5.48,14.5,17.02,2.52,15.12,16.09,15.12,16.09l39.8,29.96-19.66,40.54-46.27-38.02s-19.66,3.27-17.98,14.35-.96,1.26-.96,1.26l-3.12,1.01s-5.03-22.91-11.75-21.91Z"/>
      <path class="cls-33" d="m1467.36,309.3c5.51,5.04-13.12-4.36-13.12-4.36l-.28,5.84,13.4-1.48Z"/>
    </g>
  </g>
  <g id="Layer_2" data-name="Layer 2">
    <path class="cls-28" d="m1258.98,174.74s-21.27-13.74-44.27,11.26-24,66-24,66c0,0,4,20-7,28s-32,30-39,33-4,61-11,68-36,15-39,28-1,34-6,53-21.78,64-61.39,75,3.39,88-8.61,92l11-17-10,49,21-29-14,33s2,24,8,26-1-19-1-19c0,0,17-15,17-21s14-24,14-24c0,0-13,109,32,121l-16-30,3-31s56.71,30,53.35,61,10.65,20,10.65,20l-8-16,3.04-16.22,2.96-15.78s1-28,9-43,4-23,4-23c0,0-8,64,0,83s17,19,17,19l-5-54s19,20,17,31-5,29-10,31,24,2,39-17l-21,27s34-24,36-32,32.27,26.62,32.27,26.62c0,0-17.27-58.62-.27-15.62s10-18,10-18c0,0,1,16,11,26s-5-20-5-20l8.44-16.4s19.56,35.4,27.56,36.4-8-20-8-20l13-24s17,46,33,38c0,0-11-1-16-28s16,9.52,16,9.52l9-8.52,12,25,14,17s17,11,27,13c0,0-18-3-24-29s13-15,13-15c0,0,45,25,64,3,0,0-20,8-30-8s16-11,16-11c0,0,22,4,28-3s-22,0-22,0l22.84-63.27,4.16,32.27,12-43s-2,15-2,23,27-38.11,2-64.55,15,33.55,15,33.55c0,0,7-75.17,0-88.59s-31-48.41-31-48.41c0,0,0,19,30,17,0,0-30.52-19.03-44.76-41.01s-50.24-16.99-52.24-29.99,20-29,1-45-36-44-30-62-6-38-23-49-32-52-39-87-61.73-33.03-61.73-33.03l-5,3.77Z"/>
    <path class="cls-16" d="m1221.71,341c-37,55-48.8,89.31-37.9,135.65s26.9,115.35,1.9,159.35,35,64,10,98l-25,34"/>
    <path class="cls-16" d="m1210.64,280.14c-44.47,49.16-61.03,81.44-56.86,128.86,4.18,47.43,10.17,118-20.84,157.99-31.02,39.99,25.52,68.34-4.08,98.42l-29.59,30.09"/>
    <path class="cls-16" d="m1291.77,312.55c44.82,48.84,61.62,80.99,57.79,128.45s-9.32,118.07,21.99,157.83c31.31,39.76-25.02,68.52,4.79,98.39l29.81,29.87"/>
    <g id="Layer_3" data-name="Layer 3">
      <path class="cls-27" d="m1270.5,349.14c1.27,14.7,10.48,38.15,51.18,57.05,2.69,1.25,4.99,3.23,6.59,5.73,11.27,17.5,55.7,89.25,50.45,125.08-5.25,35.85,156.48,421.92,197.18,518.3,4.35,10.3-3.22,21.7-14.4,21.7h-662.23c-12.08,0-19.6-13.13-13.48-23.54l275.42-468.85c3.12-5.31,2.83-11.95-.74-16.97l-21.58-30.34c-2.88-4.04-3.66-9.21-2.12-13.92,8.53-25.98,37.09-110.91,48.93-119.37,14-10,32.63,7.89,42.82-21.06,5.41-15.37,9.07-27.94,11.32-36.34.88-3.28,2.76-6.08,5.25-8.11,2.71-2.2,6.16-3.49,9.85-3.49h0c8.06,0,14.86,6.11,15.55,14.14Z"/>
      <circle class="cls-7" cx="1255.71" cy="281" r="57.5"/>
      <path class="cls-7" d="m1242.71,338.5s-10.82,54.22-22.66,58.11,81.02-2.05,81.02-2.05c0,0-28.74-19.06-32.8-56.06s-25.56,0-25.56,0Z"/>
      <path class="cls-19" d="m1258.91,202.44s-43.72,106.73-71.58,131.33c-27.86,24.6-40.56,30.24-44.4,55.97s8.47-40.32,8.47-40.32c0,0,36.62-117.45,107.51-146.98Z"/>
      <path class="cls-26" d="m1258.14,199.14s31.77,110.88,56.77,138.38,37,34.5,38,60.5c1,26-4-41-4-41,0,0-23.54-120.75-90.77-157.88Z"/>
      <path class="cls-30" d="m1353.04,454.39s48.67-19.39,65.67-35.39,31-36,36-56-13-89,10-54,23.91,67.82,23.91,67.82c0,0-7.91,38.18-13.91,46.18s-34,34-46,42-55.02,36.78-55.02,36.78l-20.65-47.38Z"/>
      <ellipse class="cls-22" cx="1270.51" cy="281.08" rx="4.66" ry="10.83" transform="translate(-3.54 16.52) rotate(-.74)"/>
      <ellipse class="cls-22" cx="1238.65" cy="279.68" rx="4.66" ry="10.83" transform="translate(-3.53 16.11) rotate(-.74)"/>
      <line class="cls-15" x1="1242.71" y1="274" x2="1274.71" y2="275"/>
      <path class="cls-9" d="m1220.67,269h26.04s.36,17.87-7.81,23.19c-8.17,5.32-19.78-.73-18.23-23.19Z"/>
      <path class="cls-9" d="m1259.8,269.5h26.04s.36,17.87-7.81,23.19c-8.17,5.32-19.78-.73-18.23-23.19Z"/>
      <g>
        <path class="cls-29" d="m339.08,513.28s-117.36,22.18-138.87,43.55c0,0-108.32,64.53-127.57,90.4-19.25,25.88-71.37,92.93-71.37,92.93,0,0,217.87-52.41,223.54-49.51,5.67,2.91,14.27,34.07,4.16,66.09-10.11,32.02-63.13,145.81-63.13,145.81,0,0,103.58-49,124.55-66.89s117.94-140.2,117.94-140.2l35.05-97.88-86.88-70.24-17.41-14.08Z"/>
        <path class="cls-17" d="m417.79,371.73s-40.05-140.26-164.5-183.98c0,0,35.64,170.57,134.74,224.85"/>
        <ellipse class="cls-30" cx="425.68" cy="507.76" rx="75.74" ry="106.12" transform="translate(-236.41 482.08) rotate(-47.8)"/>
        <polygon class="cls-25" points="248.83 183.58 267.16 245.55 271.15 221.98 293.98 239.33 282.02 214.59 311.14 232.24 305.14 213.05 248.83 183.58"/>
        <path class="cls-17" d="m518.92,529s72.35-37.4,57.91-64.45c-14.43-27.05-85.07-104.21-101.35-105.87-16.28-1.66-96.03,11.12-86.82,58.61,9.21,47.5,130.26,111.7,130.26,111.7Z"/>
        <path class="cls-30" d="m314.07,518.44s-205.72-36.28-256.88,22.77c-51.16,59.05-2.07,2.05-2.07,2.05l145.09,13.56,113.86-38.39Z"/>
        <path class="cls-30" d="m427.99,640.56l-19.67,54.92-10.56,13.24,224.47-8.74s-166.77-64.76-194.25-59.42Z"/>
        <path class="cls-29" d="m348.66,539.64l-16.79,17.46c-1.84,1.91-5.38,1.02-6.69-1.69l-15.12-31.29c-.99-2.05-3.4-3.18-5.37-2.51l-104.06,35.08c-.27.09-.53.22-.77.37l-109.3,71.7c-.27.18-.51.39-.71.64l-41.9,51.06c-1.02,1.25-.98,3.13.11,4.64l25.3,35.04c1.08,1.49,2.92,2.26,4.56,1.91l142.31-30.41c2.42-.52,5.05,1.39,5.37,3.91,1.98,15.4,4.87,66.13-28.19,137.72-.69,1.49-.22,3.39,1.15,4.68l31.41,29.35c1.43,1.34,3.48,1.67,4.95.81l55.06-32.21c.27-.16.5-.34.71-.56,6.32-6.71,107.8-114.77,107.08-126.63-.64-10.51,22.06-53.15,28.52-65.06.94-1.74.19-4.1-1.72-5.36l-26.21-17.37c-2.07-1.37-2.75-4.01-1.48-5.73l16.71-22.64c1.11-1.5.74-3.75-.84-5.22l-11.96-11.18c-1.89-1.77-4.71-1.7-5.97.13l-13.01,18.94c-1.2,1.75-3.84,1.9-5.74.33l-21.32-17.61c-1.56-1.29-2.13-3.35-1.37-4.93l9.12-18.78c.57-1.17.41-2.64-.41-3.87-1.88-2.81-5.36-7.86-7.55-10.21h0c-1.69-1.81-4.4-2.05-5.88-.51Z"/>
        <ellipse class="cls-22" cx="457.13" cy="533.74" rx="20.52" ry="10.51" transform="translate(-244.22 489.55) rotate(-45.82)"/>
        <ellipse class="cls-22" cx="407.31" cy="487.18" rx="20.52" ry="10.51" transform="translate(-225.93 439.71) rotate(-45.82)"/>
        <line class="cls-3" x1="490.05" y1="514.68" x2="449.78" y2="506.42"/>
        <line class="cls-3" x1="427.53" y1="456.26" x2="438.04" y2="495.46"/>
        <polygon class="cls-18" points="332.74 489.15 355.64 491.33 363.34 517.74 389.44 536.88 408.65 568.98 434.21 572.73 473.4 596.59 435.45 650.64 423.17 620.39 383.22 649.69 375.06 609.16 334.08 626.7 352.07 575.72 315.61 582.52 335.92 546.24 281.66 542.25 312.68 510.01 280.71 494.66 332.74 489.15"/>
        <path class="cls-18" d="m332.74,489.15s-3.13-5.37-.3-18.78c2.83-13.41,33.56,49.86,33.56,49.86"/>
        <path class="cls-18" d="m521.12,703.91s-44.41,56.4-39.29,60.85,65.36,29.03,67.09,27.23,8.47-87.85,8.47-87.85l-36.27-.23Z"/>
        <polygon class="cls-22" points="538.97 669.49 555.38 612.52 540.83 601.57 548.75 581.92 561.37 587.55 601.73 451.28 605.31 439.2 617.06 455.5 583.22 616.43 581.32 625.46 572.24 681.29 538.97 669.49"/>
        <path class="cls-4" d="m583.22,616.43s23.54,24.16,21.17,37.23c-2.38,13.06-29.09,8.79-29.21,9.57"/>
        <path class="cls-4" d="m578.7,641.6s7.36,8.22,14.7,3.11"/>
        <path class="cls-4" d="m605.31,439.2s14.28,4.28,11.76,16.3"/>
        <polygon class="cls-5" points="196.24 835.78 232.41 869.59 165.83 902.56 196.24 835.78"/>
        <polygon class="cls-5" points="46.22 682.56 75.16 722.64 1.27 740.17 46.22 682.56"/>
        <path class="cls-22" d="m343.1,654.73l32.47,30.34s-23.41,31.96-37.34,16.28c0,0-25.54-12.57,4.87-46.62Z"/>
      </g>
      <g>
        <ellipse class="cls-31" cx="2086.56" cy="522.6" rx="78.4" ry="75.85" transform="translate(764.19 2219.13) rotate(-66.13)"/>
        <ellipse class="cls-24" cx="2142.21" cy="589.14" rx="74.1" ry="76.82" transform="translate(-64.18 849.87) rotate(-22.12)"/>
        <ellipse class="cls-18" cx="2147.89" cy="815.55" rx="41.15" ry="42.15"/>
        <line class="cls-23" x1="2428.71" y1="672.37" x2="2191.47" y2="883.59"/>
        <ellipse class="cls-25" cx="2089.85" cy="517.88" rx="97.68" ry="100.06"/>
        <line class="cls-23" x1="2078.54" y1="554.64" x2="2191.47" y2="883.59"/>
        <path class="cls-25" d="m2044.2,429.39s-118.9-104.39-63.16-137.8c55.73-33.4,110.89,126.25,110.89,126.25l-47.72,11.55Z"/>
        <path class="cls-25" d="m2009.63,471.84s-93.17-128.93-129.67-74.37c-36.51,54.56,115.02,122.31,115.02,122.31l14.65-47.94Z"/>
        <path class="cls-25" d="m2185.13,506.71s252.86,117.31,241.29,140.28c-11.57,22.97-212.29,223.86-227.28,216.74-15-7.12-169.08-235.52-145.3-264.49s131.29-92.52,131.29-92.52Z"/>
        <ellipse class="cls-25" cx="2195.17" cy="852.55" rx="48.41" ry="24.82" transform="translate(25.92 1769.06) rotate(-44.13)"/>
        <ellipse class="cls-18" cx="2026.51" cy="356.95" rx="22.24" ry="62.63" transform="translate(161.93 1227.29) rotate(-35.01)"/>
        <ellipse class="cls-18" cx="1940.34" cy="445.78" rx="22.42" ry="62.12" transform="translate(460.37 1777.44) rotate(-54.92)"/>
        <ellipse class="cls-22" cx="2054.62" cy="517.96" rx="8.4" ry="19.13" transform="translate(180.1 1505.84) rotate(-41.94)"/>
        <ellipse class="cls-30" cx="2078.06" cy="511.99" rx="77.56" ry="63.89" transform="translate(277.18 1668.41) rotate(-46.55)"/>
        <ellipse class="cls-22" cx="2053.97" cy="529.74" rx="8.4" ry="19.13" transform="translate(172.06 1508.42) rotate(-41.94)"/>
        <ellipse class="cls-22" cx="2098.88" cy="486.91" rx="8.4" ry="19.13" transform="translate(212.18 1527.47) rotate(-41.94)"/>
        <line class="cls-3" x1="2021.01" y1="509.78" x2="2054.57" y2="505.4"/>
        <line class="cls-3" x1="2077.83" y1="455.59" x2="2071.17" y2="489.57"/>
        <path class="cls-11" d="m2090.71,523.51s10.55-2.15,12.07,2.66-10.58,13.43-10.58,13.43c0,0-5.98,2.37-7.1-7.81"/>
        <polygon class="cls-22" points="2180.51 664.62 2129.01 678.69 2121.36 666.18 2103.31 672.98 2106.58 683.82 1983.25 718.42 1972.32 721.49 1984.97 731.59 2128.86 702.6 2136.94 700.98 2186.52 693.2 2180.51 664.62"/>
        <path class="cls-30" d="m2186.22,614.02l22.92-39.67s65.2,83.05,67.43,87.77l-88.69-46.27-1.67-1.83Z"/>
        <path class="cls-18" d="m2186.41,662.27s51.99-41.73,55.48-37.55c3.49,4.18,20.46,54.89,18.78,56.49-1.68,1.6-76.64,12.44-76.64,12.44l2.39-31.39Z"/>
        <path class="cls-30" d="m2172.19,625.02l-41.36,21.65s76.3,72.24,80.77,74.81l-37.75-94.64-1.67-1.83Z"/>
        <path class="cls-4" d="m2152.94,710.62c-1.12,4.82-5.91-11.05-5.91-11.05"/>
        <path class="cls-4" d="m2168.78,695.98s-15.68,41.82-35.84,5.8"/>
      </g>
      <path class="cls-30" d="m1137.73,525.94l-77.44,158.17s-23.94,36.4-1.5,27.64,108.92-137.81,108.92-137.81v-4.51l-29.98-43.5Z"/>
      <path class="cls-28" d="m1176.72,418.43s12.19,40.58,34.91,22c22.71-18.58,30.76-17.6,23.65-26.4s-2.99,44.05,13.47,44.03c16.47-.02,34.05-15.67,26.8-35.23-7.25-19.56,8.97,46.01,33.79,35.23,24.82-10.78,23.34-45.08,23.34-45.08l-27.99-16.97-83.39,2s-15.19,5.3-36.59,3.82l-8,16.61Z"/>
      <polygon class="cls-28" points="1242.71 312.55 1265.85 312.55 1254.71 304.18 1242.71 312.55"/>
      <polyline class="cls-28" points="1268.42 312.55 1254.28 322.06 1242.71 312.55"/>
      <g>
        <ellipse class="cls-25" cx="1473.56" cy="571.73" rx="4.5" ry="4.43"/>
        <ellipse class="cls-25" cx="1479.56" cy="572.72" rx="4.5" ry="4.43"/>
        <ellipse class="cls-25" cx="1482.56" cy="576.66" rx="4.5" ry="4.43"/>
        <g>
          <ellipse class="cls-25" cx="1479.56" cy="582.57" rx="4.5" ry="4.43"/>
          <ellipse class="cls-25" cx="1471.77" cy="579.41" rx="4.56" ry="4.68" transform="translate(717.26 1969.56) rotate(-83)"/>
          <ellipse class="cls-2" cx="1476.31" cy="576.9" rx="4.25" ry="4.68"/>
        </g>
      </g>
    </g>
    <g>
      <circle class="cls-25" cx="1113.21" cy="435.5" r="4.5"/>
      <circle class="cls-25" cx="1119.21" cy="436.5" r="4.5"/>
      <circle class="cls-25" cx="1122.21" cy="440.5" r="4.5"/>
      <g>
        <circle class="cls-25" cx="1119.21" cy="446.5" r="4.5"/>
        <ellipse class="cls-25" cx="1111.42" cy="443.29" rx="4.63" ry="4.69" transform="translate(388.69 1396.93) rotate(-74.59)"/>
        <ellipse class="cls-2" cx="1115.96" cy="440.75" rx="4.25" ry="4.75"/>
      </g>
    </g>
    <g>
      <circle class="cls-25" cx="1055.77" cy="556.39" r="4.5"/>
      <circle class="cls-25" cx="1061.77" cy="557.39" r="4.5"/>
      <circle class="cls-25" cx="1064.77" cy="561.39" r="4.5"/>
      <g>
        <circle class="cls-25" cx="1061.77" cy="567.39" r="4.5"/>
        <ellipse class="cls-25" cx="1053.98" cy="564.18" rx="4.63" ry="4.69" transform="translate(229.97 1430.32) rotate(-74.59)"/>
        <ellipse class="cls-2" cx="1058.52" cy="561.64" rx="4.25" ry="4.75"/>
      </g>
    </g>
    <g>
      <circle class="cls-25" cx="1342.77" cy="296.39" r="4.5"/>
      <circle class="cls-25" cx="1348.77" cy="297.39" r="4.5"/>
      <circle class="cls-25" cx="1351.77" cy="301.39" r="4.5"/>
      <g>
        <circle class="cls-25" cx="1348.77" cy="307.39" r="4.5"/>
        <ellipse class="cls-25" cx="1340.98" cy="304.18" rx="4.63" ry="4.69" transform="translate(691.35 1516.1) rotate(-74.59)"/>
        <ellipse class="cls-2" cx="1345.52" cy="301.64" rx="4.25" ry="4.75"/>
      </g>
    </g>
    <g>
      <circle class="cls-25" cx="1416.83" cy="515.44" r="4.5"/>
      <circle class="cls-25" cx="1422.83" cy="516.44" r="4.5"/>
      <circle class="cls-25" cx="1425.83" cy="520.44" r="4.5"/>
      <g>
        <circle class="cls-25" cx="1422.83" cy="526.44" r="4.5"/>
        <ellipse class="cls-25" cx="1415.04" cy="523.23" rx="4.63" ry="4.69" transform="translate(534.56 1748.33) rotate(-74.59)"/>
        <ellipse class="cls-2" cx="1419.58" cy="520.69" rx="4.25" ry="4.75"/>
      </g>
    </g>
    <g>
      <circle class="cls-25" cx="1436.83" cy="654.44" r="4.5"/>
      <circle class="cls-25" cx="1442.83" cy="655.44" r="4.5"/>
      <circle class="cls-25" cx="1445.83" cy="659.44" r="4.5"/>
      <g>
        <circle class="cls-25" cx="1442.83" cy="665.44" r="4.5"/>
        <ellipse class="cls-25" cx="1435.04" cy="662.23" rx="4.63" ry="4.69" transform="translate(415.24 1869.67) rotate(-74.59)"/>
        <ellipse class="cls-2" cx="1439.58" cy="659.69" rx="4.25" ry="4.75"/>
      </g>
    </g>
    <g>
      <rect class="cls-14" x="1107.71" y="706" width="296" height="125" rx="62.5" ry="62.5"/>
      <polygon class="cls-25" points="1226.71 736 1226.71 800 1294.71 768 1226.71 736"/>
    </g>
    <path class="cls-8" d="m1073.36,734.51c-1.66-.09-3.3-.21-4.94-.34"/>
    <line class="cls-1" x1="925.96" y1="541" x2="938.2" y2="564.18"/>
    <g>
      <path class="cls-6" d="m1318.73,374.27s14.85-38.27-11.13-58.27c-25.98-20,11.13,58.27,11.13,58.27Z"/>
      <path class="cls-12" d="m1298.37,312.73s22.84,36.77,20.84,63.77"/>
      <path class="cls-13" d="m1319.33,327.43c-3.88-7.07-13.74-3.24-13.74-3.24,0,0-5.65,6.31-4.52,10.81"/>
      <path class="cls-13" d="m1312.21,341s6.5-2.27,10.75,3.62"/>
      <polyline class="cls-13" points="1322.96 359.99 1317.58 354.08 1310.66 361.72"/>
      <path class="cls-13" d="m1311.29,342.59s-4.32,2.28-5.7,6.59"/>
    </g>
    <g>
      <path class="cls-6" d="m1192.35,370.21s-14.85-38.27,11.13-58.27c25.98-20-11.13,58.27-11.13,58.27Z"/>
      <path class="cls-12" d="m1212.71,308.67s-22.84,36.77-20.84,63.77"/>
      <path class="cls-13" d="m1191.75,323.37c3.88-7.07,13.74-3.24,13.74-3.24,0,0,5.65,6.31,4.52,10.81"/>
      <path class="cls-13" d="m1198.87,336.94s-6.5-2.27-10.75,3.62"/>
      <polyline class="cls-13" points="1188.12 355.94 1193.5 350.02 1200.42 357.66"/>
      <path class="cls-13" d="m1199.79,338.54s4.32,2.28,5.7,6.59"/>
    </g>
  </g>
</svg>