<?xml version="1.0" encoding="UTF-8"?>
<svg xmlns="http://www.w3.org/2000/svg" viewBox="0 0 1920 1080">
  <defs>
    <style>
      .cls-1 {
        fill: #9b6a3d;
      }

      .cls-1, .cls-2, .cls-3, .cls-4, .cls-5, .cls-6, .cls-7, .cls-8, .cls-9, .cls-10, .cls-11, .cls-12, .cls-13, .cls-14, .cls-15, .cls-16, .cls-17, .cls-18, .cls-19, .cls-20, .cls-21, .cls-22, .cls-23, .cls-24 {
        stroke-width: 0px;
      }

      .cls-25 {
        fill: #efea48;
        stroke: #fff;
      }

      .cls-25, .cls-26, .cls-27, .cls-28, .cls-29, .cls-30, .cls-31, .cls-32, .cls-33, .cls-34, .cls-35, .cls-36, .cls-37 {
        stroke-miterlimit: 10;
      }

      .cls-2 {
        fill: #4daa73;
      }

      .cls-26 {
        stroke-width: 4px;
      }

      .cls-26, .cls-27, .cls-30, .cls-8, .cls-33, .cls-34, .cls-35, .cls-36, .cls-37 {
        fill: none;
      }

      .cls-26, .cls-27, .cls-33 {
        stroke: #000;
      }

      .cls-3 {
        fill: #2b872b;
      }

      .cls-4 {
        fill: #e8731a;
      }

      .cls-28 {
        stroke: #f47a16;
      }

      .cls-28, .cls-31, .cls-32, .cls-34 {
        stroke-width: 3px;
      }

      .cls-28, .cls-23 {
        fill: #f47a16;
      }

      .cls-5 {
        fill: #86a5a5;
      }

      .cls-29 {
        stroke: #e5cfb5;
      }

      .cls-29, .cls-20 {
        fill: #e5cfb5;
      }

      .cls-30 {
        stroke-width: 8px;
      }

      .cls-30, .cls-34, .cls-35 {
        stroke: #9b6a3d;
      }

      .cls-7 {
        fill: red;
      }

      .cls-31 {
        fill: #4c4c4c;
        stroke: #353535;
      }

      .cls-9 {
        fill: #f4d7a4;
      }

      .cls-32 {
        stroke: #3e8945;
      }

      .cls-32, .cls-10 {
        fill: #fff;
      }

      .cls-33, .cls-36, .cls-37 {
        stroke-width: 2px;
      }

      .cls-11 {
        fill: #f4bf16;
      }

      .cls-12 {
        fill: #47a052;
      }

      .cls-36 {
        stroke: #4c4c4c;
      }

      .cls-13 {
        fill: #66c67a;
      }

      .cls-14 {
        fill: #3e8945;
      }

      .cls-15 {
        fill: #231f20;
      }

      .cls-16 {
        fill: #76cdd9;
      }

      .cls-17 {
        fill: #5da03f;
      }

      .cls-18 {
        fill: #87afad;
      }

      .cls-19 {
        fill: #b514b5;
      }

      .cls-21 {
        fill: #d6c8d5;
      }

      .cls-22 {
        fill: #d8661a;
      }

      .cls-24 {
        fill: #5b5855;
      }

      .cls-37 {
        stroke: #316634;
      }
    </style>
  </defs>
  <g id="Layer_2" data-name="Layer 2">
    <rect class="cls-18" x="1" y="0" width="1918" height="1080"/>
  </g>
  <g id="Layer_3" data-name="Layer 3">
    <rect class="cls-18" x="-.77" y="-2.7" width="1921" height="1080"/>
    <ellipse class="cls-32" cx="839.73" cy="440.3" rx="10" ry="7.5"/>
    <circle class="cls-10" cx="751.23" cy="410.3" r="4.5"/>
    <circle class="cls-10" cx="840.3" cy="440.84" r="4.5"/>
    <circle class="cls-10" cx="840.3" cy="440.84" r="4.5"/>
    <circle class="cls-10" cx="840.3" cy="440.84" r="4.5"/>
    <circle class="cls-10" cx="840.3" cy="440.84" r="4.5"/>
    <circle class="cls-10" cx="757.73" cy="409.8" r="4.5"/>
    <circle class="cls-10" cx="761.73" cy="414.8" r="4.5"/>
    <circle class="cls-10" cx="840.3" cy="440.84" r="4.5"/>
    <polygon class="cls-10" points="986.23 763.3 986.23 816.3 1048.22 789.8 986.23 763.3"/>
    <line class="cls-33" x1="1278.95" y1="689.83" x2="1307.49" y2="694.94"/>
    <g>
      <path class="cls-8" d="m1247.79,427.41c-18.36-17.32-28.43-23.98-39.94,0-11.51,23.98-4.32,36.57,0,42.61,4.32,6.04,22.13,10.29,22.13,10.29,0,0,9.83-8.15,10.87-11.06,1.04-2.92,6.93-41.84,6.93-41.84Z"/>
      <path class="cls-8" d="m1248.51,422.16s-18.12-17.16-26.27-11.06c-8.15,6.1-24.9,26.6-20.6,41.29,4.3,14.7,21.15,30.78,28.75,25.68s9.17,1.62,12.74-16.57c3.57-18.18,5.38-39.35,5.38-39.35Z"/>
      <path class="cls-24" d="m1179.49,267.88l19.01,17.07-8.27,39.78-5.33-3.27s12.41-25.43,8.09-31.47c-4.32-6.04.11-16.08-9.59-8.56-9.7,7.52-8.8,4.56-8.8,4.56l4.89-18.11Z"/>
      <path class="cls-8" d="m1199.7,194.56s-21.58-12.59-30.33-10.7c-8.75,1.89,29.37,13.22,30.33,10.7Z"/>
      <path class="cls-24" d="m1131.42,360.02s-12.95,1.26-6.23-6.55-3.84-18.38-3.84-18.38c0,0-.72-2.27,5.03-5.79,5.75-3.53,38.84-125.14,38.84-125.14v-5.79s-5.62-3.63,2.88-8.79,1.21-5.44,1.21-5.44l31.63,10.7-15.82,64.21s-12.25,26.08-14.37,43.19c-.97,7.78.16,13.71,5.48,14.5,17.02,2.52,15.12,16.09,15.12,16.09l39.8,29.96-19.66,40.54-46.27-38.02s-19.66,3.27-17.98,14.35c1.68,11.08-.96,1.26-.96,1.26l-3.12,1.01s-5.03-22.91-11.75-21.91Z"/>
      <path class="cls-24" d="m1183.88,306.6c5.51,5.04-13.12-4.36-13.12-4.36l-.28,5.84,13.4-1.48Z"/>
    </g>
    <g>
      <path class="cls-1" d="m1458.48,585.3h34.46l-4.72-126.98s24.6-5.28,32.58-22.38c.62-1.34,1.15-2.74,1.55-4.23,0,0,40.58,2.05,39.66-19.44l-8.3-5.12s-9.22,25.58-22.14,14.33l-1.84-25.58h-8.3s-1.84,57.3-30.44,47.07v-67.54h-32.28v55.26s-22.14,6.14-32.28-30.7l-7.38,2.05s9.22,42.98,40.58,41.95l-1.15,141.31Z"/>
      <ellipse class="cls-17" cx="1384.46" cy="330.49" rx="86.24" ry="99.72"/>
      <ellipse class="cls-12" cx="1538.03" cy="239.98" rx="79.32" ry="79.82"/>
      <ellipse class="cls-17" cx="1578.15" cy="312.63" rx="94.07" ry="104.36"/>
      <ellipse class="cls-14" cx="1431.96" cy="270.56" rx="112.52" ry="121.25"/>
    </g>
    <rect class="cls-14" x="-2.77" y="665.3" width="1924" height="418.7"/>
    <path class="cls-2" d="m-4.67,693.88s100.94-113.24,329.66-91.79c228.72,21.46,444.1-27.42,444.1-27.42,0,0,251.39-108.47,363.41-91.79s737.49,159.73,816.84,207.41l-1954.01,3.58Z"/>
    <g>
      <path class="cls-1" d="m352.12,894.83h56.38l-7.72-213.61s40.25-8.89,53.31-37.64c1.02-2.25,1.87-4.62,2.53-7.11,0,0,66.4,3.44,64.89-32.71l-13.58-8.61s-15.09,43.03-36.22,24.1l-3.02-43.03h-13.58s-3.02,96.4-49.8,79.18v-113.61h-52.82v92.95s-36.22,10.33-52.82-51.64l-12.07,3.44s15.09,72.3,66.4,70.58l-1.88,237.71Z"/>
      <ellipse class="cls-17" cx="231.01" cy="466.18" rx="141.1" ry="167.75"/>
      <ellipse class="cls-12" cx="482.27" cy="313.92" rx="129.78" ry="134.26"/>
      <ellipse class="cls-17" cx="547.92" cy="436.14" rx="153.92" ry="175.56"/>
      <ellipse class="cls-14" cx="308.73" cy="365.36" rx="184.11" ry="203.97"/>
    </g>
  </g>
  <g id="Layer_1" data-name="Layer 1">
    <path class="cls-5" d="m1919.01,533.49c-1,14.3,0,27.57,0,41.87,0,16.34-1,32.68,0,49.02.5,17.87.75,36,1,54.13v-182.8c-2,12.25,0,25.53-1,37.79Z"/>
    <ellipse class="cls-32" cx="839.51" cy="427.28" rx="10" ry="7.66"/>
    <ellipse class="cls-10" cx="840.08" cy="427.83" rx="4.5" ry="4.6"/>
    <ellipse class="cls-10" cx="840.08" cy="427.83" rx="4.5" ry="4.6"/>
    <ellipse class="cls-10" cx="840.08" cy="427.83" rx="4.5" ry="4.6"/>
    <ellipse class="cls-10" cx="840.08" cy="427.83" rx="4.5" ry="4.6"/>
    <ellipse class="cls-10" cx="840.08" cy="427.83" rx="4.5" ry="4.6"/>
    <g>
      <path class="cls-11" d="m307.36,24.52h79v32.78h-1.7c-1.8-4.15-3.95-8.56-6.45-13.23-2.5-4.66-5.12-8.73-7.85-12.2-2.73-3.47-5.13-5.21-7.2-5.21l-4-.2v59.54l.2,4.7c.2,2.18.65,3.69,1.35,4.54.7.85,1.78,1.36,3.25,1.53,1.47.17,2.8.29,4,.36,1.2.07,2.27.14,3.2.2v1.63h-48.9v-1.63l6.6-.31c2-.2,3.37-.72,4.1-1.53.73-.82,1.2-2.35,1.4-4.6l.2-4.7V26.46l-3.9.2c-2.13,0-4.5,1.62-7.1,4.85-2.6,3.23-5.22,7.32-7.85,12.25-2.63,4.94-4.85,9.45-6.65,13.53h-1.7V24.52Z"/>
      <path class="cls-11" d="m412.96,58.12c1.26-2.72,3.01-4.83,5.26-6.33,2.25-1.5,5.46-2.25,9.64-2.25,4.62,0,8.72,1.28,12.27,3.83,3.55,2.55,5.33,5.84,5.33,9.85v22.98l.1,4.7c0,2.45.2,4.07.6,4.85.4.78,1.57,1.28,3.5,1.48l2.2.1v1.63h-30.96v-1.63l1.29-.1c1.78,0,2.88-.41,3.27-1.23.4-.82.6-2.52.6-5.11l.1-4.7v-20.83l-.1-4.19c0-2.86-.46-4.9-1.39-6.13-.93-1.23-2.32-1.84-4.17-1.84-2.25,0-3.85.75-4.81,2.25-.96,1.5-1.74,3.03-2.33,4.6v26.14l.1,4.7c0,2.66.18,4.38.55,5.16.36.78,1.47,1.17,3.32,1.17l1.29.1v1.63h-31.06v-1.63l2.3-.1c1.93-.2,3.1-.68,3.5-1.43.4-.75.6-2.38.6-4.9l.1-4.7v-50.45l-.1-4.19c0-1.84-.28-3.11-.85-3.83-.57-.72-1.78-1.17-3.65-1.38l-3.8-.2v-1.63h27.7v24.2c0,2.25-.03,4.14-.1,5.67-.07,1.53-.17,2.78-.3,3.73Z"/>
      <path class="cls-11" d="m504.06,83.65c-1.87,5.11-4.88,9.11-9.02,12-4.14,2.89-9.02,4.34-14.63,4.34-7.88,0-14.36-2.23-19.44-6.69-5.08-4.46-7.61-10.64-7.61-18.54,0-7.35,2.62-13.39,7.87-18.13,5.24-4.73,11.54-7.1,18.89-7.1s13.56,2.21,17.63,6.64c4.07,4.43,6.11,9.84,6.11,16.24h-30.7c0,2.45.18,4.95.55,7.51.36,2.55,1.06,5.02,2.09,7.4,1.02,2.38,2.48,4.31,4.37,5.77,1.89,1.47,4.25,2.2,7.1,2.2,4.09,0,7.33-1.17,9.71-3.52,2.38-2.35,4.21-5.29,5.48-8.83l1.61.72Zm-17.7-13.28c-.07-.75-.12-1.63-.15-2.66s-.05-2.31-.05-3.88c0-4.15-.5-7.3-1.49-9.45-.99-2.14-2.71-3.22-5.16-3.22-2.12,0-3.59,1.04-4.42,3.11-.83,2.08-1.41,5.26-1.74,9.55l-.2,6.54h13.2Z"/>
      <path class="cls-11" d="m562.56,60.26c0,10.76,1.03,19.69,3.1,26.81,2.07,7.12,5.67,10.67,10.8,10.67,2.53,0,4.46-.51,5.8-1.53,1.33-1.02,2.16-2.16,2.5-3.42.33-1.26.53-2.74.6-4.44.06-1.7.1-3.81.1-6.33v-3.98c0-2.93-.1-4.9-.3-5.92-.2-2.25-.65-3.78-1.35-4.6-.7-.82-1.78-1.33-3.25-1.53-1.47-.2-2.8-.32-4-.36-1.2-.03-2.3-.08-3.3-.15v-1.63h46.8v1.63l-4.6.31c-2.07.2-3.45.7-4.15,1.48-.7.78-1.15,2.33-1.35,4.65l-.2,4.8v13.38l.2,9.19h-1.5c-.87-1.97-2.38-3.78-4.55-5.41s-4.55-2.45-7.15-2.45c-2.34,0-5.67,1.46-10,4.39-4.34,2.93-10.07,4.39-17.2,4.39-9.87,0-18.17-3.64-24.9-10.93-6.73-7.28-10.1-16.44-10.1-27.47,0-11.57,3.7-20.87,11.1-27.88,7.4-7.01,16.83-10.52,28.3-10.52,6.27,0,12.2,1.43,17.8,4.29,5.6,2.86,8.73,4.36,9.4,4.49,1.93,0,3.23-.73,3.9-2.2.67-1.46,1.3-3.56,1.9-6.28h2v32.99h-1.7c-2-8.44-5.32-15.59-9.95-21.45-4.63-5.85-10.55-8.78-17.75-8.78-5.73,0-10,3.39-12.8,10.16-2.8,6.78-4.2,14.65-4.2,23.64Z"/>
      <path class="cls-11" d="m686.06,98.97h-26.3v-6.54c-1.53,2.45-3.42,4.32-5.65,5.62-2.23,1.29-5.32,1.94-9.25,1.94-4.6,0-8.67-1.39-12.2-4.19-3.6-2.72-5.4-6.5-5.4-11.34v-22.67l-.1-4.19c0-1.84-.29-3.11-.85-3.83-.57-.72-1.78-1.17-3.65-1.38l-2.8-.2v-1.63h26.7v33.39l.1,4.19c0,2.79.48,4.89,1.44,6.28.96,1.4,2.4,2.09,4.32,2.09,2.12,0,3.65-.61,4.61-1.84.96-1.23,1.74-2.48,2.33-3.78v-27.57l-.2-4.7c0-2.25-.36-3.78-1.09-4.6-.73-.82-2.18-1.36-4.35-1.63l-3.06-.2v-1.63h28v37.17l.1,4.19c0,1.84.28,3.11.85,3.83.57.71,1.78,1.17,3.65,1.38l2.8.2v1.63Z"/>
      <path class="cls-11" d="m739.02,93.96c1.58,0,2.68-1.01,3.3-3.03.62-2.02.94-4.43.94-7.23h1.4c0,6.01-1.05,9.97-3.15,11.88-2.1,1.91-3.98,3.12-5.65,3.64-1.67.51-3.8.77-6.4.77-2.87,0-5.42-.75-7.65-2.25-2.23-1.5-3.58-3.51-4.05-6.03-1.07,2.76-2.85,4.83-5.35,6.21s-5.75,2.07-9.75,2.07c-4.27,0-7.73-1.19-10.4-3.58-2.67-2.39-4-5.7-4-9.93,0-3.41.83-6.16,2.5-8.24,1.67-2.08,3.37-3.36,5.1-3.84,1.73-.48,4.4-.89,8-1.23,3.6-.34,6.25-.73,7.95-1.18,1.7-.44,2.92-.92,3.65-1.43.73-.51,1.1-1.38,1.1-2.61l-.1-9.31c0-2.66-.33-4.57-.99-5.73-.66-1.16-2.05-1.74-4.16-1.74-1.32,0-2.43.31-3.32.92-.89.62-1.34,1.4-1.34,2.36,0,.75.71,1.69,2.13,2.82,1.42,1.13,2.13,2.82,2.13,5.08,0,2.12-.92,4-2.76,5.64s-4.83,2.46-8.98,2.46c-2.28,0-4.26-.63-5.97-1.9-1.71-1.27-2.56-2.96-2.56-5.08,0-4.24,2.32-7.62,6.97-10.15,4.64-2.53,10.17-3.8,16.59-3.8,5.41,0,10.39,1.15,14.93,3.44,4.54,2.29,6.82,5.83,6.82,10.62v23.5c0,2.19.2,3.87.59,5.03.33,1.23,1.15,1.85,2.47,1.85Zm-22.46-3.07v-19.51l-.3-.1c-.59.82-1.7,1.58-3.31,2.3-1.62.71-2.74,1.41-3.36,2.09-.63.68-1.12,1.99-1.48,3.93s-.54,3.93-.54,5.97c0,3.07.23,5.52.69,7.36.46,1.84,1.52,2.76,3.17,2.76,1.25,0,2.36-.51,3.31-1.53s1.57-2.11,1.83-3.27Z"/>
      <path class="cls-11" d="m744.06,98.97v-1.63l2.7-.1c1.93-.2,3.1-.68,3.5-1.43.4-.75.6-2.38.6-4.9l.1-4.7v-24.41l-.1-4.19c-.13-1.63-.33-2.86-.6-3.68-.27-.82-1.47-1.33-3.6-1.53l-2.6-.2v-1.63h26v8.58c.46-1.23,1.44-3.06,2.94-5.51s4.99-3.68,10.46-3.68c3.2,0,5.92,1.14,8.15,3.42,2.23,2.28,3.35,4.99,3.35,8.12s-1.05,5.74-3.15,7.81c-2.1,2.08-4.68,3.11-7.75,3.11-2.53,0-4.72-.9-6.55-2.71-1.83-1.8-2.75-3.86-2.75-6.18,0-1.7.3-3.27.9-4.7.67-1.29,1.33-2.62,2-3.98-.33-.48-.67-.71-1-.71-1.72,0-3.22,1.06-4.49,3.17-1.27,2.11-1.91,4.08-1.91,5.92v23.59l.1,5.11c0,1.91.23,3.2.69,3.88.46.68,1.61,1.12,3.45,1.33l2.96.2v1.63h-33.4Z"/>
      <path class="cls-11" d="m830.36,50.25v-13.07l-.2-4.7c0-2.25-.33-3.74-.99-4.49-.66-.75-2.08-1.26-4.26-1.53l-4.66-.31v-1.63h29.4v63.21l.1,4.19c0,1.84.32,3.11.95,3.83.63.71,1.85,1.17,3.65,1.38l3.2.2v1.63h-27v-5.11c-.73,1.36-1.92,2.72-3.55,4.08-1.63,1.36-4.72,2.04-9.25,2.04-6.4,0-11.6-2.28-15.6-6.84-4-4.56-6-10.76-6-18.59s2-13.62,6-18.18c4-4.56,9.2-6.84,15.6-6.84,4.67,0,7.77.65,9.3,1.94,1.53,1.29,2.67,2.66,3.4,4.08l-.1-5.31Zm-.3,7.35c-.27-1.7-1-2.99-2.2-3.88-1.2-.88-2.6-1.33-4.2-1.33-2.07,0-3.62,1.01-4.65,3.01-1.03,2.01-1.7,4.29-2,6.84-.3,2.55-.48,4.87-.55,6.94-.07,2.08-.1,4-.1,5.77v4.6c0,1.29.15,3.54.45,6.74.3,3.2.96,5.82,2,7.86,1.03,2.04,2.62,3.06,4.75,3.06,3.67,0,5.8-1.8,6.4-5.41.13-1.57.23-4.34.3-8.32s.1-6.96.1-8.94v-9.4c0-2.86-.1-5.38-.3-7.56Z"/>
      <path class="cls-11" d="m890.06,98.97h-32.51v-1.63l2.4-.1c1.93-.2,3.1-.68,3.5-1.43.4-.75.6-2.38.6-4.9l.1-4.7v-24.41l-.1-4.19c-.13-1.63-.33-2.86-.6-3.68-.27-.82-1.47-1.33-3.6-1.53l-2.7-.2v-1.63h26.3v35.64l.1,4.7c0,2.45.2,4.07.6,4.85.4.78,1.57,1.28,3.5,1.48l2.4.1v1.63Zm-26.2-65.46c0-2.66.96-4.92,2.86-6.79,1.91-1.87,4.21-2.81,6.89-2.81s5.08.9,6.98,2.71c1.91,1.8,2.87,4.1,2.87,6.89s-.96,5.02-2.87,6.89c-1.91,1.87-4.24,2.81-6.98,2.81s-4.98-.93-6.89-2.81c-1.91-1.87-2.86-4.17-2.86-6.89Z"/>
      <path class="cls-11" d="m943.81,93.96c1.58,0,2.68-1.01,3.3-3.03.62-2.02.94-4.43.94-7.23h1.4c0,6.01-1.05,9.97-3.15,11.88-2.1,1.91-3.98,3.12-5.65,3.64-1.67.51-3.8.77-6.4.77-2.87,0-5.42-.75-7.65-2.25-2.23-1.5-3.58-3.51-4.05-6.03-1.07,2.76-2.85,4.83-5.35,6.21s-5.75,2.07-9.75,2.07c-4.27,0-7.73-1.19-10.4-3.58-2.67-2.39-4-5.7-4-9.93,0-3.41.83-6.16,2.5-8.24,1.67-2.08,3.37-3.36,5.1-3.84,1.73-.48,4.4-.89,8-1.23,3.6-.34,6.25-.73,7.95-1.18,1.7-.44,2.92-.92,3.65-1.43.73-.51,1.1-1.38,1.1-2.61l-.1-9.31c0-2.66-.33-4.57-.99-5.73-.66-1.16-2.05-1.74-4.16-1.74-1.32,0-2.43.31-3.32.92-.89.62-1.34,1.4-1.34,2.36,0,.75.71,1.69,2.13,2.82,1.42,1.13,2.13,2.82,2.13,5.08,0,2.12-.92,4-2.76,5.64s-4.83,2.46-8.98,2.46c-2.28,0-4.26-.63-5.97-1.9-1.71-1.27-2.56-2.96-2.56-5.08,0-4.24,2.32-7.62,6.97-10.15,4.64-2.53,10.17-3.8,16.59-3.8,5.41,0,10.39,1.15,14.93,3.44,4.54,2.29,6.82,5.83,6.82,10.62v23.5c0,2.19.2,3.87.59,5.03.33,1.23,1.15,1.85,2.47,1.85Zm-22.46-3.07v-19.51l-.3-.1c-.59.82-1.7,1.58-3.31,2.3-1.62.71-2.74,1.41-3.36,2.09-.63.68-1.12,1.99-1.48,3.93s-.54,3.93-.54,5.97c0,3.07.23,5.52.69,7.36.46,1.84,1.52,2.76,3.17,2.76,1.25,0,2.36-.51,3.31-1.53s1.57-2.11,1.83-3.27Z"/>
      <path class="cls-11" d="m987.86,65.37l-.1-4.19c0-5.31-1.82-7.97-5.46-7.97-2.32,0-3.95.75-4.91,2.25-.96,1.5-1.74,3.03-2.33,4.6v26.14l.1,4.7c0,2.79.25,4.56.74,5.31.5.75,1.97,1.12,4.42,1.12v1.63h-31.16v-1.63l2.4-.1c1.93-.2,3.1-.68,3.5-1.43.4-.75.6-2.38.6-4.9l.1-4.7v-24.41l-.1-4.19c-.13-1.63-.33-2.86-.6-3.68-.27-.82-1.47-1.33-3.6-1.53l-2.3-.2v-1.63h25.5v7.66c.73-1.91,2.05-3.83,3.95-5.77,1.9-1.94,5.58-2.91,11.05-2.91,4.73,0,8.83,1.36,12.3,4.08,3.47,2.72,5.2,5.92,5.2,9.6v22.98l.1,4.7c0,2.45.2,4.07.6,4.85.4.78,1.57,1.28,3.5,1.48l2.2.1v1.63h-30.96v-1.63c2.38,0,3.84-.39,4.37-1.17.53-.78.79-2.54.79-5.26l.1-4.7v-20.83Z"/>
      <path class="cls-11" d="m1124.36,61.79c0,10.89-4.03,20.02-12.1,27.37-8.07,7.35-17.6,11.03-28.6,11.03s-21.05-3.63-28.75-10.88c-7.7-7.25-11.55-16.42-11.55-27.52s3.93-20.7,11.8-27.78c7.87-7.08,17.37-10.62,28.5-10.62s20.7,3.59,28.7,10.77c8,7.18,12,16.39,12,27.62Zm-30.4-27.88c-2-5.72-5.43-8.58-10.3-8.58-2.47,0-4.6.82-6.4,2.45-1.8,1.63-3.18,4-4.15,7.1-.97,3.1-1.67,7.08-2.1,11.95-.43,4.87-.65,9.85-.65,14.96,0,7.01.27,12.73.8,17.16.53,4.43,1.53,8.75,3,12.97,1.47,4.22,4.63,6.33,9.5,6.33,2.47,0,4.6-.82,6.4-2.45s3.18-4,4.15-7.1c.96-3.1,1.67-7.08,2.1-11.95.43-4.87.65-9.85.65-14.96,0-6.06-.2-11.32-.6-15.78-.4-4.46-1.2-8.49-2.4-12.1Z"/>
      <path class="cls-11" d="m1162.08,35.65c0-1.77.66-3.37,1.99-4.8,1.33-1.43,1.99-2.48,1.99-3.17,0-.82-.28-1.43-.84-1.84-.56-.41-1.4-.61-2.52-.61-2.31,0-3.98,1.38-5,4.14-1.02,2.76-1.54,6.25-1.54,10.47l-.2,10.72h11.3l-1.7,3.88h-9.6v31.76l.1,4.7c0,2.45.2,4.05.59,4.8.39.75,1.55,1.26,3.46,1.53l3.55.1v1.63h-33.6v-1.63l2.4-.1c1.93-.2,3.1-.68,3.5-1.43.4-.75.6-2.38.6-4.9l.1-4.7v-31.76h-7.3l1.6-3.88h5.7c0-1.36.05-2.81.15-4.34.1-1.53.15-2.64.15-3.32,0-4.83,2.72-9.28,8.15-13.33,5.43-4.05,11.58-6.08,18.45-6.08,4.56,0,8.57.97,12.02,2.91,3.45,1.94,5.18,4.82,5.18,8.63,0,2.45-.99,4.51-2.96,6.18-1.98,1.67-4.17,2.5-6.58,2.5s-4.54-.73-6.38-2.2c-1.84-1.46-2.76-3.42-2.76-5.87Z"/>
      <path class="cls-11" d="m1215.75,24.52h79v32.78h-1.7c-1.8-4.15-3.95-8.56-6.45-13.23-2.5-4.66-5.12-8.73-7.85-12.2-2.73-3.47-5.13-5.21-7.2-5.21l-4-.2v59.54l.2,4.7c.2,2.18.65,3.69,1.35,4.54.7.85,1.78,1.36,3.25,1.53,1.47.17,2.8.29,4,.36,1.2.07,2.27.14,3.2.2v1.63h-48.9v-1.63l6.6-.31c2-.2,3.37-.72,4.1-1.53.73-.82,1.2-2.35,1.4-4.6l.2-4.7V26.46l-3.9.2c-2.13,0-4.5,1.62-7.1,4.85-2.6,3.23-5.22,7.32-7.85,12.25-2.63,4.94-4.85,9.45-6.65,13.53h-1.7V24.52Z"/>
      <path class="cls-11" d="m1321.35,58.12c1.26-2.72,3.01-4.83,5.26-6.33,2.25-1.5,5.46-2.25,9.64-2.25,4.62,0,8.71,1.28,12.27,3.83,3.55,2.55,5.33,5.84,5.33,9.85v22.98l.1,4.7c0,2.45.2,4.07.6,4.85.4.78,1.57,1.28,3.5,1.48l2.2.1v1.63h-30.96v-1.63l1.29-.1c1.78,0,2.88-.41,3.27-1.23.4-.82.59-2.52.59-5.11l.1-4.7v-20.83l-.1-4.19c0-2.86-.46-4.9-1.39-6.13-.93-1.23-2.32-1.84-4.17-1.84-2.25,0-3.85.75-4.81,2.25-.96,1.5-1.74,3.03-2.33,4.6v26.14l.1,4.7c0,2.66.18,4.38.54,5.16.36.78,1.47,1.17,3.32,1.17l1.29.1v1.63h-31.06v-1.63l2.3-.1c1.93-.2,3.1-.68,3.5-1.43.4-.75.6-2.38.6-4.9l.1-4.7v-50.45l-.1-4.19c0-1.84-.28-3.11-.85-3.83-.57-.72-1.79-1.17-3.65-1.38l-3.8-.2v-1.63h27.7v24.2c0,2.25-.04,4.14-.1,5.67-.07,1.53-.17,2.78-.3,3.73Z"/>
      <path class="cls-11" d="m1412.45,83.65c-1.87,5.11-4.88,9.11-9.02,12-4.14,2.89-9.02,4.34-14.63,4.34-7.88,0-14.36-2.23-19.44-6.69-5.08-4.46-7.61-10.64-7.61-18.54,0-7.35,2.62-13.39,7.87-18.13,5.24-4.73,11.54-7.1,18.89-7.1s13.56,2.21,17.63,6.64c4.08,4.43,6.11,9.84,6.11,16.24h-30.7c0,2.45.18,4.95.55,7.51.36,2.55,1.06,5.02,2.09,7.4,1.02,2.38,2.48,4.31,4.37,5.77,1.89,1.47,4.25,2.2,7.1,2.2,4.09,0,7.33-1.17,9.71-3.52,2.38-2.35,4.21-5.29,5.48-8.83l1.61.72Zm-17.7-13.28c-.07-.75-.12-1.63-.15-2.66-.03-1.02-.05-2.31-.05-3.88,0-4.15-.5-7.3-1.49-9.45-.99-2.14-2.71-3.22-5.16-3.22-2.12,0-3.59,1.04-4.42,3.11-.83,2.08-1.41,5.26-1.74,9.55l-.2,6.54h13.2Z"/>
      <path class="cls-11" d="m1496.55,43.72l-4.1-10.83c-.93-1.97-1.72-3.44-2.35-4.39-.63-.95-1.98-1.6-4.05-1.94l-3.1-.41v-1.63h44v1.63h-1.4c-.47,0-1.33.12-2.6.36-1.27.24-2.33.53-3.2.87-.87.34-1.3,1.36-1.3,3.06,0,1.57.45,3.75,1.35,6.54.9,2.79,1.95,5.91,3.15,9.34,1.2,3.44,2.77,7.88,4.7,13.33,1.93,5.45,3.33,9.4,4.2,11.85.87-2.31,1.92-5.11,3.15-8.37,1.23-3.27,2.93-7.88,5.1-13.84,2.17-5.96,3.58-10.04,4.25-12.25.67-2.21,1-4.14,1-5.77s-.4-2.69-1.2-3.37c-.8-.68-1.77-1.11-2.9-1.28-1.13-.17-2.2-.27-3.2-.31-1-.03-1.93-.08-2.8-.15v-1.63h25.8v1.63l-4.4.51c-2.14.34-3.8.95-5,1.84-1.2.89-2.27,2.45-3.2,4.7l-3,7.86-21.42,58.31h-8.01l-18.21-52.7-19.12,52.7h-8.01l-20.42-58.52-3.1-7.97c-1-2.18-1.92-3.73-2.75-4.65-.83-.92-2.08-1.48-3.75-1.68l-3.5-.41v-1.63h43.2v1.63l-3.2.31c-1.54.2-2.62.53-3.25.97-.63.44-.95,1.28-.95,2.5,0,1.5.55,3.9,1.65,7.2,1.1,3.3,2.48,7.3,4.15,12,1.67,4.7,3.17,8.85,4.5,12.46,1.33,3.61,2.43,6.6,3.3,8.99l10-26.86Z"/>
      <path class="cls-11" d="m1590.15,98.97h-32.51v-1.63l2.4-.1c1.93-.2,3.1-.68,3.5-1.43.4-.75.6-2.38.6-4.9l.1-4.7v-24.41l-.1-4.19c-.13-1.63-.33-2.86-.6-3.68-.27-.82-1.47-1.33-3.6-1.53l-2.7-.2v-1.63h26.3v35.64l.1,4.7c0,2.45.2,4.07.6,4.85.4.78,1.57,1.28,3.5,1.48l2.4.1v1.63Zm-26.2-65.46c0-2.66.96-4.92,2.86-6.79,1.91-1.87,4.21-2.81,6.89-2.81s5.08.9,6.98,2.71c1.91,1.8,2.87,4.1,2.87,6.89s-.96,5.02-2.87,6.89c-1.91,1.87-4.24,2.81-6.98,2.81s-4.98-.93-6.89-2.81c-1.91-1.87-2.86-4.17-2.86-6.89Z"/>
      <path class="cls-11" d="m1624.15,98.97h-32.53v-1.63l2.41-.1c1.94-.2,3.12-.68,3.52-1.43.4-.75.6-2.38.6-4.9l.1-4.7v-50.45l-.1-4.19c-.13-1.63-.33-2.86-.6-3.68-.27-.82-1.47-1.33-3.6-1.53l-3.4-.2v-1.63h27v61.68l.1,4.7c0,2.45.2,4.07.6,4.85.4.78,1.57,1.28,3.5,1.48l2.4.1v1.63Z"/>
      <path class="cls-11" d="m1660.25,50.25v-13.07l-.2-4.7c0-2.25-.33-3.74-.99-4.49-.66-.75-2.08-1.26-4.26-1.53l-4.66-.31v-1.63h29.4v63.21l.1,4.19c0,1.84.32,3.11.95,3.83.63.71,1.85,1.17,3.65,1.38l3.2.2v1.63h-27v-5.11c-.73,1.36-1.92,2.72-3.55,4.08-1.63,1.36-4.72,2.04-9.25,2.04-6.4,0-11.6-2.28-15.6-6.84-4-4.56-6-10.76-6-18.59s2-13.62,6-18.18c4-4.56,9.2-6.84,15.6-6.84,4.67,0,7.77.65,9.3,1.94,1.53,1.29,2.67,2.66,3.4,4.08l-.1-5.31Zm-.3,7.35c-.27-1.7-1-2.99-2.2-3.88-1.2-.88-2.6-1.33-4.2-1.33-2.07,0-3.62,1.01-4.65,3.01-1.03,2.01-1.7,4.29-2,6.84-.3,2.55-.48,4.87-.55,6.94-.07,2.08-.1,4-.1,5.77v4.6c0,1.29.15,3.54.45,6.74.3,3.2.96,5.82,2,7.86,1.03,2.04,2.62,3.06,4.75,3.06,3.67,0,5.8-1.8,6.4-5.41.13-1.57.23-4.34.3-8.32s.1-6.96.1-8.94v-9.4c0-2.86-.1-5.38-.3-7.56Z"/>
    </g>
    <polygon class="cls-10" points="986.01 757.14 986.01 811.26 1048 784.2 986.01 757.14"/>
    <g>
      <path class="cls-8" d="m1247.57,414.11c-18.36-17.68-28.43-24.49-39.94,0-11.51,24.49-4.32,37.34,0,43.52,4.32,6.17,22.13,10.51,22.13,10.51,0,0,9.83-8.32,10.87-11.3,1.04-2.98,6.93-42.72,6.93-42.72Z"/>
      <path class="cls-8" d="m1248.29,408.75s-18.12-17.53-26.27-11.3-24.9,27.16-20.6,42.17c4.3,15.01,21.15,31.43,28.75,26.23s9.17,1.65,12.74-16.92c3.57-18.57,5.38-40.18,5.38-40.18Z"/>
      <path class="cls-24" d="m1179.27,251.19l19.01,17.44-8.27,40.63-5.33-3.34s12.41-25.97,8.09-32.14c-4.32-6.17.11-16.42-9.59-8.74-9.7,7.68-8.8,4.65-8.8,4.65l4.89-18.49Z"/>
      <path class="cls-8" d="m1199.48,176.31s-21.58-12.86-30.33-10.93c-8.75,1.93,29.37,13.5,30.33,10.93Z"/>
      <path class="cls-24" d="m1131.2,345.29s-12.95,1.29-6.23-6.69c6.71-7.97-3.84-18.77-3.84-18.77,0,0-.72-2.31,5.03-5.91s38.84-127.8,38.84-127.8v-5.91s-5.62-3.71,2.88-8.98c8.5-5.27,1.21-5.55,1.21-5.55l31.63,10.93-15.82,65.57s-12.25,26.63-14.37,44.11c-.97,7.95.16,14,5.48,14.8,17.02,2.57,15.12,16.43,15.12,16.43l39.8,30.6-19.66,41.4-46.27-38.83s-19.66,3.34-17.98,14.66-.96,1.29-.96,1.29l-3.12,1.03s-5.03-23.4-11.75-22.37Z"/>
      <path class="cls-24" d="m1183.66,290.74c5.51,5.14-13.12-4.45-13.12-4.45l-.28,5.97,13.4-1.52Z"/>
    </g>
    <g>
      <g>
        <g>
          <path class="cls-22" d="m1250.24,985.5c2.2,35.23,52.6,60.62,112.58,56.72,40.25-2.62,74.59-17.77,92.15-38.1,8.61-9.96,13.18-21.17,12.46-32.75-1.01-16.18-12.19-30.28-29.79-40.43-20.72-11.95-50.36-18.4-82.79-16.29-59.98,3.9-106.81,35.63-104.61,70.85Z"/>
          <polygon class="cls-22" points="1513.56 971.96 1428.52 928.72 1441.52 1014.55 1513.56 971.96"/>
        </g>
        <polygon class="cls-4" points="1277.18 1070.07 1053.89 917.66 980.18 867.35 1324.26 702.08 1277.18 1070.07"/>
        <polygon class="cls-10" points="1027.4 896.55 1269.7 764.16 1237.2 1040.53 1027.4 896.55"/>
        <g>
          <polygon class="cls-23" points="1149.94 707.73 1336.96 848.73 1342.55 634.12 1149.94 707.73"/>
          <polygon class="cls-6" points="1307.11 826.2 1338.22 813.3 1336.96 848.73 1307.11 826.2"/>
          <ellipse class="cls-6" cx="1242.79" cy="729.73" rx="7.14" ry="16.42" transform="translate(-194.89 629.12) rotate(-26.42)"/>
          <ellipse class="cls-6" cx="1294.23" cy="708.77" rx="7.14" ry="16.42" transform="translate(-180.19 649.82) rotate(-26.42)"/>
        </g>
        <ellipse class="cls-4" cx="1002.88" cy="855.34" rx="21.35" ry="41.06" transform="translate(-161.44 1473.18) rotate(-68.41)"/>
        <ellipse class="cls-4" cx="1280.2" cy="1045.65" rx="21.26" ry="41.24" transform="translate(-318.67 1465.08) rotate(-53.94)"/>
        <polygon class="cls-23" points="1284.41 660.63 1294.97 582.09 1340.12 636.64 1284.41 660.63"/>
        <polygon class="cls-23" points="1204.63 689.42 1159.84 643.12 1152.94 706.85 1204.63 689.42"/>
        <polygon class="cls-10" points="1163.35 698.86 1188.26 690.41 1164.34 658.37 1163.35 698.86"/>
        <polyline class="cls-10" points="1298.82 600.3 1297.83 640.79 1322.74 632.34"/>
        <polygon class="cls-10" points="1441.51 933.3 1420.12 948.12 1442.56 954.2 1424.41 968.37 1449.97 980.98 1435.22 995.44 1458.14 1004.73 1513.56 971.96 1441.51 933.3"/>
      </g>
      <line class="cls-33" x1="1278.73" y1="682.11" x2="1307.27" y2="687.33"/>
      <path class="cls-16" d="m1310.77,724.42s.55,21.25,7.94,26.82,14.43-1.71,14.35-5.55c0,0,.88-5.78-3.62-10.46-4.49-4.68-18.67-10.81-18.67-10.81Z"/>
    </g>
    <ellipse class="cls-15" cx="598.1" cy="699" rx="17.58" ry="1.94"/>
    <g>
      <g>
        <g>
          <ellipse class="cls-1" cx="815.92" cy="870.2" rx="35.24" ry="36.04" transform="translate(-45.44 44.95) rotate(-3.07)"/>
          <line class="cls-8" x1="636.07" y1="1073.86" x2="860.72" y2="922.68"/>
          <line class="cls-8" x1="621.65" y1="751.38" x2="860.72" y2="922.68"/>
          <ellipse class="cls-10" cx="589.44" cy="752.42" rx="83.67" ry="85.56" transform="translate(-39.45 32.65) rotate(-3.07)"/>
          <path class="cls-10" d="m528.64,693.47s-56.79-124.39-96.5-85.12c-39.71,39.27,76.24,122.69,76.24,122.69l20.26-37.57Z"/>
          <path class="cls-10" d="m570.78,674.13s-82.47-108.37-30.13-126.54c52.34-18.17,72.11,125.27,72.11,125.27l-41.98,1.27Z"/>
          <path class="cls-10" d="m558.56,830.18s36.43,240.34,57.59,235.9c21.16-4.44,229.1-127.23,226.81-141.52s-150.9-197.03-179.7-183.68c-28.8,13.35-104.69,89.31-104.69,89.31Z"/>
          <ellipse class="cls-10" cx="834.87" cy="918.62" rx="41.21" ry="21.35" transform="translate(-362 589.43) rotate(-32.36)"/>
          <ellipse class="cls-10" cx="621.89" cy="1051.51" rx="41.21" ry="21.35" transform="translate(-466.19 496.08) rotate(-32.36)"/>
          <ellipse class="cls-1" cx="474.35" cy="661.79" rx="19.03" ry="53.59" transform="translate(-305.86 428.88) rotate(-37.75)"/>
          <ellipse class="cls-1" cx="565.7" cy="609.68" rx="18.92" ry="53.9" transform="translate(-162.13 207.2) rotate(-18.2)"/>
          <ellipse class="cls-6" cx="605.17" cy="721.45" rx="7.15" ry="16.45" transform="translate(-283.2 409.16) rotate(-30.64)"/>
          <ellipse class="cls-6" cx="559.94" cy="749.68" rx="7.15" ry="16.45" transform="translate(-303.9 390.05) rotate(-30.64)"/>
          <g>
            <ellipse class="cls-6" cx="600.66" cy="766.31" rx="15.1" ry="5.8" transform="translate(-315.66 437.11) rotate(-32.15)"/>
            <ellipse class="cls-6" cx="603.63" cy="771.28" rx="5.66" ry="7.2" transform="translate(-299.25 391.75) rotate(-29.15)"/>
          </g>
          <line class="cls-33" x1="1227.74" y1="695.07" x2="1219.26" y2="723.39"/>
          <path class="cls-1" d="m600.41,871.2s44.11,78.48,61.22,69.12c17.11-9.36-26.19-86.48-26.19-86.48"/>
          <path class="cls-1" d="m685.61,818.04s48.25,75.9,32.29,87.17c-15.96,11.28-63.4-63.26-63.4-63.26"/>
        </g>
        <path class="cls-16" d="m566.92,773.35s-6.13,14.72-3.39,21.45c2.74,6.73,9.19,4.55,10.3,1.9,0,0,2.28-3.6,1.01-8.57s-7.92-14.77-7.92-14.77Z"/>
      </g>
      <ellipse class="cls-15" cx="536.74" cy="735.3" rx="17.84" ry="1.91" transform="translate(-373.24 761.53) rotate(-55.52)"/>
      <ellipse class="cls-15" cx="595.59" cy="699.26" rx="17.58" ry="1.94"/>
    </g>
    <path class="cls-14" d="m975.27,153.32s-21.27-14.03-44.27,11.5c-23,25.53-24,67.4-24,67.4,0,0,4,20.42-7,28.59s-32,30.64-39,33.7-4,62.3-11,69.44-36,15.32-39,28.59-1,34.72-6,54.13-21.78,65.36-61.39,76.59c-39.61,11.23,3.39,89.87-8.61,93.95l11-17.36-10,50.04,21-29.62-14,33.7s2,24.51,8,26.55c6,2.04-1-19.4-1-19.4,0,0,17-15.32,17-21.45s14-24.51,14-24.51c0,0-13,111.32,32,123.57l-16-30.64,3-31.66s56.71,30.64,53.35,62.3,10.65,20.42,10.65,20.42l-8-16.34,3.04-16.56,2.96-16.12s1-28.59,9-43.91,4-23.49,4-23.49c0,0-8,65.36,0,84.76,8,19.4,17,19.4,17,19.4l-5-55.15s19,20.42,17,31.66-5,29.62-10,31.66,24,2.04,39-17.36l-21,27.57s34-24.51,36-32.68,32.27,27.19,32.27,27.19c0,0-17.27-59.87-.27-15.96s10-18.38,10-18.38c0,0,1,16.34,11,26.55,10,10.21-5-20.42-5-20.42l8.44-16.75s19.56,36.15,27.56,37.17c8,1.02-8-20.42-8-20.42l13-24.51s17,46.98,33,38.81c0,0-11-1.02-16-28.59s16,9.72,16,9.72l9-8.7,12,25.53,14,17.36s17,11.23,27,13.28c0,0-18-3.06-24-29.62s13-15.32,13-15.32c0,0,45,25.53,64,3.06,0,0-20,8.17-30-8.17-10-16.34,16-11.23,16-11.23,0,0,22,4.08,28-3.06,6-7.15-22,0-22,0l22.84-64.62,4.16,32.96,12-43.91s-2,15.32-2,23.49,27-38.92,2-65.93c-25-27.01,15,34.27,15,34.27,0,0,7-76.77,0-90.47-7-13.7-31-49.44-31-49.44,0,0,0,19.4,30,17.36,0,0-30.52-19.43-44.76-41.89-14.24-22.45-50.24-17.35-52.24-30.62s20-29.62,1-45.96c-19-16.34-36-44.93-30-63.32s-6-38.81-23-50.04c-17-11.23-32-53.1-39-88.85s-61.73-33.73-61.73-33.73l-5,3.85Z"/>
    <path class="cls-37" d="m938.01,323.11c-37,56.17-48.8,91.2-37.9,138.54s26.9,117.8,1.9,162.73,35,65.36,10,100.08l-25,34.72"/>
    <path class="cls-37" d="m926.94,260.96c-44.47,50.21-61.03,83.17-56.86,131.6,4.18,48.43,10.17,120.51-20.84,161.34-31.02,40.83,25.52,69.79-4.08,100.52l-29.59,30.73"/>
    <path class="cls-13" d="m986.8,331.53c1.27,15.11,10.48,39.23,51.18,58.66,2.69,1.29,4.99,3.33,6.59,5.89,11.27,18,55.7,91.77,50.45,128.62-5.25,36.87,156.48,433.87,197.18,532.98,4.35,10.59-3.22,22.32-14.4,22.32h-662.23c-12.08,0-19.6-13.5-13.48-24.21l275.42-482.13c3.12-5.46,2.83-12.29-.74-17.45l-21.58-31.2c-2.88-4.16-3.66-9.47-2.12-14.32,8.53-26.72,37.09-114.05,48.93-122.75,14-10.28,32.63,8.11,42.82-21.65,5.41-15.81,9.07-28.73,11.32-37.37.88-3.37,2.76-6.25,5.25-8.34,2.71-2.26,6.16-3.59,9.85-3.59h0c8.06,0,14.86,6.29,15.55,14.54Z"/>
    <ellipse class="cls-29" cx="972.01" cy="261.84" rx="57.5" ry="58.72"/>
    <path class="cls-29" d="m959.01,320.56s-10.82,55.37-22.66,59.34c-11.84,3.97,81.02-2.09,81.02-2.09,0,0-28.74-19.47-32.8-57.25-4.06-37.79-25.56,0-25.56,0Z"/>
    <path class="cls-3" d="m975.21,181.61s-43.72,109-71.58,134.12c-27.86,25.12-40.56,30.88-44.4,57.16-3.84,26.28,8.47-41.17,8.47-41.17,0,0,36.62-119.94,107.51-150.11Z"/>
    <path class="cls-20" d="m1069.34,438.91s48.67-19.8,65.67-36.14c17-16.34,31-36.76,36-57.19s-13-90.89,10-55.15,23.91,69.26,23.91,69.26c0,0-7.91,38.99-13.91,47.16s-34,34.72-46,42.89c-12,8.17-55.02,37.56-55.02,37.56l-20.65-48.39Z"/>
    <ellipse class="cls-6" cx="986.81" cy="261.92" rx="4.66" ry="11.06" transform="translate(-3.22 12.45) rotate(-.72)"/>
    <ellipse class="cls-6" cx="954.95" cy="260.49" rx="4.66" ry="11.06" transform="translate(-3.21 12.05) rotate(-.72)"/>
    <line class="cls-36" x1="959.01" y1="254.69" x2="991.01" y2="255.71"/>
    <path class="cls-31" d="m936.96,249.58h26.04s.36,18.25-7.81,23.69-19.78-.74-18.23-23.69Z"/>
    <path class="cls-31" d="m976.1,250.09h26.04s.36,18.25-7.81,23.69c-8.17,5.43-19.78-.74-18.23-23.69Z"/>
    <path class="cls-19" d="m76.79,510.37l-17.41-14.38s-28.39,5.48-59.8,13.64c-.2,3.27-.46,6.52-.75,9.75-.15,4.04-.26,8.07-.38,12.1.14-2.04.31-4.1.55-6.16-.24,2.07-.42,4.12-.55,6.16-.15,5.11-.27,10.22-.37,15.33.01,1.37.03,2.74.05,4.11.05-7.23.29-14.42.87-21.52-.58,7.1-.82,14.3-.87,21.52.08,5.62.21,11.24.15,16.94.26,12.11.72,24.22.72,36.09,0-11.87-.47-23.97-.72-36.09-.03,2.82-.11,5.65-.28,8.51.16-2.86.24-5.7.28-8.51-.12-5.65-.19-11.31-.15-16.94-.02-1.37-.04-2.74-.05-4.11-.25,12.75-.37,25.49-.39,38.22,1.14,23.4,2.85,46.66.58,70.32.56,39.69,1.24,79.39.71,119.19-.02,8.29-.08,16.59-.18,24.88.07-.14.13-.27.2-.41-.07.14-.13.27-.2.41-.09,7.76-.24,15.52-.46,23.28.42,2.39.8,4.77.94,7.14C-.01,817.22,0,804.79,0,791.86c0,12.93-.02,25.35-.71,37.98.07,1.19.09,2.38.02,3.56,4.83-3.11,8.75-5.89,11.37-8.17,20.97-18.27,117.94-143.18,117.94-143.18l35.05-99.95-86.88-71.73Z"/>
    <path class="cls-23" d="m-.07,175.03c-.56,23.79,2.18,47.58-.7,71.36,20.92,52.91,55.84,116.98,109.09,146.76l29.76-41.73S103.75,228.69-.07,175.03Z"/>
    <ellipse class="cls-20" cx="145.98" cy="490.35" rx="76.59" ry="107.17" transform="translate(-307.96 254.35) rotate(-45.95)"/>
    <path class="cls-10" d="m2.32,190.96l29.12,18.02-6-19.6L-.09,175.73c-.21,9.88.14,19.77.41,29.65l13.96,10.83-11.96-25.26Z"/>
    <path class="cls-23" d="m239.22,512.05s72.35-38.2,57.91-65.82c-14.43-27.62-85.07-106.43-101.35-108.12-16.28-1.69-96.03,11.36-86.82,59.86,9.21,48.5,130.26,114.08,130.26,114.08Z"/>
    <path class="cls-20" d="m0,496.72c0,5.6-.28,11.13-.68,16.6l35.04-12.06s-13.52-2.44-34.49-5.04c0,0,0,.02,0,.03-.23,4.28-.44,8.56-.63,12.84.06,1.45.07,2.89-.04,4.28l.12-.04c.4-5.48.68-11,.68-16.6Z"/>
    <path class="cls-20" d="m148.29,625.97l-19.67,56.08-10.56,13.52,224.47-8.93s-166.77-66.14-194.25-60.68Z"/>
    <ellipse class="cls-7" cx="177.43" cy="516.88" rx="20.75" ry="10.62" transform="translate(-320.99 292.78) rotate(-46.84)"/>
    <ellipse class="cls-7" cx="127.61" cy="469.34" rx="20.75" ry="10.62" transform="translate(-302.05 241.41) rotate(-46.84)"/>
    <line class="cls-26" x1="210.35" y1="497.42" x2="170.08" y2="488.99"/>
    <line class="cls-26" x1="147.83" y1="437.76" x2="158.34" y2="477.79"/>
    <polygon class="cls-1" points="53.04 471.35 75.94 473.58 83.63 500.54 109.74 520.09 128.95 552.87 154.51 556.7 193.7 581.07 155.75 636.27 143.47 605.37 103.52 635.29 95.36 593.91 54.38 611.82 72.37 559.76 35.9 566.7 56.21 529.65 1.96 525.58 32.98 492.65 1.01 476.97 53.04 471.35"/>
    <path class="cls-1" d="m53.04,471.35s-3.13-5.49-.3-19.18c2.83-13.69,33.56,50.92,33.56,50.92"/>
    <path class="cls-1" d="m241.42,690.67s-44.41,57.59-39.29,62.14c5.12,4.55,65.36,29.65,67.09,27.81s8.47-89.72,8.47-89.72l-36.27-.24Z"/>
    <polygon class="cls-6" points="259.27 655.52 275.68 597.33 261.12 586.16 269.05 566.09 281.67 571.83 322.03 432.67 325.61 420.33 337.36 436.98 303.52 601.33 301.62 610.55 292.54 667.57 259.27 655.52"/>
    <path class="cls-27" d="m303.52,601.33s23.54,24.68,21.17,38.02c-2.38,13.34-29.09,8.98-29.21,9.78"/>
    <path class="cls-27" d="m299,627.04s7.36,8.39,14.7,3.18"/>
    <path class="cls-27" d="m325.61,420.33s14.28,4.37,11.76,16.65"/>
    <path class="cls-6" d="m63.4,640.44l32.47,30.98s-23.41,32.64-37.34,16.63c0,0-25.54-12.83,4.87-47.61Z"/>
    <g>
      <ellipse class="cls-21" cx="1802.86" cy="508.57" rx="79.89" ry="76.02" transform="translate(851.81 2122.4) rotate(-75.24)"/>
      <path class="cls-9" d="m1919.01,575.36c0-14.3-1-27.57,0-41.87.02-.27.04-.54.05-.81-2.01-2.98-4.22-5.87-6.67-8.62-28.41-31.92-75.56-34.31-105.32-5.33-29.76,28.98-30.85,78.35-2.44,110.27,28.41,31.92,75.56,34.31,105.32,5.33,3.39-3.3,6.38-6.87,9.02-10.64-.93-16.11.03-32.22.03-48.33Z"/>
      <ellipse class="cls-1" cx="1864.19" cy="807.75" rx="41.15" ry="43.04"/>
      <ellipse class="cls-10" cx="1806.15" cy="503.75" rx="97.68" ry="102.18"/>
      <line class="cls-8" x1="1794.84" y1="541.29" x2="1907.77" y2="877.23"/>
      <path class="cls-10" d="m1760.5,413.38s-118.9-106.61-63.16-140.72c55.73-34.11,110.89,128.93,110.89,128.93l-47.72,11.79Z"/>
      <path class="cls-10" d="m1725.93,456.73s-93.17-131.67-129.67-75.95c-36.51,55.72,115.02,124.91,115.02,124.91l14.65-48.95Z"/>
      <path class="cls-10" d="m1921.01,732.63c-1-35.74-1-72.51-2-108.25-1-16.34,0-32.68,0-49.02,0-14.3-1-27.57,0-41.87.86-10.52-.49-21.78.38-32.52-11.22-5.44-17.95-8.63-17.95-8.63,0,0-107.51,64.9-131.29,94.49s130.3,262.84,145.3,270.11c.94.45,2.6.08,4.9-1.03-.31-41.09,1.47-82.19.66-123.28Z"/>
      <path class="cls-10" d="m1920.37,857.77c-.15-16.11.02-32.21.26-48.32-8.37,3.24-17.47,9.15-25.85,17.32-19.35,18.84-27.56,42.52-18.33,52.88,8.04,9.03,26.67,4.96,44.13-8.71-.05-2.24-.09-4.49-.12-6.73-.2-2.17-.24-4.31-.08-6.44Z"/>
      <ellipse class="cls-1" cx="1742.81" cy="339.4" rx="22.39" ry="63.52" transform="translate(111.66 1040.77) rotate(-34.29)"/>
      <ellipse class="cls-1" cx="1656.64" cy="430.12" rx="22.74" ry="62.56" transform="translate(338.31 1521.66) rotate(-54.18)"/>
      <ellipse class="cls-6" cx="1770.92" cy="503.83" rx="8.48" ry="19.35" transform="translate(104.61 1287.04) rotate(-41.06)"/>
      <ellipse class="cls-20" cx="1794.36" cy="497.74" rx="78.46" ry="64.49" transform="translate(253.4 1543.15) rotate(-49.66)"/>
      <ellipse class="cls-7" cx="1770.27" cy="515.86" rx="8.48" ry="19.35" transform="translate(96.55 1289.57) rotate(-41.06)"/>
      <ellipse class="cls-7" cx="1815.18" cy="472.12" rx="8.48" ry="19.35" transform="translate(136.32 1308.31) rotate(-41.06)"/>
      <line class="cls-26" x1="1737.31" y1="495.48" x2="1770.87" y2="491.01"/>
      <line class="cls-26" x1="1794.13" y1="440.14" x2="1787.47" y2="474.84"/>
      <path class="cls-33" d="m1807.01,509.5s10.55-2.19,12.07,2.72c1.52,4.91-10.58,13.71-10.58,13.71,0,0-5.98,2.42-7.1-7.98"/>
      <polygon class="cls-6" points="1896.81 653.61 1845.3 667.97 1837.66 655.2 1819.61 662.15 1822.88 673.22 1699.55 708.55 1688.62 711.69 1701.26 722.01 1845.16 692.4 1853.24 690.74 1902.82 682.79 1896.81 653.61"/>
      <path class="cls-20" d="m1919.01,575.36c0-.85-.01-1.69-.02-2.53l-16.46,29.1,1.67,1.87,14.39,7.67c-.11-12.04.42-24.07.42-36.11Z"/>
      <path class="cls-1" d="m1902.7,651.21l-2.39,32.05s8.44-1.25,19.72-2.96c-.2-14.15-.39-28.31-.69-42.35-9.32,7.27-16.64,13.26-16.64,13.26Z"/>
      <path class="cls-20" d="m1890.15,615.04l-1.67-1.87-41.36,22.11s53.05,51.29,73.27,69.86c-.08-4.39-.14-8.79-.21-13.2l-30.04-76.91Z"/>
      <path class="cls-27" d="m1869.24,700.59c-1.12,4.92-5.91-11.29-5.91-11.29"/>
      <path class="cls-27" d="m1885.08,685.63s-15.68,42.7-35.84,5.92"/>
    </g>
    <path class="cls-20" d="m854.03,511.98l-77.44,161.53s-23.94,37.17-1.5,28.23c22.44-8.94,108.92-140.73,108.92-140.73v-4.6l-29.98-44.43Z"/>
    <path class="cls-14" d="m893.02,402.19s12.19,41.44,34.91,22.47c22.71-18.97,30.76-17.97,23.65-26.96s-2.99,44.99,13.47,44.96c16.47-.03,34.05-16,26.8-35.97s8.97,46.98,33.79,35.97c24.82-11.01,23.34-46.04,23.34-46.04l-27.99-17.33-83.39,2.04s-15.19,5.41-36.59,3.9l-8,16.96Z"/>
    <polygon class="cls-14" points="959.01 294.06 982.15 294.06 971.01 285.52 959.01 294.06"/>
    <polyline class="cls-14" points="984.72 294.06 970.58 303.77 959.01 294.06"/>
    <g>
      <ellipse class="cls-10" cx="1189.86" cy="558.75" rx="4.5" ry="4.53"/>
      <ellipse class="cls-10" cx="1195.86" cy="559.75" rx="4.5" ry="4.53"/>
      <ellipse class="cls-10" cx="1198.86" cy="563.78" rx="4.5" ry="4.53"/>
      <g>
        <ellipse class="cls-10" cx="1195.86" cy="569.81" rx="4.5" ry="4.53"/>
        <ellipse class="cls-10" cx="1188.07" cy="566.59" rx="4.65" ry="4.69" transform="translate(151.86 1378.24) rotate(-63.57)"/>
        <ellipse class="cls-25" cx="1192.61" cy="564.03" rx="4.25" ry="4.78"/>
      </g>
    </g>
    <g>
      <ellipse class="cls-10" cx="829.51" cy="419.62" rx="4.5" ry="4.6"/>
      <ellipse class="cls-10" cx="835.51" cy="420.64" rx="4.5" ry="4.6"/>
      <ellipse class="cls-10" cx="838.51" cy="424.73" rx="4.5" ry="4.6"/>
      <g>
        <ellipse class="cls-10" cx="835.51" cy="430.85" rx="4.5" ry="4.6"/>
        <ellipse class="cls-10" cx="827.72" cy="427.58" rx="4.68" ry="4.74" transform="translate(-86.42 247.9) rotate(-16.2)"/>
        <ellipse class="cls-25" cx="832.26" cy="424.98" rx="4.25" ry="4.85"/>
      </g>
    </g>
    <g>
      <ellipse class="cls-10" cx="772.07" cy="543.08" rx="4.5" ry="4.6"/>
      <ellipse class="cls-10" cx="778.07" cy="544.1" rx="4.5" ry="4.6"/>
      <ellipse class="cls-10" cx="781.07" cy="548.19" rx="4.5" ry="4.6"/>
      <g>
        <ellipse class="cls-10" cx="778.07" cy="554.31" rx="4.5" ry="4.6"/>
        <ellipse class="cls-10" cx="770.28" cy="551.04" rx="4.68" ry="4.74" transform="translate(-123.15 236.78) rotate(-16.2)"/>
        <ellipse class="cls-25" cx="774.82" cy="548.44" rx="4.25" ry="4.85"/>
      </g>
    </g>
    <g>
      <ellipse class="cls-10" cx="1059.07" cy="277.56" rx="4.5" ry="4.6"/>
      <ellipse class="cls-10" cx="1065.07" cy="278.58" rx="4.5" ry="4.6"/>
      <ellipse class="cls-10" cx="1068.07" cy="282.66" rx="4.5" ry="4.6"/>
      <g>
        <ellipse class="cls-10" cx="1065.07" cy="288.79" rx="4.5" ry="4.6"/>
        <ellipse class="cls-10" cx="1057.28" cy="285.52" rx="4.68" ry="4.74" transform="translate(-37.68 306.3) rotate(-16.2)"/>
        <ellipse class="cls-25" cx="1061.82" cy="282.92" rx="4.25" ry="4.85"/>
      </g>
    </g>
    <g>
      <ellipse class="cls-10" cx="1133.13" cy="501.26" rx="4.5" ry="4.6"/>
      <ellipse class="cls-10" cx="1139.13" cy="502.28" rx="4.5" ry="4.6"/>
      <ellipse class="cls-10" cx="1142.13" cy="506.36" rx="4.5" ry="4.6"/>
      <g>
        <ellipse class="cls-10" cx="1139.13" cy="512.49" rx="4.5" ry="4.6"/>
        <ellipse class="cls-10" cx="1131.34" cy="509.21" rx="4.68" ry="4.74" transform="translate(-97.14 335.85) rotate(-16.2)"/>
        <ellipse class="cls-25" cx="1135.88" cy="506.62" rx="4.25" ry="4.85"/>
      </g>
    </g>
    <g>
      <ellipse class="cls-10" cx="1153.13" cy="643.21" rx="4.5" ry="4.6"/>
      <ellipse class="cls-10" cx="1159.13" cy="644.23" rx="4.5" ry="4.6"/>
      <ellipse class="cls-10" cx="1162.13" cy="648.31" rx="4.5" ry="4.6"/>
      <g>
        <ellipse class="cls-10" cx="1159.13" cy="654.44" rx="4.5" ry="4.6"/>
        <ellipse class="cls-10" cx="1151.34" cy="651.17" rx="4.68" ry="4.74" transform="translate(-135.95 347.06) rotate(-16.2)"/>
        <ellipse class="cls-25" cx="1155.88" cy="648.57" rx="4.25" ry="4.85"/>
      </g>
    </g>
    <path class="cls-30" d="m789.65,724.98c-1.66-.09-3.3-.21-4.94-.35"/>
    <g>
      <path class="cls-28" d="m1035.03,357.09s14.85-39.08-11.13-59.51,11.13,59.51,11.13,59.51Z"/>
      <path class="cls-34" d="m1014.66,294.24s22.84,37.55,20.84,65.12"/>
      <path class="cls-35" d="m1035.63,309.25c-3.88-7.22-13.74-3.31-13.74-3.31,0,0-5.65,6.44-4.52,11.04"/>
      <path class="cls-35" d="m1028.5,323.11s6.5-2.32,10.75,3.69"/>
      <polyline class="cls-35" points="1039.25 342.51 1033.88 336.47 1026.96 344.27"/>
      <path class="cls-35" d="m1027.59,324.74s-4.32,2.32-5.7,6.73"/>
    </g>
    <g>
      <path class="cls-28" d="m908.65,352.95s-14.85-39.08,11.13-59.51c25.98-20.42-11.13,59.51-11.13,59.51Z"/>
      <path class="cls-34" d="m929.01,290.1s-22.84,37.55-20.84,65.12"/>
      <path class="cls-35" d="m908.05,305.11c3.88-7.22,13.74-3.31,13.74-3.31,0,0,5.65,6.44,4.52,11.04"/>
      <path class="cls-35" d="m915.17,318.97s-6.5-2.32-10.75,3.69"/>
      <polyline class="cls-35" points="904.42 338.37 909.8 332.32 916.72 340.13"/>
      <path class="cls-35" d="m916.09,320.6s4.32,2.32,5.7,6.73"/>
    </g>
    <path class="cls-3" d="m971.35,179.44s43.49,109.09,71.3,134.27c27.81,25.18,40.49,30.97,44.28,57.26,3.79,26.29-8.38-41.19-8.38-41.19,0,0-36.37-120.02-107.2-150.33Z"/>
  </g>
</svg>