<?xml version="1.0" encoding="UTF-8"?>
<svg id="Layer_6" data-name="Layer 6" xmlns="http://www.w3.org/2000/svg" viewBox="0 0 365.26 309.54">
  <defs>
    <style>
      .cls-1 {
        fill: #fff;
      }

      .cls-1, .cls-2, .cls-3, .cls-4, .cls-5, .cls-6 {
        stroke-width: 0px;
      }

      .cls-2 {
        fill: #fffefd;
      }

      .cls-3 {
        fill: #8e8c8a;
      }

      .cls-4, .cls-5 {
        fill: #f4bf16;
      }

      .cls-5, .cls-6 {
        opacity: .98;
      }

      .cls-6 {
        fill: #d8a31e;
      }
    </style>
  </defs>
  <polygon class="cls-1" points="134.57 172.58 134.57 223.52 191.24 198.05 134.57 172.58"/>
  <path class="cls-6" d="m241.03,229.77h-116.8c-27.92,0-50.7-15.84-51.9-35.7-.03-.55-.05-1.1-.05-1.65v-74.71c0-20.63,23.26-37.35,51.95-37.35h116.8c28.69,0,51.95,16.72,51.95,37.35v74.71c0,20.63-23.26,37.35-51.95,37.35Z"/>
  <path class="cls-5" d="m241.03,217.06h-116.8c-27.92,0-50.7-15.44-51.9-34.81-.03-.53-.05-1.07-.05-1.61v-72.84c0-20.11,23.26-36.42,51.95-36.42h116.8c28.69,0,51.95,16.31,51.95,36.42v72.84c0,20.11-23.26,36.42-51.95,36.42Z"/>
  <polygon class="cls-4" points="134.57 106.18 134.42 176.34 202.37 144.02 134.57 106.18"/>
  <g>
    <path class="cls-3" d="m132.17,120.13v-10.93c0-1.41-.1-2.31-.3-2.69-.2-.38-.74-.69-1.62-.92-1.28-.36-1.91-.98-1.91-1.87,0-.62.27-1.1.81-1.43.54-.33,1.32-.5,2.34-.5.34,0,1.18.02,2.53.06h1.28c2.35-.01,3.73-.03,4.14-.05.4-.02,1.85-.14,4.33-.36.82-.08,1.57-.12,2.25-.12,2.32,0,4.39.46,6.21,1.39,3.16,1.61,4.74,4.15,4.74,7.65,0,2.83-1.11,5.09-3.32,6.79-2.08,1.59-4.61,2.39-7.57,2.39-.75,0-1.67-.05-2.76-.15-.58-.04-.94-.06-1.08-.06-.41,0-.62.23-.62.69v.12l.15,3.41c.03.66.15,1.16.37,1.49.22.33.67.66,1.35,1.01.92.48,1.38,1.01,1.38,1.58,0,.87-.68,1.54-2.04,2.02-1.36.47-3.29.71-5.78.71-5.24,0-7.87-.88-7.87-2.64,0-.42.11-.73.34-.96s.76-.54,1.59-.96c.51-.26.81-.63.89-1.1.09-.47.14-1.99.17-4.55Zm9.59-13.57v7.06c0,.54.12.87.36.98.41.19.93.29,1.55.29.94,0,1.72-.26,2.36-.77.92-.73,1.38-1.97,1.38-3.7s-.54-3.1-1.62-3.91c-.68-.51-1.5-.77-2.47-.77-1.05,0-1.57.27-1.57.81Z"/>
    <path class="cls-3" d="m168.29,109.35c.75,0,1.21.1,1.37.31.16.21.31.87.44,1.99.07.61.29.91.66.91.28,0,.55-.2.81-.6,1.13-1.73,2.61-2.6,4.44-2.6,1.29,0,2.35.41,3.17,1.23.4.4.72.92.98,1.55.25.63.38,1.24.38,1.82,0,.65-.16,1.32-.47,2-.31.69-.72,1.25-1.21,1.69-.91.85-2.02,1.27-3.34,1.27-.72,0-1.33-.12-1.82-.37-.49-.25-1.13-.75-1.92-1.52-.3-.29-.57-.44-.83-.44-.4,0-.66.22-.78.65-.12.44-.18,1.35-.18,2.75,0,2.09.08,3.52.23,4.28.1.42.24.7.41.86.18.16.56.32,1.14.49,1.28.37,1.91,1.02,1.91,1.95,0,.57-.21,1.06-.62,1.49s-.96.7-1.64.84c-1.36.28-3.36.42-6,.42s-4.42-.21-5.72-.64c-1.16-.39-1.74-1.06-1.74-2.02,0-.72.43-1.36,1.28-1.93.41-.26.69-.5.85-.72.16-.21.26-.51.32-.88.23-1.26.34-3.59.34-7,0-.62-.07-1.07-.21-1.34s-.43-.49-.85-.65c-1.01-.39-1.51-.95-1.51-1.68,0-.67.35-1.24,1.04-1.71.69-.48,1.86-.95,3.49-1.42,2.18-.64,4.04-.96,5.57-.98Z"/>
    <path class="cls-3" d="m205.43,112.55l-1.3.96c-.18.14-.28.27-.28.39,0,.1.06.24.19.44,1.13,1.63,1.7,3.42,1.7,5.36,0,3.17-1.44,5.8-4.32,7.87-2.67,1.94-5.71,2.91-9.14,2.91-2.93,0-5.48-.75-7.65-2.26-.24-.17-.43-.25-.55-.25s-.36.12-.7.37l-1.25.89c-.18.12-.39.19-.62.19-.28,0-.57-.16-.86-.47-.29-.31-.44-.63-.44-.97,0-.26.15-.51.45-.73l1.15-.83c.33-.25.49-.46.49-.62,0-.08-.08-.26-.23-.54-.72-1.32-1.08-2.94-1.08-4.86,0-3.24,1.26-5.92,3.78-8.04,2.48-2.09,5.58-3.14,9.29-3.14,3.05,0,5.51.75,7.38,2.26.28.22.5.33.64.33.1,0,.24-.06.43-.19l1.49-1.08c.24-.18.46-.27.66-.27.3,0,.59.16.87.49.28.33.43.65.43.99,0,.28-.17.54-.51.79Zm-13.69,6.77l2.81-1.99c.25-.18.38-.37.38-.56,0-.14-.1-.46-.3-.96-.48-1.21-1.22-1.81-2.21-1.81-.57,0-1.03.21-1.38.62-.35.42-.53.96-.53,1.64,0,.32.07,1.02.21,2.12.03.19.04.33.04.4.06.54.21.81.47.81.1,0,.27-.09.51-.27Zm3.21.75l-2.79,2.04c-.27.18-.4.36-.4.54,0,.37.23.9.68,1.58.52.76,1.14,1.14,1.85,1.14.58,0,1.04-.21,1.37-.63.33-.42.5-1,.5-1.73s-.08-1.59-.26-2.56c-.07-.47-.19-.71-.36-.71-.1,0-.3.11-.6.33Z"/>
    <path class="cls-3" d="m229.52,115.73l-5.51,10.47c-.85,1.62-1.57,2.75-2.17,3.38s-1.23.95-1.91.95-1.21-.24-1.62-.71c-.86-.94-1.62-2.01-2.27-3.2l-6.04-11.2c-.33-.61-.64-1.05-.95-1.32-.3-.27-.73-.47-1.27-.61-1.08-.3-1.62-.87-1.62-1.7s.67-1.46,2-1.85c1.33-.39,3.44-.58,6.31-.58,2.41,0,4.18.17,5.33.51,1.14.34,1.71.86,1.71,1.57,0,.5-.27.98-.81,1.43-.34.3-.56.53-.66.69-.1.15-.15.35-.15.58,0,.47.31,1.25.94,2.35.62,1.07,1.2,1.6,1.74,1.6.35,0,.65-.13.87-.39s.64-.94,1.23-2.04c.44-.8.66-1.41.66-1.83,0-.33-.23-.73-.68-1.18-.48-.5-.72-.96-.72-1.39,0-.67.45-1.14,1.35-1.43.9-.29,2.38-.44,4.43-.44,2.89,0,4.34.61,4.34,1.83,0,.71-.52,1.22-1.55,1.54-.81.25-1.36.52-1.65.81-.29.29-.74,1.02-1.35,2.18Z"/>
    <path class="cls-3" d="m140.4,161.71v12.07c0,.96.09,1.66.27,2.1.18.44.53.85,1.07,1.23.44.3.73.56.88.78.15.21.22.49.22.82,0,1.79-2.32,2.68-6.95,2.68-2.49,0-4.47-.19-5.93-.58-.5-.14-.9-.38-1.2-.73-.31-.35-.46-.74-.46-1.18,0-.37.08-.66.23-.87.16-.21.55-.54,1.19-1,.44-.32.75-.84.94-1.56.18-.72.28-1.79.28-3.22,0-.46-.03-1.31-.1-2.57-.06-1.25-.11-1.98-.14-2.19-.08-.57-.48-1-1.19-1.31-.88-.37-1.32-.93-1.32-1.66,0-.87.57-1.52,1.72-1.95,1.59-.6,3.29-1.1,5.1-1.52,1.81-.42,3.22-.62,4.21-.62.78,0,1.17.43,1.17,1.29Zm-4.21-9.1c1.23,0,2.21.23,2.93.68.72.45,1.08,1.06,1.08,1.82,0,1.07-.55,1.91-1.64,2.53-1.73.98-3.82,1.48-6.27,1.48-1.03,0-1.86-.19-2.47-.58-.82-.5-1.23-1.19-1.23-2.08,0-1.19.87-2.13,2.61-2.8,1.77-.69,3.43-1.04,4.98-1.04Z"/>
    <path class="cls-3" d="m166.7,159.16c.35,0,.67.2.94.59.27.39.4.85.4,1.38,0,.57-.18,1.21-.54,1.93s-.8,1.29-1.31,1.72c-.33.28-.49.5-.49.66,0,.04.01.21.04.5.04.29.06.55.06.79,0,1.65-.57,3.03-1.7,4.15-1.02,1-2.33,1.77-3.94,2.33-1.61.55-3.38.83-5.3.83-.47,0-.93-.03-1.38-.08-.37-.04-.65-.06-.85-.06-.75,0-1.13.37-1.13,1.1,0,.47.24.84.73,1.11.49.27,1.15.4,1.99.4.57,0,1.4-.08,2.51-.23,2.32-.32,4.04-.48,5.15-.48,1.67,0,2.97.27,3.89.81.74.42,1.32,1,1.75,1.75.43.75.65,1.55.65,2.41,0,1.4-.52,2.76-1.57,4.07-1.25,1.55-3.08,2.7-5.51,3.45-1.9.58-4.1.87-6.59.87-3.15,0-5.7-.47-7.65-1.41-.91-.44-1.63-1.02-2.17-1.74-.54-.72-.81-1.47-.81-2.24,0-.54.15-1.04.46-1.5.3-.46.69-.78,1.16-.98.42-.17.64-.35.64-.54,0-.15-.18-.37-.53-.67-1.13-.93-1.7-1.89-1.7-2.89,0-.66.27-1.35.82-2.06.55-.71,1.22-1.25,2.03-1.64.34-.17.51-.33.51-.5,0-.19-.21-.48-.64-.87-1.46-1.32-2.19-2.85-2.19-4.61,0-.93.26-1.81.78-2.66.52-.84,1.24-1.56,2.16-2.16,2.28-1.45,4.81-2.18,7.59-2.18,1.11,0,2.34.14,3.7.42,1.29.25,2.18.37,2.66.37,1.54,0,3.08-.6,4.61-1.79.34-.25.6-.37.79-.37Zm-16.18,23.21c-.35,0-.53.2-.53.6,0,.82.45,1.48,1.36,1.98.91.51,2.08.76,3.53.76s2.48-.18,3.26-.54c.79-.36,1.18-.87,1.18-1.52,0-.35-.15-.64-.45-.88-.3-.24-.67-.36-1.11-.36-.23,0-.55.03-.98.08-.79.12-1.68.19-2.66.19-.72,0-1.42-.03-2.08-.1-.5-.04-.9-.1-1.21-.17-.14-.03-.25-.04-.32-.04Zm4.63-18.9c-.71,0-1.28.26-1.71.79-.43.53-.65,1.23-.65,2.1,0,1.5.23,2.69.7,3.59.47.9,1.08,1.35,1.85,1.35s1.35-.28,1.79-.84c.44-.56.66-1.31.66-2.25,0-1.48-.23-2.63-.69-3.46-.46-.82-1.11-1.25-1.95-1.28Z"/>
    <path class="cls-3" d="m188.66,171.67h-9.99c-.44,0-.66.19-.66.56,0,.9.5,1.75,1.5,2.54,1,.8,2.07,1.19,3.22,1.19.68,0,1.44-.13,2.26-.38.83-.26,1.51-.57,2.05-.94.48-.33.86-.5,1.15-.5.37,0,.73.22,1.08.67.35.44.53.9.53,1.37,0,1-.64,1.96-1.91,2.89-2.25,1.65-4.85,2.47-7.8,2.47s-5.47-.84-7.48-2.53c-.98-.83-1.79-1.83-2.42-3.01-.84-1.56-1.25-3.21-1.25-4.94,0-2.33.72-4.42,2.17-6.27,1.25-1.61,2.83-2.8,4.76-3.59,1.45-.6,3.01-.89,4.7-.89,2.69,0,4.98.75,6.87,2.24.95.75,1.71,1.63,2.3,2.66.67,1.16,1,2.3,1,3.41,0,.9-.19,1.64-.57,2.21s-.88.86-1.49.86Zm-9.44-3.88h2.15c.91,0,1.36-.41,1.36-1.23,0-.75-.22-1.36-.66-1.83-.44-.47-1.01-.71-1.72-.71-.79,0-1.42.3-1.87.91-.43.57-.64,1.14-.64,1.72,0,.42.1.71.31.87.21.17.56.25,1.07.25Z"/>
    <path class="cls-3" d="m217.89,167.95l.3,7.31c.03.55.12.96.27,1.23.15.26.58.77,1.31,1.52.21.22.32.53.32.94,0,.91-.56,1.55-1.68,1.91-1.12.36-3.12.54-6,.54-1.96,0-3.34-.17-4.15-.5-.84-.35-1.25-.91-1.25-1.68,0-.28.04-.48.13-.61.08-.13.37-.45.85-.97.57-.58.85-2.52.85-5.82,0-1.91-.23-3.32-.68-4.24-.37-.73-1.05-1.1-2.04-1.1s-1.6.3-1.96.89c-.35.6-.53,1.68-.53,3.24v4.11c0,.82.05,1.38.16,1.68.11.3.46.89,1.05,1.77.16.25.23.53.23.85,0,.82-.58,1.42-1.74,1.81s-2.98.58-5.44.58c-3.94,0-5.91-.8-5.91-2.39,0-.33.06-.58.18-.76s.41-.42.86-.74c.37-.26.6-.56.7-.9.1-.34.19-1.17.28-2.5.1-1.58.15-3.23.15-4.96,0-.96-.07-1.58-.22-1.88-.15-.3-.58-.66-1.29-1.09-.61-.37-.91-.83-.91-1.37s.25-1.01.74-1.36c.5-.35,1.52-.8,3.06-1.34,1.36-.47,2.67-.87,3.93-1.19,1.26-.33,2.13-.49,2.59-.49.43,0,.78.15,1.07.46.29.31.44.67.44,1.08,0,.04,0,.21-.02.52-.01.11-.02.21-.02.29,0,.67.28,1,.85,1,.34,0,.7-.26,1.08-.79,1.22-1.72,2.99-2.58,5.31-2.58,1.79,0,3.32.46,4.59,1.37.89.65,1.52,1.42,1.87,2.3.35.88.57,2.17.66,3.87Z"/>
    <path class="cls-3" d="m230.86,152.64c1.59,0,3.2.33,4.83,1,1.69.69,3.01,1.66,3.98,2.91.94,1.19,1.4,2.48,1.4,3.86,0,1.61-.67,2.96-2.02,4.05-.35.29-1.4.85-3.13,1.68-.62.31-1.09.6-1.39.88s-.57.66-.8,1.13c-.48,1.03-.91,1.67-1.28,1.94s-1,.41-1.89.41-1.52-.24-2.02-.73-.74-1.15-.74-1.99c0-.76.19-1.57.57-2.43.1-.21.64-1.04,1.64-2.49.92-1.36,1.38-2.63,1.38-3.82,0-.6-.14-1.08-.41-1.46-.28-.38-.63-.57-1.05-.57s-.75.14-.94.41-.32.78-.4,1.53c-.14,1.41-.62,2.49-1.42,3.22-.81.75-1.86,1.12-3.17,1.12-.91,0-1.64-.25-2.21-.75-.65-.57-.98-1.29-.98-2.18,0-1.34.47-2.65,1.41-3.92.94-1.27,2.15-2.21,3.62-2.81,1.56-.65,3.23-.98,5.02-.98Zm-.47,19.9c1.23,0,2.29.45,3.17,1.35.88.89,1.32,1.93,1.32,3.12s-.45,2.3-1.36,3.19c-.91.89-1.99,1.34-3.25,1.34s-2.29-.41-3.17-1.23c-.95-.89-1.42-1.98-1.42-3.28,0-1.2.42-2.22,1.25-3.05.94-.96,2.09-1.43,3.47-1.43Z"/>
  </g>
  <g>
    <path class="cls-2" d="m138.97,117.7v-10.93c0-1.41-.1-2.31-.3-2.69-.2-.38-.74-.69-1.62-.92-1.28-.36-1.91-.98-1.91-1.87,0-.62.27-1.1.81-1.43.54-.33,1.32-.5,2.34-.5.34,0,1.18.02,2.53.06h1.28c2.35-.01,3.73-.03,4.14-.05.4-.02,1.85-.14,4.33-.36.82-.08,1.57-.12,2.25-.12,2.32,0,4.39.46,6.21,1.39,3.16,1.61,4.74,4.15,4.74,7.65,0,2.83-1.11,5.09-3.32,6.79-2.08,1.59-4.61,2.39-7.57,2.39-.75,0-1.67-.05-2.76-.15-.58-.04-.94-.06-1.08-.06-.41,0-.62.23-.62.69v.12l.15,3.41c.03.66.15,1.16.37,1.49.22.33.67.66,1.35,1.01.92.48,1.38,1.01,1.38,1.58,0,.87-.68,1.54-2.04,2.02-1.36.47-3.29.71-5.78.71-5.24,0-7.87-.88-7.87-2.64,0-.42.11-.73.34-.96s.76-.54,1.59-.96c.51-.26.81-.63.89-1.1.09-.47.14-1.99.17-4.55Zm9.59-13.57v7.06c0,.54.12.87.36.98.41.19.93.29,1.55.29.94,0,1.72-.26,2.36-.77.92-.73,1.38-1.97,1.38-3.7s-.54-3.1-1.62-3.91c-.68-.51-1.5-.77-2.47-.77-1.05,0-1.57.27-1.57.81Z"/>
    <path class="cls-2" d="m175.09,106.92c.75,0,1.21.1,1.37.31.16.21.31.87.44,1.99.07.61.29.91.66.91.28,0,.55-.2.81-.6,1.13-1.73,2.61-2.6,4.44-2.6,1.29,0,2.35.41,3.17,1.23.4.4.72.92.98,1.55.25.63.38,1.24.38,1.82,0,.65-.16,1.32-.47,2-.31.69-.72,1.25-1.21,1.69-.91.85-2.02,1.27-3.34,1.27-.72,0-1.33-.12-1.82-.37-.49-.25-1.13-.75-1.92-1.52-.3-.29-.57-.44-.83-.44-.4,0-.66.22-.78.65-.12.44-.18,1.35-.18,2.75,0,2.09.08,3.52.23,4.28.1.42.24.7.41.86.18.16.56.32,1.14.49,1.28.37,1.91,1.02,1.91,1.95,0,.57-.21,1.06-.62,1.49s-.96.7-1.64.84c-1.36.28-3.36.42-6,.42s-4.42-.21-5.72-.64c-1.16-.39-1.74-1.06-1.74-2.02,0-.72.43-1.36,1.28-1.93.41-.26.69-.5.85-.72.16-.21.26-.51.32-.88.23-1.26.34-3.59.34-7,0-.62-.07-1.07-.21-1.34s-.43-.49-.85-.65c-1.01-.39-1.51-.95-1.51-1.68,0-.67.35-1.24,1.04-1.71.69-.48,1.86-.95,3.49-1.42,2.18-.64,4.04-.96,5.57-.98Z"/>
    <path class="cls-2" d="m212.23,110.12l-1.3.96c-.18.14-.28.27-.28.39,0,.1.06.24.19.44,1.13,1.63,1.7,3.42,1.7,5.36,0,3.17-1.44,5.8-4.32,7.87-2.67,1.94-5.71,2.91-9.14,2.91-2.93,0-5.48-.75-7.65-2.26-.24-.17-.43-.25-.55-.25s-.36.12-.7.37l-1.25.89c-.18.12-.39.19-.62.19-.28,0-.57-.16-.86-.47-.29-.31-.44-.63-.44-.97,0-.26.15-.51.45-.73l1.15-.83c.33-.25.49-.46.49-.62,0-.08-.08-.26-.23-.54-.72-1.32-1.08-2.94-1.08-4.86,0-3.24,1.26-5.92,3.78-8.04,2.48-2.09,5.58-3.14,9.29-3.14,3.05,0,5.51.75,7.38,2.26.28.22.5.33.64.33.1,0,.24-.06.43-.19l1.49-1.08c.24-.18.46-.27.66-.27.3,0,.59.16.87.49.28.33.43.65.43.99,0,.28-.17.54-.51.79Zm-13.69,6.77l2.81-1.99c.25-.18.38-.37.38-.56,0-.14-.1-.46-.3-.96-.48-1.21-1.22-1.81-2.21-1.81-.57,0-1.03.21-1.38.62-.35.42-.53.96-.53,1.64,0,.32.07,1.02.21,2.12.03.19.04.33.04.4.06.54.21.81.47.81.1,0,.27-.09.51-.27Zm3.21.75l-2.79,2.04c-.27.18-.4.36-.4.54,0,.37.23.9.68,1.58.52.76,1.14,1.14,1.85,1.14.58,0,1.04-.21,1.37-.63.33-.42.5-1,.5-1.73s-.08-1.59-.26-2.56c-.07-.47-.19-.71-.36-.71-.1,0-.3.11-.6.33Z"/>
    <path class="cls-2" d="m236.31,113.3l-5.51,10.47c-.85,1.62-1.57,2.75-2.17,3.38s-1.23.95-1.91.95-1.21-.24-1.62-.71c-.86-.94-1.62-2.01-2.27-3.2l-6.04-11.2c-.33-.61-.64-1.05-.95-1.32-.3-.27-.73-.47-1.27-.61-1.08-.3-1.62-.87-1.62-1.7s.67-1.46,2-1.85c1.33-.39,3.44-.58,6.31-.58,2.41,0,4.18.17,5.33.51,1.14.34,1.71.86,1.71,1.57,0,.5-.27.98-.81,1.43-.34.3-.56.53-.66.69-.1.15-.15.35-.15.58,0,.47.31,1.25.94,2.35.62,1.07,1.2,1.6,1.74,1.6.35,0,.65-.13.87-.39s.64-.94,1.23-2.04c.44-.8.66-1.41.66-1.83,0-.33-.23-.73-.68-1.18-.48-.5-.72-.96-.72-1.39,0-.67.45-1.14,1.35-1.43.9-.29,2.38-.44,4.43-.44,2.89,0,4.34.61,4.34,1.83,0,.71-.52,1.22-1.55,1.54-.81.25-1.36.52-1.65.81-.29.29-.74,1.02-1.35,2.18Z"/>
    <path class="cls-2" d="m147.19,159.28v12.07c0,.96.09,1.66.27,2.1.18.44.53.85,1.07,1.23.44.3.73.56.88.78.15.21.22.49.22.82,0,1.79-2.32,2.68-6.95,2.68-2.49,0-4.47-.19-5.93-.58-.5-.14-.9-.38-1.2-.73-.31-.35-.46-.74-.46-1.18,0-.37.08-.66.23-.87.16-.21.55-.54,1.19-1,.44-.32.75-.84.94-1.56.18-.72.28-1.79.28-3.22,0-.46-.03-1.31-.1-2.57-.06-1.25-.11-1.98-.14-2.19-.08-.57-.48-1-1.19-1.31-.88-.37-1.32-.93-1.32-1.66,0-.87.57-1.52,1.72-1.95,1.59-.6,3.29-1.1,5.1-1.52,1.81-.42,3.22-.62,4.21-.62.78,0,1.17.43,1.17,1.29Zm-4.21-9.1c1.23,0,2.21.23,2.93.68.72.45,1.08,1.06,1.08,1.82,0,1.07-.55,1.91-1.64,2.53-1.73.98-3.82,1.48-6.27,1.48-1.03,0-1.86-.19-2.47-.58-.82-.5-1.23-1.19-1.23-2.08,0-1.19.87-2.13,2.61-2.8,1.77-.69,3.43-1.04,4.98-1.04Z"/>
    <path class="cls-2" d="m173.49,156.73c.35,0,.67.2.94.59.27.39.4.85.4,1.38,0,.57-.18,1.21-.54,1.93s-.8,1.29-1.31,1.72c-.33.28-.49.5-.49.66,0,.04.01.21.04.5.04.29.06.55.06.79,0,1.65-.57,3.03-1.7,4.15-1.02,1-2.33,1.77-3.94,2.33-1.61.55-3.38.83-5.3.83-.47,0-.93-.03-1.38-.08-.37-.04-.65-.06-.85-.06-.75,0-1.13.37-1.13,1.1,0,.47.24.84.73,1.11.49.27,1.15.4,1.99.4.57,0,1.4-.08,2.51-.23,2.32-.32,4.04-.48,5.15-.48,1.67,0,2.97.27,3.89.81.74.42,1.32,1,1.75,1.75.43.75.65,1.55.65,2.41,0,1.4-.52,2.76-1.57,4.07-1.25,1.55-3.08,2.7-5.51,3.45-1.9.58-4.1.87-6.59.87-3.15,0-5.7-.47-7.65-1.41-.91-.44-1.63-1.02-2.17-1.74-.54-.72-.81-1.47-.81-2.24,0-.54.15-1.04.46-1.5.3-.46.69-.78,1.16-.98.42-.17.64-.35.64-.54,0-.15-.18-.37-.53-.67-1.13-.93-1.7-1.89-1.7-2.89,0-.66.27-1.35.82-2.06.55-.71,1.22-1.25,2.03-1.64.34-.17.51-.33.51-.5,0-.19-.21-.48-.64-.87-1.46-1.32-2.19-2.85-2.19-4.61,0-.93.26-1.81.78-2.66.52-.84,1.24-1.56,2.16-2.16,2.28-1.45,4.81-2.18,7.59-2.18,1.11,0,2.34.14,3.7.42,1.29.25,2.18.37,2.66.37,1.54,0,3.08-.6,4.61-1.79.34-.25.6-.37.79-.37Zm-16.18,23.21c-.35,0-.53.2-.53.6,0,.82.45,1.48,1.36,1.98.91.51,2.08.76,3.53.76s2.48-.18,3.26-.54c.79-.36,1.18-.87,1.18-1.52,0-.35-.15-.64-.45-.88-.3-.24-.67-.36-1.11-.36-.23,0-.55.03-.98.08-.79.12-1.68.19-2.66.19-.72,0-1.42-.03-2.08-.1-.5-.04-.9-.1-1.21-.17-.14-.03-.25-.04-.32-.04Zm4.63-18.9c-.71,0-1.28.26-1.71.79-.43.53-.65,1.23-.65,2.1,0,1.5.23,2.69.7,3.59.47.9,1.08,1.35,1.85,1.35s1.35-.28,1.79-.84c.44-.56.66-1.31.66-2.25,0-1.48-.23-2.63-.69-3.46-.46-.82-1.11-1.25-1.95-1.28Z"/>
    <path class="cls-2" d="m195.45,169.23h-9.99c-.44,0-.66.19-.66.56,0,.9.5,1.75,1.5,2.54,1,.8,2.07,1.19,3.22,1.19.68,0,1.44-.13,2.26-.38.83-.26,1.51-.57,2.05-.94.48-.33.86-.5,1.15-.5.37,0,.73.22,1.08.67.35.44.53.9.53,1.37,0,1-.64,1.96-1.91,2.89-2.25,1.65-4.85,2.47-7.8,2.47s-5.47-.84-7.48-2.53c-.98-.83-1.79-1.83-2.42-3.01-.84-1.56-1.25-3.21-1.25-4.94,0-2.33.72-4.42,2.17-6.27,1.25-1.61,2.83-2.8,4.76-3.59,1.45-.6,3.01-.89,4.7-.89,2.69,0,4.98.75,6.87,2.24.95.75,1.71,1.63,2.3,2.66.67,1.16,1,2.3,1,3.41,0,.9-.19,1.64-.57,2.21s-.88.86-1.49.86Zm-9.44-3.88h2.15c.91,0,1.36-.41,1.36-1.23,0-.75-.22-1.36-.66-1.83-.44-.47-1.01-.71-1.72-.71-.79,0-1.42.3-1.87.91-.43.57-.64,1.14-.64,1.72,0,.42.1.71.31.87.21.17.56.25,1.07.25Z"/>
    <path class="cls-2" d="m224.69,165.52l.3,7.31c.03.55.12.96.27,1.23.15.26.58.77,1.31,1.52.21.22.32.53.32.94,0,.91-.56,1.55-1.68,1.91-1.12.36-3.12.54-6,.54-1.96,0-3.34-.17-4.15-.5-.84-.35-1.25-.91-1.25-1.68,0-.28.04-.48.13-.61.08-.13.37-.45.85-.97.57-.58.85-2.52.85-5.82,0-1.91-.23-3.32-.68-4.24-.37-.73-1.05-1.1-2.04-1.1s-1.6.3-1.96.89c-.35.6-.53,1.68-.53,3.24v4.11c0,.82.05,1.38.16,1.68.11.3.46.89,1.05,1.77.16.25.23.53.23.85,0,.82-.58,1.42-1.74,1.81s-2.98.58-5.44.58c-3.94,0-5.91-.8-5.91-2.39,0-.33.06-.58.18-.76s.41-.42.86-.74c.37-.26.6-.56.7-.9.1-.34.19-1.17.28-2.5.1-1.58.15-3.23.15-4.96,0-.96-.07-1.58-.22-1.88-.15-.3-.58-.66-1.29-1.09-.61-.37-.91-.83-.91-1.37s.25-1.01.74-1.36c.5-.35,1.52-.8,3.06-1.34,1.36-.47,2.67-.87,3.93-1.19,1.26-.33,2.13-.49,2.59-.49.43,0,.78.15,1.07.46.29.31.44.67.44,1.08,0,.04,0,.21-.02.52-.01.11-.02.21-.02.29,0,.67.28,1,.85,1,.34,0,.7-.26,1.08-.79,1.22-1.72,2.99-2.58,5.31-2.58,1.79,0,3.32.46,4.59,1.37.89.65,1.52,1.42,1.87,2.3.35.88.57,2.17.66,3.87Z"/>
    <path class="cls-2" d="m237.65,150.2c1.59,0,3.2.33,4.83,1,1.69.69,3.01,1.66,3.98,2.91.94,1.19,1.4,2.48,1.4,3.86,0,1.61-.67,2.96-2.02,4.05-.35.29-1.4.85-3.13,1.68-.62.31-1.09.6-1.39.88s-.57.66-.8,1.13c-.48,1.03-.91,1.67-1.28,1.94s-1,.41-1.89.41-1.52-.24-2.02-.73-.74-1.15-.74-1.99c0-.76.19-1.57.57-2.43.1-.21.64-1.04,1.64-2.49.92-1.36,1.38-2.63,1.38-3.82,0-.6-.14-1.08-.41-1.46-.28-.38-.63-.57-1.05-.57s-.75.14-.94.41-.32.78-.4,1.53c-.14,1.41-.62,2.49-1.42,3.22-.81.75-1.86,1.12-3.17,1.12-.91,0-1.64-.25-2.21-.75-.65-.57-.98-1.29-.98-2.18,0-1.34.47-2.65,1.41-3.92.94-1.27,2.15-2.21,3.62-2.81,1.56-.65,3.23-.98,5.02-.98Zm-.47,19.9c1.23,0,2.29.45,3.17,1.35.88.89,1.32,1.93,1.32,3.12s-.45,2.3-1.36,3.19c-.91.89-1.99,1.34-3.25,1.34s-2.29-.41-3.17-1.23c-.95-.89-1.42-1.98-1.42-3.28,0-1.2.42-2.22,1.25-3.05.94-.96,2.09-1.43,3.47-1.43Z"/>
  </g>
</svg>