<svg xmlns="http://www.w3.org/2000/svg" width="256" height="256" viewBox="0 0 100 100"><rect width="100" height="100" rx="20" fill="#ff00cd"></rect><path fill="#fff" d="M20.52 14.04L7.80 14.04L7.80 9.88L30.44 9.88L30.44 87.48L7.80 87.48L7.80 83.32L20.52 83.32L20.52 14.04ZM57.08 59.64L57.08 75.08Q57.08 79.24 58.56 81.52Q60.04 83.80 64.36 84.92L64.36 84.92L64.36 87.48Q59.40 87.48 56.08 86.92Q52.76 86.36 50.80 84.96Q48.84 83.56 48.00 81.16Q47.16 78.76 47.16 75.16L47.16 75.16L47.16 59.88Q47.16 58.12 46.80 56.32Q46.44 54.52 45.56 53.08Q44.68 51.64 43.24 50.64Q41.80 49.64 39.64 49.48L39.64 49.48L39.64 46.68Q42.04 46.20 43.48 45.40Q44.92 44.60 45.76 43.36Q46.60 42.12 46.88 40.40Q47.16 38.68 47.16 36.36L47.16 36.36L47.16 22.76Q47.16 18.92 47.84 16.32Q48.52 13.72 50.36 12.12Q52.20 10.52 55.48 9.80Q58.76 9.08 63.96 9.08L63.96 9.08L63.96 11.72Q60.04 12.60 58.56 15Q57.08 17.40 57.08 21.48L57.08 21.48L57.08 35.40Q57.08 37.88 56.76 39.92Q56.44 41.96 55.40 43.56Q54.36 45.16 52.40 46.24Q50.44 47.32 47.24 47.88L47.24 47.88L47.24 48.28Q50.28 48.68 52.20 49.60Q54.12 50.52 55.20 51.96Q56.28 53.40 56.68 55.32Q57.08 57.24 57.08 59.64L57.08 59.64ZM88.92 9L91.48 11.24Q87.96 16.44 85.60 21.28Q83.24 26.12 81.84 30.72Q80.44 35.32 79.84 39.64Q79.24 43.96 79.24 48.12L79.24 48.12Q79.24 53.32 79.96 58.72Q80.68 64.12 82.24 69.32Q83.80 74.52 86.28 79.40Q88.76 84.28 92.20 88.36L92.20 88.36L89.56 91Q79.08 81.72 73.76 71.28Q68.44 60.84 68.44 49.64L68.44 49.64Q68.44 38.76 73.56 28.52Q78.68 18.28 88.92 9L88.92 9Z"></path></svg>