<?xml version="1.0" encoding="utf-8"?>
<!-- Generator: Adobe Illustrator 27.3.1, SVG Export Plug-In . SVG Version: 6.00 Build 0)  -->
<svg version="1.1" id="Layer_1" xmlns="http://www.w3.org/2000/svg" xmlns:xlink="http://www.w3.org/1999/xlink" x="0px" y="0px"
	 viewBox="0 0 1920 1080" style="enable-background:new 0 0 1920 1080;" xml:space="preserve">
<style type="text/css">
	.st0{fill:#CAF7C9;}
	.st1{fill:none;stroke:#000000;stroke-width:1.13;stroke-linecap:round;stroke-miterlimit:10;}
	.st2{fill:none;stroke:#FFFFFF;stroke-width:20;stroke-linecap:round;stroke-miterlimit:10;}
</style>
<path class="st0" d="M1508.5,851.7c18.1-67.4,32-135.9,41.6-205c10.1-72.8,15.4-147,3.7-219.5s-41.6-143.7-93.9-195.3
	c-58.8-57.9-140.2-86.5-220.5-105.3C1154.1,106.7,1067,95.8,979.6,94c-38.5-0.8-77.3,0.3-115.2,7.5c-35.3,6.8-69.4,18.9-103.2,31
	c-67,23.9-135.4,48.5-190.9,93c-30.4,24.4-56.1,54.1-79.1,85.5c-53.1,72.6-92.3,154.4-115.5,241.4c-16.6,62.5-24.5,130.1-2.5,190.8
	c2.5,6.8,5.5,13.8,10.7,18.8c6.5,6.3,15.6,8.9,24.5,10.5c49.4,8.8,99.2-9.6,146.1-27.3c31.4-11.8,69.9-22.5,95.6-1
	c22.4,18.7,23,53.2,15.8,81.5c-7.2,28.3-20.4,55.9-19,85.1s25.6,60.5,54.3,54.8c21.2-4.1,34.6-27,35.2-48.6s-8.3-42.2-17-62
	l-12.2-27.6c14.6,13.6,39.5,26.7,51.6,10.8c11.4-15-5.1-34.7-10.7-52.7c-8.4-27.1,11.4-56.5,37-68.8s55.2-11.8,83.6-11.1
	c6.6,0.2,13.7,0.5,19,4.5c6,4.5,8.1,12.5,8.8,19.9c2.3,22.8-4.4,45.5-5.5,68.4c-1.6,37.8,11.9,74.6,37.5,102.4
	c9.7,10.4,22.5,19.8,36.7,18.6c23.4-1.9,34.6-30.1,35.7-53.6s-1.7-49.7,13.2-67.8c2.3-2.8,5.2-5.4,8.7-6.4
	c10-2.6,17.7,8.7,21.7,18.2c10.8,25.4,21.2,52.2,41.6,70.6s54.6,25.3,75.1,6.9c14-12.5,17.9-32.5,26.3-49.2
	c8.4-16.8,28-32.1,44.7-23.6c14,7.2,16.2,27.3,10,41.8s-18.3,25.5-27.5,38.3c-13.4,18.8-20.8,41.2-21.1,64.3
	c-0.2,14.5,12.8,33.8,24.3,24.9c5.4-4.2,5.5-12.1,5.8-18.9c1.6-41.2,27.7-80.6,65.1-98.1c7.3,18.6-8.5,46.1,21.8,55.9
	s27.8-27.6,45.2-36s39.2-10.5,55.7-0.3c11.6,7.2,19.8,19.7,32.6,24.3c16.5,6,35.5-3.7,45.6-18.1S1508.5,851.7,1508.5,851.7
	L1508.5,851.7z"/>
<path class="st1" d="M1187.4,181.1c4.5,2.3,5.7,12.4,4.5,18.1s1.1,15.8,7.9,14.7c6.8-1.1-1.1-22.6,6.8-26s13.6,20.4,23.8,15.8
	s9-29.4,11.3-35.1"/>
<path class="st1" d="M1396.4,544.5c8,4,10,22.1,8,32.1s2,28.1,14.1,26.1s-2-40.2,12.1-46.2c14.1-6,24.1,36.2,42.2,28.1
	s16.1-52.2,20.1-62.3"/>
<path class="st1" d="M1475.6,367.5c0,0,12.4,13.6,14.7,20.4s4.5,18.1-3.4,21.5s-13.6-9-18.1-18.1s-7.9-14.7-12.4-15.8"/>
<path class="st1" d="M1464.8,741.2c0,0,5.2,17.7,4.2,24.8s-3.9,18.2-12.5,17.8s-8.2-14.1-8.2-24.2s-0.6-16.7-4.2-19.7"/>
<path class="st1" d="M514.2,556.5c0,0-12.4,13.6-14.7,20.4c-2.3,6.8-4.5,18.1,3.4,21.5c7.9,3.4,13.6-9,18.1-18.1
	c4.5-9.1,7.9-14.7,12.4-15.8"/>
<path class="st2" d="M554.3,310.8C533,332.6,437.5,442.6,426.6,518.7"/>
<path class="st2" d="M654.2,229.4c-9,4.4-50.9,27.9-62.8,50.3"/>
<path class="st2" d="M673.8,871.6c-8,15-10,65,16,66"/>
<path d="M669.2,318.2c0.1,0.3,0.1,0.8-0.1,1.5c-0.1,0.7-0.4,1.4-0.9,2.2c-1.6,3-3.6,4.7-6,5.1c-9.4,1.5-14,2.4-23.4,4
	c-3.9,7-5.9,10.4-9.8,17.4c9.3-1.7,14-2.5,23.3-4c0.1,0.4,0,0.9-0.1,1.5s-0.4,1.4-0.9,2.3c-1.5,2.9-3.6,4.6-6,5
	c-8.4,1.4-12.6,2.1-21,3.6c-5.3,9.5-8,14.2-13.3,23.7c-0.5,0.2-1.3,0.5-2.3,0.8c-1,0.3-2,0.6-2.9,0.7c-3.9,0.7-4.9-0.5-3.1-3.6
	c9.3-16.2,18.7-32.4,28-48.5c1-1.7,2.2-3.1,3.7-4.2c1.5-1.2,3.1-1.9,4.7-2.2C649.1,321.6,659.1,319.9,669.2,318.2L669.2,318.2z"/>
<path d="M669.5,330.3c0.5-0.2,1.2-0.4,2.1-0.7s1.8-0.5,2.7-0.6c1.8-0.3,2.9-0.1,3.4,0.4c0.5,0.6,0.3,1.7-0.6,3.4
	c-4.7,9.3-7.1,14-11.8,23.3c-1.9,3.6-2.2,6.1-1,7.3s3.6,1.6,7.1,1.1c2.3-0.3,4.3-0.8,6.1-1.5c1.8-0.7,3.2-1.3,4.4-2
	c5.6-11.7,11.2-23.5,16.9-35.2c0.5-0.2,1.2-0.4,2.1-0.7c0.8-0.3,1.7-0.5,2.7-0.6c1.8-0.2,3-0.1,3.5,0.5c0.5,0.6,0.4,1.7-0.4,3.4
	c-4.9,10.5-9.8,21.1-14.8,31.6c-0.6,1.4-1.4,2.5-2.3,3.5c-0.9,0.9-2.2,1.9-3.9,2.9c-2.1,1.2-4.8,2.3-8,3.5c-3.2,1.1-6.6,2-10.4,2.6
	c-6.8,1-11.4,0.4-13.7-1.9c-2.3-2.3-1.8-6.5,1.5-12.8C659.9,348.7,664.7,339.5,669.5,330.3L669.5,330.3z"/>
<path d="M738.1,326.9c-2,0.2-4,0.8-6,1.7c-2,0.9-3.9,2-5.6,3.5c-1.8,1.5-3.5,3.2-5,5.2c-1.6,2-2.9,4.2-4,6.7
	c-2.2,4.9-2.5,8.5-1,10.8c1.5,2.2,4.5,3.1,8.8,2.6c2.5-0.3,4.7-0.9,6.8-1.7c2-0.8,3.9-1.8,5.5-2.8c0.6,0.4,1.1,0.9,1.3,1.5
	s0.2,1.4-0.2,2.4c-0.8,1.9-2.8,3.7-5.9,5.3c-3.2,1.6-7,2.7-11.4,3.2c-3.6,0.4-6.8,0.4-9.4-0.2c-2.6-0.6-4.5-1.7-5.9-3.3
	c-1.3-1.6-1.9-3.9-1.8-6.6c0.1-2.7,1.1-6,2.8-9.9c1.8-3.9,3.9-7.4,6.5-10.5c2.6-3.1,5.3-5.8,8.2-8c3-2.2,6-4,9.2-5.3
	c3.2-1.3,6.3-2.2,9.4-2.5c2-0.2,3.8-0.3,5.3-0.1c1.5,0.2,2.7,0.5,3.6,1c0.9,0.5,1.5,1.2,1.8,1.9c0.3,0.8,0.3,1.6-0.1,2.5
	c-0.3,0.9-0.9,1.7-1.7,2.5c-0.8,0.8-1.6,1.4-2.4,1.8c-1-0.6-2.2-1.2-3.5-1.6S740.5,326.6,738.1,326.9L738.1,326.9z"/>
<path d="M754,360.7c-0.9,0.2-1.8,0.4-2.8,0.5c-1.9,0.2-3.2,0-3.9-0.6c-0.7-0.6-0.7-1.7,0-3.3c7.3-18.8,14.7-37.6,22-56.4
	c0.5-0.2,1.1-0.4,2-0.7c0.9-0.3,1.7-0.4,2.6-0.5c1.8-0.2,2.9,0,3.5,0.6c0.6,0.6,0.5,1.7-0.1,3.3l-11.7,31.1
	c8.8-6.9,17.5-13.8,26.2-20.7c2-0.1,3.4,0.2,4.2,1c0.9,0.8,1.1,1.8,0.6,3.2c-0.4,1.1-1.1,2.1-2.1,3.1s-2.5,2.1-4.4,3.5
	c-6.5,4.8-9.8,7.2-16.5,12c5.4,6.2,8.2,9.3,14,15.5c-0.8,1.8-1.8,3.3-3.1,4.4c-1.3,1.1-2.8,1.7-4.5,1.9c-1.3,0.1-2.4-0.1-3.2-0.6
	c-0.8-0.5-1.6-1.3-2.3-2.5c-4.5-6.2-6.6-9.2-10.8-15.4c-3,8-4.5,12-7.5,20C755.5,360.2,754.8,360.4,754,360.7L754,360.7z"/>
<path d="M795.3,364.4c-1,1-2,1.8-3,2.4c-0.9,0.5-2,0.8-3.1,0.9c-1.9,0.2-3.3-0.3-4.1-1.4c1-1.4,2-3,3.2-4.7c1.1-1.7,2.2-3.5,3.3-5.3
	c1.1-1.8,2.2-3.6,3.2-5.3c1-1.7,1.8-4,2.6-4.7c0.4-0.4,1.7-0.7,2.6-1c0.9-0.3,1.9-0.5,2.8-0.6c1.4-0.1,2.4,0.1,3.1,0.6
	c0.7,0.5,0.8,1.6,0.4,3.1c-0.3,1.1-1,2.4-1.8,3.9c-0.9,1.5-1.9,3-3,4.5s-2.2,2.9-3.3,4.3C797.1,362.5,796.1,363.6,795.3,364.4
	L795.3,364.4z"/>
<path d="M860.7,308.4c1.9-0.1,3.6,0,5.1,0.3s2.9,0.7,4,1.3c1.6-7,2.4-10.5,4-17.4c0.5-0.1,1.1-0.3,1.9-0.5c0.8-0.2,1.7-0.4,2.6-0.4
	c1.8-0.1,3,0.2,3.7,0.8s0.9,1.7,0.5,3.3c-3.5,16-7,32-10.4,48c-0.3,1.3-0.8,2.4-1.6,3.2c-0.8,0.9-1.9,1.7-3.3,2.5
	c-1.7,1-4,1.9-6.8,2.8c-2.8,0.9-5.9,1.4-9.3,1.6c-3.8,0.2-7.1,0-10-0.7s-5.2-1.9-6.8-3.6c-1.7-1.7-2.7-4-3.1-6.8s0-6.1,1-10
	c1.1-4,2.7-7.5,4.6-10.5c2-3,4.2-5.5,6.7-7.5s5.2-3.5,8.1-4.6C854.7,309.2,857.6,308.6,860.7,308.4L860.7,308.4z M868,318
	c-0.9-0.6-2-1.1-3.4-1.5c-1.3-0.4-2.9-0.6-4.6-0.5c-1.9,0.1-3.7,0.5-5.4,1.1c-1.7,0.6-3.4,1.6-4.9,3c-1.5,1.3-2.9,3-4.1,5
	c-1.2,2-2.2,4.3-2.9,7.1c-1.4,5.1-1.1,8.8,0.9,11c2,2.2,5.2,3.1,9.5,2.9c2-0.1,3.7-0.4,5.1-0.9s2.7-1,3.9-1.6
	C864.4,333.4,865.6,328.2,868,318L868,318z"/>
<path d="M893.6,334.2c0.2,3.5,1.5,6,3.9,7.5c2.3,1.6,5.6,2.3,9.7,2.2c2.8-0.1,5.3-0.5,7.8-1.4c2.4-0.9,4.4-1.7,5.9-2.7
	c1.7,0.9,2.4,2.3,2.2,4.1c-0.2,1-0.7,2-1.7,2.9c-1,0.9-2.3,1.7-3.9,2.4c-1.6,0.7-3.4,1.2-5.5,1.6s-4.3,0.7-6.6,0.7
	c-3.8,0.1-7.3-0.3-10.2-1.1c-3-0.9-5.4-2.2-7.2-4.1s-3.1-4.2-3.7-7c-0.6-2.8-0.5-6.1,0.2-9.9c0.8-3.7,2-6.9,3.7-9.7
	c1.7-2.8,3.7-5.2,6-7.1c2.3-1.9,4.8-3.4,7.6-4.5c2.8-1.1,5.7-1.6,8.7-1.7s5.6,0.3,7.9,1.2c2.3,0.9,4.2,2.1,5.8,3.8
	c1.5,1.6,2.6,3.6,3.3,5.9c0.7,2.3,0.8,4.8,0.4,7.6c-0.2,1.5-0.8,2.6-1.6,3.4c-0.9,0.7-2.1,1.2-3.6,1.5
	C912.9,331,903.3,332.5,893.6,334.2L893.6,334.2z M909.1,313.7c-3.5,0.1-6.5,1.3-9.2,3.7c-2.7,2.3-4.6,5.6-5.5,9.8
	c9.7-1.6,14.5-2.4,24.1-3.9c0.2-2.7-0.5-5-2-6.9C915,314.5,912.5,313.6,909.1,313.7L909.1,313.7z"/>
<path d="M946.3,341.7c1.3,0.9,3.2,1.3,5.7,1.3c1.1,0,2.3-0.2,3.6-0.5s2.4-0.7,3.3-1.1c0.4,0.5,0.8,1,1.1,1.6
	c0.3,0.6,0.4,1.3,0.3,2.2c-0.1,1.6-1.1,2.9-3,3.9c-1.8,1-4.6,1.6-8.2,1.6c-5,0-8.8-1-11.5-3s-3.7-5.4-3.1-10
	c1.8-14.2,3.7-28.5,5.5-42.7c0.4-0.1,1.1-0.3,1.9-0.5s1.7-0.3,2.6-0.3c1.8,0,3,0.3,3.8,1s1,1.8,0.8,3.4c-0.4,3.6-0.6,5.4-1,9
	c5.8-0.1,8.7-0.1,14.5-0.1c0.2,0.4,0.4,0.9,0.6,1.6c0.2,0.7,0.2,1.4,0.1,2.1c-0.2,2.6-1.5,3.9-3.8,3.9c-4.9,0-7.3,0-12.2,0.1
	c-1,8.7-1.5,13.1-2.5,21.8C944.6,339.2,945.1,340.8,946.3,341.7L946.3,341.7z"/>
<path d="M1017.2,346.2c-1.3,0.7-2.8,1.3-4.6,1.7c-1.8,0.4-4,0.6-6.5,0.6c-2.9-0.1-5.7-0.5-8.2-1.3s-4.8-2.1-6.7-3.8
	c-1.9-1.7-3.3-3.9-4.3-6.6s-1.4-6-1.2-9.9c0.2-3.5,0.9-6.6,2.2-9.3c1.2-2.6,2.9-4.8,5-6.6c2-1.8,4.5-3.1,7.2-4
	c2.7-0.9,5.7-1.3,9-1.2c3,0.1,5.8,0.5,8.4,1.4c2.6,0.8,4.7,1.8,6.3,2.9c1.1,0.7,1.9,1.5,2.5,2.4c0.6,0.9,0.9,1.9,0.9,3.1
	c0.1,12,0.1,24,0.2,36.1c0,3-0.6,5.7-1.7,7.8c-1.2,2.2-2.8,3.9-4.8,5.2c-2.1,1.3-4.5,2.2-7.4,2.8s-5.9,0.8-9.2,0.8
	c-3.5-0.1-6.5-0.4-8.9-1.1s-4.3-1.3-5.4-1.9c-2-1.2-3-2.7-2.9-4.6c0-1,0.3-1.9,0.8-2.6c0.5-0.7,1.1-1.2,1.9-1.7c1.5,1,3.5,1.9,6,2.7
	s5.2,1.3,8.1,1.3c4.2,0.1,7.5-0.6,9.9-2.1s3.5-4,3.5-7.5C1017.2,349.1,1017.2,348.1,1017.2,346.2L1017.2,346.2z M1007.7,341
	c2.2,0,4.1-0.2,5.6-0.8c1.5-0.6,2.8-1.3,3.8-2.1c0.1-8.9,0.1-13.3,0.2-22.1c-0.9-0.6-2.1-1.1-3.5-1.6s-3-0.8-4.9-0.8
	c-3.8-0.1-6.9,1-9.3,3.2c-2.4,2.2-3.7,5.6-3.9,10.2c-0.1,2.5,0.1,4.6,0.7,6.4c0.6,1.8,1.4,3.2,2.5,4.3c1.1,1.1,2.4,1.9,3.9,2.5
	C1004.3,340.7,1005.9,341,1007.7,341L1007.7,341z"/>
<path d="M1037.1,294.9c0-1.6,0.5-2.9,1.5-3.9c1.1-1,2.4-1.5,4.1-1.4c1.7,0.1,3.1,0.7,4.1,1.8c1.1,1.1,1.6,2.5,1.7,4.1
	c0.1,1.6-0.4,2.9-1.4,3.9c-1,1-2.4,1.5-4.1,1.4s-3.2-0.7-4.3-1.8C1037.7,297.8,1037.1,296.4,1037.1,294.9L1037.1,294.9z
	 M1049.8,351.2c-0.5,0.2-1.1,0.3-1.9,0.4c-0.8,0.1-1.8,0.1-2.8,0.1c-1.9-0.1-3.4-0.5-4.3-1.2s-1.4-1.9-1.5-3.4
	c-0.3-12.9-0.6-25.8-0.9-38.8c0.5-0.1,1.1-0.2,1.9-0.4s1.7-0.2,2.7-0.2c1.8,0.1,3.1,0.5,4,1.2c0.9,0.7,1.3,1.9,1.4,3.5L1049.8,351.2
	L1049.8,351.2z"/>
<path d="M1070.8,352.7c-0.8,0.1-1.7,0.1-2.7,0.1c-1.9-0.1-3.4-0.5-4.3-1.2c-1-0.7-1.5-1.9-1.6-3.5c-1-18.6-2.1-37.1-3.1-55.7
	c0.4-0.1,1-0.2,1.8-0.4c0.8-0.1,1.6-0.2,2.5-0.1c1.8,0.1,3.1,0.5,3.9,1.2c0.9,0.7,1.4,1.9,1.5,3.5c0.7,10.2,1.4,20.5,2.2,30.8
	c7.4-7,10.9-10.5,17.9-17.5c2,0.2,3.6,0.8,4.8,1.7c1.2,0.9,1.9,2.1,2.1,3.4c0.1,1.1-0.2,2.1-0.8,2.9c-0.7,0.8-1.6,1.8-3,2.9
	c-4.6,4-6.9,6-11.7,10c7.2,6.3,14.4,12.5,21.8,18.6c0,1.8-0.4,3.1-1.3,4.1c-0.8,1-2.1,1.4-3.8,1.2c-1.3-0.1-2.5-0.5-3.6-1.1
	c-1.1-0.7-2.3-1.7-3.6-3c-7.5-7.2-11.2-10.8-18.4-17.9c0.6,7.9,0.8,11.8,1.4,19.7C1072.2,352.5,1071.6,352.6,1070.8,352.7
	L1070.8,352.7z"/>
<path d="M1141.3,313.6c1.9,0.2,3.6,0.5,5.4,1.1c1.7,0.6,3.2,1.2,4.6,2c-1.4-7-2-10.6-3.4-17.6c0.4-0.1,1-0.2,1.7-0.3
	c0.8-0.1,1.6-0.1,2.5,0c1.8,0.2,3.1,0.7,4.1,1.4s1.6,2,2,3.6c3.3,16.2,6.7,32.4,10.1,48.6c0.3,1.3,0.2,2.3-0.2,3.1s-1.2,1.5-2.3,2.1
	c-1.3,0.8-3.2,1.4-5.7,1.9c-2.5,0.5-5.4,0.6-8.8,0.2c-3.8-0.4-7.3-1.1-10.5-2.3s-6.1-2.8-8.6-4.9c-2.5-2.1-4.5-4.6-6.1-7.5
	c-1.6-3-2.7-6.4-3.2-10.2c-0.6-4-0.5-7.4,0.2-10.2c0.7-2.8,1.9-5.1,3.7-6.8c1.7-1.7,3.8-2.9,6.3-3.6
	C1135.5,313.5,1138.3,313.3,1141.3,313.6L1141.3,313.6z M1152.9,324.8c-1.2-0.8-2.6-1.5-4.1-2.1c-1.5-0.6-3.2-1-4.9-1.2
	c-1.9-0.2-3.6-0.1-5.1,0.4c-1.5,0.4-2.8,1.2-3.7,2.3c-1,1.2-1.7,2.7-2.1,4.6c-0.4,1.9-0.4,4.2,0.1,7c0.8,5.2,2.7,9,5.7,11.6
	c3,2.6,6.6,4.1,10.9,4.5c2,0.2,3.6,0.1,4.8-0.1c1.3-0.3,2.4-0.6,3.3-1.1C1155.9,340.2,1154.9,335.1,1152.9,324.8L1152.9,324.8z"/>
<path d="M1187.9,318.5c5.7,0.7,10.6,2.5,14.7,5.5c4.1,3,6.9,7.2,8.4,12.6c2.4,8.7,3.6,13.1,6,21.8c0.4,1.4,0.3,2.5-0.1,3.2
	s-1.2,1.3-2.2,1.8c-1.4,0.7-3.4,1.2-6,1.6c-2.5,0.4-5.6,0.3-9.1-0.1c-6.4-0.8-11.7-2.5-15.8-5.3c-4.1-2.8-6.7-6.4-7.7-11
	c-0.9-4.1-0.2-7.1,2-8.9c2.2-1.9,5.8-2.8,10.8-2.7c5.2,0.1,7.8,0.2,12.9,0.3c-0.2-0.8-0.3-1.2-0.5-2.1c-0.7-2.7-2.1-4.8-4.2-6.3
	c-2.1-1.5-4.7-2.4-7.9-2.8c-2.5-0.3-4.8-0.2-7,0.2c-2.2,0.4-4,1-5.7,1.6c-0.7-0.6-1.4-1.2-2-2c-0.6-0.8-1-1.6-1.2-2.4
	c-0.2-1.1-0.2-1.9,0.2-2.5c0.4-0.6,1.1-1.1,2.1-1.5c1.5-0.7,3.4-1.1,5.5-1.2C1183.1,318.2,1185.4,318.3,1187.9,318.5L1187.9,318.5z
	 M1197.7,357.3c2.3,0.3,4.2,0.3,5.8,0.1c1.6-0.2,2.7-0.5,3.3-1c-1.2-4.7-1.8-7.1-3.1-11.9c-4.1-0.1-6.1-0.2-10.2-0.2
	c-2.9,0-4.9,0.3-6.2,1.1s-1.7,2.2-1.2,4.2c0.5,2,1.7,3.7,3.6,5.1C1191.5,356,1194.2,356.9,1197.7,357.3L1197.7,357.3z M1175.8,304.6
	c-0.6-2.6-0.2-4.7,1.1-6.2s3.6-2.1,6.8-1.7c3.2,0.4,5.9,1.6,8.2,3.5c2.2,2,3.7,4.3,4.4,6.9c0.7,2.6,0.4,4.7-1,6.2
	c-1.3,1.5-3.7,2.1-7,1.7c-3.2-0.4-6-1.6-8.2-3.5C1177.8,309.5,1176.4,307.2,1175.8,304.6L1175.8,304.6z M1182.1,305.4
	c0.3,1.2,0.9,2.3,1.8,3.1c0.9,0.8,1.9,1.3,3,1.4c1.2,0.1,2-0.1,2.6-0.7c0.6-0.6,0.7-1.6,0.4-2.8c-0.3-1.2-0.9-2.3-1.9-3.1
	c-0.9-0.8-2-1.3-3.1-1.4c-1.1-0.1-1.9,0.1-2.4,0.8S1181.8,304.1,1182.1,305.4L1182.1,305.4z"/>
<path d="M1240.6,368.7c-0.4,0.1-1,0.2-1.8,0.2s-1.7,0-2.6-0.1c-1.9-0.3-3.4-0.8-4.6-1.6c-1.1-0.8-1.9-2-2.4-3.7
	c-3-10.2-5.9-20.5-8.9-30.8c-0.4-1.6-0.5-2.8-0.2-3.7s1.1-1.7,2.2-2.4c1.5-0.9,3.5-1.5,6-1.9c2.6-0.4,5.5-0.3,8.8,0.2
	c5.4,0.8,8.6,2.8,9.7,5.9c0.2,0.8,0.4,1.4,0.3,2.1c0,0.6-0.1,1.2-0.3,1.6c-0.7-0.2-1.5-0.5-2.5-0.7c-1-0.3-2-0.5-3.1-0.6
	c-2.5-0.4-4.7-0.4-6.6-0.2c-1.9,0.2-3.4,0.7-4.6,1.3C1233.7,345.8,1237.1,357.3,1240.6,368.7L1240.6,368.7z"/>
<path d="M1273.5,374.3c-1.9-0.3-3.4-0.9-4.6-1.7c-1.1-0.8-2-2.1-2.6-3.7l-19.4-57.4c0.4-0.1,0.9-0.1,1.6-0.2c0.7-0.1,1.5,0,2.4,0.1
	c1.7,0.3,3.2,0.8,4.2,1.7c1.1,0.8,1.9,2.1,2.5,3.7c6.7,19.2,13.5,38.3,20.2,57.5c-0.5,0.1-1.1,0.2-1.8,0.2
	C1275.3,374.5,1274.5,374.4,1273.5,374.3L1273.5,374.3z"/>
<path d="M1268.4,318.3c-0.6-1.6-0.6-2.9,0.1-3.9s1.8-1.2,3.5-1s3.2,1.1,4.7,2.4c1.4,1.3,2.5,2.8,3.1,4.4c0.6,1.6,0.6,2.9,0,3.9
	c-0.6,0.9-1.8,1.3-3.5,1c-1.7-0.3-3.3-1.1-4.8-2.4S1269,319.9,1268.4,318.3L1268.4,318.3z M1301,378.1c-0.4,0.1-1,0.2-1.7,0.2
	c-0.8,0-1.7-0.1-2.7-0.2c-1.9-0.3-3.4-0.9-4.6-1.8s-2.1-2.1-2.7-3.7c-4.9-13.4-9.9-26.8-14.8-40.2c0.4,0,1-0.1,1.7-0.2
	s1.5,0,2.5,0.2c1.8,0.3,3.2,0.9,4.3,1.7c1.1,0.8,2,2.1,2.6,3.8C1290.8,351.3,1295.9,364.7,1301,378.1L1301,378.1z"/>
<path d="M1341.4,381.8c-0.9,0.5-2.1,0.9-3.7,1c-1.6,0.2-3.6,0-6.1-0.5c-2.9-0.5-5.8-1.4-8.7-2.7c-2.9-1.3-5.7-3-8.3-5.1
	c-2.6-2.1-5.1-4.6-7.3-7.6s-4.2-6.5-5.8-10.6c-1.5-3.7-2.2-6.8-2.2-9.4s0.6-4.6,1.8-6.2c1.2-1.5,2.9-2.5,5.2-3
	c2.3-0.5,5-0.4,8.3,0.2c3,0.6,5.9,1.5,8.8,2.8c2.9,1.3,5.4,2.6,7.5,4c1.4,0.9,2.5,1.9,3.5,2.9c1,1,1.8,2.2,2.3,3.5
	c5.7,12.7,11.3,25.3,17,38c1.4,3.2,2.1,5.9,2,8c-0.1,2.1-0.9,3.6-2.3,4.7c-1.4,1-3.4,1.6-5.9,1.8c-2.5,0.1-5.4-0.1-8.6-0.7
	c-3.4-0.6-6.5-1.5-9.2-2.6c-2.7-1.1-4.8-2.1-6.2-2.9c-2.6-1.6-4.2-3.4-5-5.3c-0.4-1.1-0.6-2-0.4-2.6c0.2-0.6,0.5-1.1,1.1-1.5
	c1.9,1.3,4.3,2.6,7.2,3.9c2.9,1.3,5.7,2.2,8.6,2.7c4.2,0.8,7.1,0.6,8.7-0.6c1.6-1.2,1.6-3.6,0-7.3
	C1342.8,384.8,1342.3,383.8,1341.4,381.8L1341.4,381.8z M1329.8,374.8c2.2,0.4,3.9,0.5,5.1,0.1c1.2-0.4,2.1-0.9,2.8-1.6
	c-4.1-9.3-6.1-14-10.1-23.3c-1.2-0.8-2.6-1.5-4.1-2.2s-3.3-1.3-5.1-1.6c-3.8-0.7-6.3-0.1-7.7,1.8c-1.3,1.9-1,5.3,0.9,10.1
	c1.1,2.6,2.3,4.9,3.7,6.9c1.4,2,2.9,3.6,4.4,5c1.6,1.4,3.2,2.4,4.9,3.2C1326.3,373.9,1328.1,374.5,1329.8,374.8L1329.8,374.8z"/>
<path d="M1373.2,384.5c1.8,1.3,3.9,2.1,6.4,2.7c1.1,0.2,2.2,0.3,3.2,0.3c1.1-0.1,1.9-0.2,2.6-0.5c0.7,0.6,1.4,1.3,2.1,2
	c0.7,0.7,1.2,1.5,1.7,2.5c0.8,1.7,0.7,2.9-0.5,3.6s-3.5,0.7-7.1,0c-4.9-1-9.3-3-13.2-5.7c-3.9-2.8-7-6.6-9.3-11.6
	c-7-15.1-13.9-30.1-20.9-45.2c0.4,0,0.9-0.1,1.6-0.1s1.5,0,2.4,0.2c1.7,0.4,3.2,1,4.3,1.9c1.2,0.9,2.1,2.2,2.9,3.9
	c1.8,3.8,2.7,5.8,4.6,9.6c5.7,1.2,8.5,1.8,14.2,3c0.4,0.4,0.9,1,1.5,1.8c0.6,0.8,1,1.5,1.4,2.3c1.4,2.8,0.9,3.9-1.4,3.4
	c-4.8-1-7.2-1.5-12-2.6c4.4,9.2,6.6,13.9,10.9,23.1C1369.9,381.5,1371.4,383.3,1373.2,384.5L1373.2,384.5z"/>
<path d="M1396.6,392.4c-0.9-1.9-1.2-3.3-0.6-4.2c0.5-1,1.8-1.2,3.8-0.8c2.1,0.5,3.9,1.4,5.7,2.9c1.7,1.5,3.1,3.1,4.1,5
	s1.2,3.3,0.7,4.3s-1.8,1.2-3.9,0.8c-2-0.5-3.9-1.4-5.7-2.9C1399,396,1397.6,394.3,1396.6,392.4L1396.6,392.4z M1382,344
	c0.9,1.8,2.2,4.3,3.7,7.3c1.5,3,3.1,6.3,4.8,9.7c1.7,3.4,3.4,6.9,5,10.4s3.1,6.5,4.2,9.2c-0.3,0.2-0.7,0.4-1.3,0.4
	c-0.6,0-1.3,0-2-0.2c-1.2-0.3-2.3-0.7-3.2-1.3s-1.8-1.5-2.4-2.6c-1.1-1.8-2.5-4.4-4.3-7.6c-1.8-3.3-3.7-6.8-5.6-10.5
	c-1.9-3.7-3.9-7.4-5.8-11.1c-1.9-3.7-3.6-6.9-4.9-9.5c1.1-0.7,2.6-0.8,4.5-0.4c1.5,0.3,2.9,1,4.2,2.1
	C1380,340.8,1381.1,342.2,1382,344L1382,344z"/>
<path d="M536.7,495.6c-0.6-0.8-0.5-2,0.5-3.7c9.1-15.7,18.1-31.5,27.2-47.2c1-1.7,2.3-3.1,4-4.3c1.7-1.2,3.5-2,5.3-2.3
	c11.7-2.1,23.4-4.1,35.1-6c0.1,0.3,0.2,0.8,0,1.5c-0.1,0.7-0.4,1.4-0.8,2.2c-0.7,1.4-1.7,2.5-2.8,3.4s-2.4,1.4-3.7,1.6
	c-11,1.8-16.5,2.8-27.4,4.7c-3.6,6.3-5.4,9.5-8.9,15.9c9.2-1.6,18.4-3.2,27.7-4.8c0.2,0.3,0.2,0.8,0.1,1.5c-0.1,0.6-0.4,1.4-0.8,2.2
	c-0.8,1.5-1.7,2.6-2.9,3.4c-1.1,0.8-2.4,1.4-3.7,1.6c-10,1.7-15,2.5-25,4.3c-3.9,7-5.9,10.4-9.8,17.4c10.8-1.9,21.6-3.8,32.5-5.5
	c0.1,0.3,0.1,0.8,0,1.5c-0.1,0.6-0.3,1.4-0.8,2.2c-0.8,1.5-1.7,2.6-2.9,3.5c-1.2,0.9-2.5,1.4-3.8,1.6c-11.7,1.9-23.5,4-35.2,6.1
	C538.6,496.6,537.3,496.4,536.7,495.6L536.7,495.6z"/>
<path d="M603,485.6c-0.6,0.3-1.5,0.6-2.5,0.9c-1,0.3-2.1,0.5-3.3,0.7c-2.2,0.3-3.7,0.2-4.4-0.3c-0.7-0.5-0.6-1.6,0.2-3.2
	c5.3-10.4,10.7-20.7,16-31c0.8-1.6,1.8-2.9,3.1-4c1.2-1.1,2.9-2.2,4.9-3.3c2.7-1.5,5.8-2.8,9.4-4.1s7.4-2.2,11.2-2.7
	c6.3-0.9,8.8,0.2,7.3,3.3c-0.4,0.8-0.8,1.5-1.4,2.2c-0.6,0.7-1.2,1.3-1.8,1.9c-0.7,0-1.5,0-2.5,0c-1,0-2.2,0.1-3.4,0.3
	c-2.9,0.4-5.7,1.1-8.4,2c-2.7,0.9-5,1.9-7.1,3C614.5,462.6,608.7,474.1,603,485.6L603,485.6z"/>
<path d="M696.8,430.6c2.2-0.3,4.1-0.3,5.9-0.1s3.2,0.5,4.4,1l7.2-17.7c0.5-0.2,1.3-0.4,2.3-0.7c1-0.3,2-0.5,3.1-0.6
	c2-0.2,3.4-0.1,4.2,0.5c0.7,0.6,0.8,1.7,0.1,3.3c-6.3,16.2-12.7,32.5-19,48.7c-0.5,1.3-1.3,2.4-2.3,3.3s-2.4,1.8-4.1,2.7
	c-2.1,1.1-4.8,2.2-8.1,3.3c-3.3,1.1-6.9,1.9-10.8,2.3c-4.4,0.5-8.1,0.5-11.3,0.1c-3.2-0.5-5.6-1.5-7.3-3.1c-1.7-1.6-2.5-3.7-2.6-6.5
	c-0.1-2.7,0.8-6,2.6-10c1.8-4.1,4.1-7.7,6.8-10.8c2.7-3.1,5.6-5.8,8.8-8s6.5-3.9,9.9-5.2C689.8,431.9,693.3,431,696.8,430.6
	L696.8,430.6z M703.9,439.6c-1-0.5-2.2-1-3.7-1.3c-1.5-0.3-3.2-0.3-5.3-0.1c-2.2,0.3-4.3,0.8-6.4,1.6c-2.1,0.8-4.1,1.9-6,3.4
	c-1.9,1.5-3.7,3.2-5.4,5.3s-3.1,4.5-4.3,7.3c-2.3,5.2-2.5,8.9-0.5,10.9s5.5,2.7,10.5,2.1c2.3-0.3,4.3-0.7,6-1.3
	c1.7-0.6,3.3-1.2,4.7-1.9C697.7,455.1,699.8,450,703.9,439.6L703.9,439.6z"/>
<path d="M732,428c0.6-0.2,1.3-0.4,2.3-0.6s2-0.4,3.1-0.5c2.1-0.2,3.5,0,4.2,0.6c0.7,0.6,0.8,1.7,0.2,3.4c-3.3,9.1-4.9,13.7-8.2,22.9
	c-1.3,3.6-1.1,6,0.7,7.3c1.8,1.3,4.7,1.7,8.8,1.4c2.6-0.2,5-0.7,6.9-1.2c2-0.6,3.6-1.2,4.8-1.8c3.8-11.5,7.6-23,11.5-34.6
	c0.6-0.2,1.4-0.4,2.4-0.6c1-0.2,2-0.4,3.1-0.5c2.1-0.2,3.5,0,4.3,0.6c0.8,0.6,0.9,1.7,0.4,3.4c-3.3,10.4-6.6,20.7-9.8,31.1
	c-0.4,1.4-1.1,2.5-1.9,3.4c-0.8,0.9-2.1,1.9-4,2.8c-2.2,1.1-5.2,2.1-8.7,3.2c-3.5,1-7.4,1.7-11.8,2.1c-7.9,0.7-13.5-0.1-16.9-2.5
	c-3.4-2.4-3.8-6.6-1.5-12.7L732,428L732,428z"/>
<path d="M822.5,464.1c-2.5,0.1-4.7,0.1-6.8-0.2c-2-0.3-3.8-0.7-5.1-1.2c-1.8,6.9-2.7,10.4-4.5,17.3c-0.6,0.2-1.4,0.4-2.4,0.6
	c-1,0.2-2.1,0.4-3.3,0.4c-2.3,0.1-3.9-0.1-4.8-0.7c-0.9-0.6-1.1-1.7-0.7-3.4c4.4-15.9,8.7-31.7,13.1-47.6c0.4-1.4,1-2.5,1.8-3.3
	c0.8-0.9,2.1-1.8,3.9-2.6c2.3-1.1,5-2.1,8.2-3.1c3.1-1,6.6-1.5,10.2-1.7c3.8-0.2,7.2,0,10.2,0.8s5.6,1.9,7.6,3.7s3.4,4,4.2,6.8
	c0.8,2.8,0.8,6.1-0.1,10c-0.8,3.9-2.2,7.2-4.1,10.1s-4.3,5.4-7,7.4s-5.9,3.6-9.3,4.7C830.1,463.3,826.4,463.9,822.5,464.1
	L822.5,464.1z M822.6,456.4c4.9-0.3,9.2-1.7,12.6-4.3c3.4-2.6,5.7-6.5,7-11.7c0.6-2.7,0.7-5,0.3-6.8c-0.4-1.9-1.1-3.4-2.2-4.5
	c-1.1-1.1-2.5-1.9-4.2-2.3c-1.7-0.4-3.7-0.6-5.8-0.5c-2.3,0.1-4.4,0.5-6.2,1c-1.8,0.6-3.4,1.2-4.8,1.9c-2.6,10.1-4,15.2-6.6,25.3
	c1.1,0.7,2.5,1.2,4.1,1.5S820.4,456.6,822.6,456.4L822.6,456.4z"/>
<path d="M888.3,416.2c6.7-0.2,11.9,0.9,15.5,3.3s5.1,6.2,4.3,11.5c-1.2,8.5-1.9,12.8-3.1,21.3c-0.2,1.4-0.8,2.5-1.7,3.3
	s-2.1,1.5-3.6,2.2c-2.1,1-4.8,1.8-8.1,2.6s-7,1.2-11.1,1.3c-7.5,0.2-13.1-0.7-16.8-2.9c-3.7-2.2-5.1-5.5-4.2-10c0.8-4,3-7.2,6.7-9.5
	c3.6-2.3,8.4-3.8,14.4-4.4c6.3-0.7,9.4-1.1,15.7-1.7c0.1-0.8,0.2-1.2,0.3-2c0.4-2.7-0.3-4.6-2.2-5.8s-4.7-1.7-8.4-1.6
	c-2.9,0.1-5.8,0.5-8.6,1.3c-2.8,0.8-5.4,1.6-7.7,2.6c-0.6-0.5-1.2-1-1.5-1.7s-0.5-1.5-0.3-2.3c0.2-1,0.7-1.9,1.4-2.6
	c0.8-0.7,1.8-1.3,3.2-1.9c2.2-0.9,4.7-1.6,7.3-2.1C882.6,416.6,885.4,416.3,888.3,416.2L888.3,416.2z M881.8,454.2
	c2.7-0.1,5-0.4,7.1-0.9c2-0.5,3.5-1,4.4-1.5c0.8-4.6,1.1-7,1.9-11.6c-5,0.5-7.4,0.8-12.4,1.4c-3.5,0.4-6.2,1.1-8.1,2.1
	c-1.9,1-3,2.5-3.4,4.4c-0.4,2,0.3,3.5,2,4.6C874.9,453.8,877.8,454.3,881.8,454.2L881.8,454.2z M879.9,403.9
	c0.5-2.6,1.9-4.7,4.3-6.5s5.5-2.7,9.2-2.9c3.8-0.1,6.6,0.7,8.4,2.3s2.5,3.8,2.1,6.3s-1.8,4.7-4.2,6.5c-2.4,1.8-5.6,2.7-9.5,2.8
	c-3.8,0.1-6.7-0.6-8.5-2.3C880.1,408.6,879.4,406.5,879.9,403.9L879.9,403.9z M887.4,403.6c-0.2,1.2,0,2.2,0.8,2.8
	c0.7,0.7,1.8,1,3,1c1.4,0,2.5-0.4,3.6-1.1c1-0.7,1.6-1.7,1.8-2.9s-0.1-2.2-0.8-2.8c-0.8-0.7-1.8-1-3.2-1c-1.3,0-2.4,0.4-3.4,1.1
	C888.2,401.5,887.6,402.4,887.4,403.6L887.4,403.6z"/>
<path d="M978.7,447.5c-0.2,4.1-2.3,7.3-6.3,9.5c-4,2.3-9.6,3.4-16.9,3.4c-3,0-5.7-0.2-8.2-0.5c-2.5-0.4-4.6-0.9-6.3-1.5
	s-3-1.5-3.9-2.4c-0.9-0.9-1.3-1.9-1.2-3c0.1-0.9,0.5-1.8,1.1-2.6c0.7-0.8,1.5-1.4,2.5-1.9c2,1.1,4.3,2.1,7,3
	c2.7,0.9,5.8,1.4,9.5,1.4c3.4,0,6.1-0.5,8-1.4c1.9-0.9,2.9-2.3,3-4.1c0.1-1.5-0.4-2.8-1.6-3.7c-1.2-0.9-2.9-1.6-5.3-2.1
	c-3-0.7-4.5-1-7.5-1.6c-5-1.1-8.6-2.6-10.8-4.4s-3.1-4.5-2.7-7.8c0.2-1.8,0.8-3.4,1.9-5c1-1.6,2.5-2.9,4.3-4c1.8-1.1,4-2,6.6-2.7
	c2.6-0.6,5.5-1,8.8-1c2.6,0,5,0.2,7.1,0.5c2.1,0.4,3.9,0.8,5.5,1.4s2.7,1.3,3.5,2.2s1.2,1.8,1.2,2.8c-0.1,1-0.4,1.8-0.9,2.5
	s-1.2,1.3-2.1,1.7c-1.3-0.7-3.2-1.4-5.8-2.2s-5.3-1.2-8.3-1.2c-3.1,0-5.5,0.4-7.4,1.3c-1.8,0.9-2.8,2.1-3,3.7
	c-0.1,1.2,0.3,2.2,1.2,3s2.6,1.4,5,1.9c2.5,0.5,3.8,0.8,6.3,1.4c5.5,1.2,9.6,2.9,12.2,5C977.7,441.2,978.9,444,978.7,447.5
	L978.7,447.5z"/>
<path d="M1027.6,416.6c1.6,0,2.9,0.4,3.9,1.1c1,0.7,1.6,1.7,1.6,3.1c0,0.7-0.2,2-0.8,3.7c-0.5,1.7-1.3,3.7-2.2,6s-2,4.8-3.2,7.4
	c-1.2,2.6-2.4,5.3-3.8,7.9c-1.3,2.6-2.7,5.1-4,7.5c-1.3,2.4-2.6,4.4-3.8,6.1c-0.6,0.3-1.5,0.5-2.8,0.8c-1.2,0.2-2.6,0.4-4.2,0.3
	c-3.8-0.1-6.2-1-7.3-2.6c-1-1.5-2.4-4-4-7.3s-3.3-6.9-4.9-10.8c-1.6-3.9-3.2-7.8-4.7-11.7s-2.6-7.2-3.4-10.1
	c0.7-0.7,1.6-1.2,2.7-1.7s2.3-0.6,3.5-0.6c1.7,0,3,0.4,3.9,1c1,0.7,1.7,1.8,2.2,3.4c2.2,6.3,3.3,9.5,5.6,15.9
	c0.4,1.2,0.9,2.5,1.5,3.9c0.6,1.4,1.1,2.9,1.7,4.3c0.6,1.5,1.1,2.8,1.7,4.2c0.6,1.3,1,2.5,1.4,3.4c0.2,0,0.3,0,0.6,0
	c2.7-5.7,5.2-11.4,7.5-17.1c2.3-5.8,4.3-11.5,6-17.1C1023.8,416.8,1025.5,416.5,1027.6,416.6L1027.6,416.6z"/>
<path d="M1060,417.5c6.7,0.3,12.2,1.8,16.3,4.5c4.2,2.7,6.5,6.7,6.9,12c0.7,8.6,1,12.8,1.6,21.4c0.1,1.4-0.2,2.5-1,3.2
	s-1.8,1.4-3.1,2c-1.9,0.8-4.4,1.5-7.5,2c-3.1,0.5-6.7,0.7-10.9,0.5c-7.4-0.4-13.3-1.8-17.5-4.2c-4.2-2.5-6.4-6-6.5-10.5
	c-0.1-4,1.5-7.1,4.6-9.1s7.6-3.1,13.5-3.4c6.2-0.2,9.2-0.3,15.4-0.5c0-0.8-0.1-1.2-0.1-2c-0.2-2.7-1.3-4.7-3.5-6
	c-2.2-1.3-5.1-2.1-8.8-2.3c-2.9-0.1-5.7,0.1-8.4,0.6c-2.7,0.6-5.1,1.2-7.2,2c-0.8-0.5-1.4-1.1-1.9-1.9s-0.8-1.5-0.8-2.4
	c0-1,0.3-1.9,0.9-2.5c0.6-0.6,1.6-1.2,2.9-1.6c2-0.8,4.3-1.3,6.9-1.6C1054.3,417.5,1057.1,417.4,1060,417.5L1060,417.5z M1062,455.6
	c2.7,0.1,5,0,6.9-0.3s3.3-0.7,4.1-1.2c-0.3-4.7-0.4-7-0.7-11.7c-4.9,0.1-7.3,0.2-12.2,0.4c-3.4,0.1-6,0.7-7.7,1.5s-2.5,2.3-2.4,4.2
	c0.1,2,1.1,3.6,3,4.8C1055,454.7,1058,455.4,1062,455.6L1062,455.6z"/>
<path d="M1156.6,433.8c-2-1.4-4.5-2.3-7.6-2.5c-2-0.2-3.9,0-5.7,0.5c-1.8,0.5-3.3,1.2-4.7,2.2c0.2,0.5,0.4,1,0.6,1.6
	c0.2,0.6,0.3,1.1,0.4,1.7c1.5,9.9,2.9,19.8,4.4,29.7c-0.5,0.1-1.2,0.2-2.2,0.3s-2,0.1-3.1,0c-2.2-0.2-3.9-0.6-5.1-1.4
	c-1.2-0.8-1.9-1.9-2.1-3.5c-1.3-10-2-15-3.3-25c-0.4-2.7-1.5-4.8-3.5-6.2s-4.5-2.2-7.6-2.4c-2.1-0.1-4,0-5.7,0.4
	c-1.8,0.4-3.2,0.9-4.4,1.5c1.2,11.3,2.4,22.5,3.6,33.8c-0.5,0.1-1.2,0.3-2.2,0.4c-0.9,0.1-2,0.1-3.1,0c-2.2-0.1-3.9-0.6-5-1.3
	c-1.1-0.7-1.8-1.9-1.9-3.5c-0.9-10.1-1.9-20.2-2.8-30.3c-0.1-1.4,0.1-2.5,0.7-3.3s1.6-1.6,3-2.4c2-1,4.5-1.8,7.6-2.4
	c3.1-0.6,6.3-0.8,9.5-0.5c3.4,0.2,6.5,0.9,9.3,1.9c2.8,1,5.2,2.4,7.2,4c1.8-1.2,4.1-2.1,6.8-2.8c2.7-0.7,5.8-0.8,9.5-0.5
	c2.8,0.2,5.5,0.8,8.1,1.6c2.6,0.8,4.8,1.9,6.8,3.4c2,1.4,3.7,3.2,5.1,5.2s2.3,4.4,2.8,7c1.8,9.7,3.7,19.5,5.5,29.2
	c-0.6,0.1-1.3,0.2-2.2,0.3c-0.9,0.1-2,0-3.1-0.1c-2.2-0.2-3.9-0.7-5.1-1.5c-1.2-0.8-1.9-2-2.2-3.6c-1.7-10-2.6-15-4.4-25.1
	C1159.9,437.2,1158.7,435.2,1156.6,433.8L1156.6,433.8z"/>
<path d="M1215.6,475.4c-2.5-0.3-4.8-0.7-7-1.4s-4.2-1.4-5.8-2.1c1.5,7,2.3,10.5,3.8,17.5c-0.5,0.1-1.2,0.2-2.2,0.3
	c-0.9,0-2,0-3.2-0.1c-2.3-0.2-4-0.8-5.2-1.5c-1.2-0.8-2-2-2.4-3.7c-3.3-16-6.5-32-9.8-48c-0.3-1.4-0.2-2.4,0.2-3.2
	c0.4-0.8,1.3-1.5,2.8-2.1c1.8-0.8,4.1-1.4,6.9-1.9c2.8-0.5,6-0.5,9.6-0.1c3.8,0.4,7.3,1.3,10.8,2.6c3.5,1.3,6.6,3,9.5,5.2
	c2.9,2.2,5.4,4.8,7.5,7.9c2.1,3.1,3.8,6.6,4.8,10.6c1,3.9,1.3,7.3,0.7,10c-0.5,2.7-1.7,4.9-3.5,6.6c-1.8,1.7-4.2,2.8-7.2,3.4
	C1223,475.8,1219.5,475.8,1215.6,475.4L1215.6,475.4z M1211.9,467.3c4.9,0.6,8.5-0.2,10.8-2.3s2.7-5.9,1.4-11.2
	c-0.7-2.7-1.7-5.1-3-7.1c-1.3-2-2.8-3.7-4.4-5.1c-1.6-1.4-3.5-2.4-5.4-3.2c-2-0.7-4-1.2-6.1-1.5c-2.3-0.3-4.3-0.2-5.8,0
	c-1.5,0.3-2.9,0.7-4,1.1c2.2,10.2,3.3,15.3,5.6,25.6c1.4,0.9,3.1,1.6,4.9,2.3S1209.7,467,1211.9,467.3L1211.9,467.3z"/>
<path d="M1256.9,462.9c2.1,3.7,4.9,6.6,8.4,8.8c3.6,2.1,7.7,3.5,12.5,4.2c3.2,0.5,6,0.5,8.3,0c2.4-0.4,4.2-1,5.5-1.7
	c2.4,1.3,4,2.9,4.5,4.7c0.4,1.1,0.2,2-0.5,2.8c-0.7,0.8-1.8,1.4-3.3,1.8c-1.5,0.4-3.3,0.6-5.5,0.7c-2.2,0-4.6-0.1-7.3-0.5
	c-4.4-0.6-8.6-1.7-12.5-3.2c-3.9-1.5-7.4-3.4-10.6-5.8c-3.1-2.3-5.8-5.1-8-8.2c-2.2-3.1-3.8-6.6-4.9-10.5c-1-3.7-1.3-7-0.7-9.6
	c0.5-2.7,1.7-4.8,3.4-6.4c1.7-1.6,3.9-2.7,6.7-3.3s5.8-0.6,9.3-0.2c3.5,0.5,6.8,1.4,9.9,2.8c3.1,1.4,6,3.1,8.7,5.1
	c2.6,2,4.9,4.3,6.8,6.9c1.9,2.6,3.4,5.3,4.3,8.1c0.5,1.6,0.5,2.6-0.2,3.2c-0.6,0.6-1.8,0.9-3.4,0.9
	C1277.8,463.2,1267.4,463,1256.9,462.9L1256.9,462.9z M1264.5,444.1c-4-0.6-7,0.1-8.9,2.1c-2,2-2.5,5.1-1.4,9.4
	c10.5,0.1,15.8,0.3,26.2,0.5c-1.2-2.9-3.2-5.5-5.9-7.7S1268.4,444.7,1264.5,444.1L1264.5,444.1z"/>
<path d="M1307.9,481.7c-0.6-1.8-0.5-3.2,0.5-4.2c1-1,2.6-1.2,4.9-0.9c2.4,0.4,4.4,1.3,6.2,2.6s2.9,3,3.6,4.8
	c0.7,1.8,0.5,3.2-0.4,4.2c-0.9,1-2.6,1.3-5,0.9c-2.4-0.4-4.4-1.3-6.2-2.7S1308.6,483.5,1307.9,481.7L1307.9,481.7z M1304.1,434.5
	c0.6,1.8,1.4,4.1,2.4,7c1,2.9,2,6.1,3.1,9.4c1.1,3.3,2.2,6.7,3.2,10c1,3.3,1.9,6.3,2.5,8.9c-0.4,0.2-1,0.4-1.8,0.4
	c-0.8,0-1.6,0-2.4-0.1c-1.4-0.2-2.6-0.6-3.6-1.1s-1.8-1.4-2.3-2.5c-0.8-1.7-1.8-4.2-3.1-7.4s-2.6-6.6-3.9-10.1
	c-1.3-3.6-2.7-7.2-4-10.7c-1.3-3.6-2.4-6.6-3.3-9.2c1.6-0.7,3.5-0.9,5.7-0.5c1.8,0.3,3.3,0.9,4.6,1.9S1303.4,432.8,1304.1,434.5
	L1304.1,434.5z"/>
<path d="M1336.8,473.1c-1-0.7-2-1.6-3-2.6s-1.7-2.1-2.1-3.2c-0.8-2.2,0.2-3.4,3.2-3.5c2.9-0.1,4.3-0.2,7.2-0.3
	c3.7-0.2,6.2-1,7.6-2.4c1.4-1.4,1.5-3.5,0.3-6.4c-1-2.5-3-5-6-7.2c-2.9-2.3-6.7-3.8-11.3-4.6c-2.8-0.5-5.5-0.6-8-0.3
	c-2.5,0.3-4.4,0.9-5.6,1.7c-1.2-0.8-2.2-1.6-3-2.5c-0.8-0.9-1.4-1.9-1.8-2.9c-0.4-1.1-0.3-2.1,0.3-2.9c0.6-0.8,1.6-1.4,3-1.8
	c1.4-0.4,3.2-0.6,5.4-0.5c2.2,0,4.6,0.3,7.4,0.8c3.7,0.6,7.1,1.7,10.5,3.1c3.3,1.4,6.3,3.1,9.1,5.1c2.7,2,5.2,4.2,7.2,6.6
	c2.1,2.5,3.7,5,4.8,7.6c2.3,5.4,2.2,9.4-0.3,12s-7.4,3.9-14.6,4.1C1342.9,472.9,1340.9,473,1336.8,473.1L1336.8,473.1z M1340.3,487
	c-0.7-1.8-0.6-3.2,0.3-4.2s2.5-1.3,4.8-0.9c2.3,0.4,4.4,1.3,6.2,2.8c1.8,1.5,3.1,3.1,3.8,4.9s0.7,3.2-0.2,4.2s-2.5,1.2-4.9,0.8
	c-2.3-0.4-4.4-1.3-6.3-2.8C1342.2,490.5,1341,488.8,1340.3,487L1340.3,487z"/>
<path d="M1386.4,495.3c-0.8-1.9-0.8-3.2,0.1-4.2c0.8-0.9,2.4-1.2,4.7-0.7c2.4,0.5,4.5,1.4,6.3,2.9c1.8,1.5,3.2,3.1,4,5
	s0.9,3.3,0.1,4.2s-2.4,1.2-4.8,0.7c-2.3-0.5-4.5-1.4-6.3-2.9C1388.5,498.9,1387.2,497.2,1386.4,495.3L1386.4,495.3z M1377.8,447.8
	c0.8,1.8,1.8,4.2,3.1,7.2s2.6,6.1,4,9.5c1.4,3.4,2.8,6.8,4.1,10.2s2.5,6.4,3.4,9.1c-0.4,0.2-0.9,0.3-1.7,0.4c-0.8,0-1.6,0-2.4-0.2
	c-1.4-0.3-2.6-0.7-3.7-1.3s-1.9-1.4-2.5-2.5c-1-1.8-2.2-4.3-3.8-7.5c-1.6-3.2-3.2-6.7-4.9-10.3c-1.7-3.6-3.3-7.3-5-10.9
	c-1.6-3.6-3-6.8-4.2-9.4c1.5-0.7,3.3-0.8,5.6-0.3c1.8,0.3,3.3,1,4.7,2.1S1377,446,1377.8,447.8L1377.8,447.8z"/>
</svg>
