<?xml version="1.0" encoding="utf-8"?>
<!-- Generator: Adobe Illustrator 27.3.1, SVG Export Plug-In . SVG Version: 6.00 Build 0)  -->
<svg version="1.1" id="Layer_1" xmlns="http://www.w3.org/2000/svg" xmlns:xlink="http://www.w3.org/1999/xlink" x="0px" y="0px"
	 viewBox="0 0 1920 1080" style="enable-background:new 0 0 1920 1080;" xml:space="preserve">
<style type="text/css">
	.st0{fill:#332B2A;}
	.st1{fill:#CAF7C9;}
	.st2{fill:#262020;}
</style>
<g id="Figurer">
	<path class="st0" d="M648.3,557.7c-6.8,14.9-12.8,30.3-17.8,45.9c-5.3-31.6,4.6-68.5,5.1-70.3c-0.7,1.8-16.1,39.8-27.5,77.6
		c-9.8-32-17.1-77.7-17.1-77.7s1.8,34.2-4.8,67.3c-3.7-14.1-6.6-28.4-8.6-42.8c-1.8,20.3-6.8,40.3-14.7,59.1
		c-23.8-13.8-26.8-59.1-26.8-59.1s-2,4.2-5,11.4c-3.4,8.1-8.1,20.1-12.7,34.5c-5.3-31.6,4.6-68.5,5.1-70.3
		c-0.7,1.8-16.1,39.7-27.5,77.6c-9.8-32-17.1-77.7-17.1-77.7s1.8,34.2-4.8,67.3c-3.7-14.1-6.6-28.4-8.6-42.8
		c-1.8,20.3-6.8,40.3-14.8,59.1c-13.3-21.1-27-48.4-28.2-50.7c1.1,2.4,14.1,63.7-1,100.8c0,0,25.4-12.6,70-16.3
		s168.7,16.3,168.7,16.3C636.6,632.2,648.3,557.7,648.3,557.7z M539.1,647c0,0,0-0.1,0-0.2h0.1L539.1,647z"/>
	<path class="st1" d="M375.1,867H375v-0.1L375.1,867z"/>
	<path class="st1" d="M487.2,867L487.2,867L487.2,867L487.2,867z"/>
	<path class="st2" d="M1564.9,430.1c0,0,69.3-13,108.3-13c40.2,0,100.1,13,100.1,13c-13.2-32.4-1.8-86-0.9-88
		c-1,2-13,25.9-24.6,44.3c-6.9-16.4-11.3-33.8-12.9-51.6c-1.8,12.6-4.3,25.1-7.5,37.4c-5.7-28.9-4.2-58.8-4.2-58.8
		s-6.3,39.9-14.9,67.8c-9.9-33.1-23.3-66.2-24-67.7c0.4,1.6,9.1,33.8,4.5,61.4c-4.1-12.6-8.2-23-11.1-30.1c-2.7-6.4-4.4-10-4.4-10
		s-2.6,39.5-23.4,51.6c-6.9-16.4-11.3-33.8-12.9-51.6c-1.8,12.6-4.3,25.1-7.5,37.4c-5.7-28.9-4.2-58.8-4.2-58.8s-6.3,39.9-14.9,67.8
		c-9.9-33.1-23.3-66.2-24-67.7c0.4,1.6,9.1,33.8,4.5,61.4c-4.4-13.7-9.5-27-15.5-40.1C1575.3,334.8,1585.6,399.9,1564.9,430.1z
		 M1670.7,412.6L1670.7,412.6c0.1,0,0.1,0.1,0.1,0.1L1670.7,412.6z"/>
	<path class="st0" d="M1378.9,1065.8c0,0,124.2-20,168.7-16.3s70,16.3,70,16.3c-15.1-37.1-2.1-98.5-1-100.8
		c-1.2,2.3-14.9,29.6-28.2,50.7c-8-18.8-12.9-38.7-14.8-59.1c-2.1,14.4-4.9,28.7-8.6,42.8c-6.6-33.2-4.8-67.3-4.8-67.3
		s-7.2,45.7-17.1,77.7c-11.4-37.9-26.7-75.8-27.5-77.6c0.5,1.8,10.4,38.7,5.1,70.3c-4.7-14.4-9.4-26.4-12.7-34.5
		c-3-7.3-5-11.4-5-11.4s-3,45.3-26.8,59.1c-8-18.8-12.9-38.7-14.8-59.1c-2.1,14.4-4.9,28.7-8.6,42.8c-6.6-33.2-4.8-67.3-4.8-67.3
		s-7.2,45.7-17.1,77.7c-11.4-37.9-26.7-75.8-27.5-77.6c0.5,1.8,10.4,38.7,5.1,70.3c-5-15.6-10.9-31-17.8-45.9
		C1391,956.7,1402.7,1031.2,1378.9,1065.8z M1500.1,1045.8L1500.1,1045.8l0.1,0.2C1500.2,1045.9,1500.1,1045.9,1500.1,1045.8
		L1500.1,1045.8z"/>
	<g id="Græs">
		<path d="M1805.8,709c-5,10.8-9.3,22-12.9,33.3c-3.9-22.9,3.3-49.7,3.7-51c-0.5,1.3-11.7,28.8-19.9,56.3
			c-7.1-23.2-12.4-56.3-12.4-56.3s1.3,24.8-3.5,48.9c-2.7-10.2-4.8-20.6-6.3-31.1c-1.3,14.8-5,29.2-10.7,42.9
			c-17.3-10-19.4-42.9-19.4-42.9s-1.4,3-3.7,8.3c-2.4,5.9-5.8,14.6-9.2,25c-3.9-22.9,3.3-49.7,3.7-51c-0.5,1.3-11.7,28.8-19.9,56.3
			c-7.1-23.2-12.4-56.3-12.4-56.3s1.3,24.8-3.5,48.9c-2.7-10.2-4.8-20.6-6.3-31.1c-1.3,14.8-5,29.2-10.7,42.9
			c-9.6-15.3-19.6-35.1-20.4-36.8c0.8,1.7,10.3,46.2-0.7,73.2c0,0,49.8-10.8,83.2-10.8c32.4,0,90,10.8,90,10.8
			C1797.3,763,1805.8,709,1805.8,709z M1726.6,773.8v-0.1h0.1L1726.6,773.8z"/>
	</g>
	<path d="M1100.3,380.2c0,0,57.6-10.9,90-10.9c33.4,0,83.2,10.9,83.2,10.9c-11-27-1.5-71.5-0.7-73.2c-0.8,1.7-10.8,21.5-20.4,36.8
		c-5.8-13.6-9.4-28.1-10.7-42.8c-1.5,10.5-3.6,20.8-6.3,31.1c-4.8-24.1-3.4-48.9-3.4-48.9s-5.2,33.2-12.4,56.4
		c-8.2-27.5-19.4-55-19.9-56.3c0.4,1.3,7.6,28.1,3.7,51c-3.4-10.4-6.8-19.1-9.2-25c-2.2-5.3-3.7-8.3-3.7-8.3s-2.2,32.9-19.4,42.9
		c-5.8-13.6-9.4-28.1-10.7-42.8c-1.5,10.5-3.6,20.8-6.3,31.1c-4.8-24.1-3.5-48.9-3.5-48.9s-5.2,33.2-12.4,56.4
		c-8.2-27.5-19.4-55-19.9-56.3c0.4,1.3,7.6,28.1,3.7,51c-3.6-11.3-7.9-22.4-12.9-33.3C1109,301,1117.5,355.1,1100.3,380.2z
		 M1188.2,365.6L1188.2,365.6c0.1,0,0.1,0.1,0.1,0.1C1188.3,365.7,1188.2,365.7,1188.2,365.6L1188.2,365.6z"/>
	<path d="M1305.3,630.2c0,0,57.6-10.8,90-10.8c33.4,0,83.2,10.8,83.2,10.8c-11-27-1.5-71.5-0.7-73.2c-0.8,1.7-10.8,21.5-20.4,36.8
		c-5.8-13.6-9.4-28.1-10.7-42.8c-1.5,10.5-3.6,20.8-6.3,31.1c-4.8-24.1-3.4-48.9-3.4-48.9s-5.2,33.2-12.4,56.3
		c-8.2-27.5-19.4-55-19.9-56.3c0.4,1.3,7.6,28.1,3.7,51c-3.4-10.4-6.8-19.1-9.2-25c-2.2-5.3-3.7-8.3-3.7-8.3s-2.2,32.9-19.4,42.9
		c-5.8-13.6-9.4-28.1-10.7-42.8c-1.5,10.5-3.6,20.8-6.3,31.1c-4.8-24.1-3.5-48.9-3.5-48.9s-5.2,33.2-12.4,56.3
		c-8.2-27.5-19.4-55-19.9-56.3c0.4,1.3,7.6,28.1,3.7,51c-3.6-11.3-7.9-22.4-12.9-33.3C1314,551,1322.5,605.1,1305.3,630.2z
		 M1393.2,615.6L1393.2,615.6c0.1,0,0.1,0.1,0.1,0.1C1393.3,615.7,1393.2,615.7,1393.2,615.6L1393.2,615.6z"/>
	<path d="M735.3,504.9c0,0,57.6-10.9,90-10.9c33.4,0,83.2,10.8,83.2,10.8c-11-27-1.5-71.5-0.7-73.2c-0.8,1.7-10.8,21.5-20.5,36.8
		c-5.8-13.6-9.4-28.1-10.7-42.9c-1.5,10.5-3.6,20.8-6.3,31.1c-4.8-24-3.5-48.9-3.5-48.9s-5.3,33.2-12.4,56.4
		c-8.2-27.5-19.4-55-19.9-56.3c0.4,1.3,7.6,28.1,3.7,51c-3.4-10.5-6.8-19.1-9.2-25c-2.2-5.3-3.7-8.3-3.7-8.3s-2.2,32.9-19.4,42.9
		c-5.8-13.6-9.4-28.1-10.7-42.9c-1.5,10.5-3.6,20.9-6.3,31.1c-4.8-24-3.5-48.9-3.5-48.9s-5.3,33.2-12.4,56.4
		c-8.2-27.5-19.4-55-19.9-56.3c0.4,1.3,7.6,28.1,3.7,51c-3.6-11.3-7.9-22.5-12.9-33.3C744.1,425.6,752.5,479.7,735.3,504.9z
		 M823.2,490.3L823.2,490.3c0,0,0,0.1,0,0.1C823.2,490.4,823.2,490.3,823.2,490.3z"/>
	<path d="M1120.8,867.6c0-0.8,0-1.5,0-2.3c0-0.3,0-0.6,0-0.9l-0.8,1l-1.6,1.8C1119.2,867.3,1120,867.5,1120.8,867.6
		c0,0.4,0,0.8,0,1.2c-20.5,0-16.1,2.5-29.2,0.5l-2-0.3c0,0,0-0.1,0-0.1c0,0,0,0.1,0,0.1c-4.7,0-9.5,0.3-14.2,0.8
		c-4.1,0.5-5.6,1-10.3,0.6l0,0c-3.2,0.2-6.4,0-9.5-0.6c-0.3-0.9-0.7-1.7-1-2.6c-0.1-0.3-0.3-0.7-0.4-1c-0.1,0.4-0.3,0.8-0.4,1.2
		c-0.3,0.8-0.5,1.5-0.8,2.1l2.6,0.4c0.2,0.5,0.4,1,0.6,1.4c-20.4,0.5-15,2.8-28.8,1l-2.1-0.3V872c0,0,0,0,0,0.1
		c-7.2,0.2-11.1,0.5-13.8,0.8c-5.3,0.7-5.8,1-17.1-0.1c8.5-28.2-20.7-84.7-23.5-83.8c0.6,0.6,17.7,15.6,34.8,44.2
		c-6.8-36.2-29.6-73.8-32.1-75.8c2.6,2,33.6,37.2,52.2,81.4c-1.7-38.9-2.4-97-2.3-97c-0.3,0.1,5.7,42.1,17.5,82.5
		c1-26.5,1.4-54.2,1.3-54.2c-0.4,0.1,6.9,34.7,19.3,73.5c3.6-11.3,8.1-24,12.5-34.9c2.2-5.4,4.3-10.5,6.2-14.7
		c0.3,1.4,0.7,2.8,1,4.2c1.9,7.9,3.7,17.1,5.2,27.2c8-38.4,1.7-84.5,0.2-88.3c1.6,3.5,16.1,52.7,16.8,98.3
		c13.7-38.3,34.8-88.5,34.8-88.4c-0.3-0.2-10.6,39.5-14.6,78.5c11-23.2,21.6-46,21.5-46.1c-0.4-0.4-6.6,32.8-8.8,66.7
		c18-21.3,44.3-40,46.6-41c-3.6-0.4-29.5,29.3-33.1,62.6C1129.3,867.2,1133.1,869.4,1120.8,867.6z"/>
	<path d="M901.4,903.7c-5,10.8-9.3,22-12.9,33.3c-3.8-22.9,3.4-49.7,3.7-51c-0.5,1.3-11.7,28.8-19.9,56.3
		c-7.1-23.2-12.4-56.3-12.4-56.3s1.3,24.8-3.5,48.9c-2.7-10.2-4.8-20.6-6.3-31.1c-1.3,14.8-5,29.2-10.7,42.9
		c-17.3-10-19.4-42.9-19.4-42.9s-1.4,3-3.6,8.3c-2.5,5.9-5.8,14.6-9.2,25c-3.9-22.9,3.3-49.7,3.7-51c-0.5,1.3-11.7,28.8-19.9,56.3
		c-7.1-23.2-12.4-56.3-12.4-56.3s1.3,24.8-3.5,48.9c-2.7-10.2-4.8-20.6-6.3-31.1c-1.3,14.8-5,29.2-10.7,42.9
		c-9.6-15.3-19.6-35.1-20.5-36.8c0.8,1.7,10.3,46.2-0.7,73.2c0,0,49.8-10.8,83.2-10.8c32.4,0,90,10.8,90,10.8
		C892.9,957.7,901.4,903.7,901.4,903.7z M822.2,968.4c0,0,0-0.1,0-0.1h0C822.2,968.4,822.2,968.4,822.2,968.4L822.2,968.4z"/>
	<g id="Græs-2">
		<path d="M93.8,453.2c0,0,57.6-10.8,90-10.8c33.4,0,83.2,10.8,83.2,10.8c-11-26.9-1.5-71.5-0.7-73.2c-0.8,1.7-10.8,21.5-20.4,36.8
			c-5.8-13.6-9.4-28.1-10.7-42.8c-1.5,10.4-3.6,20.8-6.3,31c-4.8-24-3.4-48.9-3.4-48.9s-5.3,33.2-12.4,56.4
			c-8.2-27.5-19.4-55-19.9-56.3c0.4,1.3,7.6,28.1,3.7,51c-3.4-10.5-6.8-19.1-9.2-25c-2.2-5.3-3.6-8.3-3.6-8.3s-2.2,32.9-19.4,42.9
			c-5.8-13.6-9.4-28-10.7-42.8c-1.5,10.4-3.6,20.8-6.3,31c-4.8-24-3.5-48.8-3.5-48.8s-5.2,33.2-12.4,56.4
			c-8.2-27.5-19.4-55-19.9-56.3c0.4,1.3,7.6,28.1,3.7,51c-3.6-11.3-7.9-22.4-12.9-33.2C102.5,374,111,428,93.8,453.2z M181.7,438.6
			L181.7,438.6l0.1,0.1C181.8,438.7,181.7,438.7,181.7,438.6L181.7,438.6z"/>
	</g>
</g>
</svg>
