<?xml version="1.0" encoding="UTF-8"?><svg id="Layer_1" xmlns="http://www.w3.org/2000/svg" width="470" height="280" viewBox="0 0 470 280"><defs><style>.cls-1{fill:#fff;}.cls-2{fill:#ff72c2;}</style></defs><g id="Play_Knap"><rect x="29.52" y="21.68" width="436.21" height="254.32" rx="24.74" ry="24.74"/><rect class="cls-2" x="4.26" y="4" width="436.21" height="254.32" rx="24.74" ry="24.74"/><path class="cls-1" d="m194.37,121c-3.51,5.49-8.42,9.94-14.22,12.89-6.22,3.33-13.62,5.3-22.21,5.89l-4.78,26.76c-1.85,10.31-6.88,15.46-15.1,15.46-4.48.01-8.86-1.39-12.5-4-3.81-2.67-6.87-6.74-9.16-12.22-2.29-5.48-3.44-12.22-3.44-20.21,0-15.03,2.42-27.79,7.27-38.26,4.85-10.47,11.36-18.32,19.55-23.55,8.06-5.19,17.46-7.91,27.05-7.83,6.95,0,12.85,1.22,17.71,3.67,4.55,2.18,8.38,5.63,11,9.94,2.51,4.28,3.8,9.17,3.73,14.14.05,6.12-1.65,12.13-4.9,17.32Zm-11.66-16.32c.17-4.49-1.59-8.83-4.83-11.94-3.22-3.07-8.2-4.6-14.94-4.61-7.31-.11-14.4,2.45-19.94,7.22-5.66,4.81-10.03,11.5-13.1,20.05s-4.62,18.31-4.63,29.26c-.06,4.12.41,8.22,1.38,12.22.66,2.95,1.87,5.76,3.56,8.27,1.44,2,2.83,2.98,4.16,2.95,1.85,0,3.25-2.56,4.22-7.67l3.67-21c-2.89-.44-4.15-.63-3.78-.55-2.22-.37-3.66-1.05-4.33-2.06-.71-1.15-1.05-2.48-1-3.83-.07-1.43.43-2.83,1.39-3.89,1.02-1,2.41-1.52,3.83-1.44.56-.01,1.12.03,1.67.11,1.77.3,3.14.48,4.11.56.96-5.78,2.33-13.52,4.11-23.22.22-2.14,1.33-4.09,3.05-5.38,1.66-1.1,3.62-1.66,5.61-1.61,2.44,0,4.2.46,5.28,1.38,1.16,1.15,1.75,2.76,1.61,4.39.02.97-.06,1.94-.23,2.89l-3.66,21.55c15.19-1.92,22.79-9.8,22.79-23.65Z"/><path class="cls-1" d="m246.96,146.44c.61,1.12.89,2.39.83,3.66,0,3-.7,5.26-2.11,6.89-2.97,3.72-6.48,6.98-10.41,9.66-3.76,2.53-8.19,3.84-12.72,3.78-6.52,0-11.35-2.96-14.49-8.89-3.14-5.93-4.71-13.59-4.72-23,.15-10.38,1.32-20.72,3.49-30.87,2.34-11.55,5.78-21.48,10.33-29.77,4.55-8.29,9.97-12.44,16.27-12.44,3.56,0,6.36,1.65,8.39,4.94,2.03,3.29,3.03,8.02,3,14.17,0,8.81-2.44,19.03-7.33,30.65-5.24,12.26-11.91,23.85-19.88,34.54.52,3,1.37,5.2,2.56,6.5,1.19,1.3,2.9,2.01,4.66,1.94,2.88.05,5.7-.87,8-2.61,3.22-2.67,6.16-5.67,8.77-8.94.71-.95,1.82-1.52,3-1.55.98-.04,1.89.48,2.36,1.34Zm-21.69-60.75c-2.48,7.47-4.38,15.12-5.67,22.88-1.58,8.65-2.48,17.42-2.67,26.21,5.05-8.22,9.26-16.93,12.56-26,3.11-8.67,4.67-16.61,4.66-23.82,0-5.63-1.04-8.44-3.11-8.44-1.71-.03-3.64,3.02-5.77,9.17Z"/><path class="cls-1" d="m240.35,165.43c-2.74-3.33-4.11-7.7-4.11-13.1-.02-5.86,1.39-11.64,4.11-16.83,2.55-5.08,6.3-9.46,10.92-12.77,4.2-3.1,9.27-4.79,14.49-4.83,1.63,0,2.73.31,3.28.94.72,1.01,1.2,2.17,1.39,3.39,1.61-.31,3.25-.46,4.89-.45,3.62,0,5.44,1.3,5.44,3.89-.31,3.74-.87,7.45-1.67,11.11-1.7,8.51-2.55,14.43-2.55,17.77-.05.96.24,1.9.83,2.66.53.65,1.33,1.02,2.17,1,1.4,0,3.1-.9,5.1-2.72,2.89-2.77,5.6-5.72,8.11-8.83.71-.95,1.82-1.52,3-1.55.95-.01,1.82.5,2.28,1.33.61,1.12.89,2.39.83,3.66,0,3-.7,5.26-2.11,6.89-2.82,3.56-6.07,6.77-9.66,9.55-3.41,2.59-6.7,3.89-9.89,3.89-2.47,0-4.85-.89-6.72-2.5-2.13-1.81-3.73-4.17-4.61-6.83-3.85,6.22-8.7,9.33-14.54,9.33-4.24.15-8.31-1.7-10.98-5Zm19.66-9.11c1.63-2.28,2.73-4.9,3.22-7.66l4.11-20.44c-3.19.11-6.24,1.35-8.61,3.5-2.76,2.45-4.91,5.51-6.27,8.94-1.56,3.73-2.36,7.74-2.34,11.78-.14,1.81.35,3.62,1.39,5.11.95,1.12,2.36,1.73,3.83,1.66,1.63,0,3.19-.96,4.67-2.89h0Z"/><path class="cls-1" d="m332.26,118.78c.7.51,1.08,1.36,1,2.22,0,1.78-.96,8.11-2.89,19-1.7,10.44-2.7,16.62-3,18.55-2.74,19.02-6.52,34.09-11.33,45.2-4.81,11.11-11.22,16.67-19.21,16.66-3.42.14-6.75-1.13-9.22-3.5-2.41-2.43-3.69-5.75-3.55-9.16.04-3.68.85-7.31,2.39-10.66,1.59-3.63,4.55-7.79,8.88-12.5,5.67-5.89,11.82-11.29,18.38-16.16l.34-2.55c.51-2.74,1.11-6.67,1.77-11.78-1.48,5.33-3.55,9.39-6.22,12.16-2.67,2.77-5.48,4.16-8.44,4.17-3.33,0-6.05-1.54-8.16-4.61-2.21-3.42-3.32-7.43-3.17-11.5-.14-10.2,1.47-20.35,4.78-30,.51-1.88,1.6-3.55,3.11-4.78,1.33-.96,3.44-1.44,6.33-1.44,1.18-.11,2.37.16,3.39.77.66.59,1.01,1.46.94,2.34-.27,2.02-.68,4.03-1.22,6-.74,2.74-1.33,5.22-1.78,7.45-.59,3-1.11,5.94-1.55,8.71-.4,2.26-.62,4.55-.67,6.84,0,2.81.78,4.22,2.33,4.22,1.11,0,2.5-1.11,4.17-3.34,2.16-3.15,3.95-6.54,5.33-10.1,2.19-5.43,4.03-10.99,5.5-16.66.5-3.95,4.1-6.74,8.04-6.24.06,0,.12.02.18.02,1.22-.1,2.45.13,3.55.67Zm-28,84.41c2.3-4.29,4.6-11.44,6.89-21.43-5.7,4.81-9.83,9.2-12.39,13.16-2.56,3.96-3.84,7.42-3.83,10.38-.05,1.08.2,2.16.72,3.11.5.83,1.42,1.3,2.39,1.23,1.89,0,3.98-2.15,6.27-6.45h-.05Z"/><path class="cls-1" d="m29.52,75.75c-4.65,0-8.42-3.77-8.42-8.42,0,0,0,0,0-.01,0-39.78,25.18-40.8,35.93-41.24,1.09,0,2.12-.09,2.95-.16,4.64-.39,8.71,3.06,9.1,7.69.39,4.64-3.06,8.71-7.69,9.1-1.18.1-2.39.15-3.67.2-10.61.43-19.77.8-19.77,24.41,0,4.65-3.76,8.42-8.41,8.43,0,0,0,0-.01,0Z"/><path class="cls-1" d="m30.38,201.05c-4.65,0-8.42-3.76-8.43-8.41,0,0,0,0,0-.01v-90.1c.16-4.65,4.06-8.3,8.72-8.13,4.43.15,7.98,3.71,8.13,8.13v90.1c0,4.65-3.77,8.42-8.42,8.42Z"/></g></svg>