<?xml version="1.0" encoding="UTF-8"?><svg id="Layer_1" xmlns="http://www.w3.org/2000/svg" width="640" height="280" viewBox="0 0 640 280"><defs><style>.cls-1{fill:#fff;}.cls-2{fill:#ff72c2;}.cls-3{fill:none;stroke:#fff;stroke-linecap:round;stroke-miterlimit:10;stroke-width:18.12px;}.cls-4{isolation:isolate;}</style></defs><rect x="25" y="28.41" width="613" height="247.77" rx="28.94" ry="28.94"/><rect class="cls-2" x="2" y="3.82" width="607" height="247.77" rx="28.8" ry="28.8"/><path class="cls-3" d="m72,40.71c-12,.82-37-2.13-37,32.16"/><line class="cls-3" x1="36" y1="107.17" x2="36" y2="194.95"/><g class="cls-4"><path class="cls-1" d="m107.48,170.4c-5.93-3.74-8.9-9.47-8.9-17.19,0-4.08.7-7.19,2.11-9.34,1.41-2.15,3.49-3.23,6.23-3.23,2,0,3.63.52,4.89,1.56,1.26,1.04,1.89,2.37,1.89,4,0,1.48-.11,2.78-.33,3.89,0,.3-.06.82-.17,1.56-.11.74-.17,1.52-.17,2.34,0,3.34,1.69,5.82,5.06,7.45,3.37,1.63,8.1,2.45,14.18,2.45s11.24-1.13,14.79-3.39c3.56-2.26,5.34-5.43,5.34-9.51,0-2.52-.82-4.69-2.45-6.51-1.63-1.82-3.67-3.34-6.12-4.56-2.45-1.22-5.9-2.73-10.35-4.51-5.71-2.22-10.36-4.34-13.96-6.34-3.6-2-6.67-4.73-9.23-8.18s-3.84-7.73-3.84-12.85,1.43-10.08,4.28-14.24c2.85-4.15,6.97-7.38,12.35-9.68,5.38-2.3,11.7-3.45,18.97-3.45,5.41,0,10.38.8,14.91,2.39,4.52,1.6,8.14,4.02,10.85,7.29,2.71,3.26,4.06,7.27,4.06,12.01s-.71,8.2-2.11,10.57c-1.41,2.38-3.49,3.56-6.23,3.56-1.93,0-3.54-.59-4.84-1.78-1.3-1.19-1.95-2.59-1.95-4.23,0-1.41.11-2.71.33-3.89.22-2.23.33-3.63.33-4.23,0-3.11-1.52-5.49-4.56-7.12-3.04-1.63-6.82-2.45-11.35-2.45-6.38,0-11.25,1.17-14.63,3.5-3.38,2.34-5.06,5.62-5.06,9.84,0,2.82.87,5.23,2.61,7.23,1.74,2,3.91,3.67,6.51,5.01,2.6,1.33,6.23,2.93,10.9,4.78,5.63,2.3,10.16,4.38,13.57,6.23,3.41,1.85,6.32,4.38,8.73,7.56,2.41,3.19,3.62,7.12,3.62,11.79,0,8.75-3.32,15.48-9.96,20.19-6.64,4.71-15.52,7.06-26.64,7.06-9.86,0-17.76-1.87-23.69-5.62Z"/><path class="cls-1" d="m238.91,151.66c.56.89.83,2.11.83,3.67,0,2.97-.71,5.27-2.11,6.9-3.19,3.93-6.62,7.16-10.29,9.68-3.67,2.52-7.84,3.78-12.51,3.78-3.93,0-7.12-1.41-9.57-4.23-4.23,2.74-8.64,4.15-13.24,4.23-.96,14.31-3.15,26.27-6.56,35.87-3.41,9.6-8.42,14.41-15.02,14.41-4,0-6.97-1.45-8.9-4.34-1.93-2.89-2.89-6.9-2.89-12.01,0-7.27,1.67-15.74,5.01-25.42,3.34-9.68,8.49-20.34,15.46-31.98,0-10.83-.07-18.35-.22-22.58-.07-2.15.78-3.86,2.56-5.12,1.78-1.26,4-1.89,6.67-1.89,1.56,0,2.69.32,3.39.95.7.63,1.09,1.87,1.17,3.73,0,1.85.04,3.23.11,4.12,2.37-2.96,4.71-5.1,7.01-6.4,2.3-1.3,4.75-1.95,7.34-1.95,4.15,0,7.54,1.67,10.18,5.01,2.63,3.34,3.95,7.71,3.95,13.13,0,3.93-.63,7.75-1.89,11.46-1.26,3.71-3,7.08-5.23,10.12,1.56.45,2.85.67,3.89.67,2.45,0,4.78-.89,7.01-2.67,2.22-1.78,5.08-4.75,8.57-8.9.89-1.04,1.89-1.56,3-1.56.96,0,1.72.45,2.28,1.33Zm-62.57,50.34c1.33-8.71,2.19-19.56,2.56-32.54-3.19,7.41-5.71,14.5-7.56,21.25-1.85,6.75-2.78,12.42-2.78,17.02,0,2.37.28,4.19.83,5.45.56,1.26,1.21,1.89,1.95,1.89,2,0,3.67-4.36,5.01-13.07Zm23.64-41.38c2.26-2.34,4.06-5.23,5.4-8.68s2-7.06,2-10.85c0-2.23-.44-3.91-1.33-5.06-.89-1.15-2.08-1.72-3.56-1.72-2.67,0-5.9,2.82-9.68,8.45-.07,3.26-.11,8.05-.11,14.35,0,3.41-.04,6.04-.11,7.9,2.67-.59,5.13-2.06,7.4-4.39Z"/><path class="cls-1" d="m233.9,170.57c-2.19-3.41-3.28-7.93-3.28-13.57,0-3.34.43-7.62,1.28-12.85.85-5.23,1.95-10.1,3.28-14.63.67-2.37,1.56-4,2.67-4.89s2.89-1.33,5.34-1.33c3.78,0,5.67,1.26,5.67,3.78,0,1.85-.71,6.16-2.11,12.9-1.78,8.16-2.67,13.68-2.67,16.57,0,2.22.3,3.93.89,5.12.59,1.19,1.59,1.78,3,1.78,1.33,0,3-.93,5.01-2.78,2-1.85,4.67-4.78,8.01-8.79.89-1.04,1.89-1.56,3-1.56.96,0,1.72.45,2.28,1.33s.83,2.11.83,3.67c0,2.97-.71,5.27-2.11,6.9-7.34,8.97-14.2,13.46-20.58,13.46-4.82,0-8.33-1.71-10.51-5.12Zm4.39-56.79c-1.56-1.45-2.34-3.47-2.34-6.06s1.02-4.76,3.06-6.51c2.04-1.74,4.58-2.61,7.62-2.61,2.74,0,4.97.67,6.67,2,1.71,1.33,2.56,3.23,2.56,5.67,0,2.97-.96,5.32-2.89,7.06-1.93,1.74-4.49,2.61-7.68,2.61s-5.45-.72-7.01-2.17Z"/><path class="cls-1" d="m302.54,151.66c.56.89.83,2.11.83,3.67,0,2.97-.71,5.27-2.11,6.9-3.19,3.93-6.66,7.16-10.4,9.68-3.75,2.52-7.99,3.78-12.74,3.78-6.53,0-11.37-2.97-14.52-8.9-3.15-5.93-4.73-13.61-4.73-23.03s1.17-19.35,3.5-30.92c2.34-11.57,5.78-21.51,10.35-29.81,4.56-8.3,9.99-12.46,16.3-12.46,3.56,0,6.36,1.65,8.4,4.95,2.04,3.3,3.06,8.03,3.06,14.18,0,8.83-2.45,19.06-7.34,30.7-4.89,11.64-11.53,23.18-19.91,34.6.52,3.04,1.37,5.21,2.56,6.51,1.19,1.3,2.74,1.95,4.67,1.95,3.04,0,5.71-.87,8.01-2.61,2.3-1.74,5.23-4.73,8.79-8.96.89-1.04,1.89-1.56,3-1.56.96,0,1.72.45,2.28,1.33Zm-21.75-60.85c-2.15,6.16-4.04,13.79-5.67,22.92-1.63,9.12-2.52,17.87-2.67,26.25,5.26-8.68,9.46-17.37,12.57-26.09,3.11-8.71,4.67-16.67,4.67-23.86,0-5.63-1.04-8.45-3.11-8.45-1.71,0-3.63,3.08-5.78,9.23Z"/><path class="cls-1" d="m327.01,170.57c-2.19-3.41-3.28-7.93-3.28-13.57,0-3.34.43-7.62,1.28-12.85.85-5.23,1.95-10.1,3.28-14.63.67-2.37,1.56-4,2.67-4.89s2.89-1.33,5.34-1.33c3.78,0,5.67,1.26,5.67,3.78,0,1.85-.71,6.16-2.11,12.9-1.78,8.16-2.67,13.68-2.67,16.57,0,2.22.29,3.93.89,5.12.59,1.19,1.59,1.78,3,1.78,1.33,0,3-.93,5.01-2.78,2-1.85,4.67-4.78,8.01-8.79.89-1.04,1.89-1.56,3-1.56.96,0,1.72.45,2.28,1.33.56.89.83,2.11.83,3.67,0,2.97-.71,5.27-2.11,6.9-7.34,8.97-14.2,13.46-20.58,13.46-4.82,0-8.33-1.71-10.51-5.12Zm4.39-56.79c-1.56-1.45-2.34-3.47-2.34-6.06s1.02-4.76,3.06-6.51c2.04-1.74,4.58-2.61,7.62-2.61,2.74,0,4.97.67,6.67,2,1.71,1.33,2.56,3.23,2.56,5.67,0,2.97-.96,5.32-2.89,7.06-1.93,1.74-4.49,2.61-7.67,2.61s-5.45-.72-7.01-2.17Z"/><path class="cls-1" d="m410.44,151.94c.56.93.83,2.1.83,3.5,0,1.71-.26,3.04-.78,4-.52.96-1.33,1.82-2.45,2.56-6.38,4.3-11.05,7.49-14.02,9.57l-7.12,4.78c-2.82,15.35-6.51,27.42-11.07,36.21s-10.36,13.18-17.41,13.18c-3.78,0-6.86-1.17-9.23-3.5-2.38-2.34-3.56-5.4-3.56-9.18,0-5.27,2.08-10.92,6.23-16.96,4.15-6.04,11.94-13.48,23.36-22.3l.67-4.34c-1.26,2-2.91,3.54-4.95,4.62-2.04,1.07-4.06,1.61-6.06,1.61-4.6,0-8.27-1.67-11.01-5.01-2.75-3.34-4.12-7.71-4.12-13.13,0-5.93,1.37-11.55,4.12-16.85,2.74-5.3,6.4-9.57,10.96-12.79,4.56-3.23,9.4-4.84,14.52-4.84,1.63,0,2.73.32,3.28.95.56.63,1.02,1.76,1.39,3.39,1.41-.3,3.04-.45,4.89-.45s3.17.28,3.95.83c.78.56,1.17,1.65,1.17,3.28,0,.89-.04,1.6-.11,2.11-.3,2.3-1.22,8.12-2.78,17.46-.3,1.78-.61,3.73-.95,5.84-.33,2.11-.69,4.36-1.06,6.73,5.71-4.45,11.2-8.38,16.46-11.79.96-.59,1.82-.89,2.56-.89.96,0,1.72.46,2.28,1.39Zm-44.5,56.34c2.34-4.45,4.58-11.53,6.73-21.25-5.71,4.89-9.83,9.31-12.35,13.24-2.52,3.93-3.78,7.38-3.78,10.34,0,1.26.24,2.3.72,3.12.48.81,1.28,1.22,2.39,1.22,1.85,0,3.95-2.22,6.29-6.67Zm7.84-46.94c1.56-2.08,2.67-5.04,3.34-8.9l3.56-19.02c-3.04.07-5.86,1.24-8.45,3.5-2.6,2.26-4.67,5.25-6.23,8.95-1.56,3.71-2.34,7.64-2.34,11.79,0,2.3.46,4,1.39,5.12.93,1.11,2.21,1.67,3.84,1.67s3.34-1.04,4.89-3.12Z"/><path class="cls-1" d="m456.38,151.66c.56.89.83,2.11.83,3.67,0,2.97-.71,5.27-2.11,6.9-2.74,3.34-6.62,6.42-11.62,9.23-5.01,2.82-10.36,4.23-16.07,4.23-7.79,0-13.83-2.11-18.13-6.34-4.3-4.23-6.45-10.01-6.45-17.35,0-5.12,1.07-9.88,3.23-14.29,2.15-4.41,5.13-7.92,8.96-10.51,3.82-2.59,8.14-3.89,12.96-3.89,4.3,0,7.75,1.28,10.35,3.84,2.59,2.56,3.89,6.03,3.89,10.4,0,5.12-1.84,9.51-5.51,13.18s-9.88,6.58-18.63,8.73c1.85,3.41,5.38,5.12,10.57,5.12,3.34,0,7.14-1.17,11.4-3.5,4.26-2.34,7.95-5.39,11.07-9.18.89-1.04,1.89-1.56,3-1.56.96,0,1.72.45,2.28,1.33Zm-37.26-12.68c-1.89,3.19-2.84,7.05-2.84,11.57v.22c4.38-1.04,7.82-2.6,10.34-4.67,2.52-2.08,3.78-4.49,3.78-7.23,0-1.41-.39-2.54-1.17-3.39-.78-.85-1.83-1.28-3.17-1.28-2.74,0-5.06,1.6-6.95,4.78Z"/><path class="cls-1" d="m450.15,171.24c-1.15-2.96-1.72-7.71-1.72-14.24,0-9.64,1.37-18.8,4.12-27.48.67-2.15,1.76-3.73,3.28-4.73,1.52-1,3.65-1.5,6.4-1.5,1.48,0,2.52.19,3.12.56.59.37.89,1.08.89,2.11,0,1.19-.56,3.86-1.67,8.01-.74,2.97-1.33,5.56-1.78,7.79-.45,2.22-.82,4.97-1.11,8.23,2.45-6.38,5.19-11.57,8.23-15.57,3.04-4,6.02-6.86,8.96-8.57,2.93-1.71,5.62-2.56,8.06-2.56,4.82,0,7.23,2.41,7.23,7.23,0,2.89-.82,8.12-2.45,15.68-1.41,6.45-2.11,10.72-2.11,12.79,0,2.97,1.07,4.45,3.23,4.45,1.48,0,3.24-.91,5.28-2.72,2.04-1.82,4.76-4.76,8.18-8.84.89-1.04,1.89-1.56,3-1.56.96,0,1.72.45,2.28,1.33s.83,2.11.83,3.67c0,2.97-.71,5.27-2.11,6.9-3.19,3.93-6.62,7.16-10.29,9.68-3.67,2.52-7.84,3.78-12.51,3.78-3.78,0-6.64-1.09-8.57-3.28-1.93-2.19-2.89-5.36-2.89-9.51,0-2.08.52-5.78,1.56-11.12.96-4.67,1.45-7.9,1.45-9.68,0-1.19-.41-1.78-1.22-1.78-.96,0-2.32,1.24-4.06,3.73-1.74,2.49-3.52,5.77-5.34,9.84-1.82,4.08-3.28,8.38-4.39,12.9-.82,3.49-1.76,5.84-2.84,7.06-1.08,1.22-2.76,1.84-5.06,1.84-2.82,0-4.8-1.48-5.95-4.45Z"/><path class="cls-1" d="m521,173.02c-1.67-1.78-2.5-4.12-2.5-7.01,0-3.34.95-6.01,2.84-8.01,1.89-2,4.54-3,7.95-3s5.73.8,7.4,2.39c1.67,1.6,2.5,3.95,2.5,7.06,0,3.41-.96,6.14-2.89,8.18-1.93,2.04-4.56,3.06-7.9,3.06s-5.73-.89-7.4-2.67Zm8.4-25.08c-.82-.78-1.19-2.06-1.11-3.84.29-4.67,1.41-8.82,3.34-12.46,1.93-3.63,5.15-7.71,9.68-12.24,4.23-4.15,7.27-7.68,9.12-10.57,1.85-2.89,2.78-5.9,2.78-9.01,0-5.12-2.86-7.68-8.57-7.68-3.41,0-6.01.76-7.79,2.28-1.78,1.52-2.67,3.43-2.67,5.73l.11,4.56c0,1.26-.46,2.36-1.39,3.28s-2.39,1.39-4.39,1.39c-2.3,0-4.06-.68-5.28-2.06-1.22-1.37-1.84-3.32-1.84-5.84,0-3.71.91-7.1,2.73-10.18,1.82-3.08,4.58-5.54,8.29-7.4,3.71-1.85,8.27-2.78,13.68-2.78,7.34,0,13.03,1.58,17.08,4.73,4.04,3.15,6.06,7.7,6.06,13.63,0,4.67-1.19,8.9-3.56,12.68-2.37,3.78-5.93,7.71-10.68,11.79-4,3.41-7.05,6.19-9.12,8.34-2.08,2.15-3.58,4.02-4.5,5.62-.93,1.6-1.69,3.43-2.28,5.51-.52,1.93-1.35,3.36-2.5,4.28-1.15.93-2.47,1.39-3.95,1.39-1.33,0-2.41-.39-3.23-1.17Z"/></g></svg>