<?xml version="1.0" encoding="UTF-8"?>
<svg xmlns="http://www.w3.org/2000/svg" xmlns:xlink="http://www.w3.org/1999/xlink" viewBox="0 0 1920 1080">
  <defs>
    <style>
      .cls-1 {
        fill: #9b6a3d;
      }

      .cls-1, .cls-2, .cls-3, .cls-4, .cls-5, .cls-6, .cls-7, .cls-8, .cls-9, .cls-10, .cls-11, .cls-12, .cls-13, .cls-14, .cls-15, .cls-16, .cls-17, .cls-18, .cls-19, .cls-20, .cls-21 {
        stroke-width: 0px;
      }

      .cls-2 {
        fill: url(#linear-gradient);
      }

      .cls-3 {
        fill: #8ba3a1;
      }

      .cls-4 {
        opacity: .85;
      }

      .cls-4, .cls-10 {
        fill: #fff;
      }

      .cls-5 {
        fill: #ed1c24;
      }

      .cls-6 {
        fill: #8faaa9;
      }

      .cls-7 {
        fill: #86a5a5;
      }

      .cls-8 {
        fill: #c7c8ca;
        opacity: .9;
      }

      .cls-9 {
        fill: #efeff0;
      }

      .cls-11 {
        fill: #93adab;
      }

      .cls-12 {
        fill: #f4bf16;
      }

      .cls-13 {
        fill: #47a052;
      }

      .cls-14 {
        fill: #ebebec;
      }

      .cls-15 {
        fill: #3e8945;
      }

      .cls-16 {
        fill: #5da03f;
      }

      .cls-17 {
        fill: #e2711b;
      }

      .cls-18 {
        fill: #3faf6e;
      }

      .cls-19 {
        fill: #90a5a3;
      }

      .cls-20 {
        fill: #f47a16;
      }

      .cls-21 {
        fill: #809b9a;
      }
    </style>
    <linearGradient id="linear-gradient" x1="634.81" y1="230.81" x2="1184.23" y2="230.81" gradientTransform="translate(729.19 1190.81) rotate(-90)" gradientUnits="userSpaceOnUse">
      <stop offset=".33" stop-color="#dfffff"/>
      <stop offset=".46" stop-color="#c2e9f0"/>
      <stop offset=".74" stop-color="#7bb4ca"/>
      <stop offset="1" stop-color="#357fa5"/>
    </linearGradient>
  </defs>
  <g id="Layer_4" data-name="Layer 4">
    <polygon class="cls-18" points="0 1078.63 1 538 1920 538 1920 1087 0 1078.63"/>
    <polygon class="cls-2" points="0 556 41.14 556 1920 556 1920 0 0 0 0 556"/>
    <rect class="cls-10" x="524" y="38" width="215" height="52" rx="26" ry="26"/>
    <rect class="cls-10" x="655" y="106" width="168" height="39" rx="19.5" ry="19.5"/>
    <rect class="cls-10" x="960" y="87" width="195" height="39" rx="19.5" ry="19.5"/>
    <g>
      <ellipse class="cls-5" cx="230.62" cy="92.22" rx="36.1" ry="69.18" transform="translate(-16.69 115.19) rotate(-27.1)"/>
      <ellipse class="cls-5" cx="274.82" cy="93.66" rx="69.4" ry="35.99" transform="translate(53.18 281.2) rotate(-59.06)"/>
    </g>
  </g>
  <g id="Layer_2" data-name="Layer 2">
    <polygon class="cls-8" points="1181.66 318.3 1044.1 179.03 889.88 338.56 950.26 409.86 1091.1 373.03 1181.66 318.3"/>
    <polygon class="cls-8" points="1425.56 352.82 1248.97 167 1051 379.86 1128.51 475 1309.31 425.85 1425.56 352.82"/>
    <polygon class="cls-8" points="496.17 260.72 552.99 169 647.81 274.5 590.5 352.45 496.17 260.72"/>
    <g>
      <polygon class="cls-7" points="0 418.39 152 351 164 313 367 165 950 588 0 601.83 0 418.39"/>
      <polygon class="cls-6" points="579.5 319.18 830 148 925 253 1017 324 1008 344 1321 587 950 588 579.5 319.18"/>
      <polygon class="cls-10" points="283.31 226.02 245.65 253.47 291 246 291 288.84 324 238 343 274 354 234 394 274 394 220.05 432 237 432 212.16 367 165 283.31 226.02"/>
      <polygon class="cls-10" points="741.57 208.43 713 238 757.79 223.21 785 248 805.94 208.43 828.87 228.21 837 203 872 220 866.91 188.8 830 148 741.57 208.43"/>
      <polygon class="cls-11" points="1050.5 377 1179 311 1266.83 311 1528 123 1685 289 1716 283 1825.18 383.42 1880 375 1920 408.08 1920 583.49 1321 587 1050.5 377"/>
      <polygon class="cls-10" points="1423.81 198 1404 240 1450.27 219 1465 275 1501.87 226.92 1541 264 1567 213 1609.64 248 1604.31 203.68 1528 123 1423.81 198"/>
    </g>
    <polygon class="cls-21" points="363 169 152 297 129.09 331.24 0 385.42 0 420.39 152 353 164 315 363 169"/>
    <polygon class="cls-4" points="367 167 242.7 241.98 261 239 245.65 255.47 367 167"/>
    <polygon class="cls-19" points="1528 125 1255 290 1168 299 1035.62 367.44 1050.5 379 1179 313 1266.83 313 1528 125"/>
    <polygon class="cls-4" points="1528 125 1526.68 125.8 1404 199.95 1383 219 1423.81 200 1528 125"/>
    <polygon class="cls-3" points="830 150 561.47 308.1 579.5 321.18 830 150"/>
    <polygon class="cls-4" points="830 150 713 218.88 741.57 210.43 830 150"/>
    <polygon class="cls-14" points="533.78 200 525.67 213.1 541 204 543 220 553 205 563.11 220 561.47 202.27 575 215 578.67 197.58 552.99 169 533.78 200"/>
    <polygon class="cls-9" points="1249 168 1207.29 211.14 1228.15 202.96 1224 232 1243 209 1256.47 232 1264 208 1285.36 232 1284.22 203.66 1249 168"/>
    <polygon class="cls-9" points="1044.9 180.33 1000.05 223.47 1022.48 215.29 1018.02 244.33 1038.45 221.33 1052.93 244.33 1061.03 220.33 1084 244.33 1082.77 215.99 1044.9 180.33"/>
  </g>
  <g id="Layer_3" data-name="Layer 3">
    <path class="cls-1" d="m954.99,930.88c1.93,0,1.93-3,0-3s-1.93,3,0,3h0Z"/>
    <path class="cls-1" d="m945.82,981.33c1.93,0,1.93-3,0-3s-1.93,3,0,3h0Z"/>
    <g>
      <rect class="cls-15" x="117" y="982" width="4" height="48" rx="2" ry="2"/>
      <rect class="cls-15" x="124.59" y="995.29" width="4.41" height="34.71" rx="2" ry="2"/>
    </g>
    <g>
      <rect class="cls-15" x="751.01" y="781.85" width="4" height="48" rx="2" ry="2"/>
      <rect class="cls-15" x="758.61" y="795.13" width="4.41" height="34.71" rx="2" ry="2"/>
    </g>
    <g>
      <rect class="cls-15" x="801.01" y="957.85" width="4" height="48" rx="2" ry="2"/>
      <rect class="cls-15" x="808.61" y="971.13" width="4.41" height="34.71" rx="2" ry="2"/>
    </g>
    <g>
      <rect class="cls-15" x="1124.01" y="840.85" width="4" height="48" rx="2" ry="2"/>
      <rect class="cls-15" x="1131.61" y="854.13" width="4.41" height="34.71" rx="2" ry="2"/>
    </g>
    <g>
      <rect class="cls-15" x="1623.24" y="805.85" width="4" height="48" rx="2" ry="2"/>
      <rect class="cls-15" x="1630.84" y="819.13" width="4.41" height="34.71" rx="2" ry="2"/>
    </g>
    <g>
      <rect class="cls-15" x="276.43" y="691.99" width="4.35" height="38.01" rx="2" ry="2"/>
      <rect class="cls-15" x="284.69" y="702.51" width="4.79" height="27.49" rx="2" ry="2"/>
    </g>
    <g>
      <rect class="cls-15" x="405.63" y="727.94" width="4" height="48" rx="2" ry="2"/>
      <rect class="cls-15" x="413.22" y="741.23" width="4.41" height="34.71" rx="2" ry="2"/>
    </g>
    <g>
      <rect class="cls-15" x="29.17" y="649.53" width="2.61" height="32.47" rx="1.3" ry="1.3"/>
      <rect class="cls-15" x="34.13" y="658.52" width="2.87" height="23.48" rx="1.44" ry="1.44"/>
    </g>
    <g>
      <path class="cls-1" d="m226.03,893h48.04l-6.58-161.51s34.29-6.72,45.42-28.46c.87-1.7,1.6-3.49,2.16-5.38,0,0,56.58,2.6,55.29-24.73l-11.57-6.51s-12.86,32.54-30.86,18.22l-2.57-32.54h-11.57s-2.57,72.88-42.43,59.87v-85.9h-45v70.28s-30.86,7.81-45-39.04l-10.29,2.6s12.86,54.66,56.58,53.36l-1.6,179.73Z"/>
      <ellipse class="cls-16" cx="122.84" cy="568.91" rx="120.22" ry="126.83"/>
      <ellipse class="cls-13" cx="336.92" cy="453.79" rx="110.58" ry="101.52"/>
      <ellipse class="cls-16" cx="392.86" cy="546.19" rx="131.14" ry="132.74"/>
      <ellipse class="cls-15" cx="189.06" cy="492.68" rx="156.86" ry="154.22"/>
    </g>
    <g>
      <path class="cls-12" d="m1395.13,107.77h-35.14v-1.15h2.23c1.01-.14,1.99-.28,2.95-.4.96-.12,1.71-.48,2.27-1.08.55-.6.9-1.67,1.04-3.2l.14-3.31v-34.13l-.14-3.31c-.14-1.54-.5-2.62-1.08-3.24-.58-.62-1.38-1.01-2.41-1.15s-1.97-.23-2.81-.25c-.84-.02-1.6-.06-2.27-.11v-1.15l33.62-.07c7.82,0,13.02.86,15.59,2.59,2.57,1.73,4.36,3.59,5.36,5.58,1.01,1.99,1.51,4.14,1.51,6.44,0,2.16-.34,4.22-1.01,6.19-.67,1.97-1.7,3.59-3.1,4.86-1.39,1.27-3.12,2.22-5.18,2.84-2.06.62-4.73.94-7.99.94s-5.64.01-7.56.04c-1.92.02-3.53.06-4.82.11v13.82l.14,3.31c.14,1.54.49,2.6,1.04,3.2.55.6,1.36.97,2.41,1.12,1.06.14,2.09.23,3.1.25,1.01.02,1.7.06,2.09.11v1.15Zm2.88-38.09c0-2.74-.36-5.4-1.08-7.99-.72-2.59-1.81-4.09-3.28-4.5-1.46-.41-2.88-.62-4.25-.65-1.37-.02-2.39-.04-3.06-.04v26.93c.96-.05,1.94-.1,2.95-.14,1.01-.05,2.34-.23,4-.54,1.66-.31,2.86-1.75,3.6-4.32.74-2.57,1.12-5.48,1.12-8.75Z"/>
      <path class="cls-12" d="m1456.69,90.71c0,5.09-1.93,9.32-5.8,12.71-3.86,3.38-8.41,5.08-13.64,5.08-5.52,0-10.14-1.69-13.86-5.08-3.72-3.38-5.58-7.62-5.58-12.71s1.88-9.32,5.65-12.71c3.77-3.38,8.36-5.08,13.79-5.08s9.9,1.68,13.72,5.04c3.82,3.36,5.72,7.61,5.72,12.74Zm-14.33-.07c0-.67-.05-2.02-.14-4.03-.1-2.02-.14-3.22-.14-3.6,0-2.59-.4-4.73-1.19-6.41-.79-1.68-2.03-2.52-3.71-2.52-1.54,0-2.71.88-3.53,2.63-.82,1.75-1.22,3.85-1.22,6.3,0,.91-.04,2.03-.11,3.35-.07,1.32-.13,2.75-.18,4.28,0,.67.05,2.05.14,4.14.1,2.09.14,3.3.14,3.64,0,2.59.4,4.73,1.19,6.41.79,1.68,2,2.52,3.64,2.52s2.78-.86,3.6-2.59c.82-1.73,1.22-3.84,1.22-6.34,0-.96.02-2.1.07-3.42.05-1.32.12-2.77.22-4.36Z"/>
      <path class="cls-12" d="m1481.75,107.77h-23.4v-1.15l1.73-.07c1.39-.14,2.23-.48,2.52-1.01.29-.53.43-1.68.43-3.46l.07-3.31v-17.21l-.07-2.95c-.1-1.15-.24-2.02-.43-2.59-.19-.58-1.06-.94-2.59-1.08l-1.94-.14v-1.15h18.94v25.13l.07,3.31c0,1.73.14,2.87.43,3.42.29.55,1.13.9,2.52,1.04l1.73.07v1.15Zm-18.86-46.15c0-1.87.69-3.47,2.06-4.79,1.38-1.32,3.03-1.98,4.96-1.98s3.65.64,5.03,1.91c1.37,1.27,2.06,2.89,2.06,4.86s-.69,3.54-2.06,4.86c-1.38,1.32-3.05,1.98-5.03,1.98s-3.58-.66-4.96-1.98c-1.37-1.32-2.06-2.94-2.06-4.86Z"/>
      <path class="cls-12" d="m1510.76,84.08l-.07-2.95c0-3.74-1.31-5.62-3.93-5.62-1.67,0-2.85.53-3.54,1.58-.69,1.06-1.25,2.14-1.68,3.24v18.43l.07,3.31c0,1.97.18,3.22.54,3.74.36.53,1.42.79,3.18.79v1.15h-22.43v-1.15l1.73-.07c1.39-.14,2.23-.48,2.52-1.01.29-.53.43-1.68.43-3.46l.07-3.31v-17.21l-.07-2.95c-.1-1.15-.24-2.02-.43-2.59-.19-.58-1.06-.94-2.59-1.08l-1.66-.14v-1.15h18.36v5.4c.53-1.34,1.48-2.7,2.84-4.07,1.37-1.37,4.02-2.05,7.96-2.05,3.41,0,6.36.96,8.86,2.88,2.5,1.92,3.74,4.18,3.74,6.77v16.2l.07,3.31c0,1.73.14,2.87.43,3.42.29.55,1.13.9,2.52,1.04l1.58.07v1.15h-22.29v-1.15c1.71,0,2.76-.28,3.14-.83.38-.55.57-1.79.57-3.71l.07-3.31v-14.69Z"/>
      <path class="cls-12" d="m1534.02,76.38h-4.9v-1.94c1.63-.43,3.34-1.24,5.12-2.41,1.78-1.18,3.48-2.54,5.1-4.1,1.62-1.56,2.97-3.08,4.05-4.57,1.09-1.49,1.92-2.83,2.5-4.03h2.03v14.33h9.37l-1,2.74h-8.37v19.58l.14,3.67c0,2.06.45,3.62,1.36,4.68.91,1.06,2.05,1.58,3.43,1.58,1.86,0,3.22-.78,4.08-2.34.86-1.56,1.29-3.3,1.29-5.22h1.01c0,2.69-.79,5.05-2.36,7.09-1.58,2.04-4.96,3.06-10.17,3.06-3.33,0-6.28-.86-8.83-2.59-2.56-1.73-3.84-4.15-3.84-7.27v-22.25Z"/>
      <path class="cls-12" d="m1561.45,92.87h.94c1.25,3.89,2.5,6.74,3.74,8.57,1.25,1.82,2.6,3.19,4.07,4.1,1.46.91,3.25,1.37,5.36,1.37,1.2,0,2.23-.32,3.1-.97s1.3-1.55,1.3-2.7c0-1.49-.34-2.59-1.01-3.31-.67-.72-1.73-1.5-3.17-2.34-1.44-.84-3.11-1.78-5-2.81-1.9-1.03-3.48-2.04-4.75-3.02-1.27-.98-2.26-2.1-2.95-3.35-.7-1.25-1.04-2.69-1.04-4.32,0-3.55,1.34-6.3,4.03-8.24,2.69-1.94,5.98-2.92,9.86-2.92,1.82,0,3.55.34,5.18,1.01,1.58.82,3.19,1.61,4.82,2.38.67,0,1.25-.41,1.73-1.22.48-.82.72-1.78.72-2.88h1.01v14.47h-.94c-.38-1.15-.86-2.42-1.44-3.82-.58-1.39-1.4-2.8-2.48-4.21-1.08-1.42-2.22-2.51-3.42-3.28-1.2-.77-2.74-1.15-4.61-1.15-1.34,0-2.44.32-3.28.97-.84.65-1.26,1.45-1.26,2.41,0,1.1.3,1.97.9,2.59.6.62,1.48,1.29,2.63,1.98,1.15.7,2.72,1.58,4.72,2.66,1.99,1.08,3.78,2.15,5.36,3.2,1.58,1.06,2.9,2.36,3.96,3.92,1.06,1.56,1.58,3.35,1.58,5.36,0,3.7-1.4,6.48-4.21,8.35-2.81,1.87-6.2,2.81-10.19,2.81-2.06,0-4.08-.43-6.05-1.3-1.92-.96-3.82-1.94-5.69-2.95-.62,0-1.18.5-1.66,1.51-.48,1.01-.77,2.09-.86,3.24h-1.01v-16.13Z"/>
      <path class="cls-12" d="m1597.16,80.55c0-1.92.7-3.55,2.09-4.9,1.39-1.34,3.07-2.02,5.04-2.02s3.66.66,5.08,1.98c1.42,1.32,2.12,2.96,2.12,4.93s-.7,3.62-2.09,4.97c-1.39,1.34-3.1,2.02-5.11,2.02s-3.65-.67-5.04-2.02c-1.39-1.34-2.09-3-2.09-4.97Zm0,20.81c0-1.92.7-3.55,2.09-4.9,1.39-1.34,3.07-2.02,5.04-2.02s3.66.66,5.08,1.98c1.42,1.32,2.12,2.96,2.12,4.93s-.7,3.62-2.09,4.97c-1.39,1.34-3.1,2.02-5.11,2.02s-3.65-.67-5.04-2.02c-1.39-1.34-2.09-3-2.09-4.97Z"/>
    </g>
    <g>
      <path class="cls-12" d="m53.93,112.58c2.88,0,5.75-1.32,8.6-3.96,2.85-2.64,5.38-5.69,7.56-9.14,2.18-3.46,4.16-7.1,5.94-10.94h1.15v25.7H20.88v-1.15c.38,0,.92-.01,1.62-.04.7-.02,1.75-.12,3.17-.29,1.42-.17,2.44-.56,3.06-1.19s1.01-1.68,1.15-3.17l.14-3.31v-34.2l-.14-3.31c-.14-1.54-.47-2.6-.97-3.2-.5-.6-1.29-.97-2.34-1.12-1.06-.14-1.97-.23-2.74-.25-.77-.02-1.46-.06-2.09-.11v-1.15h34.85v1.15l-4.75.22c-1.44.14-2.42.5-2.95,1.08-.53.58-.86,1.66-1.01,3.24l-.14,3.31v42.05l6.19-.22Z"/>
      <path class="cls-12" d="m102.53,114.24h-23.4v-1.15l1.73-.07c1.39-.14,2.23-.48,2.52-1.01.29-.53.43-1.68.43-3.46l.07-3.31v-17.21l-.07-2.95c-.1-1.15-.24-2.02-.43-2.59-.19-.58-1.06-.94-2.59-1.08l-1.94-.14v-1.15h18.94v25.13l.07,3.31c0,1.73.14,2.87.43,3.42.29.55,1.13.9,2.52,1.04l1.73.07v1.15Zm-18.86-46.15c0-1.87.69-3.47,2.06-4.79,1.37-1.32,3.03-1.98,4.96-1.98s3.65.64,5.03,1.91c1.38,1.27,2.06,2.89,2.06,4.86s-.69,3.54-2.06,4.86c-1.37,1.32-3.05,1.98-5.03,1.98s-3.58-.66-4.96-1.98c-1.38-1.32-2.06-2.94-2.06-4.86Z"/>
      <path class="cls-12" d="m125.5,81.26c-.29,0-.58.01-.86.04-.29.02-.8.1-1.55.22-.74.12-1.12.68-1.12,1.69,0,.53.05.98.14,1.37.1.38.26.86.5,1.44l5.47,14.54,5.11-13.25c.58-1.68.86-3,.86-3.96,0-.67-.17-1.13-.5-1.37-.34-.24-.86-.43-1.58-.58l-2.3-.14v-1.15h12.1v1.15l-2.67.29c-.77.14-1.47.59-2.09,1.33-.63.74-1.27,1.97-1.95,3.67-.67,1.7-1.98,5.08-3.93,10.12-1.95,5.04-3.43,8.88-4.44,11.52-1.01,2.64-1.8,4.75-2.38,6.34h-5.12c-.82-2.06-1.83-4.67-3.03-7.81-1.2-3.14-2.72-7.06-4.54-11.74-1.83-4.68-3.08-7.84-3.75-9.47-.67-1.63-1.17-2.68-1.48-3.13-.31-.46-.78-.74-1.41-.86-.63-.12-1.2-.19-1.73-.22-.53-.02-.91-.04-1.15-.04v-1.15h23.4v1.15Z"/>
      <path class="cls-12" d="m143.42,87.02c0-1.92.69-3.55,2.09-4.9,1.39-1.34,3.07-2.02,5.04-2.02s3.66.66,5.08,1.98c1.42,1.32,2.12,2.96,2.12,4.93s-.7,3.62-2.09,4.97c-1.39,1.34-3.1,2.02-5.11,2.02s-3.65-.67-5.04-2.02c-1.39-1.34-2.09-3-2.09-4.97Zm0,20.81c0-1.92.69-3.55,2.09-4.9,1.39-1.34,3.07-2.02,5.04-2.02s3.66.66,5.08,1.98c1.42,1.32,2.12,2.96,2.12,4.93s-.7,3.62-2.09,4.97c-1.39,1.34-3.1,2.02-5.11,2.02s-3.65-.67-5.04-2.02c-1.39-1.34-2.09-3-2.09-4.97Z"/>
    </g>
  </g>
  <g id="Layer_6" data-name="Layer 6">
    <g>
      <g>
        <rect class="cls-1" x="1577.09" y="524.56" width="4.84" height="111.44" rx="2.14" ry="2.14"/>
        <polygon class="cls-17" points="1531.85 558.77 1632 558.77 1581.93 415.49 1531.85 558.77"/>
      </g>
      <rect class="cls-1" x="1506.75" y="490.77" width="7.02" height="145.23" rx="3.11" ry="3.11"/>
      <polygon class="cls-20" points="1441.15 535.35 1586.38 535.35 1513.77 348.63 1441.15 535.35"/>
    </g>
  </g>
</svg>