<?xml version="1.0" encoding="UTF-8"?>
<svg xmlns="http://www.w3.org/2000/svg" xmlns:xlink="http://www.w3.org/1999/xlink" viewBox="0 0 1927 1209">
  <defs>
    <style>
      .cls-1 {
        fill: #9b6a3d;
      }

      .cls-1, .cls-2, .cls-3, .cls-4, .cls-5, .cls-6, .cls-7, .cls-8, .cls-9, .cls-10, .cls-11, .cls-12, .cls-13, .cls-14, .cls-15, .cls-16, .cls-17, .cls-18, .cls-19, .cls-20, .cls-21, .cls-22 {
        stroke-width: 0px;
      }

      .cls-2 {
        fill: url(#linear-gradient);
      }

      .cls-3 {
        fill: #8ba3a1;
      }

      .cls-4 {
        opacity: .85;
      }

      .cls-4, .cls-11 {
        fill: #fff;
      }

      .cls-5 {
        fill: #8faaa9;
      }

      .cls-6 {
        fill: #86a5a5;
      }

      .cls-7 {
        fill: #c7c8ca;
        opacity: .9;
      }

      .cls-8 {
        fill: #49ba77;
        opacity: .8;
      }

      .cls-9 {
        fill: #efeff0;
      }

      .cls-10 {
        fill: #4daa73;
        opacity: .7;
      }

      .cls-12 {
        fill: #93adab;
      }

      .cls-13 {
        fill: #f4bf16;
      }

      .cls-14 {
        fill: #47a052;
      }

      .cls-15 {
        fill: #ebebec;
      }

      .cls-16 {
        fill: #3e8945;
      }

      .cls-17 {
        fill: #5da03f;
      }

      .cls-18 {
        fill: #e2711b;
      }

      .cls-19 {
        fill: #3faf6e;
      }

      .cls-20 {
        fill: #90a5a3;
      }

      .cls-21 {
        fill: #f47a16;
      }

      .cls-22 {
        fill: #809b9a;
      }
    </style>
    <linearGradient id="linear-gradient" x1="637.81" y1="230.81" x2="1187.23" y2="230.81" gradientTransform="translate(732.19 1193.81) rotate(-90)" gradientUnits="userSpaceOnUse">
      <stop offset=".33" stop-color="#dfffff"/>
      <stop offset=".46" stop-color="#c2e9f0"/>
      <stop offset=".74" stop-color="#7bb4ca"/>
      <stop offset="1" stop-color="#357fa5"/>
    </linearGradient>
  </defs>
  <g id="Layer_4" data-name="Layer 4">
    <polygon class="cls-19" points="3 1078.63 4 538 1923 538 1923 1087 3 1078.63"/>
    <polygon class="cls-2" points="3 556 44.14 556 1923 556 1923 0 3 0 3 556"/>
    <rect class="cls-11" x="311" y="39" width="215" height="52" rx="26" ry="26"/>
    <rect class="cls-11" x="442" y="106" width="168" height="39" rx="19.5" ry="19.5"/>
    <rect class="cls-11" x="895" y="87" width="195" height="39" rx="19.5" ry="19.5"/>
  </g>
  <g id="Layer_2" data-name="Layer 2">
    <polygon class="cls-7" points="1184.66 318.3 1047.1 179.03 892.88 338.56 953.26 409.86 1094.1 373.03 1184.66 318.3"/>
    <polygon class="cls-7" points="1428.56 352.82 1251.97 167 1054 379.86 1131.51 475 1312.31 425.85 1428.56 352.82"/>
    <polygon class="cls-7" points="499.17 260.72 555.99 169 650.81 274.5 593.5 352.45 499.17 260.72"/>
    <g>
      <polygon class="cls-6" points="3 418.39 155 351 167 313 370 165 953 588 3 601.83 3 418.39"/>
      <polygon class="cls-5" points="582.5 319.18 833 148 928 253 1020 324 1011 344 1324 587 953 588 582.5 319.18"/>
      <polygon class="cls-11" points="286.31 226.02 248.65 253.47 294 246 294 288.84 327 238 346 274 357 234 397 274 397 220.05 435 237 435 212.16 370 165 286.31 226.02"/>
      <polygon class="cls-11" points="744.57 208.43 716 238 760.79 223.21 788 248 808.94 208.43 831.87 228.21 840 203 875 220 869.91 188.8 833 148 744.57 208.43"/>
      <polygon class="cls-12" points="1053.5 377 1182 311 1269.83 311 1531 123 1688 289 1719 283 1828.18 383.42 1883 375 1923 408.08 1923 583.49 1324 587 1053.5 377"/>
      <polygon class="cls-11" points="1426.81 198 1407 240 1453.27 219 1468 275 1504.87 226.92 1544 264 1570 213 1612.64 248 1607.31 203.68 1531 123 1426.81 198"/>
    </g>
    <polygon class="cls-22" points="366 169 155 297 132.09 331.24 3 385.42 3 420.39 155 353 167 315 366 169"/>
    <polygon class="cls-4" points="370 167 245.7 241.98 264 239 248.65 255.47 370 167"/>
    <polygon class="cls-20" points="1531 125 1258 290 1171 299 1038.62 367.44 1053.5 379 1182 313 1269.83 313 1531 125"/>
    <polygon class="cls-4" points="1531 125 1529.68 125.8 1407 199.95 1386 219 1426.81 200 1531 125"/>
    <polygon class="cls-3" points="833 150 564.47 308.1 582.5 321.18 833 150"/>
    <polygon class="cls-4" points="833 150 716 218.88 744.57 210.43 833 150"/>
    <polygon class="cls-15" points="536.78 200 528.67 213.1 544 204 546 220 556 205 566.11 220 564.47 202.27 578 215 581.67 197.58 555.99 169 536.78 200"/>
    <polygon class="cls-9" points="1252 168 1210.29 211.14 1231.15 202.96 1227 232 1246 209 1259.47 232 1267 208 1288.36 232 1287.22 203.66 1252 168"/>
  </g>
  <g id="Layer_5" data-name="Layer 5">
    <path class="cls-8" d="m3.58,601.5s54.29-47.5,177.31-38.5c123.02,9,238.87-11.5,238.87-11.5,0,0,135.21-45.5,195.47-38.5,60.25,7,396.67,67,439.35,87l-1051,1.5Z"/>
    <path class="cls-10" d="m864,603.5s54.29-47.5,177.31-38.5c123.02,9,238.87-11.5,238.87-11.5,0,0,135.21-45.5,195.47-38.5s396.67,67,439.35,87l-1051,1.5Z"/>
    <polygon class="cls-9" points="1047.1 179.03 993 234.99 1020.05 218.88 1014.17 260.72 1038.62 226.58 1056.79 255.53 1064.61 219.88 1084.68 250 1090 218.88 1047.1 179.03"/>
  </g>
  <g id="Layer_3" data-name="Layer 3">
    <path class="cls-1" d="m957.99,930.88c1.93,0,1.93-3,0-3s-1.93,3,0,3h0Z"/>
    <path class="cls-1" d="m948.82,981.33c1.93,0,1.93-3,0-3s-1.93,3,0,3h0Z"/>
    <g>
      <rect class="cls-16" x="120" y="982" width="4" height="48" rx="2" ry="2"/>
      <rect class="cls-16" x="127.59" y="995.29" width="4.41" height="34.71" rx="2" ry="2"/>
    </g>
    <g>
      <rect class="cls-16" x="754.01" y="781.85" width="4" height="48" rx="2" ry="2"/>
      <rect class="cls-16" x="761.61" y="795.13" width="4.41" height="34.71" rx="2" ry="2"/>
    </g>
    <g>
      <rect class="cls-16" x="804.01" y="957.85" width="4" height="48" rx="2" ry="2"/>
      <rect class="cls-16" x="811.61" y="971.13" width="4.41" height="34.71" rx="2" ry="2"/>
    </g>
    <g>
      <rect class="cls-16" x="1127.01" y="840.85" width="4" height="48" rx="2" ry="2"/>
      <rect class="cls-16" x="1134.61" y="854.13" width="4.41" height="34.71" rx="2" ry="2"/>
    </g>
    <g>
      <rect class="cls-16" x="1626.24" y="805.85" width="4" height="48" rx="2" ry="2"/>
      <rect class="cls-16" x="1633.84" y="819.13" width="4.41" height="34.71" rx="2" ry="2"/>
    </g>
    <g>
      <rect class="cls-16" x="279.43" y="691.99" width="4.35" height="38.01" rx="2" ry="2"/>
      <rect class="cls-16" x="287.69" y="702.51" width="4.79" height="27.49" rx="2" ry="2"/>
    </g>
    <g>
      <rect class="cls-16" x="408.63" y="727.94" width="4" height="48" rx="2" ry="2"/>
      <rect class="cls-16" x="416.22" y="741.23" width="4.41" height="34.71" rx="2" ry="2"/>
    </g>
    <g>
      <rect class="cls-16" x="32.17" y="649.53" width="2.61" height="32.47" rx="1.3" ry="1.3"/>
      <rect class="cls-16" x="37.13" y="658.52" width="2.87" height="23.48" rx="1.44" ry="1.44"/>
    </g>
    <g>
      <path class="cls-1" d="m244.03,889h48.04l-6.58-161.51s34.29-6.72,45.42-28.46c.87-1.7,1.6-3.49,2.16-5.38,0,0,56.58,2.6,55.29-24.73l-11.57-6.51s-12.86,32.54-30.86,18.22l-2.57-32.54h-11.57s-2.57,72.88-42.43,59.87v-85.9h-45v70.28s-30.86,7.81-45-39.04l-10.29,2.6s12.86,54.66,56.58,53.36l-1.6,179.73Z"/>
      <ellipse class="cls-17" cx="140.84" cy="564.91" rx="120.22" ry="126.83"/>
      <ellipse class="cls-14" cx="354.92" cy="449.79" rx="110.58" ry="101.52"/>
      <ellipse class="cls-17" cx="410.86" cy="542.19" rx="131.14" ry="132.74"/>
      <ellipse class="cls-16" cx="207.06" cy="488.68" rx="156.86" ry="154.22"/>
    </g>
    <g>
      <g>
        <rect class="cls-1" x="1790.37" y="639.89" width="7.11" height="146.11" rx="2.14" ry="2.14"/>
        <polygon class="cls-18" points="1723.96 684.74 1871 684.74 1797.48 496.89 1723.96 684.74"/>
      </g>
      <rect class="cls-1" x="1687.09" y="595.59" width="10.31" height="190.41" rx="3.11" ry="3.11"/>
      <polygon class="cls-21" points="1590.78 654.03 1804.02 654.03 1697.4 409.22 1590.78 654.03"/>
    </g>
    <g>
      <path class="cls-13" d="m1204.57,71.8h-23.82v-9.76h3.96v-21.24h-3.96v-9.76h24.99c5.74,0,9.94.56,12.6,1.67,2.66,1.13,4.61,2.68,5.86,4.63,1.25,1.95,1.88,4.09,1.88,6.42,0,2.87-.74,5.25-2.23,7.15-1.48,1.91-3.45,3.3-5.89,4.16-2.4.84-6.11,1.26-11.13,1.26h-6.36v5.71h4.1v9.76Zm-4.1-31.82v7.65h3.08c2.15,0,3.71-.25,4.69-.76.94-.51,1.41-1.49,1.41-2.96,0-.96-.25-1.77-.76-2.43-.49-.64-1.14-1.05-1.96-1.23-.78-.18-2.11-.26-3.98-.26h-2.46Z"/>
      <path class="cls-13" d="m1226.78,57.45c0-4.18,1.76-7.71,5.27-10.58s8.26-4.31,14.24-4.31,10.91,1.39,14.68,4.16c3.77,2.77,5.65,6.39,5.65,10.84s-1.8,7.88-5.39,10.75-8.34,4.31-14.24,4.31c-6.37,0-11.33-1.44-14.88-4.31-3.55-2.85-5.33-6.47-5.33-10.87Zm14.91.06c0,4.53,1.62,6.8,4.86,6.8,3.44,0,5.16-2.29,5.16-6.86,0-2.09-.42-3.71-1.26-4.86-.86-1.15-2.07-1.73-3.63-1.73s-2.78.57-3.72,1.7c-.94,1.13-1.41,2.78-1.41,4.95Z"/>
      <path class="cls-13" d="m1291.43,71.8h-20.13v-8.94h2.93v-10.55h-2.93v-8.94h17.67v19.48h2.46v8.94Zm-18.43-36.45c0-1.54.79-2.78,2.37-3.72,1.56-.94,3.5-1.41,5.8-1.41s4.27.49,5.71,1.46c1.43,1,2.14,2.21,2.14,3.63,0,1.54-.74,2.76-2.23,3.66-1.5.92-3.4,1.38-5.68,1.38s-4.26-.42-5.8-1.26c-1.54-.82-2.31-2.07-2.31-3.75Z"/>
      <path class="cls-13" d="m1318.09,71.8h-22.5v-8.94h3.66v-10.55h-3.66v-8.94h18.4v3.6c3.61-2.75,7.49-4.13,11.63-4.13,3.63,0,6.37,1.01,8.2,3.02,1.82,2.01,2.72,5.24,2.72,9.7v7.29h3.37v8.94h-18.11v-12.63c0-2.75-.23-4.57-.7-5.45-.51-.86-1.47-1.29-2.9-1.29-1.31,0-2.71.5-4.22,1.49v8.94h4.1v8.94Z"/>
      <path class="cls-13" d="m1366.9,61.43v8.73c-.96.64-2.34,1.21-4.16,1.7-1.91.51-3.75.76-5.51.76-2.21,0-4.1-.36-5.68-1.08-1.62-.74-2.84-1.74-3.66-2.99-.45-.72-.78-1.38-1-1.98-.21-.6-.37-1.26-.47-2.01-.14-1.29-.21-3.78-.21-7.47v-4.78h-3.63v-8.94h3.63v-4.37l14.74-7v11.37h5.95v8.94h-5.95v5.51c0,1.8.17,3,.5,3.6.31.61.98.91,1.99.91.96,0,2.11-.3,3.46-.91Z"/>
      <path class="cls-13" d="m1381.79,72.15h-9.11v-9.02h8.53c2.19,2.3,4.58,3.46,7.18,3.46s3.93-.54,3.93-1.61c0-.55-.28-.97-.85-1.26-.59-.31-2.14-.77-4.66-1.38-2.03-.55-4.28-1.18-6.74-1.9-2.13-.6-3.81-1.37-5.04-2.29-1.27-.92-2.12-1.82-2.55-2.7-.47-.88-.7-2.03-.7-3.46,0-3.14,1.11-5.46,3.34-6.94,2.21-1.46,5.01-2.2,8.41-2.2s6.46.66,8.85,1.99v-1.46h8.99v8.26h-8.32c-2.07-1.97-4.53-2.96-7.38-2.96-2.25,0-3.37.6-3.37,1.79,0,.57.33.94,1,1.11.57.18,2.44.6,5.62,1.26,3.61.76,6.44,1.52,8.47,2.29,2.01.76,3.53,1.77,4.54,3.02,1,1.25,1.49,2.78,1.49,4.6,0,3.28-1.22,5.7-3.66,7.27-2.42,1.54-5.41,2.31-8.96,2.31s-6.53-.64-8.99-1.93v1.76Z"/>
      <path class="cls-13" d="m1442.84,72.45h-6.8l9.93-42.22h6.88l-10.02,42.22Z"/>
      <path class="cls-13" d="m1490.62,71.8h-21.3v-8.26h4.92v-5.16h-17.17l-2.29-8.5,19.04-19.66h12.6v20.92h4.19v7.24h-4.19v5.16h4.19v8.26Zm-27.39-20.65h11.02v-11.13l-11.02,11.13Z"/>
      <path class="cls-13" d="m1496.57,60.85l10.61-.67c.94,2.23,2.74,3.34,5.42,3.34,1.58,0,2.92-.43,4.01-1.29,1.05-.86,1.58-2.21,1.58-4.04s-.53-3.12-1.58-3.96c-1.07-.82-2.32-1.23-3.75-1.23-2.19,0-4.02.8-5.51,2.4l-8.88-3.13,1.23-21.21h30.03v10.66h-6.88l-.97-2.49h-14.56l-.35,8.09c2.62-1.64,5.73-2.46,9.35-2.46,4.41,0,8.07,1.18,10.96,3.54,2.89,2.36,4.34,5.61,4.34,9.73s-1.52,7.37-4.57,10.05c-3.07,2.68-7.33,4.01-12.8,4.01-4.8,0-8.78-1.02-11.92-3.05-3.12-2.01-5.04-4.78-5.74-8.29Z"/>
    </g>
  </g>
</svg>