<?xml version="1.0" encoding="UTF-8"?>
<svg id="Layer_2" data-name="Layer 2" xmlns="http://www.w3.org/2000/svg" viewBox="0 0 334.13 494.47">
  <defs>
    <style>
      .cls-1 {
        fill: #9b6a3d;
      }

      .cls-1, .cls-2, .cls-3, .cls-4 {
        stroke-width: 0px;
      }

      .cls-3, .cls-5 {
        fill: none;
      }

      .cls-4 {
        fill: #fff;
      }

      .cls-5 {
        stroke: #000;
        stroke-miterlimit: 10;
        stroke-width: 2px;
      }
    </style>
  </defs>
  <g id="Layer_2-2" data-name="Layer 2">
    <g>
      <circle class="cls-1" cx="298.93" cy="418.3" r="35.2"/>
      <line class="cls-3" x1="41.63" y1="494.47" x2="310.37" y2="485.3"/>
      <line class="cls-3" x1="193.88" y1="218.39" x2="310.37" y2="485.3"/>
      <circle class="cls-4" cx="165.88" cy="202.51" r="83.56"/>
      <path class="cls-4" d="m144.1,121.82S159.14-11.29,105.24.77s2.42,141.81,2.42,141.81l36.45-20.76Z"/>
      <path class="cls-4" d="m189.91,127.61S174.87-5.51,228.78,6.56c53.91,12.07-2.42,141.81-2.42,141.81l-36.45-20.76Z"/>
      <path class="cls-4" d="m99.87,251.23S8.3,470.33,28.61,477.62s260.31,13.1,265.65,0-28.16-242.52-59.54-246.37-134.86,19.97-134.86,19.97Z"/>
      <path class="cls-4" d="m290.39,489.44c-22.61,0-40.94-9.38-40.94-20.96s18.33-20.96,40.94-20.96c22.61,0,40.94,9.38,40.94,20.96,0,11.58-18.33,20.96-40.94,20.96Z"/>
      <path class="cls-4" d="m40.94,489.44c-22.61,0-40.94-9.38-40.94-20.96s18.33-20.96,40.94-20.96c22.61,0,40.94,9.38,40.94,20.96,0,11.58-18.33,20.96-40.94,20.96Z"/>
      <ellipse class="cls-1" cx="113.96" cy="67.22" rx="18.87" ry="52.73" transform="translate(-7.44 14.6) rotate(-7.1)"/>
      <ellipse class="cls-1" cx="218.46" cy="71.29" rx="52.73" ry="18.87" transform="translate(100.54 268.53) rotate(-77.2)"/>
      <ellipse class="cls-2" cx="195.09" cy="184.9" rx="7.11" ry="16.15"/>
      <path class="cls-2" d="m149.23,184.9c0,8.92-3.18,16.15-7.11,16.15-3.93,0-7.11-7.23-7.11-16.15,0-8.92,3.18-16.15,7.11-16.15s7.11,7.23,7.11,16.15Z"/>
      <g>
        <ellipse class="cls-2" cx="168.36" cy="219.91" rx="15" ry="5.69"/>
        <ellipse class="cls-2" cx="168.36" cy="225.6" rx="5.63" ry="7.07"/>
      </g>
      <line class="cls-5" x1="191.36" y1="154.02" x2="213.04" y2="173.2"/>
      <line class="cls-5" x1="142.12" y1="154.02" x2="120.44" y2="173.2"/>
      <path class="cls-1" d="m114.63,307.15s-2.42,88.28,16.95,89.38,21.79-85.64,21.79-85.64"/>
      <path class="cls-1" d="m214.41,307.15s2.42,88.28-16.95,89.38-21.79-85.64-21.79-85.64"/>
    </g>
  </g>
</svg>