<?xml version="1.0" encoding="UTF-8"?>
<svg id="Layer_6" data-name="Layer 6" xmlns="http://www.w3.org/2000/svg" viewBox="0 0 1927 1209">
  <defs>
    <style>
      .cls-1 {
        stroke: #009245;
      }

      .cls-1, .cls-2 {
        fill: none;
        stroke-miterlimit: 10;
      }

      .cls-3 {
        fill: #009245;
      }

      .cls-3, .cls-4, .cls-5, .cls-6, .cls-7 {
        stroke-width: 0px;
      }

      .cls-4 {
        fill: #47a052;
      }

      .cls-5 {
        fill: #3e8945;
      }

      .cls-6 {
        fill: #5da03f;
      }

      .cls-2 {
        stroke: #66a534;
      }

      .cls-7 {
        fill: #f47a16;
      }
    </style>
  </defs>
  <g>
    <g>
      <g>
        <path class="cls-4" d="m1380.97,747.38l-271.22,3.76c-51.71-47.65,9.5-89.03,9.5-89.03-23.22-72.73,47.49-56.43,47.49-56.43,7.39-67.71,30.6-16.3,30.6-16.3,4.22-101.57,58.04-6.27,58.04-6.27,35.88-147.96,72.82,3.76,72.82,3.76,73.87-62.7,83.5-2.41,83.5-2.41,70.58-11.38,0,69.65,0,69.65,71.64-7.04,65.3,35.59,65.3,35.59,53.82,32.6,21.19,54.5,21.19,54.5l-117.23,3.18Z"/>
        <path class="cls-5" d="m1158.25,750.47s-57.99,4.43-39-54.5c19-58.93,42.21-18.81,42.21-18.81-33.77-97.81,24.27-57.68,24.27-57.68,34.83-56.43,61.77-8.15,61.77-8.15,38.48-44.51,39.95-19.23,39.95-19.23,49.19-12.74,51.3,6.06,51.3,6.06,64.38-18.81,40.1,32.6,40.1,32.6,91.81-26.33,32.84,57.21,32.84,57.21,62.14,4.23,52.64,36.84,52.64,36.84,4.22,26.33-32.91,21.2-32.91,21.2l-273.18,4.46Z"/>
        <path class="cls-6" d="m1189.44,749.96s-32.2,7.45-32.2-20.14-.52-76.75,16.1-57.19c16.62,19.57,18.73,22.08,18.73,22.08,32.72-71.47,30.6-10.03,30.6-10.03,54.88-99.06,43.27-3.76,43.27-3.76,53.82-63.95,32.56,23.67,32.56,23.67,44.48.16,15.17,43.35,15.17,43.35l-124.23,2.03Z"/>
      </g>
      <path class="cls-3" d="m1320.03,791.5c1.93,0,1.93-3,0-3s-1.93,3,0,3h0Z"/>
      <path class="cls-1" d="m1246.84,716.81h1.79s9.37-8.79,5.65-20.16c-3.72-11.37-26.07,11.37-26.07,11.37,0,0,.93-15.51-17.26-12.76-18.19,2.75,2.15,21.54,2.15,21.54,0,0-.96-.78-2.54-1.74-4.6-2.79-14.45-7.11-21.14,1.74-8.99,11.89,14.58,18.09,14.58,18.09"/>
      <path class="cls-2" d="m1366.65,670.56l1.69,1.63s14.49,1.28,18.34-11.47c3.85-12.75-31.85-14.33-31.85-14.33,0,0,10.9-11.93-7.97-26.19s-11.91,19.7-11.91,19.7c0,0-.4-1.51-1.27-3.74-2.52-6.48-8.98-19-20.99-17.79-16.13,1.62,2,28.16,2,28.16"/>
    </g>
    <ellipse class="cls-7" cx="1369.82" cy="694.37" rx="5.45" ry="5.57"/>
    <ellipse class="cls-7" cx="1346.05" cy="716.63" rx="5.45" ry="5.57"/>
    <ellipse class="cls-7" cx="1201.43" cy="634.66" rx="5.45" ry="5.57"/>
    <ellipse class="cls-7" cx="1411.42" cy="724.73" rx="5.45" ry="5.57"/>
    <ellipse class="cls-7" cx="1358.92" cy="607.33" rx="5.45" ry="5.57"/>
  </g>
  <g>
    <g>
      <g>
        <path class="cls-4" d="m1623.92,1052.31l-410.12,4.21c-78.19-53.32,14.36-99.62,14.36-99.62-35.11-81.38,71.81-63.14,71.81-63.14,11.17-75.77,46.28-18.24,46.28-18.24,6.38-113.65,87.77-7.02,87.77-7.02,54.26-165.56,110.11,4.21,110.11,4.21,111.71-70.15,126.26-2.7,126.26-2.7,106.73-12.73,0,77.93,0,77.93,108.32-7.88,98.75,39.82,98.75,39.82,81.39,36.48,32.04,60.98,32.04,60.98l-177.26,3.56Z"/>
        <path class="cls-5" d="m1287.13,1055.76s-87.7,4.96-58.97-60.98c28.72-65.94,63.83-21.05,63.83-21.05-51.07-109.44,36.7-64.54,36.7-64.54,52.66-63.14,93.41-9.12,93.41-9.12,58.19-49.81,60.41-21.52,60.41-21.52,74.38-14.26,77.58,6.79,77.58,6.79,97.34-21.05,60.64,36.48,60.64,36.48,138.83-29.46,49.66,64.01,49.66,64.01,93.96,4.74,79.6,41.22,79.6,41.22,6.38,29.46-49.77,23.72-49.77,23.72l-413.09,4.99Z"/>
        <path class="cls-6" d="m1334.3,1055.2s-48.69,8.34-48.69-22.53-.78-85.88,24.34-63.99c25.13,21.89,28.32,24.7,28.32,24.7,49.47-79.97,46.28-11.22,46.28-11.22,82.98-110.84,65.43-4.21,65.43-4.21,81.39-71.56,49.23,26.48,49.23,26.48,67.26.18,22.94,48.5,22.94,48.5l-187.85,2.27Z"/>
      </g>
      <path class="cls-3" d="m1531.76,1101.5c1.93,0,1.93-3,0-3s-1.93,3,0,3h0Z"/>
      <path class="cls-1" d="m1421.09,1018.1h2.71s14.18-9.83,8.54-22.56c-5.63-12.72-39.43,12.72-39.43,12.72,0,0,1.41-17.35-26.09-14.27-27.5,3.08,3.26,24.11,3.26,24.11,0,0-1.45-.87-3.84-1.94-6.96-3.12-21.85-7.96-31.97,1.94-13.59,13.3,22.04,20.24,22.04,20.24"/>
      <path class="cls-2" d="m1602.25,966.36l2.55,1.82s21.91,1.43,27.74-12.84c5.83-14.27-48.16-16.04-48.16-16.04,0,0,16.49-13.35-12.04-29.31-28.53-15.96-18,22.05-18,22.05,0,0-.6-1.69-1.91-4.18-3.81-7.25-13.58-21.26-31.74-19.9-24.4,1.82,3.02,31.5,3.02,31.5"/>
    </g>
    <ellipse class="cls-7" cx="1607.05" cy="992.99" rx="8.24" ry="6.23"/>
    <ellipse class="cls-7" cx="1571.1" cy="1017.9" rx="8.24" ry="6.23"/>
    <ellipse class="cls-7" cx="1352.42" cy="926.18" rx="8.24" ry="6.23"/>
    <ellipse class="cls-7" cx="1669.96" cy="1026.96" rx="8.24" ry="6.23"/>
    <ellipse class="cls-7" cx="1590.58" cy="895.61" rx="8.24" ry="6.23"/>
  </g>
  <g>
    <g>
      <g>
        <path class="cls-4" d="m639.16,979.87l-331.77,3.84c-63.26-48.6,11.62-90.8,11.62-90.8-28.4-74.17,58.09-57.55,58.09-57.55,9.04-69.06,37.44-16.63,37.44-16.63,5.16-103.59,71-6.39,71-6.39,43.89-150.9,89.07,3.84,89.07,3.84,90.37-63.94,102.14-2.46,102.14-2.46,86.34-11.61,0,71.03,0,71.03,87.63-7.18,79.88,36.3,79.88,36.3,65.84,33.25,25.92,55.59,25.92,55.59l-143.4,3.24Z"/>
        <path class="cls-5" d="m366.71,983.02s-70.94,4.52-47.71-55.58c23.24-60.11,51.64-19.18,51.64-19.18-41.31-99.75,29.69-58.83,29.69-58.83,42.6-57.55,75.57-8.31,75.57-8.31,47.07-45.4,48.87-19.61,48.87-19.61,60.17-13,62.76,6.19,62.76,6.19,78.75-19.18,49.06,33.25,49.06,33.25,112.31-26.86,40.17,58.35,40.17,58.35,76.01,4.32,64.39,37.57,64.39,37.57,5.16,26.86-40.26,21.62-40.26,21.62l-334.17,4.55Z"/>
        <path class="cls-6" d="m404.87,982.5s-39.39,7.6-39.39-20.54-.63-78.28,19.69-58.32c20.33,19.96,22.91,22.51,22.91,22.51,40.02-72.89,37.44-10.23,37.44-10.23,67.13-101.03,52.93-3.84,52.93-3.84,65.84-65.22,39.83,24.14,39.83,24.14,54.41.16,18.55,44.21,18.55,44.21l-151.96,2.07Z"/>
      </g>
      <path class="cls-3" d="m564.61,1024.83c1.93,0,1.93-3,0-3s-1.93,3,0,3h0Z"/>
      <path class="cls-1" d="m475.08,948.69h2.19s11.47-8.96,6.91-20.56-31.89,11.6-31.89,11.6c0,0,1.14-15.82-21.11-13.01s2.63,21.97,2.63,21.97c0,0-1.18-.79-3.11-1.77-5.63-2.85-17.68-7.25-25.86,1.77-11,12.13,17.83,18.45,17.83,18.45"/>
      <path class="cls-2" d="m621.63,901.52l2.06,1.66s17.72,1.31,22.44-11.7c4.71-13.01-38.96-14.62-38.96-14.62,0,0,13.34-12.17-9.74-26.71-23.08-14.55-14.57,20.1-14.57,20.1,0,0-.49-1.54-1.55-3.81-3.08-6.61-10.98-19.37-25.67-18.14-19.74,1.65,2.44,28.71,2.44,28.71"/>
    </g>
    <ellipse class="cls-7" cx="625.51" cy="925.8" rx="6.66" ry="5.68"/>
    <ellipse class="cls-7" cx="596.43" cy="948.51" rx="6.66" ry="5.68"/>
    <ellipse class="cls-7" cx="419.53" cy="864.91" rx="6.66" ry="5.68"/>
    <ellipse class="cls-7" cx="676.4" cy="956.76" rx="6.66" ry="5.68"/>
    <ellipse class="cls-7" cx="612.19" cy="837.04" rx="6.66" ry="5.68"/>
  </g>
  <g>
    <g>
      <g>
        <path class="cls-4" d="m909.83,703.31l-265.41,3.19c-50.6-40.42,9.29-75.52,9.29-75.52-22.72-61.69,46.47-47.87,46.47-47.87,7.23-57.44,29.95-13.83,29.95-13.83,4.13-86.16,56.8-5.32,56.8-5.32,35.11-125.51,71.26,3.19,71.26,3.19,72.29-53.18,81.71-2.05,81.71-2.05,69.07-9.65,0,59.08,0,59.08,70.1-5.98,63.91,30.19,63.91,30.19,52.67,27.66,20.74,46.23,20.74,46.23l-114.71,2.7Z"/>
        <path class="cls-5" d="m691.88,705.93s-56.75,3.76-38.16-46.23c18.59-49.99,41.31-15.96,41.31-15.96-33.05-82.97,23.75-48.93,23.75-48.93,34.08-47.87,60.45-6.91,60.45-6.91,37.66-37.76,39.09-16.31,39.09-16.31,48.14-10.81,50.2,5.14,50.2,5.14,63-15.96,39.24,27.66,39.24,27.66,89.85-22.34,32.14,48.53,32.14,48.53,60.81,3.59,51.51,31.25,51.51,31.25,4.13,22.34-32.21,17.99-32.21,17.99l-267.33,3.78Z"/>
        <path class="cls-6" d="m722.4,705.5s-31.51,6.32-31.51-17.08-.51-65.11,15.75-48.51c16.26,16.6,18.33,18.73,18.33,18.73,32.01-60.63,29.95-8.51,29.95-8.51,53.7-84.03,42.34-3.19,42.34-3.19,52.67-54.25,31.86,20.07,31.86,20.07,43.53.14,14.84,36.77,14.84,36.77l-121.56,1.72Z"/>
      </g>
      <path class="cls-3" d="m850.19,740.97c1.93,0,1.93-3,0-3s-1.93,3,0,3h0Z"/>
      <path class="cls-1" d="m778.57,677.38h1.76s9.17-7.45,5.53-17.1c-3.64-9.65-25.51,9.65-25.51,9.65,0,0,.91-13.15-16.89-10.82-17.8,2.33,2.11,18.27,2.11,18.27,0,0-.94-.66-2.49-1.47-4.5-2.37-14.14-6.03-20.69,1.47-8.8,10.09,14.26,15.35,14.26,15.35"/>
      <path class="cls-2" d="m895.81,638.15l1.65,1.38s14.18,1.09,17.95-9.73-31.17-12.16-31.17-12.16c0,0,10.67-10.12-7.79-22.22-18.46-12.1-11.65,16.72-11.65,16.72,0,0-.39-1.28-1.24-3.17-2.46-5.5-8.79-16.11-20.54-15.09-15.79,1.38,1.95,23.88,1.95,23.88"/>
    </g>
    <ellipse class="cls-7" cx="898.91" cy="658.34" rx="5.33" ry="4.72"/>
    <ellipse class="cls-7" cx="875.65" cy="677.23" rx="5.33" ry="4.72"/>
    <ellipse class="cls-7" cx="734.13" cy="607.7" rx="5.33" ry="4.72"/>
    <ellipse class="cls-7" cx="939.63" cy="684.1" rx="5.33" ry="4.72"/>
    <ellipse class="cls-7" cx="888.25" cy="584.52" rx="5.33" ry="4.72"/>
  </g>
</svg>