<?xml version="1.0" encoding="UTF-8"?>
<svg id="Layer_1" data-name="Layer 1" xmlns="http://www.w3.org/2000/svg" viewBox="0 0 408.65 404.13">
  <defs>
    <style>
      .cls-1 {
        fill: #9b6a3d;
      }

      .cls-1, .cls-2, .cls-3, .cls-4, .cls-5, .cls-6 {
        stroke-width: 0px;
      }

      .cls-7 {
        stroke-width: 4px;
      }

      .cls-7, .cls-8 {
        fill: none;
      }

      .cls-7, .cls-8, .cls-9 {
        stroke: #000;
        stroke-miterlimit: 10;
      }

      .cls-3 {
        fill: #fff;
      }

      .cls-4 {
        fill: #b514b5;
      }

      .cls-5 {
        fill: #e5cfb5;
      }

      .cls-6 {
        fill: #f47a16;
      }
    </style>
  </defs>
  <path class="cls-4" d="m192.83,156.32s-42.78,50.72-45.39,66.92c0,0-26.19,64.38-26.49,81.57-.3,17.19-2.04,62.53-2.04,62.53,0,0,76.02-98.65,79.29-99.51s16.29,8.49,21.7,24.87c5.4,16.38,17.39,80.66,17.39,80.66,0,0,28.87-56.5,32.32-71.12,3.44-14.62,7.4-97.99,7.4-97.99l-14.76-51.53-57.82,3-11.59.6Z"/>
  <path class="cls-6" d="m183.29,71.8s-59.21-41.63-124.87-14.65c0,0,66.5,55.29,124.66,41.56"/>
  <ellipse class="cls-5" cx="227.67" cy="123.22" rx="55.01" ry="40.29" transform="translate(-12.85 27.48) rotate(-6.72)"/>
  <polygon class="cls-3" points="55.28 57.08 81.72 75.24 76.28 64.42 91.14 63.19 78.64 57.6 96.24 54.24 87.92 48.73 55.28 57.08"/>
  <path class="cls-6" d="m273.39,98.41s19.21-40.73,4.96-46.36c-14.25-5.63-67.31-11.19-74.68-6.04-7.36,5.15-37.13,38.7-18.91,54.35,18.22,15.65,88.62-1.95,88.62-1.95Z"/>
  <path class="cls-5" d="m183.85,167.31s-97.67,58.95-101.41,100.75c-3.75,41.8-.25,1.56-.25,1.56l65.26-46.37,36.41-55.94Z"/>
  <path class="cls-5" d="m268.72,175.34l8.28,28.91-.45,9.05,91.99-83.59s-89.84,33.69-99.82,45.63Z"/>
  <path class="cls-4" d="m204.83,163.41l-1.81,12.95c-.2,1.42-1.96,2.33-3.33,1.72l-15.82-7.08c-1.04-.46-2.39-.05-3.02.92l-33.28,51.12c-.09.13-.16.28-.21.42l-24.43,67.59c-.06.17-.1.34-.11.51l-2.25,35.31c-.06.86.53,1.6,1.45,1.81l21.24,4.94c.9.21,1.91-.14,2.5-.86l50.81-62.91c.86-1.07,2.55-1.25,3.45-.36,5.48,5.43,22.01,24.63,29.68,64.97.16.84.93,1.43,1.9,1.45l22.1.49c1.01.02,1.97-.57,2.33-1.44l13.49-32.49c.07-.16.11-.31.13-.48.64-4.93,10.81-84.23,6.92-88.7-3.44-3.96-6.74-29.06-7.61-36.12-.13-1.03-1.16-1.7-2.34-1.53l-16.29,2.43c-1.28.19-2.37-.62-2.35-1.76l.21-14.99c.01-.99-.82-1.76-1.93-1.78l-8.41-.19c-1.33-.03-2.5,1-2.48,2.18l.23,12.19c.02,1.13-1.04,2.13-2.32,2.18l-14.3.59c-1.05.04-1.91-.57-2.06-1.48l-1.82-10.74c-.11-.67-.62-1.2-1.34-1.4-1.64-.45-4.63-1.22-6.27-1.38h0c-1.26-.12-2.47.75-2.63,1.9Z"/>
  <ellipse class="cls-2" cx="248.77" cy="122.35" rx="11.1" ry="5.36" transform="translate(85.07 346.09) rotate(-80)"/>
  <ellipse class="cls-2" cx="213.72" cy="121.57" rx="11.1" ry="5.36" transform="translate(56.88 310.92) rotate(-80)"/>
  <line class="cls-7" x1="256.9" y1="103" x2="237.43" y2="114.08"/>
  <line class="cls-7" x1="212.91" y1="102.02" x2="229.17" y2="113.9"/>
  <polygon class="cls-1" points="182.88 148.96 193.19 141.66 204.4 149.44 221.18 147.76 238.97 153.7 250.88 146.07 274.6 141.6 274.91 176.7 260.6 169.02 252.61 194.96 236.94 181.71 224.95 203.33 217.16 176.58 203.83 192.3 201.45 170.59 177.37 188.36 180.72 164.44 162.61 169.73 182.88 148.96"/>
  <path class="cls-1" d="m182.88,148.96s-2.94-1.03-5.8-7.38,29.19,7.9,29.19,7.9"/>
  <path class="cls-1" d="m327.1,167.36s-1.7,38.33,1.8,38.28,36.31-11.75,36.5-13.08-22.94-38.05-22.94-38.05l-15.36,12.85Z"/>
  <polygon class="cls-2" points="324.24 147.27 313.96 118.7 304.52 119.53 301.93 108.86 308.95 106.6 284.84 37.87 282.7 31.78 292.58 34.08 326.88 110.32 328.81 114.6 341.82 140.1 324.24 147.27"/>
  <path class="cls-8" d="m326.88,110.32s17.22,1.23,20.16,7.29-9.61,13.88-9.43,14.24"/>
  <path class="cls-8" d="m332.57,121.97s5.58.65,7.14-4"/>
  <path class="cls-8" d="m282.7,31.78s7.31-3.39,9.88,2.3"/>
  <polygon class="cls-9" points="229.95 335.88 255.4 336.45 237.29 373.36 229.95 335.88"/>
  <polygon class="cls-9" points="120.47 328.33 144.77 333.98 118.91 367.34 120.47 328.33"/>
  <path class="cls-2" d="m237.21,211.28l22.84.51s-.22,21.1-10.82,19.82c0,0-14.56,4.1-12.02-20.33Z"/>
</svg>