<?xml version="1.0" encoding="UTF-8"?>
<svg id="Layer_5" data-name="Layer 5" xmlns="http://www.w3.org/2000/svg" viewBox="0 0 365.26 309.54">
  <defs>
    <style>
      .cls-1 {
        fill: #4b4c4b;
      }

      .cls-1, .cls-2, .cls-3, .cls-4, .cls-5 {
        stroke-width: 0px;
      }

      .cls-2 {
        fill: #fff;
      }

      .cls-3, .cls-4 {
        fill: #f4bf16;
      }

      .cls-4, .cls-5 {
        opacity: .98;
      }

      .cls-5 {
        fill: #d8a31e;
      }
    </style>
  </defs>
  <polygon class="cls-2" points="137.14 157.14 137.14 207.92 193.82 182.53 137.14 157.14"/>
  <path class="cls-5" d="m243.61,214.62h-116.81c-27.92,0-50.7-15.4-51.9-34.71-.03-.53-.05-1.07-.05-1.61v-72.63c0-20.06,23.26-36.31,51.95-36.31h116.81c28.69,0,51.95,16.26,51.95,36.31v72.63c0,20.06-23.26,36.31-51.95,36.31Z"/>
  <path class="cls-4" d="m243.61,200.03h-116.81c-27.92,0-50.7-15.4-51.9-34.71-.03-.53-.05-1.07-.05-1.61v-72.63c0-20.06,23.26-36.31,51.95-36.31h116.81c28.69,0,51.95,16.26,51.95,36.31v72.63c0,20.06-23.26,36.31-51.95,36.31Z"/>
  <path class="cls-1" d="m155.96,104.71l1.29,57.17s0,15.59,22.14,4.25,43.25-22.78,43.25-22.78c0,0,13.64-10.3-2.57-18.57s-49.47-26.46-49.47-26.46c0,0-12.83-2.6-14.64,6.38Z"/>
  <polygon class="cls-3" points="137.14 90.94 136.99 160.89 204.95 128.66 137.14 90.94"/>
  <path class="cls-2" d="m154.49,99.24l1.29,57.17s0,15.59,22.14,4.25c22.14-11.34,43.25-22.78,43.25-22.78,0,0,13.64-10.3-2.57-18.57s-49.47-26.46-49.47-26.46c0,0-12.83-2.6-14.64,6.38Z"/>
</svg>