<?xml version="1.0" encoding="UTF-8"?>
<svg id="Layer_3" data-name="Layer 3" xmlns="http://www.w3.org/2000/svg" viewBox="0 0 269.09 253.38">
  <defs>
    <style>
      .cls-1 {
        fill: #3e8945;
        stroke-width: 0px;
      }
    </style>
  </defs>
  <path class="cls-1" d="m112.34,243.1s-94.18-8.92-73.64-111.84c0,0,.71-7.76,7.79,2.72,0,0,12.39-48.47,17.35-48.47,0,0,3.44,13.53,10.22-8.05,6.78-21.58,19.52-30.76,19.52-30.76,0,0,1.77.3,2.48,4.44s10.27-26.36,37.53-40.88c0,0,23.01,44.14,40.01,50.06l1.42-6.81,19.83,36.44s-1.77-15.11,3.19-10.96,16.29,61.82,16.29,61.82c0,0,4.6-6.94,6.73-6.83s6.73,33.58-2.83,62.02c-9.56,28.44-46.03,47.4-64.79,47.1-18.76-.3-41.07,0-41.07,0Z"/>
</svg>