<?xml version="1.0" encoding="UTF-8"?>
<svg xmlns="http://www.w3.org/2000/svg" viewBox="0 0 1920 1080">
  <defs>
    <style>
      .cls-1, .cls-2, .cls-3, .cls-4, .cls-5, .cls-6, .cls-7, .cls-8, .cls-9, .cls-10, .cls-11, .cls-12, .cls-13, .cls-14, .cls-15 {
        stroke-miterlimit: 10;
      }

      .cls-1, .cls-5 {
        stroke: #f47a16;
      }

      .cls-1, .cls-5, .cls-16 {
        fill: #f47a16;
      }

      .cls-1, .cls-7 {
        stroke-width: 8px;
      }

      .cls-17 {
        fill: #9b6a3d;
      }

      .cls-17, .cls-18, .cls-19, .cls-20, .cls-21, .cls-22, .cls-23, .cls-24, .cls-25, .cls-26, .cls-27, .cls-28, .cls-29, .cls-30, .cls-31, .cls-16, .cls-32 {
        stroke-width: 0px;
      }

      .cls-2 {
        fill: #efea48;
      }

      .cls-2, .cls-13 {
        stroke: #fff;
      }

      .cls-3 {
        stroke-width: 4px;
      }

      .cls-3, .cls-4, .cls-7, .cls-22, .cls-10, .cls-11, .cls-12, .cls-14, .cls-15 {
        fill: none;
      }

      .cls-3, .cls-4, .cls-10 {
        stroke: #000;
      }

      .cls-33 {
        font-family: Elephant-Regular, Elephant;
        font-size: 100px;
      }

      .cls-33, .cls-13 {
        fill: #f4bf16;
      }

      .cls-18 {
        fill: #2b872b;
      }

      .cls-19 {
        fill: #e8731a;
      }

      .cls-5, .cls-8, .cls-9, .cls-11 {
        stroke-width: 3px;
      }

      .cls-20 {
        fill: #86a5a5;
      }

      .cls-6 {
        stroke: #e5cfb5;
      }

      .cls-6, .cls-29 {
        fill: #e5cfb5;
      }

      .cls-7, .cls-11, .cls-12 {
        stroke: #9b6a3d;
      }

      .cls-8 {
        fill: #4c4c4c;
        stroke: #353535;
      }

      .cls-23 {
        fill: #f4d7a4;
      }

      .cls-9 {
        stroke: #3e8945;
      }

      .cls-9, .cls-24 {
        fill: #fff;
      }

      .cls-10, .cls-14, .cls-15 {
        stroke-width: 2px;
      }

      .cls-25 {
        fill: #397a3c;
      }

      .cls-13 {
        stroke-width: 10px;
      }

      .cls-14 {
        stroke: #4c4c4c;
      }

      .cls-26 {
        fill: #66c67a;
      }

      .cls-27 {
        fill: #3e8945;
      }

      .cls-28 {
        fill: #b514b5;
      }

      .cls-30 {
        fill: #d6c8d5;
      }

      .cls-31 {
        fill: #d8661a;
      }

      .cls-32 {
        fill: #5b5855;
      }

      .cls-15 {
        stroke: #316634;
      }
    </style>
  </defs>
  <g id="Layer_4" data-name="Layer 4">
    <rect class="cls-20" y="-1" width="1921" height="1080"/>
    <g>
      <g>
        <path class="cls-31" d="m1251.23,988.61c2.2,34.5,52.6,59.36,112.58,55.54,40.25-2.57,74.59-17.4,92.15-37.31,8.61-9.75,13.18-20.73,12.46-32.07-1.01-15.84-12.19-29.65-29.79-39.59-20.72-11.7-50.36-18.02-82.79-15.95-59.98,3.82-106.81,34.89-104.61,69.38Z"/>
        <polygon class="cls-31" points="1514.56 975.35 1429.51 933.01 1442.51 1017.06 1514.56 975.35"/>
      </g>
      <polygon class="cls-19" points="1278.18 1071.42 1054.88 922.18 981.17 872.92 1325.26 711.08 1278.18 1071.42"/>
      <polygon class="cls-24" points="1028.39 901.51 1270.69 771.87 1238.19 1042.5 1028.39 901.51"/>
      <g>
        <polygon class="cls-16" points="1150.93 716.61 1337.95 854.68 1343.55 644.54 1150.93 716.61"/>
        <polygon class="cls-21" points="1308.1 832.62 1339.22 820 1337.95 854.68 1308.1 832.62"/>
        <ellipse class="cls-21" cx="1243.78" cy="738.16" rx="7.11" ry="16.15" transform="translate(-199.76 648.42) rotate(-27.13)"/>
        <ellipse class="cls-21" cx="1295.22" cy="717.64" rx="7.11" ry="16.15" transform="translate(-184.74 669.62) rotate(-27.13)"/>
      </g>
      <ellipse class="cls-19" cx="1003.87" cy="861.15" rx="20.96" ry="40.94" transform="translate(-158.58 1492.06) rotate(-69.11)"/>
      <ellipse class="cls-19" cx="1281.19" cy="1047.51" rx="20.96" ry="40.94" transform="translate(-312.37 1493.93) rotate(-54.92)"/>
      <polygon class="cls-16" points="1285.41 670.49 1295.97 593.59 1341.11 647.01 1285.41 670.49"/>
      <polygon class="cls-16" points="1205.62 698.69 1160.83 653.35 1153.93 715.75 1205.62 698.69"/>
      <polygon class="cls-24" points="1164.34 707.93 1189.26 699.65 1165.33 668.28 1164.34 707.93"/>
      <polyline class="cls-24" points="1299.82 611.42 1298.82 651.07 1323.74 642.79"/>
      <polygon class="cls-24" points="1442.51 937.5 1421.11 952.01 1443.55 957.96 1425.4 971.84 1450.96 984.18 1436.21 998.34 1459.14 1007.44 1514.56 975.35 1442.51 937.5"/>
    </g>
    <g>
      <ellipse class="cls-17" cx="816.91" cy="875.7" rx="35.22" ry="35.31" transform="translate(-336.75 554.36) rotate(-31.42)"/>
      <line class="cls-22" x1="637.06" y1="1075.14" x2="861.71" y2="927.09"/>
      <line class="cls-22" x1="622.65" y1="759.36" x2="861.71" y2="927.09"/>
      <ellipse class="cls-24" cx="590.43" cy="760.37" rx="83.61" ry="83.84" transform="translate(-309.84 419.36) rotate(-31.42)"/>
      <path class="cls-24" d="m529.63,702.65s-56.79-121.81-96.5-83.35c-39.71,38.45,76.24,120.14,76.24,120.14l20.26-36.79Z"/>
      <path class="cls-24" d="m571.77,683.71s-82.47-106.12-30.13-123.91c52.34-17.79,72.11,122.66,72.11,122.66l-41.98,1.24Z"/>
      <path class="cls-24" d="m559.55,836.52s36.43,235.34,57.59,230.99c21.16-4.35,229.1-124.58,226.81-138.58-2.29-14-150.9-192.93-179.7-179.86-28.8,13.07-104.69,87.45-104.69,87.45Z"/>
      <ellipse class="cls-24" cx="835.86" cy="923.12" rx="40.97" ry="21.03" transform="translate(-358.69 571.19) rotate(-31.42)"/>
      <ellipse class="cls-24" cx="622.88" cy="1053.25" rx="40.97" ry="21.03" transform="translate(-457.77 479.24) rotate(-31.42)"/>
      <ellipse class="cls-17" cx="475.34" cy="671.63" rx="18.88" ry="52.9" transform="translate(-314.77 441.94) rotate(-38.5)"/>
      <ellipse class="cls-17" cx="566.69" cy="620.6" rx="18.88" ry="52.89" transform="translate(-168.82 214.01) rotate(-18.67)"/>
      <ellipse class="cls-21" cx="606.16" cy="730.05" rx="7.11" ry="16.2" transform="translate(-291.72 423.11) rotate(-31.42)"/>
      <ellipse class="cls-21" cx="560.93" cy="757.69" rx="7.11" ry="16.2" transform="translate(-312.77 403.59) rotate(-31.42)"/>
      <g>
        <ellipse class="cls-21" cx="601.65" cy="773.97" rx="15.01" ry="5.71" transform="translate(-315.28 427.21) rotate(-31.42)"/>
        <ellipse class="cls-21" cx="604.63" cy="778.85" rx="5.63" ry="7.09" transform="translate(-317.39 429.47) rotate(-31.42)"/>
      </g>
      <line class="cls-10" x1="586.83" y1="705.56" x2="615.37" y2="710.67"/>
      <line class="cls-10" x1="544.78" y1="731.25" x2="536.3" y2="758.98"/>
      <line class="cls-10" x1="1228.73" y1="704.22" x2="1220.25" y2="731.95"/>
      <path class="cls-17" d="m601.41,876.69s44.11,76.84,61.22,67.68c17.11-9.16-26.19-84.68-26.19-84.68"/>
      <path class="cls-17" d="m686.6,824.63s48.25,74.32,32.29,85.36c-15.96,11.04-63.4-61.95-63.4-61.95"/>
    </g>
    <ellipse class="cls-9" cx="840.5" cy="442" rx="10" ry="7.5"/>
    <circle class="cls-24" cx="752" cy="412" r="4.5"/>
    <circle class="cls-24" cx="841.07" cy="442.53" r="4.5"/>
    <circle class="cls-24" cx="841.07" cy="442.53" r="4.5"/>
    <circle class="cls-24" cx="841.07" cy="442.53" r="4.5"/>
    <circle class="cls-24" cx="841.07" cy="442.53" r="4.5"/>
    <circle class="cls-24" cx="758.5" cy="411.5" r="4.5"/>
    <circle class="cls-24" cx="762.5" cy="416.5" r="4.5"/>
    <circle class="cls-24" cx="841.07" cy="442.53" r="4.5"/>
    <text class="cls-33" transform="translate(328.76 131.52)"><tspan x="0" y="0" xml:space="preserve">The Guardian Of  The Wild</tspan></text>
    <polygon class="cls-24" points="987 765 987 818 1048.99 791.5 987 765"/>
    <line class="cls-10" x1="1279.72" y1="691.53" x2="1308.26" y2="696.64"/>
    <g>
      <path class="cls-22" d="m1248.57,429.1c-18.36-17.32-28.43-23.98-39.94,0-11.51,23.98-4.32,36.57,0,42.61,4.32,6.04,22.13,10.29,22.13,10.29,0,0,9.83-8.15,10.87-11.06s6.93-41.84,6.93-41.84Z"/>
      <path class="cls-22" d="m1249.28,423.86s-18.12-17.16-26.27-11.06c-8.15,6.1-24.9,26.6-20.6,41.29s21.15,30.78,28.75,25.68,9.17,1.62,12.74-16.57,5.38-39.35,5.38-39.35Z"/>
      <path class="cls-32" d="m1180.27,269.57l19.01,17.07-8.27,39.78-5.33-3.27s12.41-25.43,8.09-31.47c-4.32-6.04.11-16.08-9.59-8.56s-8.8,4.56-8.8,4.56l4.89-18.11Z"/>
      <path class="cls-22" d="m1200.48,196.25s-21.58-12.59-30.33-10.7,29.37,13.22,30.33,10.7Z"/>
      <path class="cls-32" d="m1132.2,361.72s-12.95,1.26-6.23-6.55c6.71-7.81-3.84-18.38-3.84-18.38,0,0-.72-2.27,5.03-5.79s38.84-125.14,38.84-125.14v-5.79s-5.62-3.63,2.88-8.79,1.21-5.44,1.21-5.44l31.63,10.7-15.82,64.21s-12.25,26.08-14.37,43.19c-.97,7.78.16,13.71,5.48,14.5,17.02,2.52,15.12,16.09,15.12,16.09l39.8,29.96-19.66,40.54-46.27-38.02s-19.66,3.27-17.98,14.35-.96,1.26-.96,1.26l-3.12,1.01s-5.03-22.91-11.75-21.91Z"/>
      <path class="cls-32" d="m1184.66,308.3c5.51,5.04-13.12-4.36-13.12-4.36l-.28,5.84,13.4-1.48Z"/>
    </g>
  </g>
  <g id="Layer_2" data-name="Layer 2">
    <path class="cls-27" d="m976.27,173.74s-21.27-13.74-44.27,11.26-24,66-24,66c0,0,4,20-7,28s-32,30-39,33-4,61-11,68-36,15-39,28-1,34-6,53-21.78,64-61.39,75,3.39,88-8.61,92l11-17-10,49,21-29-14,33s2,24,8,26-1-19-1-19c0,0,17-15,17-21s14-24,14-24c0,0-13,109,32,121l-16-30,3-31s56.71,30,53.35,61,10.65,20,10.65,20l-8-16,3.04-16.22,2.96-15.78s1-28,9-43,4-23,4-23c0,0-8,64,0,83s17,19,17,19l-5-54s19,20,17,31-5,29-10,31,24,2,39-17l-21,27s34-24,36-32,32.27,26.62,32.27,26.62c0,0-17.27-58.62-.27-15.62s10-18,10-18c0,0,1,16,11,26s-5-20-5-20l8.44-16.4s19.56,35.4,27.56,36.4-8-20-8-20l13-24s17,46,33,38c0,0-11-1-16-28s16,9.52,16,9.52l9-8.52,12,25,14,17s17,11,27,13c0,0-18-3-24-29s13-15,13-15c0,0,45,25,64,3,0,0-20,8-30-8s16-11,16-11c0,0,22,4,28-3s-22,0-22,0l22.84-63.27,4.16,32.27,12-43s-2,15-2,23,27-38.11,2-64.55,15,33.55,15,33.55c0,0,7-75.17,0-88.59s-31-48.41-31-48.41c0,0,0,19,30,17,0,0-30.52-19.03-44.76-41.01s-50.24-16.99-52.24-29.99,20-29,1-45-36-44-30-62-6-38-23-49-32-52-39-87-61.73-33.03-61.73-33.03l-5,3.77Z"/>
    <path class="cls-15" d="m939,340c-37,55-48.8,89.31-37.9,135.65s26.9,115.35,1.9,159.35,35,64,10,98l-25,34"/>
    <path class="cls-15" d="m927.93,279.14c-44.47,49.16-61.03,81.44-56.86,128.86,4.18,47.43,10.17,118-20.84,157.99-31.02,39.99,25.52,68.34-4.08,98.42l-29.59,30.09"/>
    <path class="cls-15" d="m1009.06,311.55c44.82,48.84,61.62,80.99,57.79,128.45s-9.32,118.07,21.99,157.83c31.31,39.76-25.02,68.52,4.79,98.39l29.81,29.87"/>
    <g id="Layer_3" data-name="Layer 3">
      <path class="cls-26" d="m987.79,348.14c1.27,14.7,10.48,38.15,51.18,57.05,2.69,1.25,4.99,3.23,6.59,5.73,11.27,17.5,55.7,89.25,50.45,125.08-5.25,35.85,156.48,421.92,197.18,518.3,4.35,10.3-3.22,21.7-14.4,21.7h-662.23c-12.08,0-19.6-13.13-13.48-23.54l275.42-468.85c3.12-5.31,2.83-11.95-.74-16.97l-21.58-30.34c-2.88-4.04-3.66-9.21-2.12-13.92,8.53-25.98,37.09-110.91,48.93-119.37,14-10,32.63,7.89,42.82-21.06,5.41-15.37,9.07-27.94,11.32-36.34.88-3.28,2.76-6.08,5.25-8.11,2.71-2.2,6.16-3.49,9.85-3.49h0c8.06,0,14.86,6.11,15.55,14.14Z"/>
      <circle class="cls-6" cx="973" cy="280" r="57.5"/>
      <path class="cls-6" d="m960,337.5s-10.82,54.22-22.66,58.11,81.02-2.05,81.02-2.05c0,0-28.74-19.06-32.8-56.06s-25.56,0-25.56,0Z"/>
      <path class="cls-18" d="m976.2,201.44s-43.72,106.73-71.58,131.33c-27.86,24.6-40.56,30.24-44.4,55.97s8.47-40.32,8.47-40.32c0,0,36.62-117.45,107.51-146.98Z"/>
      <path class="cls-25" d="m975.43,198.14s31.77,110.88,56.77,138.38,37,34.5,38,60.5c1,26-4-41-4-41,0,0-23.54-120.75-90.77-157.88Z"/>
      <path class="cls-29" d="m1070.33,453.39s48.67-19.39,65.67-35.39,31-36,36-56-13-89,10-54,23.91,67.82,23.91,67.82c0,0-7.91,38.18-13.91,46.18s-34,34-46,42-55.02,36.78-55.02,36.78l-20.65-47.38Z"/>
      <ellipse class="cls-21" cx="987.8" cy="280.08" rx="4.66" ry="10.83" transform="translate(-3.55 12.85) rotate(-.74)"/>
      <ellipse class="cls-21" cx="955.94" cy="278.68" rx="4.66" ry="10.83" transform="translate(-3.54 12.44) rotate(-.74)"/>
      <line class="cls-14" x1="960" y1="273" x2="992" y2="274"/>
      <path class="cls-8" d="m937.96,268h26.04s.36,17.87-7.81,23.19c-8.17,5.32-19.78-.73-18.23-23.19Z"/>
      <path class="cls-8" d="m977.09,268.5h26.04s.36,17.87-7.81,23.19c-8.17,5.32-19.78-.73-18.23-23.19Z"/>
      <g>
        <path class="cls-28" d="m56.37,512.28s-117.36,22.18-138.87,43.55c0,0-108.32,64.53-127.57,90.4-19.25,25.88-71.37,92.93-71.37,92.93,0,0,217.87-52.41,223.54-49.51,5.67,2.91,14.27,34.07,4.16,66.09-10.11,32.02-63.13,145.81-63.13,145.81,0,0,103.58-49,124.55-66.89s117.94-140.2,117.94-140.2l35.05-97.88-86.88-70.24-17.41-14.08Z"/>
        <path class="cls-16" d="m135.08,370.73S95.03,230.46-29.42,186.75c0,0,35.64,170.57,134.74,224.85"/>
        <ellipse class="cls-29" cx="142.97" cy="506.76" rx="75.74" ry="106.12" transform="translate(-328.49 272.31) rotate(-47.8)"/>
        <polygon class="cls-24" points="-33.88 182.58 -15.55 244.55 -11.56 220.98 11.27 238.33 -.69 213.59 28.44 231.24 22.43 212.05 -33.88 182.58"/>
        <path class="cls-16" d="m236.21,528s72.35-37.4,57.91-64.45c-14.43-27.05-85.07-104.21-101.35-105.87-16.28-1.66-96.03,11.12-86.82,58.61,9.21,47.5,130.26,111.7,130.26,111.7Z"/>
        <path class="cls-29" d="m31.36,517.44s-205.72-36.28-256.88,22.77c-51.16,59.05-2.07,2.05-2.07,2.05l145.09,13.56,113.86-38.39Z"/>
        <path class="cls-29" d="m145.28,639.56l-19.67,54.92-10.56,13.24,224.47-8.74s-166.77-64.76-194.25-59.42Z"/>
        <path class="cls-28" d="m65.95,538.64l-16.79,17.46c-1.84,1.91-5.38,1.02-6.69-1.69l-15.12-31.29c-.99-2.05-3.4-3.18-5.37-2.51l-104.06,35.08c-.27.09-.53.22-.77.37l-109.3,71.7c-.27.18-.51.39-.71.64l-41.9,51.06c-1.02,1.25-.98,3.13.11,4.64l25.3,35.04c1.08,1.49,2.92,2.26,4.56,1.91l142.31-30.41c2.42-.52,5.05,1.39,5.37,3.91,1.98,15.4,4.87,66.13-28.19,137.72-.69,1.49-.22,3.39,1.15,4.68l31.41,29.35c1.43,1.34,3.48,1.67,4.95.81l55.06-32.21c.27-.16.5-.34.71-.56,6.32-6.71,107.8-114.77,107.08-126.63-.64-10.51,22.06-53.15,28.52-65.06.94-1.74.19-4.1-1.72-5.36l-26.21-17.37c-2.07-1.37-2.75-4.01-1.48-5.73l16.71-22.64c1.11-1.5.74-3.75-.84-5.22l-11.96-11.18c-1.89-1.77-4.71-1.7-5.97.13l-13.01,18.94c-1.2,1.75-3.84,1.9-5.74.33l-21.32-17.61c-1.56-1.29-2.13-3.35-1.37-4.93l9.12-18.78c.57-1.17.41-2.64-.41-3.87-1.88-2.81-5.36-7.86-7.55-10.21h0c-1.69-1.81-4.4-2.05-5.88-.51Z"/>
        <ellipse class="cls-21" cx="174.43" cy="532.74" rx="20.52" ry="10.51" transform="translate(-329.17 286.51) rotate(-45.82)"/>
        <ellipse class="cls-21" cx="124.61" cy="486.18" rx="20.52" ry="10.51" transform="translate(-310.88 236.68) rotate(-45.82)"/>
        <line class="cls-3" x1="207.34" y1="513.68" x2="167.07" y2="505.42"/>
        <line class="cls-3" x1="144.83" y1="455.26" x2="155.34" y2="494.46"/>
        <polygon class="cls-17" points="50.04 488.15 72.94 490.33 80.63 516.74 106.74 535.88 125.94 567.98 151.51 571.73 190.7 595.59 152.75 649.64 140.46 619.39 100.52 648.69 92.35 608.16 51.37 625.7 69.37 574.72 32.9 581.52 53.21 545.24 -1.04 541.25 29.98 509.01 -1.99 493.66 50.04 488.15"/>
        <path class="cls-17" d="m50.04,488.15s-3.13-5.37-.3-18.78c2.83-13.41,33.56,49.86,33.56,49.86"/>
        <path class="cls-17" d="m238.41,702.91s-44.41,56.4-39.29,60.85,65.36,29.03,67.09,27.23,8.47-87.85,8.47-87.85l-36.27-.23Z"/>
        <polygon class="cls-21" points="256.27 668.49 272.68 611.52 258.12 600.57 266.05 580.92 278.67 586.55 319.02 450.28 322.6 438.2 334.36 454.5 300.52 615.43 298.62 624.46 289.53 680.29 256.27 668.49"/>
        <path class="cls-4" d="m300.52,615.43s23.54,24.16,21.17,37.23c-2.38,13.06-29.09,8.79-29.21,9.57"/>
        <path class="cls-4" d="m295.99,640.6s7.36,8.22,14.7,3.11"/>
        <path class="cls-4" d="m322.6,438.2s14.28,4.28,11.76,16.3"/>
        <path class="cls-21" d="m60.39,653.73l32.47,30.34s-23.41,31.96-37.34,16.28c0,0-25.54-12.57,4.87-46.62Z"/>
      </g>
      <g>
        <ellipse class="cls-30" cx="1803.85" cy="521.6" rx="78.4" ry="75.85" transform="translate(596.82 1960.01) rotate(-66.13)"/>
        <ellipse class="cls-23" cx="1859.51" cy="588.14" rx="74.1" ry="76.82" transform="translate(-84.61 743.36) rotate(-22.12)"/>
        <ellipse class="cls-17" cx="1865.19" cy="814.55" rx="41.15" ry="42.15"/>
        <line class="cls-22" x1="2146" y1="671.37" x2="1908.76" y2="882.59"/>
        <ellipse class="cls-24" cx="1807.14" cy="516.88" rx="97.68" ry="100.06"/>
        <line class="cls-22" x1="1795.83" y1="553.64" x2="1908.76" y2="882.59"/>
        <path class="cls-24" d="m1761.5,428.39s-118.9-104.39-63.16-137.8c55.73-33.4,110.89,126.25,110.89,126.25l-47.72,11.55Z"/>
        <path class="cls-24" d="m1726.92,470.84s-93.17-128.93-129.67-74.37c-36.51,54.56,115.02,122.31,115.02,122.31l14.65-47.94Z"/>
        <path class="cls-24" d="m1902.43,505.71s252.86,117.31,241.29,140.28c-11.57,22.97-212.29,223.86-227.28,216.74-15-7.12-169.08-235.52-145.3-264.49s131.29-92.52,131.29-92.52Z"/>
        <ellipse class="cls-24" cx="1912.47" cy="851.55" rx="48.41" ry="24.82" transform="translate(-53.17 1571.94) rotate(-44.13)"/>
        <ellipse class="cls-17" cx="1743.8" cy="355.95" rx="22.24" ry="62.63" transform="translate(111.34 1064.91) rotate(-35.01)"/>
        <ellipse class="cls-17" cx="1657.63" cy="444.78" rx="22.42" ry="62.12" transform="translate(340.96 1545.66) rotate(-54.92)"/>
        <ellipse class="cls-21" cx="1771.92" cy="516.96" rx="8.4" ry="19.13" transform="translate(108.35 1316.64) rotate(-41.94)"/>
        <ellipse class="cls-29" cx="1795.35" cy="510.99" rx="77.56" ry="63.89" transform="translate(189.63 1462.87) rotate(-46.55)"/>
        <ellipse class="cls-21" cx="1771.26" cy="528.74" rx="8.4" ry="19.13" transform="translate(100.32 1319.22) rotate(-41.94)"/>
        <ellipse class="cls-21" cx="1816.17" cy="485.91" rx="8.4" ry="19.13" transform="translate(140.44 1338.27) rotate(-41.94)"/>
        <line class="cls-3" x1="1738.3" y1="508.78" x2="1771.86" y2="504.4"/>
        <line class="cls-3" x1="1795.12" y1="454.59" x2="1788.47" y2="488.57"/>
        <path class="cls-10" d="m1808.01,522.51s10.55-2.15,12.07,2.66-10.58,13.43-10.58,13.43c0,0-5.98,2.37-7.1-7.81"/>
        <polygon class="cls-21" points="1897.8 663.62 1846.3 677.69 1838.66 665.18 1820.6 671.98 1823.88 682.82 1700.55 717.42 1689.61 720.49 1702.26 730.59 1846.16 701.6 1854.23 699.98 1903.81 692.2 1897.8 663.62"/>
        <path class="cls-29" d="m1903.52,613.02l22.92-39.67s65.2,83.05,67.43,87.77l-88.69-46.27-1.67-1.83Z"/>
        <path class="cls-17" d="m1903.7,661.27s51.99-41.73,55.48-37.55c3.49,4.18,20.46,54.89,18.78,56.49-1.68,1.6-76.64,12.44-76.64,12.44l2.39-31.39Z"/>
        <path class="cls-29" d="m1889.48,624.02l-41.36,21.65s76.3,72.24,80.77,74.81l-37.75-94.64-1.67-1.83Z"/>
        <path class="cls-4" d="m1870.24,709.62c-1.12,4.82-5.91-11.05-5.91-11.05"/>
        <path class="cls-4" d="m1886.07,694.98s-15.68,41.82-35.84,5.8"/>
      </g>
      <path class="cls-29" d="m855.02,524.94l-77.44,158.17s-23.94,36.4-1.5,27.64,108.92-137.81,108.92-137.81v-4.51l-29.98-43.5Z"/>
      <path class="cls-27" d="m894.01,417.43s12.19,40.58,34.91,22c22.71-18.58,30.76-17.6,23.65-26.4s-2.99,44.05,13.47,44.03c16.47-.02,34.05-15.67,26.8-35.23-7.25-19.56,8.97,46.01,33.79,35.23,24.82-10.78,23.34-45.08,23.34-45.08l-27.99-16.97-83.39,2s-15.19,5.3-36.59,3.82l-8,16.61Z"/>
      <polygon class="cls-27" points="960 311.55 983.14 311.55 972.01 303.18 960 311.55"/>
      <polyline class="cls-27" points="985.71 311.55 971.57 321.06 960 311.55"/>
      <g>
        <ellipse class="cls-24" cx="1190.85" cy="570.73" rx="4.5" ry="4.43"/>
        <ellipse class="cls-24" cx="1196.85" cy="571.72" rx="4.5" ry="4.43"/>
        <ellipse class="cls-24" cx="1199.85" cy="575.66" rx="4.5" ry="4.43"/>
        <g>
          <ellipse class="cls-24" cx="1196.85" cy="581.57" rx="4.5" ry="4.43"/>
          <ellipse class="cls-24" cx="1189.06" cy="578.41" rx="4.56" ry="4.68" transform="translate(470.01 1688.09) rotate(-83)"/>
          <ellipse class="cls-2" cx="1193.6" cy="575.9" rx="4.25" ry="4.68"/>
        </g>
      </g>
    </g>
    <g>
      <circle class="cls-24" cx="830.5" cy="434.5" r="4.5"/>
      <circle class="cls-24" cx="836.5" cy="435.5" r="4.5"/>
      <circle class="cls-24" cx="839.5" cy="439.5" r="4.5"/>
      <g>
        <circle class="cls-24" cx="836.5" cy="445.5" r="4.5"/>
        <ellipse class="cls-24" cx="828.71" cy="442.29" rx="4.63" ry="4.69" transform="translate(182.08 1123.65) rotate(-74.59)"/>
        <ellipse class="cls-2" cx="833.25" cy="439.75" rx="4.25" ry="4.75"/>
      </g>
    </g>
    <g>
      <circle class="cls-24" cx="773.06" cy="555.39" r="4.5"/>
      <circle class="cls-24" cx="779.06" cy="556.39" r="4.5"/>
      <circle class="cls-24" cx="782.06" cy="560.39" r="4.5"/>
      <g>
        <circle class="cls-24" cx="779.06" cy="566.39" r="4.5"/>
        <ellipse class="cls-24" cx="771.27" cy="563.18" rx="4.63" ry="4.69" transform="translate(23.36 1157.04) rotate(-74.59)"/>
        <ellipse class="cls-2" cx="775.81" cy="560.64" rx="4.25" ry="4.75"/>
      </g>
    </g>
    <g>
      <circle class="cls-24" cx="1060.06" cy="295.39" r="4.5"/>
      <circle class="cls-24" cx="1066.06" cy="296.39" r="4.5"/>
      <circle class="cls-24" cx="1069.06" cy="300.39" r="4.5"/>
      <g>
        <circle class="cls-24" cx="1066.06" cy="306.39" r="4.5"/>
        <ellipse class="cls-24" cx="1058.27" cy="303.18" rx="4.63" ry="4.69" transform="translate(484.74 1242.82) rotate(-74.59)"/>
        <ellipse class="cls-2" cx="1062.81" cy="300.64" rx="4.25" ry="4.75"/>
      </g>
    </g>
    <g>
      <circle class="cls-24" cx="1134.13" cy="514.44" r="4.5"/>
      <circle class="cls-24" cx="1140.13" cy="515.44" r="4.5"/>
      <circle class="cls-24" cx="1143.13" cy="519.44" r="4.5"/>
      <g>
        <circle class="cls-24" cx="1140.13" cy="525.44" r="4.5"/>
        <ellipse class="cls-24" cx="1132.34" cy="522.23" rx="4.63" ry="4.69" transform="translate(327.95 1475.05) rotate(-74.59)"/>
        <ellipse class="cls-2" cx="1136.88" cy="519.69" rx="4.25" ry="4.75"/>
      </g>
    </g>
    <g>
      <circle class="cls-24" cx="1154.13" cy="653.44" r="4.5"/>
      <circle class="cls-24" cx="1160.13" cy="654.44" r="4.5"/>
      <circle class="cls-24" cx="1163.13" cy="658.44" r="4.5"/>
      <g>
        <circle class="cls-24" cx="1160.13" cy="664.44" r="4.5"/>
        <ellipse class="cls-24" cx="1152.34" cy="661.23" rx="4.63" ry="4.69" transform="translate(208.64 1596.39) rotate(-74.59)"/>
        <ellipse class="cls-2" cx="1156.88" cy="658.69" rx="4.25" ry="4.75"/>
      </g>
    </g>
    <g>
      <rect class="cls-13" x="825" y="705" width="296" height="125" rx="62.5" ry="62.5"/>
      <polygon class="cls-24" points="944 735 944 799 1012 767 944 735"/>
    </g>
    <path class="cls-7" d="m790.65,733.51c-1.66-.09-3.3-.21-4.94-.34"/>
    <line class="cls-1" x1="643.25" y1="540" x2="655.49" y2="563.18"/>
    <g>
      <path class="cls-5" d="m1036.02,373.27s14.85-38.27-11.13-58.27c-25.98-20,11.13,58.27,11.13,58.27Z"/>
      <path class="cls-11" d="m1015.66,311.73s22.84,36.77,20.84,63.77"/>
      <path class="cls-12" d="m1036.62,326.43c-3.88-7.07-13.74-3.24-13.74-3.24,0,0-5.65,6.31-4.52,10.81"/>
      <path class="cls-12" d="m1029.5,340s6.5-2.27,10.75,3.62"/>
      <polyline class="cls-12" points="1040.25 358.99 1034.87 353.08 1027.95 360.72"/>
      <path class="cls-12" d="m1028.58,341.59s-4.32,2.28-5.7,6.59"/>
    </g>
    <g>
      <path class="cls-5" d="m909.64,369.21s-14.85-38.27,11.13-58.27c25.98-20-11.13,58.27-11.13,58.27Z"/>
      <path class="cls-11" d="m930.01,307.67s-22.84,36.77-20.84,63.77"/>
      <path class="cls-12" d="m909.04,322.37c3.88-7.07,13.74-3.24,13.74-3.24,0,0,5.65,6.31,4.52,10.81"/>
      <path class="cls-12" d="m916.17,335.94s-6.5-2.27-10.75,3.62"/>
      <polyline class="cls-12" points="905.42 354.94 910.79 349.02 917.71 356.66"/>
      <path class="cls-12" d="m917.09,337.54s4.32,2.28,5.7,6.59"/>
    </g>
  </g>
</svg>