<?xml version="1.0" encoding="UTF-8"?>
<svg xmlns="http://www.w3.org/2000/svg" viewBox="0 0 2191.43 1098.06">
  <defs>
    <style>
      .cls-1 {
        fill: #9b6a3d;
      }

      .cls-1, .cls-2, .cls-3, .cls-4, .cls-5, .cls-6, .cls-7, .cls-8, .cls-9, .cls-10, .cls-11, .cls-12, .cls-13, .cls-14, .cls-15, .cls-16, .cls-17, .cls-18, .cls-19, .cls-20, .cls-21, .cls-22, .cls-23, .cls-24, .cls-25 {
        stroke-width: 0px;
      }

      .cls-26 {
        fill: #efea48;
      }

      .cls-26, .cls-27, .cls-28, .cls-29, .cls-30, .cls-31, .cls-32, .cls-33, .cls-34, .cls-35, .cls-36, .cls-37, .cls-38, .cls-39 {
        stroke-miterlimit: 10;
      }

      .cls-26, .cls-37 {
        stroke: #fff;
      }

      .cls-2 {
        fill: #4daa73;
      }

      .cls-27 {
        stroke-width: 4px;
      }

      .cls-27, .cls-28, .cls-31, .cls-8, .cls-34, .cls-35, .cls-36, .cls-38, .cls-39 {
        fill: none;
      }

      .cls-27, .cls-28, .cls-34 {
        stroke: #000;
      }

      .cls-3 {
        fill: #2b872b;
      }

      .cls-4 {
        fill: #e8731a;
      }

      .cls-29 {
        stroke: #f47a16;
      }

      .cls-29, .cls-32, .cls-33, .cls-35 {
        stroke-width: 3px;
      }

      .cls-29, .cls-24 {
        fill: #f47a16;
      }

      .cls-5 {
        fill: #86a5a5;
      }

      .cls-30 {
        stroke: #e5cfb5;
      }

      .cls-30, .cls-21 {
        fill: #e5cfb5;
      }

      .cls-31 {
        stroke-width: 8px;
      }

      .cls-31, .cls-35, .cls-36 {
        stroke: #9b6a3d;
      }

      .cls-7 {
        fill: red;
      }

      .cls-32 {
        fill: #4c4c4c;
        stroke: #353535;
      }

      .cls-9 {
        fill: #f4d7a4;
      }

      .cls-33 {
        stroke: #3e8945;
      }

      .cls-33, .cls-10 {
        fill: #fff;
      }

      .cls-34, .cls-38, .cls-39 {
        stroke-width: 2px;
      }

      .cls-11 {
        fill: #397a3c;
      }

      .cls-37 {
        stroke-width: 10px;
      }

      .cls-37, .cls-12 {
        fill: #f4bf16;
      }

      .cls-13 {
        fill: #47a052;
      }

      .cls-38 {
        stroke: #4c4c4c;
      }

      .cls-14 {
        fill: #66c67a;
      }

      .cls-15 {
        fill: #3e8945;
      }

      .cls-16 {
        fill: #231f20;
      }

      .cls-17 {
        fill: #76cdd9;
      }

      .cls-18 {
        fill: #5da03f;
      }

      .cls-19 {
        fill: #87afad;
      }

      .cls-20 {
        fill: #b514b5;
      }

      .cls-22 {
        fill: #d6c8d5;
      }

      .cls-23 {
        fill: #d8661a;
      }

      .cls-25 {
        fill: #5b5855;
      }

      .cls-39 {
        stroke: #316634;
      }
    </style>
  </defs>
  <g id="Layer_5" data-name="Layer 5">
    <rect class="cls-19" x="44.13" width="1921" height="1080"/>
    <ellipse class="cls-33" cx="884.63" cy="443" rx="10" ry="7.5"/>
    <circle class="cls-10" cx="796.13" cy="413" r="4.5"/>
    <circle class="cls-10" cx="885.21" cy="443.53" r="4.5"/>
    <circle class="cls-10" cx="885.21" cy="443.53" r="4.5"/>
    <circle class="cls-10" cx="885.21" cy="443.53" r="4.5"/>
    <circle class="cls-10" cx="885.21" cy="443.53" r="4.5"/>
    <circle class="cls-10" cx="802.63" cy="412.5" r="4.5"/>
    <circle class="cls-10" cx="806.63" cy="417.5" r="4.5"/>
    <circle class="cls-10" cx="885.21" cy="443.53" r="4.5"/>
    <polygon class="cls-10" points="1031.13 766 1031.13 819 1093.13 792.5 1031.13 766"/>
    <line class="cls-34" x1="1323.86" y1="692.53" x2="1352.4" y2="697.64"/>
    <g>
      <path class="cls-8" d="m1292.7,430.1c-18.36-17.32-28.43-23.98-39.94,0-11.51,23.98-4.32,36.57,0,42.61,4.32,6.04,22.13,10.29,22.13,10.29,0,0,9.83-8.15,10.87-11.06,1.04-2.92,6.93-41.84,6.93-41.84Z"/>
      <path class="cls-8" d="m1293.42,424.86s-18.12-17.16-26.27-11.06-24.9,26.6-20.6,41.29c4.3,14.7,21.15,30.78,28.75,25.68s9.17,1.62,12.74-16.57c3.57-18.18,5.38-39.35,5.38-39.35Z"/>
      <path class="cls-25" d="m1224.4,270.57l19.01,17.07-8.27,39.78-5.33-3.27s12.41-25.43,8.09-31.47c-4.32-6.04.11-16.08-9.59-8.56-9.7,7.52-8.8,4.56-8.8,4.56l4.89-18.11Z"/>
      <path class="cls-8" d="m1244.61,197.25s-21.58-12.59-30.33-10.7c-8.75,1.89,29.37,13.22,30.33,10.7Z"/>
      <path class="cls-25" d="m1176.33,362.72s-12.95,1.26-6.23-6.55c6.71-7.81-3.84-18.38-3.84-18.38,0,0-.72-2.27,5.03-5.79s38.84-125.14,38.84-125.14v-5.79s-5.62-3.63,2.88-8.79,1.21-5.44,1.21-5.44l31.63,10.7-15.82,64.21s-12.25,26.08-14.37,43.19c-.97,7.78.16,13.71,5.48,14.5,17.02,2.52,15.12,16.09,15.12,16.09l39.8,29.96-19.66,40.54-46.27-38.02s-19.66,3.27-17.98,14.35c1.68,11.08-.96,1.26-.96,1.26l-3.12,1.01s-5.03-22.91-11.75-21.91Z"/>
      <path class="cls-25" d="m1228.79,309.3c5.51,5.04-13.12-4.36-13.12-4.36l-.28,5.84,13.4-1.48Z"/>
    </g>
    <g>
      <path class="cls-1" d="m1503.39,588h34.46l-4.72-126.98s24.6-5.28,32.58-22.38c.62-1.34,1.15-2.74,1.55-4.23,0,0,40.58,2.05,39.66-19.44l-8.3-5.12s-9.22,25.58-22.14,14.33l-1.84-25.58h-8.3s-1.84,57.3-30.44,47.07v-67.54h-32.28v55.26s-22.14,6.14-32.28-30.7l-7.38,2.05s9.22,42.98,40.58,41.95l-1.15,141.31Z"/>
      <ellipse class="cls-18" cx="1429.37" cy="333.19" rx="86.24" ry="99.72"/>
      <ellipse class="cls-13" cx="1582.94" cy="242.68" rx="79.32" ry="79.82"/>
      <ellipse class="cls-18" cx="1623.06" cy="315.33" rx="94.07" ry="104.36"/>
      <ellipse class="cls-15" cx="1476.87" cy="273.25" rx="112.52" ry="121.25"/>
    </g>
    <rect class="cls-15" x="42.13" y="668" width="1924" height="430.06"/>
    <path class="cls-2" d="m40.24,696.58s100.94-113.24,329.66-91.79c228.72,21.46,444.1-27.42,444.1-27.42,0,0,251.39-108.47,363.41-91.79s737.49,159.73,816.84,207.41l-1954.01,3.58Z"/>
    <g>
      <path class="cls-1" d="m397.03,897.52h56.38l-7.72-213.61s40.25-8.89,53.31-37.64c1.02-2.25,1.87-4.62,2.53-7.11,0,0,66.4,3.44,64.89-32.71l-13.58-8.61s-15.09,43.03-36.22,24.1l-3.02-43.03h-13.58s-3.02,96.4-49.8,79.18v-113.61h-52.82v92.95s-36.22,10.33-52.82-51.64l-12.07,3.44s15.09,72.3,66.4,70.58l-1.88,237.71Z"/>
      <ellipse class="cls-18" cx="275.92" cy="468.88" rx="141.1" ry="167.75"/>
      <ellipse class="cls-13" cx="527.18" cy="316.62" rx="129.78" ry="134.26"/>
      <ellipse class="cls-18" cx="592.83" cy="438.83" rx="153.92" ry="175.56"/>
      <ellipse class="cls-15" cx="353.64" cy="368.06" rx="184.11" ry="203.97"/>
    </g>
  </g>
  <g id="Layer_4" data-name="Layer 4">
    <path class="cls-5" d="m45.43,731.14v60.51c.26-20.19.2-40.36,0-60.51Z"/>
    <path class="cls-5" d="m45.66,523.26c.05-.26.1-.53.16-.79.14-.93.31-1.86.52-2.78.03-.54.06-1.09.09-1.63-.3,1.73-.54,3.47-.77,5.2Z"/>
    <path class="cls-5" d="m45.43,526.09c.08-1.22.22-2.43.39-3.63-.06.26-.11.53-.16.79-.08.6-.16,1.19-.23,1.79v1.05Z"/>
    <path class="cls-5" d="m45.43,633.94v32.8c.59-10.99.43-21.9,0-32.8Z"/>
    <path class="cls-5" d="m45.43,525.05c.07-.6.15-1.19.23-1.79-.08.41-.16.82-.23,1.23v.56Z"/>
    <path class="cls-5" d="m45.43,844.36v7.44c.11-1.53.2-3.05.29-4.57-.06-.95-.16-1.91-.29-2.87Z"/>
    <path class="cls-5" d="m45.71,847.23c-.09,1.52-.18,3.04-.29,4.57v1.63c.36-2.05.42-4.12.29-6.2Z"/>
    <path class="cls-5" d="m45.67,533.19c-.08,1.8-.17,3.61-.24,5.41v.46c.31-1.88.33-3.86.24-5.87Z"/>
    <path class="cls-5" d="m45.43,542.06v32.5c.25-10.75.5-21.5,0-32.5Z"/>
    <path class="cls-5" d="m46.34,519.69c-.21.92-.38,1.85-.52,2.78.14-.63.3-1.25.47-1.88.02-.3.03-.6.05-.9Z"/>
    <path class="cls-5" d="m45.43,538.6c.07-1.8.16-3.61.24-5.41-.05-1.2-.15-2.42-.24-3.63v9.04Z"/>
    <path class="cls-5" d="m45.82,522.46c-.18,1.2-.31,2.41-.39,3.63v3.47c.09,1.21.19,2.43.24,3.63.19-4.2.39-8.4.63-12.6-.17.63-.33,1.25-.47,1.88Z"/>
    <path class="cls-5" d="m1965.43,557.06c-1,14,0,27,0,41,0,16-1,32,0,48,.5,17.5.75,35.25,1,53v-179c-2,12,0,25-1,37Z"/>
    <ellipse class="cls-33" cx="885.93" cy="453.06" rx="10" ry="7.5"/>
    <circle class="cls-10" cx="886.5" cy="453.59" r="4.5"/>
    <circle class="cls-10" cx="886.5" cy="453.59" r="4.5"/>
    <circle class="cls-10" cx="886.5" cy="453.59" r="4.5"/>
    <circle class="cls-10" cx="886.5" cy="453.59" r="4.5"/>
    <circle class="cls-10" cx="886.5" cy="453.59" r="4.5"/>
    <g>
      <path class="cls-12" d="m353.79,58.67h79v32.1h-1.7c-1.8-4.07-3.95-8.38-6.45-12.95-2.5-4.57-5.12-8.55-7.85-11.95-2.73-3.4-5.13-5.1-7.2-5.1l-4-.2v58.3l.2,4.6c.2,2.13.65,3.62,1.35,4.45.7.83,1.78,1.33,3.25,1.5,1.47.17,2.8.28,4,.35,1.2.07,2.27.13,3.2.2v1.6h-48.9v-1.6l6.6-.3c2-.2,3.37-.7,4.1-1.5.73-.8,1.2-2.3,1.4-4.5l.2-4.6v-58.5l-3.9.2c-2.13,0-4.5,1.58-7.1,4.75-2.6,3.17-5.22,7.17-7.85,12-2.63,4.83-4.85,9.25-6.65,13.25h-1.7v-32.1Z"/>
      <path class="cls-12" d="m459.38,91.57c1.26-2.67,3.01-4.73,5.26-6.2,2.25-1.47,5.46-2.2,9.64-2.2,4.62,0,8.72,1.25,12.27,3.75,3.55,2.5,5.33,5.72,5.33,9.65v22.5l.1,4.6c0,2.4.2,3.98.6,4.75.4.77,1.57,1.25,3.5,1.45l2.2.1v1.6h-30.96v-1.6l1.29-.1c1.78,0,2.88-.4,3.27-1.2.4-.8.6-2.47.6-5l.1-4.6v-20.4l-.1-4.1c0-2.8-.46-4.8-1.39-6-.93-1.2-2.32-1.8-4.17-1.8-2.25,0-3.85.73-4.81,2.2-.96,1.47-1.74,2.97-2.33,4.5v25.6l.1,4.6c0,2.6.18,4.28.55,5.05.36.77,1.47,1.15,3.32,1.15l1.29.1v1.6h-31.06v-1.6l2.3-.1c1.93-.2,3.1-.67,3.5-1.4.4-.73.6-2.33.6-4.8l.1-4.6v-49.4l-.1-4.1c0-1.8-.28-3.05-.85-3.75-.57-.7-1.78-1.15-3.65-1.35l-3.8-.2v-1.6h27.7v23.7c0,2.2-.03,4.05-.1,5.55-.07,1.5-.17,2.72-.3,3.65Z"/>
      <path class="cls-12" d="m550.48,116.57c-1.87,5-4.88,8.92-9.02,11.75-4.14,2.83-9.02,4.25-14.63,4.25-7.88,0-14.36-2.18-19.44-6.55-5.08-4.37-7.61-10.42-7.61-18.15,0-7.2,2.62-13.12,7.87-17.75,5.24-4.63,11.54-6.95,18.89-6.95s13.56,2.17,17.63,6.5c4.07,4.33,6.11,9.63,6.11,15.9h-30.7c0,2.4.18,4.85.55,7.35.36,2.5,1.06,4.92,2.09,7.25,1.02,2.33,2.48,4.22,4.37,5.65,1.89,1.43,4.25,2.15,7.1,2.15,4.09,0,7.33-1.15,9.71-3.45,2.38-2.3,4.21-5.18,5.48-8.65l1.61.7Zm-17.7-13c-.07-.73-.12-1.6-.15-2.6s-.05-2.27-.05-3.8c0-4.07-.5-7.15-1.49-9.25-.99-2.1-2.71-3.15-5.16-3.15-2.12,0-3.59,1.02-4.42,3.05-.83,2.03-1.41,5.15-1.74,9.35l-.2,6.4h13.2Z"/>
      <path class="cls-12" d="m608.98,93.67c0,10.53,1.03,19.28,3.1,26.25,2.07,6.97,5.67,10.45,10.8,10.45,2.53,0,4.46-.5,5.8-1.5,1.33-1,2.16-2.12,2.5-3.35.33-1.23.53-2.68.6-4.35.06-1.67.1-3.73.1-6.2v-3.9c0-2.87-.1-4.8-.3-5.8-.2-2.2-.65-3.7-1.35-4.5-.7-.8-1.78-1.3-3.25-1.5-1.47-.2-2.8-.32-4-.35-1.2-.03-2.3-.08-3.3-.15v-1.6h46.8v1.6l-4.6.3c-2.07.2-3.45.68-4.15,1.45-.7.77-1.15,2.28-1.35,4.55l-.2,4.7v13.1l.2,9h-1.5c-.87-1.93-2.38-3.7-4.55-5.3s-4.55-2.4-7.15-2.4c-2.34,0-5.67,1.43-10,4.3-4.34,2.87-10.07,4.3-17.2,4.3-9.87,0-18.17-3.57-24.9-10.7-6.73-7.13-10.1-16.1-10.1-26.9,0-11.33,3.7-20.43,11.1-27.3,7.4-6.87,16.83-10.3,28.3-10.3,6.27,0,12.2,1.4,17.8,4.2,5.6,2.8,8.73,4.27,9.4,4.4,1.93,0,3.23-.72,3.9-2.15.67-1.43,1.3-3.48,1.9-6.15h2v32.3h-1.7c-2-8.27-5.32-15.27-9.95-21-4.63-5.73-10.55-8.6-17.75-8.6-5.73,0-10,3.32-12.8,9.95-2.8,6.63-4.2,14.35-4.2,23.15Z"/>
      <path class="cls-12" d="m732.48,131.57h-26.3v-6.4c-1.53,2.4-3.42,4.23-5.65,5.5-2.23,1.27-5.32,1.9-9.25,1.9-4.6,0-8.67-1.37-12.2-4.1-3.6-2.67-5.4-6.37-5.4-11.1v-22.2l-.1-4.1c0-1.8-.29-3.05-.85-3.75-.57-.7-1.78-1.15-3.65-1.35l-2.8-.2v-1.6h26.7v32.7l.1,4.1c0,2.73.48,4.78,1.44,6.15.96,1.37,2.4,2.05,4.32,2.05,2.12,0,3.65-.6,4.61-1.8.96-1.2,1.74-2.43,2.33-3.7v-27l-.2-4.6c0-2.2-.36-3.7-1.09-4.5-.73-.8-2.18-1.33-4.35-1.6l-3.06-.2v-1.6h28v36.4l.1,4.1c0,1.8.28,3.05.85,3.75.57.7,1.78,1.15,3.65,1.35l2.8.2v1.6Z"/>
      <path class="cls-12" d="m785.44,126.67c1.58,0,2.68-.99,3.3-2.96.62-1.97.94-4.34.94-7.08h1.4c0,5.88-1.05,9.76-3.15,11.64-2.1,1.87-3.98,3.06-5.65,3.56-1.67.5-3.8.75-6.4.75-2.87,0-5.42-.73-7.65-2.2-2.23-1.47-3.58-3.44-4.05-5.91-1.07,2.7-2.85,4.73-5.35,6.08s-5.75,2.03-9.75,2.03c-4.27,0-7.73-1.17-10.4-3.51-2.67-2.34-4-5.58-4-9.72,0-3.34.83-6.03,2.5-8.07,1.67-2.04,3.37-3.29,5.1-3.76,1.73-.47,4.4-.87,8-1.2,3.6-.33,6.25-.72,7.95-1.15,1.7-.43,2.92-.9,3.65-1.4.73-.5,1.1-1.35,1.1-2.55l-.1-9.12c0-2.6-.33-4.48-.99-5.61-.66-1.14-2.05-1.7-4.16-1.7-1.32,0-2.43.3-3.32.9-.89.6-1.34,1.37-1.34,2.31,0,.74.71,1.66,2.13,2.76,1.42,1.11,2.13,2.76,2.13,4.98,0,2.08-.92,3.92-2.76,5.53s-4.83,2.41-8.98,2.41c-2.28,0-4.26-.62-5.97-1.86-1.71-1.24-2.56-2.9-2.56-4.97,0-4.15,2.32-7.47,6.97-9.94,4.64-2.48,10.17-3.72,16.59-3.72,5.41,0,10.39,1.12,14.93,3.37,4.54,2.24,6.82,5.71,6.82,10.4v23.01c0,2.14.2,3.79.59,4.92.33,1.21,1.15,1.81,2.47,1.81Zm-22.46-3v-19.1l-.3-.1c-.59.8-1.7,1.55-3.31,2.25-1.62.7-2.74,1.38-3.36,2.05-.63.67-1.12,1.95-1.48,3.85s-.54,3.85-.54,5.85c0,3,.23,5.4.69,7.2.46,1.8,1.52,2.7,3.17,2.7,1.25,0,2.36-.5,3.31-1.5s1.57-2.07,1.83-3.2Z"/>
      <path class="cls-12" d="m790.48,131.57v-1.6l2.7-.1c1.93-.2,3.1-.67,3.5-1.4.4-.73.6-2.33.6-4.8l.1-4.6v-23.9l-.1-4.1c-.13-1.6-.33-2.8-.6-3.6-.27-.8-1.47-1.3-3.6-1.5l-2.6-.2v-1.6h26v8.4c.46-1.2,1.44-3,2.94-5.4s4.99-3.6,10.46-3.6c3.2,0,5.92,1.12,8.15,3.35,2.23,2.23,3.35,4.88,3.35,7.95s-1.05,5.62-3.15,7.65c-2.1,2.03-4.68,3.05-7.75,3.05-2.53,0-4.72-.88-6.55-2.65-1.83-1.77-2.75-3.78-2.75-6.05,0-1.67.3-3.2.9-4.6.67-1.27,1.33-2.57,2-3.9-.33-.47-.67-.7-1-.7-1.72,0-3.22,1.03-4.49,3.1-1.27,2.07-1.91,4-1.91,5.8v23.1l.1,5c0,1.87.23,3.13.69,3.8.46.67,1.61,1.1,3.45,1.3l2.96.2v1.6h-33.4Z"/>
      <path class="cls-12" d="m876.78,83.87v-12.8l-.2-4.6c0-2.2-.33-3.67-.99-4.4-.66-.73-2.08-1.23-4.26-1.5l-4.66-.3v-1.6h29.4v61.9l.1,4.1c0,1.8.32,3.05.95,3.75.63.7,1.85,1.15,3.65,1.35l3.2.2v1.6h-27v-5c-.73,1.33-1.92,2.67-3.55,4-1.63,1.33-4.72,2-9.25,2-6.4,0-11.6-2.23-15.6-6.7-4-4.47-6-10.53-6-18.2s2-13.33,6-17.8c4-4.47,9.2-6.7,15.6-6.7,4.67,0,7.77.63,9.3,1.9,1.53,1.27,2.67,2.6,3.4,4l-.1-5.2Zm-.3,7.2c-.27-1.67-1-2.93-2.2-3.8-1.2-.87-2.6-1.3-4.2-1.3-2.07,0-3.62.98-4.65,2.95-1.03,1.97-1.7,4.2-2,6.7-.3,2.5-.48,4.77-.55,6.8-.07,2.03-.1,3.92-.1,5.65v4.5c0,1.27.15,3.47.45,6.6.3,3.13.96,5.7,2,7.7,1.03,2,2.62,3,4.75,3,3.67,0,5.8-1.77,6.4-5.3.13-1.53.23-4.25.3-8.15s.1-6.82.1-8.75v-9.2c0-2.8-.1-5.27-.3-7.4Z"/>
      <path class="cls-12" d="m936.48,131.57h-32.51v-1.6l2.4-.1c1.93-.2,3.1-.67,3.5-1.4.4-.73.6-2.33.6-4.8l.1-4.6v-23.9l-.1-4.1c-.13-1.6-.33-2.8-.6-3.6-.27-.8-1.47-1.3-3.6-1.5l-2.7-.2v-1.6h26.3v34.9l.1,4.6c0,2.4.2,3.98.6,4.75.4.77,1.57,1.25,3.5,1.45l2.4.1v1.6Zm-26.2-64.1c0-2.6.96-4.82,2.86-6.65,1.91-1.83,4.21-2.75,6.89-2.75s5.08.88,6.98,2.65c1.91,1.77,2.87,4.02,2.87,6.75s-.96,4.92-2.87,6.75c-1.91,1.83-4.24,2.75-6.98,2.75s-4.98-.92-6.89-2.75c-1.91-1.83-2.86-4.08-2.86-6.75Z"/>
      <path class="cls-12" d="m990.24,126.67c1.58,0,2.68-.99,3.3-2.96.62-1.97.94-4.34.94-7.08h1.4c0,5.88-1.05,9.76-3.15,11.64-2.1,1.87-3.98,3.06-5.65,3.56-1.67.5-3.8.75-6.4.75-2.87,0-5.42-.73-7.65-2.2-2.23-1.47-3.58-3.44-4.05-5.91-1.07,2.7-2.85,4.73-5.35,6.08s-5.75,2.03-9.75,2.03c-4.27,0-7.73-1.17-10.4-3.51-2.67-2.34-4-5.58-4-9.72,0-3.34.83-6.03,2.5-8.07,1.67-2.04,3.37-3.29,5.1-3.76,1.73-.47,4.4-.87,8-1.2,3.6-.33,6.25-.72,7.95-1.15,1.7-.43,2.92-.9,3.65-1.4.73-.5,1.1-1.35,1.1-2.55l-.1-9.12c0-2.6-.33-4.48-.99-5.61-.66-1.14-2.05-1.7-4.16-1.7-1.32,0-2.43.3-3.32.9-.89.6-1.34,1.37-1.34,2.31,0,.74.71,1.66,2.13,2.76,1.42,1.11,2.13,2.76,2.13,4.98,0,2.08-.92,3.92-2.76,5.53s-4.83,2.41-8.98,2.41c-2.28,0-4.26-.62-5.97-1.86-1.71-1.24-2.56-2.9-2.56-4.97,0-4.15,2.32-7.47,6.97-9.94,4.64-2.48,10.17-3.72,16.59-3.72,5.41,0,10.39,1.12,14.93,3.37,4.54,2.24,6.82,5.71,6.82,10.4v23.01c0,2.14.2,3.79.59,4.92.33,1.21,1.15,1.81,2.47,1.81Zm-22.46-3v-19.1l-.3-.1c-.59.8-1.7,1.55-3.31,2.25-1.62.7-2.74,1.38-3.36,2.05-.63.67-1.12,1.95-1.48,3.85s-.54,3.85-.54,5.85c0,3,.23,5.4.69,7.2.46,1.8,1.52,2.7,3.17,2.7,1.25,0,2.36-.5,3.31-1.5s1.57-2.07,1.83-3.2Z"/>
      <path class="cls-12" d="m1034.28,98.67l-.1-4.1c0-5.2-1.82-7.8-5.46-7.8-2.32,0-3.95.73-4.91,2.2-.96,1.47-1.74,2.97-2.33,4.5v25.6l.1,4.6c0,2.73.25,4.47.74,5.2.5.73,1.97,1.1,4.42,1.1v1.6h-31.16v-1.6l2.4-.1c1.93-.2,3.1-.67,3.5-1.4.4-.73.6-2.33.6-4.8l.1-4.6v-23.9l-.1-4.1c-.13-1.6-.33-2.8-.6-3.6-.27-.8-1.47-1.3-3.6-1.5l-2.3-.2v-1.6h25.5v7.5c.73-1.87,2.05-3.75,3.95-5.65,1.9-1.9,5.58-2.85,11.05-2.85,4.73,0,8.83,1.33,12.3,4,3.47,2.67,5.2,5.8,5.2,9.4v22.5l.1,4.6c0,2.4.2,3.98.6,4.75.4.77,1.57,1.25,3.5,1.45l2.2.1v1.6h-30.96v-1.6c2.38,0,3.84-.38,4.37-1.15.53-.77.79-2.48.79-5.15l.1-4.6v-20.4Z"/>
      <path class="cls-12" d="m1170.78,95.17c0,10.67-4.03,19.6-12.1,26.8-8.07,7.2-17.6,10.8-28.6,10.8s-21.05-3.55-28.75-10.65c-7.7-7.1-11.55-16.08-11.55-26.95s3.93-20.27,11.8-27.2c7.87-6.93,17.37-10.4,28.5-10.4s20.7,3.52,28.7,10.55c8,7.03,12,16.05,12,27.05Zm-30.4-27.3c-2-5.6-5.43-8.4-10.3-8.4-2.47,0-4.6.8-6.4,2.4-1.8,1.6-3.18,3.92-4.15,6.95-.97,3.03-1.67,6.93-2.1,11.7-.43,4.77-.65,9.65-.65,14.65,0,6.87.27,12.47.8,16.8.53,4.33,1.53,8.57,3,12.7,1.47,4.13,4.63,6.2,9.5,6.2,2.47,0,4.6-.8,6.4-2.4s3.18-3.92,4.15-6.95c.96-3.03,1.67-6.93,2.1-11.7.43-4.77.65-9.65.65-14.65,0-5.93-.2-11.08-.6-15.45-.4-4.37-1.2-8.32-2.4-11.85Z"/>
      <path class="cls-12" d="m1208.5,69.57c0-1.73.66-3.3,1.99-4.7,1.33-1.4,1.99-2.43,1.99-3.1,0-.8-.28-1.4-.84-1.8-.56-.4-1.4-.6-2.52-.6-2.31,0-3.98,1.35-5,4.05-1.02,2.7-1.54,6.12-1.54,10.25l-.2,10.5h11.3l-1.7,3.8h-9.6v31.1l.1,4.6c0,2.4.2,3.97.59,4.7.39.73,1.55,1.23,3.46,1.5l3.55.1v1.6h-33.6v-1.6l2.4-.1c1.93-.2,3.1-.67,3.5-1.4.4-.73.6-2.33.6-4.8l.1-4.6v-31.1h-7.3l1.6-3.8h5.7c0-1.33.05-2.75.15-4.25.1-1.5.15-2.58.15-3.25,0-4.73,2.72-9.08,8.15-13.05,5.43-3.97,11.58-5.95,18.45-5.95,4.56,0,8.57.95,12.02,2.85,3.45,1.9,5.18,4.72,5.18,8.45,0,2.4-.99,4.42-2.96,6.05-1.98,1.63-4.17,2.45-6.58,2.45s-4.54-.72-6.38-2.15c-1.84-1.43-2.76-3.35-2.76-5.75Z"/>
      <path class="cls-12" d="m1262.18,58.67h79v32.1h-1.7c-1.8-4.07-3.95-8.38-6.45-12.95-2.5-4.57-5.12-8.55-7.85-11.95-2.73-3.4-5.13-5.1-7.2-5.1l-4-.2v58.3l.2,4.6c.2,2.13.65,3.62,1.35,4.45.7.83,1.78,1.33,3.25,1.5,1.47.17,2.8.28,4,.35,1.2.07,2.27.13,3.2.2v1.6h-48.9v-1.6l6.6-.3c2-.2,3.37-.7,4.1-1.5.73-.8,1.2-2.3,1.4-4.5l.2-4.6v-58.5l-3.9.2c-2.13,0-4.5,1.58-7.1,4.75-2.6,3.17-5.22,7.17-7.85,12-2.63,4.83-4.85,9.25-6.65,13.25h-1.7v-32.1Z"/>
      <path class="cls-12" d="m1367.77,91.57c1.26-2.67,3.01-4.73,5.26-6.2,2.25-1.47,5.46-2.2,9.64-2.2,4.62,0,8.71,1.25,12.27,3.75,3.55,2.5,5.33,5.72,5.33,9.65v22.5l.1,4.6c0,2.4.2,3.98.6,4.75.4.77,1.57,1.25,3.5,1.45l2.2.1v1.6h-30.96v-1.6l1.29-.1c1.78,0,2.88-.4,3.27-1.2.4-.8.59-2.47.59-5l.1-4.6v-20.4l-.1-4.1c0-2.8-.46-4.8-1.39-6-.93-1.2-2.32-1.8-4.17-1.8-2.25,0-3.85.73-4.81,2.2-.96,1.47-1.74,2.97-2.33,4.5v25.6l.1,4.6c0,2.6.18,4.28.54,5.05.36.77,1.47,1.15,3.32,1.15l1.29.1v1.6h-31.06v-1.6l2.3-.1c1.93-.2,3.1-.67,3.5-1.4.4-.73.6-2.33.6-4.8l.1-4.6v-49.4l-.1-4.1c0-1.8-.28-3.05-.85-3.75-.57-.7-1.79-1.15-3.65-1.35l-3.8-.2v-1.6h27.7v23.7c0,2.2-.04,4.05-.1,5.55-.07,1.5-.17,2.72-.3,3.65Z"/>
      <path class="cls-12" d="m1458.87,116.57c-1.87,5-4.88,8.92-9.02,11.75-4.14,2.83-9.02,4.25-14.63,4.25-7.88,0-14.36-2.18-19.44-6.55-5.08-4.37-7.61-10.42-7.61-18.15,0-7.2,2.62-13.12,7.87-17.75,5.24-4.63,11.54-6.95,18.89-6.95s13.56,2.17,17.63,6.5c4.08,4.33,6.11,9.63,6.11,15.9h-30.7c0,2.4.18,4.85.55,7.35.36,2.5,1.06,4.92,2.09,7.25,1.02,2.33,2.48,4.22,4.37,5.65,1.89,1.43,4.25,2.15,7.1,2.15,4.09,0,7.33-1.15,9.71-3.45,2.38-2.3,4.21-5.18,5.48-8.65l1.61.7Zm-17.7-13c-.07-.73-.12-1.6-.15-2.6-.03-1-.05-2.27-.05-3.8,0-4.07-.5-7.15-1.49-9.25-.99-2.1-2.71-3.15-5.16-3.15-2.12,0-3.59,1.02-4.42,3.05-.83,2.03-1.41,5.15-1.74,9.35l-.2,6.4h13.2Z"/>
      <path class="cls-12" d="m1542.97,77.47l-4.1-10.6c-.93-1.93-1.72-3.37-2.35-4.3-.63-.93-1.98-1.57-4.05-1.9l-3.1-.4v-1.6h44v1.6h-1.4c-.47,0-1.33.12-2.6.35-1.27.23-2.33.52-3.2.85-.87.33-1.3,1.33-1.3,3,0,1.53.45,3.67,1.35,6.4.9,2.73,1.95,5.78,3.15,9.15,1.2,3.37,2.77,7.72,4.7,13.05,1.93,5.33,3.33,9.2,4.2,11.6.87-2.27,1.92-5,3.15-8.2,1.23-3.2,2.93-7.72,5.1-13.55,2.17-5.83,3.58-9.83,4.25-12,.67-2.17,1-4.05,1-5.65s-.4-2.63-1.2-3.3c-.8-.67-1.77-1.08-2.9-1.25-1.13-.17-2.2-.27-3.2-.3-1-.03-1.93-.08-2.8-.15v-1.6h25.8v1.6l-4.4.5c-2.14.33-3.8.93-5,1.8-1.2.87-2.27,2.4-3.2,4.6l-3,7.7-21.42,57.1h-8.01l-18.21-51.6-19.12,51.6h-8.01l-20.42-57.3-3.1-7.8c-1-2.13-1.92-3.65-2.75-4.55-.83-.9-2.08-1.45-3.75-1.65l-3.5-.4v-1.6h43.2v1.6l-3.2.3c-1.54.2-2.62.52-3.25.95-.63.43-.95,1.25-.95,2.45,0,1.47.55,3.82,1.65,7.05,1.1,3.23,2.48,7.15,4.15,11.75,1.67,4.6,3.17,8.67,4.5,12.2,1.33,3.53,2.43,6.47,3.3,8.8l10-26.3Z"/>
      <path class="cls-12" d="m1636.57,131.57h-32.51v-1.6l2.4-.1c1.93-.2,3.1-.67,3.5-1.4.4-.73.6-2.33.6-4.8l.1-4.6v-23.9l-.1-4.1c-.13-1.6-.33-2.8-.6-3.6-.27-.8-1.47-1.3-3.6-1.5l-2.7-.2v-1.6h26.3v34.9l.1,4.6c0,2.4.2,3.98.6,4.75.4.77,1.57,1.25,3.5,1.45l2.4.1v1.6Zm-26.2-64.1c0-2.6.96-4.82,2.86-6.65,1.91-1.83,4.21-2.75,6.89-2.75s5.08.88,6.98,2.65c1.91,1.77,2.87,4.02,2.87,6.75s-.96,4.92-2.87,6.75c-1.91,1.83-4.24,2.75-6.98,2.75s-4.98-.92-6.89-2.75c-1.91-1.83-2.86-4.08-2.86-6.75Z"/>
      <path class="cls-12" d="m1670.57,131.57h-32.53v-1.6l2.41-.1c1.94-.2,3.12-.67,3.52-1.4.4-.73.6-2.33.6-4.8l.1-4.6v-49.4l-.1-4.1c-.13-1.6-.33-2.8-.6-3.6-.27-.8-1.47-1.3-3.6-1.5l-3.4-.2v-1.6h27v60.4l.1,4.6c0,2.4.2,3.98.6,4.75.4.77,1.57,1.25,3.5,1.45l2.4.1v1.6Z"/>
      <path class="cls-12" d="m1706.67,83.87v-12.8l-.2-4.6c0-2.2-.33-3.67-.99-4.4-.66-.73-2.08-1.23-4.26-1.5l-4.66-.3v-1.6h29.4v61.9l.1,4.1c0,1.8.32,3.05.95,3.75.63.7,1.85,1.15,3.65,1.35l3.2.2v1.6h-27v-5c-.73,1.33-1.92,2.67-3.55,4-1.63,1.33-4.72,2-9.25,2-6.4,0-11.6-2.23-15.6-6.7-4-4.47-6-10.53-6-18.2s2-13.33,6-17.8c4-4.47,9.2-6.7,15.6-6.7,4.67,0,7.77.63,9.3,1.9,1.53,1.27,2.67,2.6,3.4,4l-.1-5.2Zm-.3,7.2c-.27-1.67-1-2.93-2.2-3.8-1.2-.87-2.6-1.3-4.2-1.3-2.07,0-3.62.98-4.65,2.95-1.03,1.97-1.7,4.2-2,6.7-.3,2.5-.48,4.77-.55,6.8-.07,2.03-.1,3.92-.1,5.65v4.5c0,1.27.15,3.47.45,6.6.3,3.13.96,5.7,2,7.7,1.03,2,2.62,3,4.75,3,3.67,0,5.8-1.77,6.4-5.3.13-1.53.23-4.25.3-8.15s.1-6.82.1-8.75v-9.2c0-2.8-.1-5.27-.3-7.4Z"/>
    </g>
    <polygon class="cls-10" points="1032.43 776.06 1032.43 829.05 1094.42 802.56 1032.43 776.06"/>
    <g>
      <path class="cls-8" d="m1293.99,440.16c-18.36-17.32-28.43-23.98-39.94,0-11.51,23.98-4.32,36.57,0,42.61,4.32,6.04,22.13,10.29,22.13,10.29,0,0,9.83-8.15,10.87-11.06,1.04-2.92,6.93-41.84,6.93-41.84Z"/>
      <path class="cls-8" d="m1294.71,434.91s-18.12-17.16-26.27-11.06-24.9,26.6-20.6,41.29c4.3,14.7,21.15,30.78,28.75,25.68s9.17,1.62,12.74-16.57c3.57-18.18,5.38-39.35,5.38-39.35Z"/>
      <path class="cls-25" d="m1225.69,280.63l19.01,17.07-8.27,39.78-5.33-3.27s12.41-25.43,8.09-31.47c-4.32-6.04.11-16.08-9.59-8.56-9.7,7.52-8.8,4.56-8.8,4.56l4.89-18.11Z"/>
      <path class="cls-8" d="m1245.91,207.31s-21.58-12.59-30.33-10.7c-8.75,1.89,29.37,13.22,30.33,10.7Z"/>
      <path class="cls-25" d="m1177.62,372.77s-12.95,1.26-6.23-6.55c6.71-7.81-3.84-18.38-3.84-18.38,0,0-.72-2.27,5.03-5.79s38.84-125.14,38.84-125.14v-5.79s-5.62-3.63,2.88-8.79,1.21-5.44,1.21-5.44l31.63,10.7-15.82,64.21s-12.25,26.08-14.37,43.19c-.97,7.78.16,13.71,5.48,14.5,17.02,2.52,15.12,16.09,15.12,16.09l39.8,29.96-19.66,40.54-46.27-38.02s-19.66,3.27-17.98,14.35c1.68,11.08-.96,1.26-.96,1.26l-3.12,1.01s-5.03-22.91-11.75-21.91Z"/>
      <path class="cls-25" d="m1230.08,319.36c5.51,5.04-13.12-4.36-13.12-4.36l-.28,5.84,13.4-1.48Z"/>
    </g>
    <g>
      <g>
        <g>
          <path class="cls-23" d="m1296.66,999.67c2.2,34.5,52.6,59.36,112.58,55.54,40.25-2.57,74.59-17.4,92.15-37.31,8.61-9.75,13.18-20.73,12.46-32.07-1.01-15.84-12.19-29.65-29.79-39.59-20.72-11.7-50.36-18.02-82.79-15.95-59.98,3.82-106.81,34.89-104.61,69.38Z"/>
          <polygon class="cls-23" points="1559.99 986.41 1474.94 944.07 1487.94 1028.12 1559.99 986.41"/>
        </g>
        <polygon class="cls-4" points="1323.6 1082.47 1100.31 933.24 1026.6 883.97 1370.68 722.14 1323.6 1082.47"/>
        <polygon class="cls-10" points="1073.82 912.56 1316.12 782.93 1283.62 1053.56 1073.82 912.56"/>
        <g>
          <polygon class="cls-24" points="1196.36 727.67 1383.38 865.74 1388.97 655.6 1196.36 727.67"/>
          <polygon class="cls-6" points="1353.53 843.68 1384.64 831.05 1383.38 865.74 1353.53 843.68"/>
          <ellipse class="cls-6" cx="1289.21" cy="749.22" rx="7.11" ry="16.15" transform="translate(-199.81 670.35) rotate(-27.13)"/>
          <ellipse class="cls-6" cx="1340.65" cy="728.69" rx="7.11" ry="16.15" transform="translate(-184.79 691.55) rotate(-27.13)"/>
        </g>
        <ellipse class="cls-4" cx="1049.3" cy="872.21" rx="20.96" ry="40.94" transform="translate(-139.68 1541.62) rotate(-69.11)"/>
        <ellipse class="cls-4" cx="1326.62" cy="1058.57" rx="20.96" ry="40.94" transform="translate(-302.1 1535.8) rotate(-54.92)"/>
        <polygon class="cls-24" points="1330.83 681.55 1341.4 604.65 1386.54 658.07 1330.83 681.55"/>
        <polygon class="cls-24" points="1251.05 709.75 1206.26 664.41 1199.36 726.81 1251.05 709.75"/>
        <polygon class="cls-10" points="1209.77 718.99 1234.68 710.71 1210.76 679.34 1209.77 718.99"/>
        <polyline class="cls-10" points="1345.24 622.48 1344.25 662.13 1369.16 653.85"/>
        <polygon class="cls-10" points="1487.93 948.56 1466.54 963.07 1488.98 969.02 1470.83 982.89 1496.39 995.24 1481.64 1009.4 1504.56 1018.49 1559.99 986.41 1487.93 948.56"/>
      </g>
      <line class="cls-34" x1="1325.15" y1="702.59" x2="1353.69" y2="707.69"/>
      <path class="cls-17" d="m1357.19,744.02s.55,20.81,7.94,26.26c7.38,5.46,14.43-1.68,14.35-5.44,0,0,.88-5.66-3.62-10.24-4.49-4.58-18.67-10.58-18.67-10.58Z"/>
    </g>
    <ellipse class="cls-16" cx="644.53" cy="719.12" rx="17.58" ry="1.9"/>
    <g>
      <g>
        <g>
          <ellipse class="cls-1" cx="862.34" cy="886.76" rx="35.22" ry="35.31" transform="translate(-335.85 579.66) rotate(-31.42)"/>
          <line class="cls-8" x1="682.49" y1="1086.19" x2="907.14" y2="938.15"/>
          <line class="cls-8" x1="668.08" y1="770.42" x2="907.14" y2="938.15"/>
          <ellipse class="cls-10" cx="635.86" cy="771.43" rx="83.61" ry="83.84" transform="translate(-308.94 444.67) rotate(-31.42)"/>
          <path class="cls-10" d="m575.06,713.71s-56.79-121.81-96.5-83.35c-39.71,38.45,76.24,120.14,76.24,120.14l20.26-36.79Z"/>
          <path class="cls-10" d="m617.2,694.77s-82.47-106.12-30.13-123.91c52.34-17.79,72.11,122.66,72.11,122.66l-41.98,1.24Z"/>
          <path class="cls-10" d="m604.98,847.57s36.43,235.34,57.59,230.99c21.16-4.35,229.1-124.58,226.81-138.58s-150.9-192.93-179.7-179.86c-28.8,13.07-104.69,87.45-104.69,87.45Z"/>
          <ellipse class="cls-10" cx="881.29" cy="934.18" rx="40.97" ry="21.03" transform="translate(-357.8 596.5) rotate(-31.42)"/>
          <ellipse class="cls-10" cx="668.31" cy="1064.3" rx="40.97" ry="21.03" transform="translate(-456.88 504.54) rotate(-31.42)"/>
          <ellipse class="cls-1" cx="520.77" cy="682.69" rx="18.88" ry="52.9" transform="translate(-311.78 472.62) rotate(-38.5)"/>
          <ellipse class="cls-1" cx="612.12" cy="631.66" rx="18.88" ry="52.89" transform="translate(-169.97 229.14) rotate(-18.67)"/>
          <ellipse class="cls-6" cx="651.59" cy="741.11" rx="7.11" ry="16.2" transform="translate(-290.83 448.42) rotate(-31.42)"/>
          <ellipse class="cls-6" cx="606.36" cy="768.75" rx="7.11" ry="16.2" transform="translate(-311.87 428.89) rotate(-31.42)"/>
          <g>
            <ellipse class="cls-6" cx="647.08" cy="785.03" rx="15.01" ry="5.71" transform="translate(-314.39 452.51) rotate(-31.42)"/>
            <ellipse class="cls-6" cx="650.06" cy="789.9" rx="5.63" ry="7.09" transform="translate(-316.49 454.78) rotate(-31.42)"/>
          </g>
          <line class="cls-34" x1="1274.16" y1="715.28" x2="1265.68" y2="743"/>
          <path class="cls-1" d="m646.83,887.74s44.11,76.84,61.22,67.68c17.11-9.16-26.19-84.68-26.19-84.68"/>
          <path class="cls-1" d="m732.03,835.69s48.25,74.32,32.29,85.36c-15.96,11.04-63.4-61.95-63.4-61.95"/>
        </g>
        <path class="cls-17" d="m613.34,791.93s-6.13,14.41-3.39,21c2.74,6.59,9.19,4.45,10.3,1.86,0,0,2.28-3.52,1.01-8.39s-7.92-14.47-7.92-14.47Z"/>
      </g>
      <ellipse class="cls-16" cx="583.16" cy="754.67" rx="17.58" ry="1.9" transform="translate(-369.56 798.6) rotate(-54.95)"/>
      <path class="cls-16" d="m659.59,719.38c0,1.05-7.87,1.9-17.58,1.9-9.71,0-17.58-.85-17.58-1.9,0-1.05,7.87-1.9,17.58-1.9s17.58.85,17.58,1.9Z"/>
    </g>
  </g>
  <g id="Layer_2" data-name="Layer 2">
    <path class="cls-15" d="m1021.7,184.8s-21.27-13.74-44.27,11.26-24,66-24,66c0,0,4,20-7,28s-32,30-39,33-4,61-11,68-36,15-39,28-1,34-6,53-21.78,64-61.39,75,3.39,88-8.61,92l11-17-10,49,21-29-14,33s2,24,8,26-1-19-1-19c0,0,17-15,17-21s14-24,14-24c0,0-13,109,32,121l-16-30,3-31s56.71,30,53.35,61,10.65,20,10.65,20l-8-16,3.04-16.22,2.96-15.78s1-28,9-43,4-23,4-23c0,0-8,64,0,83s17,19,17,19l-5-54s19,20,17,31-5,29-10,31,24,2,39-17l-21,27s34-24,36-32,32.27,26.62,32.27,26.62c0,0-17.27-58.62-.27-15.62s10-18,10-18c0,0,1,16,11,26s-5-20-5-20l8.44-16.4s19.56,35.4,27.56,36.4-8-20-8-20l13-24s17,46,33,38c0,0-11-1-16-28s16,9.52,16,9.52l9-8.52,12,25,14,17s17,11,27,13c0,0-18-3-24-29s13-15,13-15c0,0,45,25,64,3,0,0-20,8-30-8s16-11,16-11c0,0,22,4,28-3s-22,0-22,0l22.84-63.27,4.16,32.27,12-43s-2,15-2,23,27-38.11,2-64.55,15,33.55,15,33.55c0,0,7-75.17,0-88.59s-31-48.41-31-48.41c0,0,0,19,30,17,0,0-30.52-19.03-44.76-41.01-14.24-21.99-50.24-16.99-52.24-29.99s20-29,1-45-36-44-30-62-6-38-23-49-32-52-39-87-61.73-33.03-61.73-33.03l-5,3.77Z"/>
    <path class="cls-39" d="m984.43,351.06c-37,55-48.8,89.31-37.9,135.65s26.9,115.35,1.9,159.35,35,64,10,98l-25,34"/>
    <path class="cls-39" d="m973.36,290.2c-44.47,49.16-61.03,81.44-56.86,128.86,4.18,47.43,10.17,118-20.84,157.99-31.02,39.99,25.52,68.34-4.08,98.42l-29.59,30.09"/>
    <path class="cls-39" d="m1054.49,322.61c44.82,48.84,61.62,80.99,57.79,128.45-3.83,47.46-9.32,118.07,21.99,157.83,31.31,39.76-25.02,68.52,4.79,98.39l29.81,29.87"/>
    <g id="Layer_3" data-name="Layer 3">
      <path class="cls-14" d="m1033.22,359.2c1.27,14.7,10.48,38.15,51.18,57.05,2.69,1.25,4.99,3.23,6.59,5.73,11.27,17.5,55.7,89.25,50.45,125.08-5.25,35.85,156.48,421.92,197.18,518.3,4.35,10.3-3.22,21.7-14.4,21.7h-662.23c-12.08,0-19.6-13.13-13.48-23.54l275.42-468.85c3.12-5.31,2.83-11.95-.74-16.97l-21.58-30.34c-2.88-4.04-3.66-9.21-2.12-13.92,8.53-25.98,37.09-110.91,48.93-119.37,14-10,32.63,7.89,42.82-21.06,5.41-15.37,9.07-27.94,11.32-36.34.88-3.28,2.76-6.08,5.25-8.11,2.71-2.2,6.16-3.49,9.85-3.49h0c8.06,0,14.86,6.11,15.55,14.14Z"/>
      <circle class="cls-30" cx="1018.43" cy="291.06" r="57.5"/>
      <path class="cls-30" d="m1005.43,348.56s-10.82,54.22-22.66,58.11,81.02-2.05,81.02-2.05c0,0-28.74-19.06-32.8-56.06s-25.56,0-25.56,0Z"/>
      <path class="cls-3" d="m1021.63,212.49s-43.72,106.73-71.58,131.33c-27.86,24.6-40.56,30.24-44.4,55.97-3.84,25.73,8.47-40.32,8.47-40.32,0,0,36.62-117.45,107.51-146.98Z"/>
      <path class="cls-11" d="m1020.86,209.2s31.77,110.88,56.77,138.38c25,27.5,37,34.5,38,60.5s-4-41-4-41c0,0-23.54-120.75-90.77-157.88Z"/>
      <path class="cls-21" d="m1115.76,464.45s48.67-19.39,65.67-35.39,31-36,36-56-13-89,10-54,23.91,67.82,23.91,67.82c0,0-7.91,38.18-13.91,46.18s-34,34-46,42-55.02,36.78-55.02,36.78l-20.65-47.38Z"/>
      <ellipse class="cls-6" cx="1033.23" cy="291.14" rx="4.66" ry="10.83" transform="translate(-3.69 13.44) rotate(-.74)"/>
      <ellipse class="cls-6" cx="1001.37" cy="289.73" rx="4.66" ry="10.83" transform="translate(-3.68 13.03) rotate(-.74)"/>
      <line class="cls-38" x1="1005.43" y1="284.06" x2="1037.43" y2="285.06"/>
      <path class="cls-32" d="m983.39,279.06h26.04s.36,17.87-7.81,23.19c-8.17,5.32-19.78-.73-18.23-23.19Z"/>
      <path class="cls-32" d="m1022.52,279.56h26.04s.36,17.87-7.81,23.19c-8.17,5.32-19.78-.73-18.23-23.19Z"/>
      <path class="cls-20" d="m42.72,572.27c.29-3.14.51-6.27.67-9.38-.27,3.13-.5,6.26-.67,9.38Z"/>
      <path class="cls-20" d="m45.41,793.09c-.11,8.35-.29,16.71-.53,25.07.11-.24.23-.47.35-.71.1-8.12.16-16.24.18-24.36Z"/>
      <path class="cls-20" d="m45.71,847.25c-.07,1.21-.14,2.42-.22,3.64.08-.05.16-.1.24-.15.06-1.16.05-2.32-.02-3.49Z"/>
      <path class="cls-20" d="m44.7,590.72c.07-5.58-.06-11.09-.15-16.59-.04,5.52.03,11.05.15,16.59Z"/>
      <path class="cls-20" d="m123.21,534.42l-17.41-14.08s-28.39,5.37-59.8,13.36c-.2,3.2-.46,6.38-.75,9.55-.15,3.95-.26,7.9-.38,11.85.14-2,.31-4.01.55-6.04-.24,2.03-.42,4.04-.55,6.04-.15,5.01-.27,10.01-.37,15.01.01,1.34.03,2.68.05,4.02.05-7.08.29-14.12.87-21.07-.58,6.96-.82,14-.87,21.07.08,5.5.21,11.01.15,16.59.26,11.86.72,23.72.72,35.34,0-11.62-.47-23.48-.72-35.34-.03,2.76-.11,5.53-.28,8.34.16-2.8.24-5.58.28-8.34-.12-5.54-.19-11.07-.15-16.59-.02-1.34-.04-2.68-.05-4.02-.25,12.48-.37,24.96-.39,37.43,1.14,22.91,2.85,45.69.58,68.86.56,38.87,1.24,77.74.71,116.71-.02,8.12-.08,16.24-.18,24.36.07-.13.13-.27.2-.4-.07.13-.13.27-.2.4-.09,7.6-.24,15.2-.46,22.8.42,2.34.8,4.67.94,6.99.7-12.36.71-24.53.71-37.19,0,12.66-.02,24.83-.71,37.19.07,1.17.09,2.33.02,3.49,4.83-3.05,8.75-5.77,11.37-8,20.97-17.89,117.94-140.2,117.94-140.2l35.05-97.88-86.88-70.24Z"/>
      <path class="cls-20" d="m44.77,840.25c.22-7.6.37-15.2.46-22.8-.12.24-.24.47-.35.71,0,.23-.01.46-.02.69.2,4.34.12,8.73-.43,13.2.17-4.4.31-8.8.43-13.2,0-.2-.03-.39-.04-.59-3.24,7.16-1.4,14.59-.06,21.98Z"/>
      <path class="cls-20" d="m44.86,818.86c-.13,4.4-.27,8.8-.43,13.2.56-4.47.64-8.86.43-13.2Z"/>
      <path class="cls-24" d="m46.35,206.06c-.56,23.29,2.18,46.59-.7,69.88,20.92,51.81,55.84,114.55,109.09,143.71l29.76-40.87s-34.33-120.19-138.16-172.73Z"/>
      <ellipse class="cls-21" cx="192.4" cy="514.82" rx="75.74" ry="106.12" transform="translate(-318.23 311.57) rotate(-47.8)"/>
      <path class="cls-10" d="m48.74,221.65l29.12,17.64-6-19.19-25.53-13.36c-.21,9.68.14,19.35.41,29.03l13.96,10.61-11.96-24.73Z"/>
      <path class="cls-24" d="m285.64,536.06s72.35-37.4,57.91-64.45c-14.43-27.05-85.07-104.21-101.35-105.87-16.28-1.66-96.03,11.12-86.82,58.61,9.21,47.5,130.26,111.7,130.26,111.7Z"/>
      <path class="cls-21" d="m44.56,534.56c-.04.62-.07,1.23-.11,1.85,0,.45-.01.9-.01,1.35l.14-.05c0-1.05-.01-2.1-.02-3.15Z"/>
      <path class="cls-21" d="m44.37,537.78l.07-.02c0-.45,0-.9.01-1.35-.03.46-.06.91-.08,1.37Z"/>
      <path class="cls-21" d="m46.04,520.53c-.22-.03-.45-.05-.67-.08-.21,1.43-.26,2.91-.22,4.42.17-1.24.28-2.51.28-3.82,0,1.31-.11,2.58-.28,3.82,0,.36.02.72.04,1.08.14-.92.29-1.83.48-2.75.12-.89.24-1.78.37-2.67Z"/>
      <path class="cls-21" d="m45.19,525.96c.01.33.03.65.05.98.14-1.24.26-2.49.43-3.73-.19.92-.34,1.83-.48,2.75Z"/>
      <path class="cls-21" d="m46.04,520.53c-.14.89-.25,1.78-.37,2.67.05-.23.09-.46.14-.68.1-.66.21-1.32.34-1.97-.04,0-.07,0-.11-.01Z"/>
      <path class="cls-21" d="m45.67,523.21c-.17,1.24-.29,2.49-.43,3.73.02.39.05.79.08,1.18.07-1.87.21-3.75.49-5.6-.05.23-.09.46-.14.68Z"/>
      <path class="cls-21" d="m46.29,520.56v.03s0-.02,0-.03c0,0,0,0,0,0Z"/>
      <path class="cls-21" d="m46.43,521.06c0,5.48-.28,10.89-.68,16.26l35.04-11.81s-13.52-2.38-34.49-4.94c0,0,0,.02,0,.03-.23,4.19-.44,8.38-.63,12.57.06,1.42.07,2.83-.04,4.19l.12-.04c.4-5.36.68-10.78.68-16.26Z"/>
      <path class="cls-21" d="m45.67,533.16c-.06,1.41-.13,2.83-.19,4.24l.15-.05c.11-1.37.11-2.77.04-4.19Z"/>
      <path class="cls-21" d="m46.29,520.56s-.09-.01-.14-.02c-.13.65-.25,1.31-.34,1.97.14-.64.31-1.29.49-1.93v-.03Z"/>
      <path class="cls-21" d="m45.38,537.44l.1-.03c.06-1.41.13-2.83.19-4.24-.08-1.67-.23-3.36-.35-5.05-.11,3.14-.01,6.28.06,9.32Z"/>
      <path class="cls-21" d="m45.81,522.52c-.28,1.85-.42,3.72-.49,5.6.12,1.68.27,3.38.35,5.05.19-4.19.4-8.38.63-12.57-.17.64-.34,1.29-.49,1.93Z"/>
      <path class="cls-21" d="m194.71,647.61l-19.67,54.92-10.56,13.24,224.47-8.74s-166.77-64.76-194.25-59.42Z"/>
      <path class="cls-20" d="m42.72,572.27c.29-3.14.51-6.26.67-9.37-.27,3.13-.5,6.25-.67,9.37Z"/>
      <path class="cls-20" d="m44.77,840.23c-.09,3.3-.18,6.6-.31,9.9l1.14-.67c.05-.72.08-1.43.12-2.15-.14-2.35-.52-4.72-.95-7.09Z"/>
      <path class="cls-20" d="m45.6,849.46l.18-.1c0-.68-.02-1.36-.06-2.04-.04.72-.07,1.43-.12,2.15Z"/>
      <ellipse class="cls-7" cx="223.85" cy="540.79" rx="20.52" ry="10.51" transform="translate(-319.97 324.4) rotate(-45.82)"/>
      <ellipse class="cls-7" cx="174.03" cy="494.24" rx="20.52" ry="10.51" transform="translate(-301.68 274.57) rotate(-45.82)"/>
      <line class="cls-27" x1="256.77" y1="521.74" x2="216.5" y2="513.48"/>
      <line class="cls-27" x1="194.25" y1="463.32" x2="204.77" y2="502.52"/>
      <polygon class="cls-1" points="99.46 496.21 122.36 498.39 130.06 524.79 156.16 543.93 175.37 576.03 200.93 579.78 240.13 603.65 202.17 657.7 189.89 627.44 149.94 656.75 141.78 616.22 100.8 633.75 118.79 582.78 82.33 589.57 102.64 553.3 48.38 549.31 79.4 517.06 47.43 501.72 99.46 496.21"/>
      <path class="cls-1" d="m99.46,496.21s-3.13-5.37-.3-18.78c2.83-13.41,33.56,49.86,33.56,49.86"/>
      <path class="cls-1" d="m287.84,710.97s-44.41,56.4-39.29,60.85,65.36,29.03,67.09,27.23,8.47-87.85,8.47-87.85l-36.27-.23Z"/>
      <polygon class="cls-6" points="305.69 676.55 322.1 619.57 307.55 608.63 315.47 588.98 328.09 594.6 368.45 458.33 372.03 446.25 383.78 462.55 349.94 623.49 348.05 632.52 338.96 688.35 305.69 676.55"/>
      <path class="cls-28" d="m349.94,623.49s23.54,24.16,21.17,37.23c-2.38,13.06-29.09,8.79-29.21,9.57"/>
      <path class="cls-28" d="m345.42,648.66s7.36,8.22,14.7,3.11"/>
      <path class="cls-28" d="m372.03,446.25s14.28,4.28,11.76,16.3"/>
      <path class="cls-6" d="m109.82,661.78l32.47,30.34s-23.41,31.96-37.34,16.28c0,0-25.54-12.57,4.87-46.62Z"/>
      <g>
        <ellipse class="cls-22" cx="1849.28" cy="532.66" rx="78.4" ry="75.85" transform="translate(613.75 2008.13) rotate(-66.13)"/>
        <path class="cls-9" d="m1965.43,598.06c0-14-1-27,0-41,.02-.26.04-.53.05-.8-2.01-2.92-4.22-5.75-6.67-8.44-28.41-31.26-75.56-33.59-105.32-5.22-29.76,28.38-30.85,76.72-2.44,107.98,28.41,31.26,75.56,33.59,105.32,5.22,3.39-3.23,6.38-6.73,9.02-10.42-.93-15.77.03-31.55.03-47.32Z"/>
        <ellipse class="cls-1" cx="1910.61" cy="825.61" rx="41.15" ry="42.15"/>
        <line class="cls-8" x1="2191.43" y1="682.42" x2="1954.19" y2="893.65"/>
        <ellipse class="cls-10" cx="1852.57" cy="527.93" rx="97.68" ry="100.06"/>
        <line class="cls-8" x1="1841.26" y1="564.7" x2="1954.19" y2="893.65"/>
        <path class="cls-10" d="m1806.93,439.45s-118.9-104.39-63.16-137.8c55.73-33.4,110.89,126.25,110.89,126.25l-47.72,11.55Z"/>
        <path class="cls-10" d="m1772.35,481.9s-93.17-128.93-129.67-74.37c-36.51,54.56,115.02,122.31,115.02,122.31l14.65-47.94Z"/>
        <path class="cls-10" d="m1967.43,752.06c-1-35-1-71-2-106-1-16,0-32,0-48,0-14-1-27,0-41,.86-10.3-.49-21.33.38-31.84-11.22-5.33-17.95-8.45-17.95-8.45,0,0-107.51,63.55-131.29,92.52-23.78,28.97,130.3,257.37,145.3,264.49.94.45,2.6.08,4.9-1.01-.31-40.24,1.47-80.48.66-120.71Z"/>
        <path class="cls-10" d="m1967.05,827.28c-8.37,3.17-17.47,8.96-25.85,16.96-19.35,18.45-27.56,41.63-18.33,51.78,8.04,8.84,26.67,4.86,44.13-8.53-.45-20.07-.24-40.14.06-60.21Z"/>
        <ellipse class="cls-1" cx="1789.23" cy="367.01" rx="22.24" ry="62.63" transform="translate(113.22 1092.97) rotate(-35.01)"/>
        <ellipse class="cls-1" cx="1703.06" cy="455.83" rx="22.42" ry="62.12" transform="translate(351.23 1587.54) rotate(-54.92)"/>
        <ellipse class="cls-6" cx="1817.34" cy="528.01" rx="8.4" ry="19.13" transform="translate(112.6 1349.83) rotate(-41.94)"/>
        <ellipse class="cls-21" cx="1840.78" cy="522.05" rx="77.56" ry="63.89" transform="translate(195.79 1499.3) rotate(-46.55)"/>
        <ellipse class="cls-7" cx="1816.69" cy="539.79" rx="8.4" ry="19.13" transform="translate(104.56 1352.42) rotate(-41.94)"/>
        <ellipse class="cls-7" cx="1861.6" cy="496.97" rx="8.4" ry="19.13" transform="translate(144.69 1371.46) rotate(-41.94)"/>
        <line class="cls-27" x1="1783.73" y1="519.84" x2="1817.29" y2="515.46"/>
        <line class="cls-27" x1="1840.55" y1="465.65" x2="1833.89" y2="499.63"/>
        <path class="cls-34" d="m1853.43,533.56s10.55-2.15,12.07,2.66c1.52,4.8-10.58,13.43-10.58,13.43,0,0-5.98,2.37-7.1-7.81"/>
        <polygon class="cls-6" points="1943.23 674.68 1891.73 688.75 1884.08 676.24 1866.03 683.04 1869.3 693.88 1745.97 728.48 1735.04 731.55 1747.69 741.65 1891.58 712.66 1899.66 711.03 1949.24 703.25 1943.23 674.68"/>
        <path class="cls-21" d="m1965.43,598.06c0-.83-.01-1.65-.02-2.48l-16.46,28.49,1.67,1.83,14.39,7.51c-.11-11.79.42-23.57.42-35.36Z"/>
        <path class="cls-1" d="m1949.13,672.33l-2.39,31.39s8.44-1.22,19.72-2.9c-.2-13.86-.39-27.72-.69-41.47-9.32,7.12-16.64,12.98-16.64,12.98Z"/>
        <path class="cls-21" d="m1936.58,636.91l-1.67-1.83-41.36,21.65s53.05,50.23,73.27,68.41c-.08-4.3-.14-8.61-.21-12.92l-30.04-75.31Z"/>
        <path class="cls-28" d="m1915.66,720.68c-1.12,4.82-5.91-11.05-5.91-11.05"/>
        <path class="cls-28" d="m1931.5,706.04s-15.68,41.82-35.84,5.8"/>
      </g>
      <path class="cls-21" d="m900.45,535.99l-77.44,158.17s-23.94,36.4-1.5,27.64,108.92-137.81,108.92-137.81v-4.51l-29.98-43.5Z"/>
      <path class="cls-15" d="m939.44,428.49s12.19,40.58,34.91,22c22.71-18.58,30.76-17.6,23.65-26.4s-2.99,44.05,13.47,44.03c16.47-.02,34.05-15.67,26.8-35.23-7.25-19.56,8.97,46.01,33.79,35.23,24.82-10.78,23.34-45.08,23.34-45.08l-27.99-16.97-83.39,2s-15.19,5.3-36.59,3.82l-8,16.61Z"/>
      <polygon class="cls-15" points="1005.43 322.61 1028.57 322.61 1017.43 314.24 1005.43 322.61"/>
      <polyline class="cls-15" points="1031.14 322.61 1017 332.11 1005.43 322.61"/>
      <g>
        <ellipse class="cls-10" cx="1236.28" cy="581.79" rx="4.5" ry="4.43"/>
        <ellipse class="cls-10" cx="1242.28" cy="582.77" rx="4.5" ry="4.43"/>
        <ellipse class="cls-10" cx="1245.28" cy="586.71" rx="4.5" ry="4.43"/>
        <g>
          <ellipse class="cls-10" cx="1242.28" cy="592.62" rx="4.5" ry="4.43"/>
          <ellipse class="cls-10" cx="1234.49" cy="589.46" rx="4.56" ry="4.68" transform="translate(498.92 1742.88) rotate(-83)"/>
          <ellipse class="cls-26" cx="1239.03" cy="586.96" rx="4.25" ry="4.68"/>
        </g>
      </g>
    </g>
    <g>
      <circle class="cls-10" cx="875.93" cy="445.56" r="4.5"/>
      <circle class="cls-10" cx="881.93" cy="446.56" r="4.5"/>
      <circle class="cls-10" cx="884.93" cy="450.56" r="4.5"/>
      <g>
        <circle class="cls-10" cx="881.93" cy="456.56" r="4.5"/>
        <ellipse class="cls-10" cx="874.14" cy="453.35" rx="4.63" ry="4.69" transform="translate(204.78 1175.57) rotate(-74.59)"/>
        <ellipse class="cls-26" cx="878.68" cy="450.81" rx="4.25" ry="4.75"/>
      </g>
    </g>
    <g>
      <circle class="cls-10" cx="818.49" cy="566.45" r="4.5"/>
      <circle class="cls-10" cx="824.49" cy="567.45" r="4.5"/>
      <circle class="cls-10" cx="827.49" cy="571.45" r="4.5"/>
      <g>
        <circle class="cls-10" cx="824.49" cy="577.45" r="4.5"/>
        <ellipse class="cls-10" cx="816.7" cy="574.24" rx="4.63" ry="4.69" transform="translate(46.06 1208.96) rotate(-74.59)"/>
        <ellipse class="cls-26" cx="821.24" cy="571.7" rx="4.25" ry="4.75"/>
      </g>
    </g>
    <g>
      <circle class="cls-10" cx="1105.49" cy="306.45" r="4.5"/>
      <circle class="cls-10" cx="1111.49" cy="307.45" r="4.5"/>
      <circle class="cls-10" cx="1114.49" cy="311.45" r="4.5"/>
      <g>
        <circle class="cls-10" cx="1111.49" cy="317.45" r="4.5"/>
        <ellipse class="cls-10" cx="1103.7" cy="314.24" rx="4.63" ry="4.69" transform="translate(507.43 1294.74) rotate(-74.59)"/>
        <ellipse class="cls-26" cx="1108.24" cy="311.7" rx="4.25" ry="4.75"/>
      </g>
    </g>
    <g>
      <circle class="cls-10" cx="1179.55" cy="525.49" r="4.5"/>
      <circle class="cls-10" cx="1185.55" cy="526.49" r="4.5"/>
      <circle class="cls-10" cx="1188.55" cy="530.49" r="4.5"/>
      <g>
        <circle class="cls-10" cx="1185.55" cy="536.49" r="4.5"/>
        <ellipse class="cls-10" cx="1177.76" cy="533.29" rx="4.63" ry="4.69" transform="translate(350.65 1526.97) rotate(-74.59)"/>
        <ellipse class="cls-26" cx="1182.3" cy="530.74" rx="4.25" ry="4.75"/>
      </g>
    </g>
    <g>
      <circle class="cls-10" cx="1199.55" cy="664.49" r="4.5"/>
      <circle class="cls-10" cx="1205.55" cy="665.49" r="4.5"/>
      <circle class="cls-10" cx="1208.55" cy="669.49" r="4.5"/>
      <g>
        <circle class="cls-10" cx="1205.55" cy="675.49" r="4.5"/>
        <ellipse class="cls-10" cx="1197.76" cy="672.29" rx="4.63" ry="4.69" transform="translate(231.33 1648.3) rotate(-74.59)"/>
        <ellipse class="cls-26" cx="1202.3" cy="669.74" rx="4.25" ry="4.75"/>
      </g>
    </g>
    <g>
      <rect class="cls-37" x="870.43" y="716.06" width="296" height="125" rx="62.5" ry="62.5"/>
      <polygon class="cls-10" points="989.43 746.06 989.43 810.06 1057.43 778.06 989.43 746.06"/>
    </g>
    <path class="cls-31" d="m836.08,744.56c-1.66-.09-3.3-.21-4.94-.34"/>
    <g>
      <path class="cls-29" d="m1081.45,384.33s14.85-38.27-11.13-58.27,11.13,58.27,11.13,58.27Z"/>
      <path class="cls-35" d="m1061.09,322.79s22.84,36.77,20.84,63.77"/>
      <path class="cls-36" d="m1082.05,337.49c-3.88-7.07-13.74-3.24-13.74-3.24,0,0-5.65,6.31-4.52,10.81"/>
      <path class="cls-36" d="m1074.93,351.06s6.5-2.27,10.75,3.62"/>
      <polyline class="cls-36" points="1085.68 370.05 1080.3 364.13 1073.38 371.78"/>
      <path class="cls-36" d="m1074.01,352.65s-4.32,2.28-5.7,6.59"/>
    </g>
    <g>
      <path class="cls-29" d="m955.07,380.27s-14.85-38.27,11.13-58.27c25.98-20-11.13,58.27-11.13,58.27Z"/>
      <path class="cls-35" d="m975.43,318.73s-22.84,36.77-20.84,63.77"/>
      <path class="cls-36" d="m954.47,333.43c3.88-7.07,13.74-3.24,13.74-3.24,0,0,5.65,6.31,4.52,10.81"/>
      <path class="cls-36" d="m961.59,347s-6.5-2.27-10.75,3.62"/>
      <polyline class="cls-36" points="950.85 365.99 956.22 360.08 963.14 367.72"/>
      <path class="cls-36" d="m962.51,348.59s4.32,2.28,5.7,6.59"/>
    </g>
  </g>
</svg>