<?xml version="1.0" encoding="UTF-8"?>
<svg id="Layer_2" data-name="Layer 2" xmlns="http://www.w3.org/2000/svg" viewBox="0 0 271.15 426.57">
  <defs>
    <style>
      .cls-1 {
        fill: #3e8945;
        stroke-width: 4px;
      }

      .cls-1, .cls-2 {
        stroke: #000;
        stroke-miterlimit: 10;
      }

      .cls-2 {
        fill: #9b6a3d;
        stroke-width: 2px;
      }
    </style>
  </defs>
  <g id="Layer_3" data-name="Layer 3">
    <g>
      <path class="cls-1" d="m110.66,424.56S-22.99,408.41,6.16,222.08c0,0,1-14.04,11.05,4.93,0,0,17.59-87.75,24.62-87.75,0,0,4.89,24.5,14.5-14.57s27.7-55.69,27.7-55.69c0,0,2.51.54,3.52,8.04S102.12,29.32,140.81,3.04c0,0,32.66,79.91,56.78,90.63l2.01-12.33,28.14,65.96s-2.51-27.35,4.52-19.84,23.11,111.92,23.11,111.92c0,0,6.53-12.57,9.55-12.37s9.55,60.8-4.02,112.28-65.32,85.81-91.95,85.27c-26.63-.54-58.28,0-58.28,0Z"/>
      <path class="cls-2" d="m114.18,424.57s37.18-93.32-17.08-113.16c0,0-35.17-14.48-52.25-2.68v-10.19s37.4-6.44,45.08,0c7.68,6.44-19.85-26.28-19.85-26.28l3.92-5.36s51.25,54.7,54.77,51.48,11.45-34.88-29.64-64.89l-56.78-5.52v-8.59h33.16l-28.58-31.8,3.64-5,51.76,45.38-21.14-73.31v-6.44l50.6,104.58,3.8-85.27-37.98-50.95,4.71-5.36s30.55,39.15,33.27,42.37,2.81-50.95,0-50.95-22.9-21.99-22.9-21.99l2.01-8.04,22.97,24.13.77-42.9h9.92l-2.01,84.73,27.63-45.05,4.52,5.36-30.65,65.94s-7.03,60.72.5,64.69c7.54,3.98,53.76-83.97,53.76-83.97l4.52,8.04-25.62,44.18,38.19-6.31v10.63s-19.09-3.24-37.75,8.55c-17.65,11.15-34.93,37.35-35.11,37.88-15.39,44.82,4.52,57.38,4.52,57.38l43.21-83.66,8.04,1.07-27.63,60.31s45.72-34.57,62.3-30.28v10.73s-80.39,27.89-89.43,77.23c0,0,3.48,56.05,13.3,63.15l-46.46.14Z"/>
    </g>
  </g>
</svg>