<?xml version="1.0" encoding="UTF-8"?>
<svg id="Layer_2" data-name="Layer 2" xmlns="http://www.w3.org/2000/svg" viewBox="0 0 365.23 208.97">
  <defs>
    <style>
      .cls-1 {
        stroke: #009245;
      }

      .cls-1, .cls-2 {
        fill: none;
        stroke-miterlimit: 10;
      }

      .cls-3 {
        fill: #009245;
      }

      .cls-3, .cls-4, .cls-5, .cls-6 {
        stroke-width: 0px;
      }

      .cls-4 {
        fill: #47a052;
      }

      .cls-5 {
        fill: #3e8945;
      }

      .cls-6 {
        fill: #5da03f;
      }

      .cls-2 {
        stroke: #66a534;
      }
    </style>
  </defs>
  <g id="Layer_3" data-name="Layer 3">
    <g>
      <g>
        <path class="cls-4" d="m254.51,174.92l-236.42,2.87c-45.08-36.39,8.28-67.99,8.28-67.99-20.24-55.54,41.4-43.09,41.4-43.09,6.44-51.71,26.68-12.45,26.68-12.45,3.68-77.56,50.59-4.79,50.59-4.79,31.28-112.99,63.47,2.87,63.47,2.87,64.39-47.88,72.78-1.84,72.78-1.84,61.52-8.69,0,53.18,0,53.18,62.44-5.38,56.92,27.18,56.92,27.18,46.92,24.9,18.47,41.62,18.47,41.62l-102.18,2.43Z"/>
        <path class="cls-5" d="m60.36,177.28s-50.55,3.39-33.99-41.62,36.8-14.36,36.8-14.36c-29.44-74.69,21.16-44.05,21.16-44.05,30.36-43.09,53.85-6.22,53.85-6.22,33.54-33.99,34.82-14.68,34.82-14.68,42.88-9.73,44.72,4.63,44.72,4.63,56.11-14.36,34.96,24.9,34.96,24.9,80.03-20.11,28.63,43.69,28.63,43.69,54.16,3.23,45.89,28.13,45.89,28.13,3.68,20.11-28.69,16.19-28.69,16.19l-238.13,3.4Z"/>
        <path class="cls-6" d="m87.55,176.89s-28.07,5.69-28.07-15.38-.45-58.61,14.03-43.67,16.32,16.86,16.32,16.86c28.52-54.58,26.68-7.66,26.68-7.66,47.84-75.65,37.72-2.87,37.72-2.87,46.92-48.83,28.38,18.07,28.38,18.07,38.77.12,13.22,33.1,13.22,33.1l-108.29,1.55Z"/>
      </g>
      <path class="cls-3" d="m201.39,208.97c1.93,0,1.93-3,0-3s-1.93,3,0,3h0Z"/>
      <path class="cls-1" d="m137.58,151.58h1.56s8.17-6.71,4.92-15.39-22.73,8.68-22.73,8.68c0,0,.81-11.84-15.04-9.74-15.85,2.1,1.88,16.45,1.88,16.45,0,0-.84-.59-2.21-1.33-4.01-2.13-12.6-5.43-18.43,1.33-7.84,9.08,12.71,13.82,12.71,13.82"/>
      <path class="cls-2" d="m242.02,116.26l1.47,1.25s12.63.98,15.99-8.76-27.76-10.94-27.76-10.94c0,0,9.5-9.11-6.94-20s-10.38,15.05-10.38,15.05c0,0-.35-1.16-1.1-2.86-2.2-4.95-7.83-14.51-18.29-13.58-14.06,1.24,1.74,21.5,1.74,21.5"/>
    </g>
  </g>
</svg>