<?xml version="1.0" encoding="UTF-8"?>
<svg id="Layer_2" data-name="Layer 2" xmlns="http://www.w3.org/2000/svg" viewBox="0 0 523.58 409.51">
  <defs>
    <style>
      .cls-1, .cls-2, .cls-3, .cls-4, .cls-5 {
        stroke-width: 0px;
      }

      .cls-2 {
        fill: #fff;
      }

      .cls-3 {
        fill: #f55d14;
      }

      .cls-4 {
        fill: #d14e11;
      }

      .cls-5 {
        fill: #eb5713;
      }
    </style>
  </defs>
  <g id="Layer_2-2" data-name="Layer 2">
    <g>
      <g>
        <path class="cls-4" d="m315.71,348.97c21.62,26.97,77.16,18.35,124.04-19.25,31.47-25.23,51.04-57.11,53.97-83.5,1.44-12.93-1.12-24.54-8.23-33.41-9.93-12.38-27.01-17.26-47.13-15.28-23.68,2.34-51.57,14.2-76.92,34.53-46.88,37.6-67.36,89.94-45.73,116.9Z"/>
        <polygon class="cls-4" points="523.58 186.78 429.65 201.01 488.59 262.32 523.58 186.78"/>
      </g>
      <polygon class="cls-5" points="385.35 401.25 116.85 407.46 28.21 409.51 216.78 79.32 385.35 401.25"/>
      <polygon class="cls-2" points="83.29 405.77 207.06 160.42 336.01 400.57 83.29 405.77"/>
      <g>
        <polygon class="cls-3" points="77.3 184.03 309.7 189.53 193.5 14.35 77.3 184.03"/>
        <polygon class="cls-1" points="272.59 188.64 290.8 160.42 309.7 189.53 272.59 188.64"/>
        <ellipse class="cls-1" cx="157.49" cy="154.05" rx="7.11" ry="16.15" transform="translate(-52.22 221.56) rotate(-62.21)"/>
        <ellipse class="cls-1" cx="195.97" cy="101.94" rx="7.11" ry="16.15" transform="translate(14.42 227.78) rotate(-62.21)"/>
      </g>
      <ellipse class="cls-5" cx="40.03" cy="386.83" rx="40.94" ry="20.96" transform="translate(-93.64 21.63) rotate(-14.2)"/>
      <path class="cls-5" d="m374.08,400.92c-22.61,0-40.94-9.38-40.94-20.96,0-11.58,18.33-20.96,40.94-20.96,22.61,0,40.94,9.38,40.94,20.96,0,11.58-18.33,20.96-40.94,20.96Z"/>
      <polygon class="cls-3" points="160.84 69 125.29 0 192.93 17.77 160.84 69"/>
      <polygon class="cls-3" points="111.76 137.93 49.04 126.57 79.26 181.61 111.76 137.93"/>
      <polygon class="cls-2" points="83.29 169.22 98.92 148.13 61.31 136.2 83.29 169.22"/>
      <polyline class="cls-2" points="138.68 12.38 160.66 45.4 176.29 24.31"/>
      <polygon class="cls-2" points="442.86 197.22 433.69 221.39 455.48 213.36 448.6 235.15 476.61 230.56 472.67 250.62 496.66 244.89 523.58 186.78 442.86 197.22"/>
    </g>
  </g>
</svg>